<svg width="80" height="40" viewBox="0 0 80 40" fill="none" xmlns="http://www.w3.org/2000/svg">
<g clip-path="url(#clip0_2120_93)">
<path d="M69.6551 22.4999C69.7183 22.4999 69.7853 22.4989 69.8573 22.4967L71.508 27.4999L77.5111 27.4999L75.1637 20.8238C75.2864 20.7456 75.4085 20.6639 75.5305 20.5786C77.9762 18.8635 79.9437 15.9963 79.975 11.2026C80.0063 6.39003 78.042 3.39426 75.5405 1.72882C73.2175 0.181929 70.7036 0 69.6551 0H59.3442V4.99998H69.6551C70.2172 4.99998 71.6789 5.10763 72.9146 5.93038C73.9718 6.63456 75.1512 8.00304 75.1305 11.1689C75.1099 14.3537 73.908 15.6715 72.8075 16.4429C71.5512 17.3239 70.1096 17.4999 69.6551 17.4999H64.1884L64.1891 22.4999H69.6551Z" fill="#FF213C"/>
<path d="M56.9219 4.99998H41.1774V0H56.9219V4.99998Z" fill="#FF213C"/>
<path d="M47.0872 17.5H41.1774V22.5H47.0872C48.6219 22.5 49.9153 23.6819 50.1012 25.2541L50.1869 25.979C50.5428 28.988 53.0181 31.25 55.9553 31.25C59.1647 31.25 61.7664 28.5647 61.7664 25.2523V17.5H56.9219V25.2523C56.9219 25.8033 56.4891 26.25 55.9553 26.25C55.4667 26.25 55.0549 25.8737 54.9957 25.3731L54.9099 24.6483C54.4274 20.5676 51.0704 17.5 47.0872 17.5Z" fill="#FF213C"/>
<path d="M10.3198 17.5H15.7859L15.7865 22.5H10.3198C9.86535 22.5 8.42385 22.676 7.16739 23.5571C6.06734 24.3285 4.86548 25.6463 4.84474 28.8309C4.82413 31.9969 6.00319 33.3654 7.06084 34.0695C8.29653 34.8923 9.75781 34.9999 10.3198 34.9999H20.6309V39.9999H10.3198C9.27124 39.9999 6.75793 39.818 4.43464 38.2711C1.9333 36.6056 -0.030968 33.6099 0.000369791 28.7973C0.0315875 24.0036 1.99904 21.1364 4.44495 19.4213C6.73446 17.8159 9.21571 17.5 10.3198 17.5Z" fill="#FF213C"/>
<path d="M23.0532 40V35H38.7978V40H23.0532Z" fill="#FF213C"/>
<path d="M32.8879 22.5H38.7978V17.5H32.8879C31.3533 17.5 30.0599 16.3181 29.874 14.7459L29.7883 14.021C29.4324 11.0119 26.957 8.75 24.0199 8.75C20.8105 8.75 18.2087 11.4352 18.2087 14.7477V22.5H23.0532V14.7477C23.0532 14.1967 23.486 13.75 24.0199 13.75C24.5085 13.75 24.9203 14.1262 24.9794 14.6268L25.0652 15.3517C25.5478 19.4324 28.9048 22.5 32.8879 22.5Z" fill="#FF213C"/>
</g>
<defs>
<clipPath id="clip0_2120_93">
<rect width="80" height="40" fill="white"/>
</clipPath>
</defs>
</svg>
