<svg width="721" height="580" viewBox="0 0 721 580" fill="none" xmlns="http://www.w3.org/2000/svg">
<path d="M4.91707 62V11.4244H26.2712C26.7629 11.4244 27.4185 11.4478 28.2381 11.4946C29.081 11.518 29.8302 11.5883 30.4859 11.7054C33.5063 12.1737 35.9766 13.1688 37.8966 14.6907C39.84 16.2127 41.2683 18.1327 42.1815 20.4507C43.0946 22.7454 43.5512 25.3093 43.5512 28.1424C43.5512 30.9756 43.0829 33.5512 42.1463 35.8693C41.2332 38.1639 39.8049 40.0722 37.8615 41.5941C35.9415 43.1161 33.4829 44.1112 30.4859 44.5795C29.8302 44.6732 29.081 44.7434 28.2381 44.7902C27.3951 44.8371 26.7395 44.8605 26.2712 44.8605H14.4702V62H4.91707ZM14.4702 35.9395H25.8498C26.3415 35.9395 26.88 35.9161 27.4654 35.8693C28.0507 35.8224 28.5893 35.7288 29.081 35.5883C30.3688 35.2371 31.3639 34.6517 32.0663 33.8322C32.7688 32.9893 33.2488 32.0644 33.5063 31.0576C33.7873 30.0273 33.9278 29.0556 33.9278 28.1424C33.9278 27.2293 33.7873 26.2693 33.5063 25.2624C33.2488 24.2322 32.7688 23.3073 32.0663 22.4878C31.3639 21.6449 30.3688 21.0478 29.081 20.6966C28.5893 20.5561 28.0507 20.4624 27.4654 20.4156C26.88 20.3688 26.3415 20.3454 25.8498 20.3454H14.4702V35.9395ZM58.3299 63.0537C55.6138 63.0537 53.3074 62.5385 51.4109 61.5083C49.5377 60.4546 48.1094 59.0615 47.126 57.3288C46.166 55.5727 45.686 53.641 45.686 51.5337C45.686 49.7776 45.9552 48.1737 46.4938 46.7219C47.0323 45.2702 47.8987 43.9941 49.0928 42.8937C50.3104 41.7698 51.9377 40.8332 53.9748 40.0839C55.3796 39.5688 57.0538 39.1122 58.9972 38.7141C60.9406 38.3161 63.1416 37.9415 65.6001 37.5902C68.0587 37.2156 70.7631 36.8059 73.7133 36.361L70.2713 38.2576C70.2713 36.0098 69.7328 34.359 68.6557 33.3054C67.5787 32.2517 65.7757 31.7249 63.247 31.7249C61.8421 31.7249 60.3787 32.0644 58.8567 32.7434C57.3348 33.4224 56.2694 34.6283 55.6606 36.361L47.0206 33.6215C47.9806 30.4839 49.7835 27.9317 52.4294 25.9649C55.0752 23.998 58.6811 23.0146 63.247 23.0146C66.5952 23.0146 69.5689 23.5298 72.1679 24.56C74.767 25.5902 76.7338 27.3698 78.0684 29.8985C78.8177 31.3034 79.2626 32.7083 79.4031 34.1132C79.5435 35.518 79.6138 37.0868 79.6138 38.8195V62H71.2548V54.2029L72.4489 55.8185C70.5991 58.3707 68.5972 60.2205 66.4431 61.3678C64.3123 62.4917 61.6079 63.0537 58.3299 63.0537ZM60.367 55.5376C62.1231 55.5376 63.5982 55.2332 64.7923 54.6244C66.0099 53.9922 66.9699 53.278 67.6723 52.482C68.3982 51.6859 68.8899 51.0185 69.1474 50.48C69.6391 49.4498 69.9201 48.2556 69.9904 46.8976C70.084 45.5161 70.1309 44.3688 70.1309 43.4556L72.9406 44.158C70.1074 44.6263 67.8128 45.0244 66.0567 45.3522C64.3006 45.6566 62.884 45.9376 61.807 46.1951C60.7299 46.4527 59.7816 46.7337 58.9621 47.038C58.0255 47.4127 57.2645 47.8224 56.6791 48.2673C56.1172 48.6888 55.6957 49.1571 55.4148 49.6722C55.1572 50.1873 55.0284 50.761 55.0284 51.3932C55.0284 52.2595 55.2391 53.0088 55.6606 53.641C56.1055 54.2498 56.726 54.718 57.5221 55.0459C58.3182 55.3737 59.2665 55.5376 60.367 55.5376ZM101.917 63.1239C98.2641 63.0771 95.1734 62.2693 92.6446 60.7005C90.1158 59.1083 88.1256 56.919 86.6738 54.1327C85.2456 51.3229 84.3558 48.0683 84.0046 44.3688C83.8173 42.3785 83.7704 40.1424 83.8641 37.6605C83.9812 35.1551 84.2504 32.6966 84.6719 30.2849C85.0934 27.8732 85.6904 25.801 86.4631 24.0683C87.2124 22.4527 88.1724 20.9776 89.3431 19.6429C90.5373 18.2849 91.8017 17.1376 93.1363 16.201C94.7051 15.1005 96.3909 14.2576 98.1938 13.6722C99.9968 13.0634 101.893 12.5951 103.884 12.2673C105.874 11.9395 107.934 11.6468 110.065 11.3893C112.219 11.1317 114.397 10.7922 116.598 10.3707L117.441 18.8C116.106 19.1512 114.584 19.4088 112.875 19.5727C111.166 19.7366 109.409 19.9122 107.607 20.0995C105.804 20.2634 104.083 20.5327 102.444 20.9073C100.805 21.2819 99.388 21.8439 98.1938 22.5932C96.5782 23.6 95.3373 25.0049 94.4709 26.8078C93.628 28.5873 93.1363 30.3902 92.9958 32.2166C94.4475 30.1093 96.2153 28.6576 98.2992 27.8615C100.407 27.0654 102.479 26.6673 104.516 26.6673C107.864 26.6673 110.732 27.4751 113.121 29.0907C115.532 30.6829 117.382 32.8371 118.67 35.5532C119.958 38.2459 120.602 41.2312 120.602 44.5093C120.602 48.2322 119.794 51.4985 118.178 54.3083C116.586 57.118 114.385 59.3073 111.575 60.8761C108.766 62.4215 105.546 63.1707 101.917 63.1239ZM102.338 54.2029C105.054 54.2029 107.103 53.36 108.485 51.6741C109.866 49.9883 110.557 47.7405 110.557 44.9307C110.557 42.0507 109.843 39.7912 108.414 38.1522C107.009 36.4898 104.984 35.6585 102.338 35.6585C99.6456 35.6585 97.5968 36.4898 96.1919 38.1522C94.8104 39.7912 94.1197 42.0507 94.1197 44.9307C94.1197 47.9044 94.8338 50.199 96.2621 51.8146C97.6904 53.4068 99.7158 54.2029 102.338 54.2029ZM142.589 63.0537C138.773 63.0537 135.424 62.199 132.544 60.4898C129.664 58.7805 127.416 56.4273 125.801 53.4302C124.209 50.4098 123.413 46.9444 123.413 43.0341C123.413 39.0771 124.232 35.6 125.871 32.6029C127.51 29.5824 129.77 27.2293 132.65 25.5434C135.53 23.8576 138.843 23.0146 142.589 23.0146C146.406 23.0146 149.754 23.8693 152.634 25.5785C155.537 27.2878 157.797 29.6527 159.413 32.6732C161.028 35.6702 161.836 39.1239 161.836 43.0341C161.836 46.9678 161.016 50.4449 159.377 53.4654C157.762 56.4624 155.502 58.8156 152.599 60.5249C149.719 62.2107 146.382 63.0537 142.589 63.0537ZM142.589 54.1327C145.656 54.1327 147.939 53.1024 149.438 51.042C150.96 48.958 151.721 46.2888 151.721 43.0341C151.721 39.6624 150.948 36.9698 149.403 34.9561C147.881 32.9424 145.61 31.9356 142.589 31.9356C140.505 31.9356 138.796 32.4039 137.461 33.3405C136.127 34.2771 135.132 35.5766 134.476 37.239C133.844 38.9015 133.528 40.8332 133.528 43.0341C133.528 46.4293 134.289 49.1337 135.811 51.1473C137.356 53.1376 139.615 54.1327 142.589 54.1327ZM175.336 62V32.4976H162.903V24.0683H197.322V32.4976H184.889V62H175.336ZM210.97 63.0537C208.254 63.0537 205.948 62.5385 204.051 61.5083C202.178 60.4546 200.75 59.0615 199.767 57.3288C198.807 55.5727 198.327 53.641 198.327 51.5337C198.327 49.7776 198.596 48.1737 199.134 46.7219C199.673 45.2702 200.539 43.9941 201.733 42.8937C202.951 41.7698 204.578 40.8332 206.615 40.0839C208.02 39.5688 209.694 39.1122 211.638 38.7141C213.581 38.3161 215.782 37.9415 218.241 37.5902C220.699 37.2156 223.404 36.8059 226.354 36.361L222.912 38.2576C222.912 36.0098 222.373 34.359 221.296 33.3054C220.219 32.2517 218.416 31.7249 215.888 31.7249C214.483 31.7249 213.019 32.0644 211.497 32.7434C209.975 33.4224 208.91 34.6283 208.301 36.361L199.661 33.6215C200.621 30.4839 202.424 27.9317 205.07 25.9649C207.716 23.998 211.322 23.0146 215.888 23.0146C219.236 23.0146 222.209 23.5298 224.808 24.56C227.408 25.5902 229.374 27.3698 230.709 29.8985C231.458 31.3034 231.903 32.7083 232.044 34.1132C232.184 35.518 232.254 37.0868 232.254 38.8195V62H223.895V54.2029L225.089 55.8185C223.24 58.3707 221.238 60.2205 219.084 61.3678C216.953 62.4917 214.248 63.0537 210.97 63.0537ZM213.008 55.5376C214.764 55.5376 216.239 55.2332 217.433 54.6244C218.65 53.9922 219.61 53.278 220.313 52.482C221.039 51.6859 221.53 51.0185 221.788 50.48C222.28 49.4498 222.561 48.2556 222.631 46.8976C222.725 45.5161 222.771 44.3688 222.771 43.4556L225.581 44.158C222.748 44.6263 220.453 45.0244 218.697 45.3522C216.941 45.6566 215.525 45.9376 214.448 46.1951C213.37 46.4527 212.422 46.7337 211.603 47.038C210.666 47.4127 209.905 47.8224 209.32 48.2673C208.758 48.6888 208.336 49.1571 208.055 49.6722C207.798 50.1873 207.669 50.761 207.669 51.3932C207.669 52.2595 207.88 53.0088 208.301 53.641C208.746 54.2498 209.367 54.718 210.163 55.0459C210.959 55.3737 211.907 55.5376 213.008 55.5376ZM256.208 63.0537C252.321 63.0537 248.891 62.2224 245.917 60.56C242.967 58.8741 240.649 56.5678 238.963 53.641C237.301 50.6907 236.47 47.319 236.47 43.5259C236.47 39.3815 237.289 35.7756 238.928 32.7083C240.567 29.641 242.827 27.2644 245.707 25.5785C248.587 23.8693 251.9 23.0146 255.646 23.0146C259.627 23.0146 263.01 23.9512 265.796 25.8244C268.583 27.6976 270.643 30.3317 271.978 33.7268C273.312 37.1219 273.781 41.1141 273.383 45.7034H263.935V42.1912C263.935 38.3278 263.314 35.5532 262.073 33.8673C260.856 32.158 258.854 31.3034 256.068 31.3034C252.813 31.3034 250.413 32.2985 248.868 34.2888C247.346 36.2556 246.585 39.1707 246.585 43.0341C246.585 46.5698 247.346 49.3093 248.868 51.2527C250.413 53.1727 252.672 54.1327 255.646 54.1327C257.519 54.1327 259.123 53.7229 260.458 52.9034C261.792 52.0839 262.811 50.9015 263.513 49.3561L273.067 52.0956C271.638 55.561 269.379 58.2537 266.288 60.1737C263.221 62.0937 259.861 63.0537 256.208 63.0537ZM243.634 45.7034V38.6088H268.782V45.7034H243.634ZM277.404 62V24.0683H285.131L298.337 48.6537L311.543 24.0683H319.27V62H310.138V43.1044L300.023 62H296.651L286.536 43.1044V62H277.404Z" fill="#DADADA"/>
<path d="M4.91707 132.244V81.668H26.2712C26.7629 81.668 27.4185 81.6915 28.2381 81.7383C29.081 81.7617 29.8302 81.8319 30.4859 81.949C33.5063 82.4173 35.9766 83.4124 37.8966 84.9344C39.84 86.4563 41.2683 88.3763 42.1815 90.6944C43.0946 92.989 43.5512 95.5529 43.5512 98.3861C43.5512 101.219 43.0829 103.795 42.1463 106.113C41.2332 108.408 39.8049 110.316 37.8615 111.838C35.9415 113.36 33.4829 114.355 30.4859 114.823C29.8302 114.917 29.081 114.987 28.2381 115.034C27.3951 115.081 26.7395 115.104 26.2712 115.104H14.4702V132.244H4.91707ZM14.4702 106.183H25.8498C26.3415 106.183 26.88 106.16 27.4654 106.113C28.0507 106.066 28.5893 105.972 29.081 105.832C30.3688 105.481 31.3639 104.895 32.0663 104.076C32.7688 103.233 33.2488 102.308 33.5063 101.301C33.7873 100.271 33.9278 99.2993 33.9278 98.3861C33.9278 97.4729 33.7873 96.5129 33.5063 95.5061C33.2488 94.4758 32.7688 93.551 32.0663 92.7315C31.3639 91.8885 30.3688 91.2915 29.081 90.9402C28.5893 90.7997 28.0507 90.7061 27.4654 90.6593C26.88 90.6124 26.3415 90.589 25.8498 90.589H14.4702V106.183ZM47.7933 132.244V81.668H69.1474C69.6391 81.668 70.2948 81.6915 71.1143 81.7383C71.9572 81.7617 72.7065 81.8319 73.3621 81.949C76.3826 82.4173 78.8528 83.4124 80.7728 84.9344C82.7162 86.4563 84.1445 88.3763 85.0577 90.6944C85.9709 92.989 86.4274 95.5529 86.4274 98.3861C86.4274 102.624 85.3738 106.253 83.2665 109.274C81.1592 112.271 77.8577 114.121 73.3621 114.823L69.1474 115.104H57.3465V132.244H47.7933ZM76.3123 132.244L66.3377 111.662L76.1718 109.766L87.1299 132.244H76.3123ZM57.3465 106.183H68.726C69.2177 106.183 69.7562 106.16 70.3416 106.113C70.927 106.066 71.4655 105.972 71.9572 105.832C73.245 105.481 74.2401 104.895 74.9426 104.076C75.645 103.233 76.125 102.308 76.3826 101.301C76.6635 100.271 76.804 99.2993 76.804 98.3861C76.804 97.4729 76.6635 96.5129 76.3826 95.5061C76.125 94.4758 75.645 93.551 74.9426 92.7315C74.2401 91.8885 73.245 91.2915 71.9572 90.9402C71.4655 90.7997 70.927 90.7061 70.3416 90.6593C69.7562 90.6124 69.2177 90.589 68.726 90.589H57.3465V106.183ZM91.339 141.727L91.901 137.723C93.0249 137.816 93.938 137.629 94.6405 137.161C95.3429 136.716 95.8229 136.06 96.0805 135.194C96.3615 134.351 96.42 133.368 96.2561 132.244H91.339V122.69H100.892V132.244C100.892 135.615 100.108 138.168 98.539 139.9C96.9702 141.633 94.5702 142.242 91.339 141.727ZM122.64 132.244L122.71 94.3119H132.404V112.575L145.258 94.3119H157.059L143.362 113.278L157.973 132.244H145.539L132.404 113.98V132.244H122.64ZM177.273 133.297C173.503 133.297 170.354 132.419 167.825 130.663C165.296 128.907 163.388 126.519 162.1 123.498C160.835 120.478 160.203 117.071 160.203 113.278C160.203 109.485 160.835 106.078 162.1 103.057C163.364 100.037 165.226 97.6485 167.684 95.8924C170.143 94.1363 173.175 93.2583 176.781 93.2583C180.41 93.2583 183.571 94.1246 186.264 95.8573C188.956 97.59 191.04 99.9666 192.515 102.987C194.014 105.984 194.763 109.414 194.763 113.278C194.763 117.071 194.026 120.478 192.551 123.498C191.099 126.519 189.062 128.907 186.439 130.663C183.817 132.419 180.761 133.297 177.273 133.297ZM158.588 149.102V94.3119H167.017V120.302H168.211V149.102H158.588ZM175.727 124.798C177.788 124.798 179.474 124.283 180.785 123.252C182.096 122.222 183.068 120.841 183.7 119.108C184.332 117.352 184.648 115.409 184.648 113.278C184.648 111.17 184.32 109.25 183.665 107.518C183.009 105.762 181.991 104.369 180.609 103.338C179.251 102.285 177.507 101.758 175.376 101.758C173.386 101.758 171.77 102.238 170.529 103.198C169.312 104.158 168.422 105.504 167.86 107.237C167.298 108.97 167.017 110.983 167.017 113.278C167.017 115.572 167.298 117.586 167.86 119.319C168.422 121.051 169.335 122.398 170.599 123.358C171.887 124.318 173.596 124.798 175.727 124.798ZM217.313 133.297C213.426 133.297 209.996 132.466 207.022 130.804C204.072 129.118 201.754 126.811 200.068 123.885C198.406 120.934 197.575 117.563 197.575 113.77C197.575 109.625 198.394 106.019 200.033 102.952C201.672 99.8846 203.932 97.508 206.812 95.8222C209.692 94.1129 213.005 93.2583 216.751 93.2583C220.732 93.2583 224.115 94.1949 226.902 96.068C229.688 97.9412 231.748 100.575 233.083 103.97C234.418 107.366 234.886 111.358 234.488 115.947H225.04V112.435C225.04 108.571 224.42 105.797 223.179 104.111C221.961 102.402 219.959 101.547 217.173 101.547C213.918 101.547 211.518 102.542 209.973 104.532C208.451 106.499 207.69 109.414 207.69 113.278C207.69 116.813 208.451 119.553 209.973 121.496C211.518 123.416 213.778 124.376 216.751 124.376C218.624 124.376 220.228 123.967 221.563 123.147C222.898 122.328 223.916 121.145 224.619 119.6L234.172 122.339C232.743 125.805 230.484 128.497 227.393 130.417C224.326 132.337 220.966 133.297 217.313 133.297ZM204.74 115.947V108.852H229.887V115.947H204.74ZM249.459 133.297C246.743 133.297 244.437 132.782 242.54 131.752C240.667 130.698 239.239 129.305 238.255 127.572C237.295 125.816 236.815 123.885 236.815 121.777C236.815 120.021 237.085 118.417 237.623 116.966C238.162 115.514 239.028 114.238 240.222 113.137C241.44 112.013 243.067 111.077 245.104 110.328C246.509 109.812 248.183 109.356 250.126 108.958C252.07 108.56 254.271 108.185 256.729 107.834C259.188 107.459 261.892 107.05 264.843 106.605L261.401 108.501C261.401 106.253 260.862 104.603 259.785 103.549C258.708 102.495 256.905 101.969 254.376 101.969C252.971 101.969 251.508 102.308 249.986 102.987C248.464 103.666 247.399 104.872 246.79 106.605L238.15 103.865C239.11 100.728 240.913 98.1754 243.559 96.2085C246.205 94.2417 249.81 93.2583 254.376 93.2583C257.725 93.2583 260.698 93.7734 263.297 94.8036C265.896 95.8339 267.863 97.6134 269.198 100.142C269.947 101.547 270.392 102.952 270.532 104.357C270.673 105.762 270.743 107.33 270.743 109.063V132.244H262.384V124.447L263.578 126.062C261.728 128.614 259.726 130.464 257.572 131.611C255.442 132.735 252.737 133.297 249.459 133.297ZM251.496 125.781C253.252 125.781 254.727 125.477 255.922 124.868C257.139 124.236 258.099 123.522 258.802 122.726C259.527 121.93 260.019 121.262 260.277 120.724C260.768 119.693 261.049 118.499 261.12 117.141C261.213 115.76 261.26 114.612 261.26 113.699L264.07 114.402C261.237 114.87 258.942 115.268 257.186 115.596C255.43 115.9 254.013 116.181 252.936 116.439C251.859 116.696 250.911 116.977 250.091 117.282C249.155 117.656 248.394 118.066 247.808 118.511C247.246 118.932 246.825 119.401 246.544 119.916C246.286 120.431 246.158 121.005 246.158 121.637C246.158 122.503 246.368 123.252 246.79 123.885C247.235 124.493 247.855 124.962 248.651 125.29C249.447 125.617 250.396 125.781 251.496 125.781ZM286.338 132.244V102.741H273.905V94.3119H308.324V102.741H295.891V132.244H286.338ZM345.978 94.3119V132.244H336.846V109.063L319.706 132.244H312.12V94.3119H321.252V116.72L338.461 94.3119H345.978ZM352.938 132.244V94.3119H370.71C372.115 94.3119 373.344 94.3939 374.398 94.5578C375.451 94.6983 376.33 94.8739 377.032 95.0846C378.765 95.5997 380.345 96.6066 381.773 98.1051C383.202 99.6036 383.916 101.781 383.916 104.638C383.916 106.324 383.647 107.693 383.108 108.747C382.57 109.777 381.855 110.632 380.966 111.311C380.544 111.615 380.123 111.873 379.701 112.084C379.28 112.294 378.858 112.458 378.437 112.575C379.42 112.716 380.31 112.973 381.106 113.348C382.37 113.91 383.471 114.8 384.408 116.017C385.344 117.211 385.812 118.991 385.812 121.356C385.812 123.885 385.192 126.039 383.951 127.818C382.733 129.598 380.895 130.839 378.437 131.541C377.594 131.775 376.599 131.951 375.451 132.068C374.328 132.185 373.145 132.244 371.904 132.244H352.938ZM362.632 125.009H371.202C371.693 125.009 372.197 124.962 372.712 124.868C373.25 124.751 373.73 124.61 374.152 124.447C374.831 124.166 375.311 123.686 375.592 123.007C375.896 122.328 376.049 121.637 376.049 120.934C376.049 119.951 375.826 119.178 375.381 118.616C374.96 118.054 374.48 117.656 373.941 117.422C373.496 117.211 373.005 117.094 372.466 117.071C371.951 117.024 371.53 117.001 371.202 117.001H362.632V125.009ZM362.632 109.625H368.462C369.211 109.625 369.914 109.59 370.57 109.52C371.249 109.426 371.81 109.274 372.255 109.063C372.864 108.782 373.321 108.337 373.625 107.729C373.93 107.096 374.082 106.394 374.082 105.621C374.082 104.802 373.906 104.064 373.555 103.409C373.227 102.73 372.677 102.273 371.904 102.039C371.389 101.851 370.733 101.746 369.937 101.723C369.165 101.699 368.673 101.688 368.462 101.688H362.632V109.625ZM400.591 133.297C397.874 133.297 395.568 132.782 393.672 131.752C391.798 130.698 390.37 129.305 389.387 127.572C388.427 125.816 387.947 123.885 387.947 121.777C387.947 120.021 388.216 118.417 388.754 116.966C389.293 115.514 390.159 114.238 391.353 113.137C392.571 112.013 394.198 111.077 396.235 110.328C397.64 109.812 399.314 109.356 401.258 108.958C403.201 108.56 405.402 108.185 407.861 107.834C410.319 107.459 413.024 107.05 415.974 106.605L412.532 108.501C412.532 106.253 411.993 104.603 410.916 103.549C409.839 102.495 408.036 101.969 405.508 101.969C404.103 101.969 402.639 102.308 401.117 102.987C399.595 103.666 398.53 104.872 397.921 106.605L389.281 103.865C390.241 100.728 392.044 98.1754 394.69 96.2085C397.336 94.2417 400.942 93.2583 405.508 93.2583C408.856 93.2583 411.83 93.7734 414.429 94.8036C417.028 95.8339 418.994 97.6134 420.329 100.142C421.078 101.547 421.523 102.952 421.664 104.357C421.804 105.762 421.874 107.33 421.874 109.063V132.244H413.515V124.447L414.71 126.062C412.86 128.614 410.858 130.464 408.704 131.611C406.573 132.735 403.869 133.297 400.591 133.297ZM402.628 125.781C404.384 125.781 405.859 125.477 407.053 124.868C408.271 124.236 409.231 123.522 409.933 122.726C410.659 121.93 411.151 121.262 411.408 120.724C411.9 119.693 412.181 118.499 412.251 117.141C412.345 115.76 412.392 114.612 412.392 113.699L415.201 114.402C412.368 114.87 410.073 115.268 408.317 115.596C406.561 115.9 405.145 116.181 404.068 116.439C402.991 116.696 402.042 116.977 401.223 117.282C400.286 117.656 399.525 118.066 398.94 118.511C398.378 118.932 397.956 119.401 397.675 119.916C397.418 120.431 397.289 121.005 397.289 121.637C397.289 122.503 397.5 123.252 397.921 123.885C398.366 124.493 398.987 124.962 399.783 125.29C400.579 125.617 401.527 125.781 402.628 125.781Z" fill="#DADADA"/>
<path d="M23.3912 203.541C19.8088 203.541 16.6595 203.015 13.9434 201.961C11.2507 200.907 8.97951 199.561 7.12976 197.922C5.28 196.259 3.84 194.527 2.80976 192.724L10.8878 187.104C11.4498 188.275 12.2459 189.434 13.2761 190.581C14.3063 191.729 15.6761 192.677 17.3854 193.426C19.0946 194.176 21.2371 194.55 23.8127 194.55C26.2478 194.55 28.2029 194.199 29.6781 193.497C31.1766 192.794 32.2537 191.893 32.9093 190.792C33.5883 189.692 33.9278 188.533 33.9278 187.315C33.9278 185.699 33.4478 184.459 32.4878 183.592C31.5512 182.726 30.3337 182.129 28.8351 181.801C27.3366 181.45 25.7561 181.251 24.0937 181.204C22.4781 181.157 21.3073 181.122 20.5815 181.099C19.879 181.075 19.399 181.063 19.1415 181.063C18.9073 181.063 18.6849 181.063 18.4741 181.063V172.072C18.7785 172.072 19.2234 172.072 19.8088 172.072C20.4176 172.072 21.0263 172.072 21.6351 172.072C22.2673 172.049 22.7824 172.025 23.1805 172.002C25.639 171.885 27.6878 171.346 29.3268 170.386C30.9893 169.426 31.8205 167.928 31.8205 165.891C31.8205 164.018 31.0829 162.531 29.6078 161.43C28.1561 160.33 26.201 159.779 23.7424 159.779C21.4244 159.779 19.3522 160.283 17.5259 161.29C15.7229 162.273 14.4 163.362 13.5571 164.556L7.02439 157.532C8.78049 155.705 11.1337 154.137 14.0839 152.825C17.0341 151.514 20.3473 150.859 24.0234 150.859C26.2478 150.859 28.4254 151.151 30.5561 151.737C32.6868 152.299 34.6068 153.177 36.3161 154.371C38.0254 155.541 39.3834 157.052 40.3902 158.901C41.4205 160.751 41.9356 162.964 41.9356 165.539C41.9356 167.717 41.5493 169.778 40.7766 171.721C40.0039 173.641 38.8917 175.257 37.44 176.568C39.5473 177.504 41.1746 178.862 42.322 180.642C43.4693 182.421 44.0429 184.646 44.0429 187.315C44.0429 190.663 43.1063 193.555 41.2332 195.99C39.3834 198.402 36.8898 200.263 33.7522 201.575C30.6381 202.886 27.1844 203.541 23.3912 203.541ZM59.496 203.541C56.7799 203.541 54.4736 203.026 52.577 201.996C50.7038 200.942 49.2755 199.549 48.2921 197.817C47.3321 196.06 46.8521 194.129 46.8521 192.021C46.8521 190.265 47.1214 188.661 47.6599 187.21C48.1985 185.758 49.0648 184.482 50.259 183.381C51.4765 182.258 53.1038 181.321 55.1409 180.572C56.5458 180.057 58.2199 179.6 60.1634 179.202C62.1068 178.804 64.3077 178.429 66.7663 178.078C69.2248 177.703 71.9292 177.294 74.8795 176.849L71.4375 178.745C71.4375 176.498 70.899 174.847 69.8219 173.793C68.7448 172.739 66.9419 172.213 64.4131 172.213C63.0082 172.213 61.5448 172.552 60.0229 173.231C58.5009 173.91 57.4355 175.116 56.8268 176.849L48.1868 174.109C49.1468 170.972 50.9497 168.419 53.5955 166.453C56.2414 164.486 59.8473 163.502 64.4131 163.502C67.7614 163.502 70.7351 164.018 73.3341 165.048C75.9331 166.078 77.8999 167.858 79.2346 170.386C79.9838 171.791 80.4287 173.196 80.5692 174.601C80.7097 176.006 80.7799 177.575 80.7799 179.307V202.488H72.4209V194.691L73.6151 196.306C71.7653 198.859 69.7634 200.708 67.6092 201.856C65.4785 202.98 62.7741 203.541 59.496 203.541ZM61.5331 196.025C63.2892 196.025 64.7643 195.721 65.9585 195.112C67.176 194.48 68.136 193.766 68.8385 192.97C69.5643 192.174 70.056 191.506 70.3136 190.968C70.8053 189.938 71.0863 188.743 71.1565 187.385C71.2502 186.004 71.297 184.857 71.297 183.943L74.1068 184.646C71.2736 185.114 68.979 185.512 67.2229 185.84C65.4668 186.144 64.0502 186.425 62.9731 186.683C61.896 186.94 60.9477 187.221 60.1282 187.526C59.1916 187.9 58.4307 188.31 57.8453 188.755C57.2834 189.177 56.8619 189.645 56.5809 190.16C56.3234 190.675 56.1946 191.249 56.1946 191.881C56.1946 192.747 56.4053 193.497 56.8268 194.129C57.2716 194.738 57.8921 195.206 58.6882 195.534C59.4843 195.861 60.4326 196.025 61.5331 196.025ZM87.0322 202.488V164.556H104.804C106.209 164.556 107.438 164.638 108.492 164.802C109.545 164.942 110.423 165.118 111.126 165.329C112.859 165.844 114.439 166.851 115.867 168.349C117.296 169.848 118.01 172.025 118.01 174.882C118.01 176.568 117.74 177.938 117.202 178.991C116.663 180.021 115.949 180.876 115.06 181.555C114.638 181.859 114.217 182.117 113.795 182.328C113.374 182.539 112.952 182.702 112.531 182.819C113.514 182.96 114.404 183.218 115.2 183.592C116.464 184.154 117.565 185.044 118.501 186.261C119.438 187.456 119.906 189.235 119.906 191.6C119.906 194.129 119.286 196.283 118.045 198.062C116.827 199.842 114.989 201.083 112.531 201.785C111.688 202.02 110.693 202.195 109.545 202.312C108.421 202.429 107.239 202.488 105.998 202.488H87.0322ZM96.7259 195.253H105.296C105.787 195.253 106.291 195.206 106.806 195.112C107.344 194.995 107.824 194.855 108.246 194.691C108.925 194.41 109.405 193.93 109.686 193.251C109.99 192.572 110.142 191.881 110.142 191.179C110.142 190.195 109.92 189.422 109.475 188.86C109.054 188.299 108.574 187.9 108.035 187.666C107.59 187.456 107.099 187.339 106.56 187.315C106.045 187.268 105.623 187.245 105.296 187.245H96.7259V195.253ZM96.7259 179.869H102.556C103.305 179.869 104.008 179.834 104.663 179.764C105.342 179.67 105.904 179.518 106.349 179.307C106.958 179.026 107.415 178.581 107.719 177.973C108.023 177.34 108.176 176.638 108.176 175.865C108.176 175.046 108 174.308 107.649 173.653C107.321 172.974 106.771 172.517 105.998 172.283C105.483 172.096 104.827 171.99 104.031 171.967C103.259 171.943 102.767 171.932 102.556 171.932H96.7259V179.869ZM141.217 203.541C137.401 203.541 134.052 202.687 131.172 200.978C128.292 199.268 126.044 196.915 124.429 193.918C122.837 190.898 122.041 187.432 122.041 183.522C122.041 179.565 122.86 176.088 124.499 173.091C126.138 170.07 128.398 167.717 131.278 166.031C134.158 164.345 137.471 163.502 141.217 163.502C145.034 163.502 148.382 164.357 151.262 166.066C154.165 167.776 156.425 170.14 158.041 173.161C159.656 176.158 160.464 179.612 160.464 183.522C160.464 187.456 159.644 190.933 158.005 193.953C156.39 196.95 154.13 199.303 151.227 201.013C148.347 202.699 145.01 203.541 141.217 203.541ZM141.217 194.62C144.284 194.62 146.567 193.59 148.066 191.53C149.588 189.446 150.349 186.777 150.349 183.522C150.349 180.15 149.576 177.458 148.031 175.444C146.509 173.43 144.238 172.423 141.217 172.423C139.133 172.423 137.424 172.892 136.089 173.828C134.755 174.765 133.76 176.064 133.104 177.727C132.472 179.389 132.156 181.321 132.156 183.522C132.156 186.917 132.917 189.621 134.439 191.635C135.984 193.625 138.243 194.62 141.217 194.62ZM183.009 203.541C179.122 203.541 175.692 202.71 172.718 201.048C169.768 199.362 167.45 197.056 165.764 194.129C164.102 191.179 163.27 187.807 163.27 184.014C163.27 179.869 164.09 176.263 165.729 173.196C167.368 170.129 169.627 167.752 172.507 166.066C175.387 164.357 178.701 163.502 182.447 163.502C186.427 163.502 189.811 164.439 192.597 166.312C195.384 168.185 197.444 170.819 198.779 174.215C200.113 177.61 200.582 181.602 200.184 186.191H190.736V182.679C190.736 178.816 190.115 176.041 188.874 174.355C187.657 172.646 185.655 171.791 182.868 171.791C179.614 171.791 177.214 172.786 175.668 174.777C174.147 176.743 173.386 179.659 173.386 183.522C173.386 187.058 174.147 189.797 175.668 191.74C177.214 193.66 179.473 194.62 182.447 194.62C184.32 194.62 185.924 194.211 187.259 193.391C188.593 192.572 189.612 191.389 190.314 189.844L199.867 192.583C198.439 196.049 196.18 198.741 193.089 200.661C190.022 202.581 186.662 203.541 183.009 203.541ZM170.435 186.191V179.097H195.583V186.191H170.435ZM205.234 202.488V164.556H223.006C224.411 164.556 225.64 164.638 226.694 164.802C227.747 164.942 228.625 165.118 229.328 165.329C231.06 165.844 232.641 166.851 234.069 168.349C235.497 169.848 236.212 172.025 236.212 174.882C236.212 176.568 235.942 177.938 235.404 178.991C234.865 180.021 234.151 180.876 233.261 181.555C232.84 181.859 232.418 182.117 231.997 182.328C231.575 182.539 231.154 182.702 230.733 182.819C231.716 182.96 232.606 183.218 233.402 183.592C234.666 184.154 235.767 185.044 236.703 186.261C237.64 187.456 238.108 189.235 238.108 191.6C238.108 194.129 237.488 196.283 236.247 198.062C235.029 199.842 233.191 201.083 230.733 201.785C229.89 202.02 228.895 202.195 227.747 202.312C226.623 202.429 225.441 202.488 224.2 202.488H205.234ZM214.928 195.253H223.497C223.989 195.253 224.493 195.206 225.008 195.112C225.546 194.995 226.026 194.855 226.448 194.691C227.127 194.41 227.607 193.93 227.888 193.251C228.192 192.572 228.344 191.881 228.344 191.179C228.344 190.195 228.122 189.422 227.677 188.86C227.255 188.299 226.775 187.9 226.237 187.666C225.792 187.456 225.3 187.339 224.762 187.315C224.247 187.268 223.825 187.245 223.497 187.245H214.928V195.253ZM214.928 179.869H220.758C221.507 179.869 222.21 179.834 222.865 179.764C223.544 179.67 224.106 179.518 224.551 179.307C225.16 179.026 225.616 178.581 225.921 177.973C226.225 177.34 226.377 176.638 226.377 175.865C226.377 175.046 226.202 174.308 225.851 173.653C225.523 172.974 224.973 172.517 224.2 172.283C223.685 172.096 223.029 171.99 222.233 171.967C221.46 171.943 220.969 171.932 220.758 171.932H214.928V179.869ZM242.279 202.488V164.556H251.833V176.638H255.275C256.328 176.638 257.557 176.661 258.962 176.708C260.367 176.755 261.526 176.872 262.439 177.059C264.664 177.551 266.537 178.336 268.059 179.413C269.581 180.49 270.728 181.883 271.501 183.592C272.297 185.278 272.695 187.292 272.695 189.633C272.695 193.005 271.817 195.721 270.061 197.781C268.328 199.819 265.811 201.223 262.51 201.996C261.597 202.207 260.426 202.347 258.997 202.418C257.569 202.464 256.328 202.488 255.275 202.488H242.279ZM251.833 195.112H256.328C256.75 195.112 257.218 195.089 257.733 195.042C258.248 194.995 258.763 194.901 259.278 194.761C260.262 194.48 261.128 193.859 261.877 192.899C262.627 191.939 263.001 190.851 263.001 189.633C263.001 188.299 262.615 187.163 261.842 186.226C261.07 185.266 260.168 184.646 259.138 184.365C258.646 184.224 258.155 184.131 257.663 184.084C257.171 184.037 256.726 184.014 256.328 184.014H251.833V195.112ZM276.488 202.488V164.556H286.041V202.488H276.488ZM292.976 202.488V164.556H310.748C312.152 164.556 313.382 164.638 314.435 164.802C315.489 164.942 316.367 165.118 317.069 165.329C318.802 165.844 320.383 166.851 321.811 168.349C323.239 169.848 323.953 172.025 323.953 174.882C323.953 176.568 323.684 177.938 323.146 178.991C322.607 180.021 321.893 180.876 321.003 181.555C320.582 181.859 320.16 182.117 319.739 182.328C319.317 182.539 318.896 182.702 318.474 182.819C319.458 182.96 320.348 183.218 321.144 183.592C322.408 184.154 323.508 185.044 324.445 186.261C325.382 187.456 325.85 189.235 325.85 191.6C325.85 194.129 325.229 196.283 323.988 198.062C322.771 199.842 320.933 201.083 318.474 201.785C317.631 202.02 316.636 202.195 315.489 202.312C314.365 202.429 313.183 202.488 311.942 202.488H292.976ZM302.669 195.253H311.239C311.731 195.253 312.234 195.206 312.749 195.112C313.288 194.995 313.768 194.855 314.189 194.691C314.868 194.41 315.348 193.93 315.629 193.251C315.934 192.572 316.086 191.881 316.086 191.179C316.086 190.195 315.864 189.422 315.419 188.86C314.997 188.299 314.517 187.9 313.979 187.666C313.534 187.456 313.042 187.339 312.504 187.315C311.988 187.268 311.567 187.245 311.239 187.245H302.669V195.253ZM302.669 179.869H308.5C309.249 179.869 309.951 179.834 310.607 179.764C311.286 179.67 311.848 179.518 312.293 179.307C312.902 179.026 313.358 178.581 313.663 177.973C313.967 177.34 314.119 176.638 314.119 175.865C314.119 175.046 313.944 174.308 313.592 173.653C313.265 172.974 312.714 172.517 311.942 172.283C311.427 172.096 310.771 171.99 309.975 171.967C309.202 171.943 308.71 171.932 308.5 171.932H302.669V179.869ZM340.628 203.541C337.912 203.541 335.606 203.026 333.709 201.996C331.836 200.942 330.408 199.549 329.424 197.817C328.464 196.06 327.984 194.129 327.984 192.021C327.984 190.265 328.253 188.661 328.792 187.21C329.33 185.758 330.197 184.482 331.391 183.381C332.609 182.258 334.236 181.321 336.273 180.572C337.678 180.057 339.352 179.6 341.295 179.202C343.239 178.804 345.44 178.429 347.898 178.078C350.357 177.703 353.061 177.294 356.011 176.849L352.57 178.745C352.57 176.498 352.031 174.847 350.954 173.793C349.877 172.739 348.074 172.213 345.545 172.213C344.14 172.213 342.677 172.552 341.155 173.231C339.633 173.91 338.568 175.116 337.959 176.849L329.319 174.109C330.279 170.972 332.082 168.419 334.728 166.453C337.373 164.486 340.979 163.502 345.545 163.502C348.893 163.502 351.867 164.018 354.466 165.048C357.065 166.078 359.032 167.858 360.367 170.386C361.116 171.791 361.561 173.196 361.701 174.601C361.842 176.006 361.912 177.575 361.912 179.307V202.488H353.553V194.691L354.747 196.306C352.897 198.859 350.895 200.708 348.741 201.856C346.61 202.98 343.906 203.541 340.628 203.541ZM342.665 196.025C344.421 196.025 345.896 195.721 347.09 195.112C348.308 194.48 349.268 193.766 349.97 192.97C350.696 192.174 351.188 191.506 351.446 190.968C351.937 189.938 352.218 188.743 352.289 187.385C352.382 186.004 352.429 184.857 352.429 183.943L355.239 184.646C352.406 185.114 350.111 185.512 348.355 185.84C346.599 186.144 345.182 186.425 344.105 186.683C343.028 186.94 342.08 187.221 341.26 187.526C340.324 187.9 339.563 188.31 338.977 188.755C338.415 189.177 337.994 189.645 337.713 190.16C337.455 190.675 337.327 191.249 337.327 191.881C337.327 192.747 337.537 193.497 337.959 194.129C338.404 194.738 339.024 195.206 339.82 195.534C340.616 195.861 341.565 196.025 342.665 196.025ZM385.866 203.541C381.979 203.541 378.549 202.71 375.575 201.048C372.625 199.362 370.307 197.056 368.621 194.129C366.958 191.179 366.127 187.807 366.127 184.014C366.127 179.869 366.947 176.263 368.586 173.196C370.225 170.129 372.484 167.752 375.364 166.066C378.244 164.357 381.557 163.502 385.304 163.502C389.284 163.502 392.668 164.439 395.454 166.312C398.24 168.185 400.301 170.819 401.635 174.215C402.97 177.61 403.438 181.602 403.04 186.191H393.593V182.679C393.593 178.816 392.972 176.041 391.731 174.355C390.513 172.646 388.512 171.791 385.725 171.791C382.471 171.791 380.071 172.786 378.525 174.777C377.003 176.743 376.242 179.659 376.242 183.522C376.242 187.058 377.003 189.797 378.525 191.74C380.071 193.66 382.33 194.62 385.304 194.62C387.177 194.62 388.781 194.211 390.115 193.391C391.45 192.572 392.469 191.389 393.171 189.844L402.724 192.583C401.296 196.049 399.036 198.741 395.946 200.661C392.878 202.581 389.518 203.541 385.866 203.541ZM373.292 186.191V179.097H398.439V186.191H373.292ZM407.062 202.488V164.556H414.789L427.994 189.141L441.2 164.556H448.927V202.488H439.795V183.592L429.68 202.488H426.309L416.193 183.592V202.488H407.062Z" fill="#DADADA"/>
<path d="M4.84683 272.731V234.8H12.5737L25.7795 259.385L38.9854 234.8H46.7122V272.731H37.5805V253.836L27.4654 272.731H24.0937L13.9785 253.836V272.731H4.84683ZM64.2979 273.785C61.5818 273.785 59.2754 273.27 57.3788 272.24C55.5057 271.186 54.0774 269.793 53.094 268.06C52.134 266.304 51.654 264.372 51.654 262.265C51.654 260.509 51.9232 258.905 52.4618 257.453C53.0003 256.002 53.8666 254.726 55.0608 253.625C56.2784 252.501 57.9057 251.565 59.9427 250.815C61.3476 250.3 63.0218 249.844 64.9652 249.446C66.9086 249.048 69.1096 248.673 71.5681 248.322C74.0266 247.947 76.731 247.537 79.6813 247.092L76.2393 248.989C76.2393 246.741 75.7008 245.09 74.6237 244.037C73.5466 242.983 71.7437 242.456 69.2149 242.456C67.8101 242.456 66.3466 242.796 64.8247 243.475C63.3027 244.154 62.2374 245.36 61.6286 247.092L52.9886 244.353C53.9486 241.215 55.7515 238.663 58.3974 236.696C61.0432 234.729 64.6491 233.746 69.2149 233.746C72.5632 233.746 75.5369 234.261 78.1359 235.291C80.7349 236.322 82.7018 238.101 84.0364 240.63C84.7857 242.035 85.2306 243.44 85.371 244.845C85.5115 246.249 85.5818 247.818 85.5818 249.551V272.731H77.2227V264.934L78.4169 266.55C76.5671 269.102 74.5652 270.952 72.411 272.099C70.2803 273.223 67.5759 273.785 64.2979 273.785ZM66.3349 266.269C68.091 266.269 69.5662 265.965 70.7603 265.356C71.9779 264.724 72.9379 264.009 73.6403 263.213C74.3662 262.417 74.8579 261.75 75.1154 261.211C75.6071 260.181 75.8881 258.987 75.9584 257.629C76.052 256.248 76.0988 255.1 76.0988 254.187L78.9086 254.889C76.0754 255.358 73.7808 255.756 72.0247 256.084C70.2686 256.388 68.852 256.669 67.7749 256.927C66.6979 257.184 65.7496 257.465 64.9301 257.769C63.9935 258.144 63.2325 258.554 62.6471 258.999C62.0852 259.42 61.6637 259.889 61.3827 260.404C61.1252 260.919 60.9964 261.492 60.9964 262.125C60.9964 262.991 61.2071 263.74 61.6286 264.372C62.0735 264.981 62.694 265.449 63.4901 265.777C64.2862 266.105 65.2345 266.269 66.3349 266.269ZM91.834 272.731V234.8H101.387V249.27H116.981V234.8H126.535V272.731H116.981V258.191H101.387V272.731H91.834ZM167.333 234.8V272.731H158.201V249.551L141.062 272.731H133.475V234.8H142.607V257.208L159.817 234.8H167.333ZM191.995 273.785C188.108 273.785 184.678 272.954 181.705 271.291C178.754 269.606 176.436 267.299 174.75 264.372C173.088 261.422 172.257 258.05 172.257 254.257C172.257 250.113 173.076 246.507 174.715 243.44C176.354 240.372 178.614 237.996 181.494 236.31C184.374 234.601 187.687 233.746 191.433 233.746C195.414 233.746 198.797 234.683 201.584 236.556C204.37 238.429 206.43 241.063 207.765 244.458C209.1 247.853 209.568 251.846 209.17 256.435H199.722V252.923C199.722 249.059 199.102 246.285 197.861 244.599C196.643 242.889 194.641 242.035 191.855 242.035C188.6 242.035 186.2 243.03 184.655 245.02C183.133 246.987 182.372 249.902 182.372 253.766C182.372 257.301 183.133 260.041 184.655 261.984C186.2 263.904 188.46 264.864 191.433 264.864C193.306 264.864 194.91 264.454 196.245 263.635C197.58 262.815 198.598 261.633 199.301 260.088L208.854 262.827C207.426 266.292 205.166 268.985 202.075 270.905C199.008 272.825 195.648 273.785 191.995 273.785ZM179.422 256.435V249.34H204.569V256.435H179.422ZM259.331 234.8V272.731H250.199V249.551L233.059 272.731H225.473V234.8H234.605V257.208L251.815 234.8H259.331Z" fill="#DADADA"/>
<path d="M4.84683 342.976L4.91707 305.044H14.6107V323.307L27.4654 305.044H39.2663L25.5688 324.01L40.1795 342.976H27.7463L14.6107 324.712V342.976H4.84683ZM68.0982 344.099C64.4455 344.053 61.3548 343.245 58.826 341.676C56.2972 340.084 54.3069 337.895 52.8552 335.108C51.4269 332.299 50.5372 329.044 50.186 325.344C49.9987 323.354 49.9518 321.118 50.0455 318.636C50.1626 316.131 50.4318 313.672 50.8533 311.26C51.2748 308.849 51.8718 306.777 52.6445 305.044C53.3938 303.428 54.3538 301.953 55.5245 300.619C56.7187 299.26 57.983 298.113 59.3177 297.177C60.8865 296.076 62.5723 295.233 64.3752 294.648C66.1782 294.039 68.0748 293.571 70.065 293.243C72.0552 292.915 74.1157 292.622 76.2465 292.365C78.4006 292.107 80.5782 291.768 82.7791 291.346L83.6221 299.776C82.2874 300.127 80.7655 300.384 79.0562 300.548C77.347 300.712 75.5909 300.888 73.7879 301.075C71.985 301.239 70.264 301.508 68.625 301.883C66.986 302.258 65.5694 302.819 64.3752 303.569C62.7596 304.576 61.5187 305.98 60.6523 307.783C59.8094 309.563 59.3177 311.366 59.1772 313.192C60.6289 311.085 62.3967 309.633 64.4806 308.837C66.5879 308.041 68.6601 307.643 70.6972 307.643C74.0455 307.643 76.9138 308.451 79.3021 310.066C81.7138 311.659 83.5635 313.813 84.8513 316.529C86.1391 319.221 86.7831 322.207 86.7831 325.485C86.7831 329.208 85.9752 332.474 84.3596 335.284C82.7674 338.094 80.5665 340.283 77.7567 341.852C74.947 343.397 71.7274 344.146 68.0982 344.099ZM68.5196 335.179C71.2357 335.179 73.2845 334.336 74.666 332.65C76.0474 330.964 76.7382 328.716 76.7382 325.906C76.7382 323.026 76.024 320.767 74.5957 319.128C73.1909 317.465 71.1655 316.634 68.5196 316.634C65.827 316.634 63.7782 317.465 62.3733 319.128C60.9918 320.767 60.3011 323.026 60.3011 325.906C60.3011 328.88 61.0152 331.175 62.4435 332.79C63.8718 334.382 65.8972 335.179 68.5196 335.179ZM110.316 344.029C106.546 344.029 103.397 343.151 100.868 341.395C98.3393 339.639 96.431 337.251 95.1432 334.23C93.8788 331.21 93.2466 327.803 93.2466 324.01C93.2466 320.217 93.8788 316.81 95.1432 313.789C96.4076 310.769 98.269 308.38 100.728 306.624C103.186 304.868 106.218 303.99 109.824 303.99C113.453 303.99 116.614 304.857 119.307 306.589C122 308.322 124.084 310.699 125.559 313.719C127.057 316.716 127.807 320.146 127.807 324.01C127.807 327.803 127.069 331.21 125.594 334.23C124.142 337.251 122.105 339.639 119.483 341.395C116.86 343.151 113.805 344.029 110.316 344.029ZM91.631 359.834V305.044H100.06V331.034H101.254V359.834H91.631ZM108.77 335.53C110.831 335.53 112.517 335.015 113.828 333.984C115.139 332.954 116.111 331.573 116.743 329.84C117.375 328.084 117.691 326.14 117.691 324.01C117.691 321.902 117.364 319.982 116.708 318.25C116.052 316.494 115.034 315.1 113.652 314.07C112.294 313.017 110.55 312.49 108.419 312.49C106.429 312.49 104.813 312.97 103.572 313.93C102.355 314.89 101.465 316.236 100.903 317.969C100.341 319.701 100.06 321.715 100.06 324.01C100.06 326.304 100.341 328.318 100.903 330.051C101.465 331.783 102.378 333.13 103.643 334.09C104.93 335.05 106.64 335.53 108.77 335.53ZM150.357 344.029C146.47 344.029 143.039 343.198 140.066 341.536C137.116 339.85 134.798 337.543 133.112 334.617C131.449 331.666 130.618 328.295 130.618 324.501C130.618 320.357 131.438 316.751 133.077 313.684C134.716 310.617 136.975 308.24 139.855 306.554C142.735 304.845 146.048 303.99 149.795 303.99C153.775 303.99 157.158 304.927 159.945 306.8C162.731 308.673 164.792 311.307 166.126 314.702C167.461 318.098 167.929 322.09 167.531 326.679H158.083V323.167C158.083 319.303 157.463 316.529 156.222 314.843C155.004 313.134 153.002 312.279 150.216 312.279C146.961 312.279 144.561 313.274 143.016 315.264C141.494 317.231 140.733 320.146 140.733 324.01C140.733 327.545 141.494 330.285 143.016 332.228C144.561 334.148 146.821 335.108 149.795 335.108C151.668 335.108 153.272 334.699 154.606 333.879C155.941 333.059 156.959 331.877 157.662 330.332L167.215 333.071C165.787 336.537 163.527 339.229 160.437 341.149C157.369 343.069 154.009 344.029 150.357 344.029ZM137.783 326.679V319.584H162.93V326.679H137.783ZM172.582 342.976V305.044H182.135V319.514H197.729V305.044H207.282V342.976H197.729V328.435H182.135V342.976H172.582ZM211.484 351.405V335.6C213.497 335.6 214.925 334.898 215.768 333.493C216.635 332.088 217.314 329.582 217.805 325.977C218.086 323.893 218.321 321.703 218.508 319.409C218.719 317.114 218.894 314.761 219.035 312.349C219.175 309.938 219.304 307.502 219.421 305.044H248.713V335.6H252.576V351.405H243.585V342.976H220.475V351.405H211.484ZM223.706 335.6H239.16V312.419H227.71C227.64 313.707 227.558 314.995 227.464 316.283C227.394 317.571 227.3 318.847 227.183 320.111C227.089 321.376 226.996 322.605 226.902 323.799C226.808 324.97 226.703 326.094 226.586 327.171C226.375 329.231 226.083 330.905 225.708 332.193C225.333 333.481 224.666 334.617 223.706 335.6ZM267.295 344.029C264.578 344.029 262.272 343.514 260.376 342.484C258.502 341.43 257.074 340.037 256.091 338.304C255.131 336.548 254.651 334.617 254.651 332.509C254.651 330.753 254.92 329.149 255.458 327.698C255.997 326.246 256.863 324.97 258.057 323.869C259.275 322.745 260.902 321.809 262.939 321.059C264.344 320.544 266.018 320.088 267.962 319.69C269.905 319.292 272.106 318.917 274.565 318.566C277.023 318.191 279.728 317.781 282.678 317.337L279.236 319.233C279.236 316.985 278.697 315.335 277.62 314.281C276.543 313.227 274.74 312.7 272.212 312.7C270.807 312.7 269.343 313.04 267.821 313.719C266.299 314.398 265.234 315.604 264.625 317.337L255.985 314.597C256.945 311.459 258.748 308.907 261.394 306.94C264.04 304.974 267.646 303.99 272.212 303.99C275.56 303.99 278.534 304.505 281.133 305.536C283.732 306.566 285.698 308.345 287.033 310.874C287.782 312.279 288.227 313.684 288.368 315.089C288.508 316.494 288.578 318.062 288.578 319.795V342.976H280.219V335.179L281.414 336.794C279.564 339.346 277.562 341.196 275.408 342.343C273.277 343.467 270.573 344.029 267.295 344.029ZM269.332 336.513C271.088 336.513 272.563 336.209 273.757 335.6C274.975 334.968 275.935 334.254 276.637 333.458C277.363 332.661 277.855 331.994 278.112 331.456C278.604 330.425 278.885 329.231 278.955 327.873C279.049 326.492 279.096 325.344 279.096 324.431L281.905 325.134C279.072 325.602 276.777 326 275.021 326.328C273.265 326.632 271.849 326.913 270.772 327.171C269.695 327.428 268.746 327.709 267.927 328.014C266.99 328.388 266.229 328.798 265.644 329.243C265.082 329.664 264.66 330.133 264.379 330.648C264.122 331.163 263.993 331.737 263.993 332.369C263.993 333.235 264.204 333.984 264.625 334.617C265.07 335.225 265.691 335.694 266.487 336.021C267.283 336.349 268.231 336.513 269.332 336.513ZM294.831 342.976V305.044H302.558L315.763 329.629L328.969 305.044H336.696V342.976H327.564V324.08L317.449 342.976H314.078L303.962 324.08V342.976H294.831ZM345.291 342.976V333.422H354.844V342.976H345.291Z" fill="#DADADA"/>
<path d="M4.84683 501.024V463.092H14.4V477.562H29.9941V463.092H39.5473V501.024H29.9941V486.483H14.4V501.024H4.84683ZM80.3459 463.092V501.024H71.2142V477.843L54.0746 501.024H46.4883V463.092H55.62V485.5L72.8298 463.092H80.3459ZM87.3066 501.024L87.3768 463.092H97.0705V481.356L109.925 463.092H121.726L108.029 482.058L122.639 501.024H110.206L97.0705 482.761V501.024H87.3066ZM133.861 502.078C131.145 502.078 128.839 501.562 126.942 500.532C125.069 499.479 123.641 498.085 122.657 496.353C121.697 494.597 121.217 492.665 121.217 490.558C121.217 488.801 121.487 487.198 122.025 485.746C122.564 484.294 123.43 483.018 124.624 481.918C125.842 480.794 127.469 479.857 129.506 479.108C130.911 478.593 132.585 478.136 134.529 477.738C136.472 477.34 138.673 476.965 141.132 476.614C143.59 476.24 146.294 475.83 149.245 475.385L145.803 477.281C145.803 475.034 145.264 473.383 144.187 472.329C143.11 471.276 141.307 470.749 138.778 470.749C137.373 470.749 135.91 471.088 134.388 471.767C132.866 472.446 131.801 473.652 131.192 475.385L122.552 472.645C123.512 469.508 125.315 466.956 127.961 464.989C130.607 463.022 134.213 462.039 138.778 462.039C142.127 462.039 145.1 462.554 147.699 463.584C150.298 464.614 152.265 466.394 153.6 468.922C154.349 470.327 154.794 471.732 154.934 473.137C155.075 474.542 155.145 476.111 155.145 477.843V501.024H146.786V493.227L147.98 494.842C146.131 497.395 144.129 499.244 141.974 500.392C139.844 501.516 137.139 502.078 133.861 502.078ZM135.898 494.561C137.654 494.561 139.13 494.257 140.324 493.648C141.541 493.016 142.501 492.302 143.204 491.506C143.93 490.71 144.421 490.042 144.679 489.504C145.171 488.474 145.452 487.28 145.522 485.921C145.615 484.54 145.662 483.393 145.662 482.48L148.472 483.182C145.639 483.65 143.344 484.048 141.588 484.376C139.832 484.681 138.415 484.961 137.338 485.219C136.261 485.477 135.313 485.758 134.493 486.062C133.557 486.437 132.796 486.846 132.211 487.291C131.649 487.713 131.227 488.181 130.946 488.696C130.689 489.211 130.56 489.785 130.56 490.417C130.56 491.283 130.771 492.033 131.192 492.665C131.637 493.274 132.257 493.742 133.053 494.07C133.85 494.398 134.798 494.561 135.898 494.561ZM192.937 509.453V501.024H161.397V463.092H170.951V492.103H185.702V463.092H195.255V492.595H202.49V509.453H192.937ZM239.092 463.092V501.024H229.96V477.843L212.82 501.024H205.234V463.092H214.366V485.5L231.575 463.092H239.092ZM279.91 463.092V501.024H270.778V477.843L253.639 501.024H246.052V463.092H255.184V485.5L272.394 463.092H279.91Z" fill="#DADADA"/>
<path d="M4.84683 571.268V533.336H22.6185C24.0234 533.336 25.2527 533.418 26.3063 533.582C27.36 533.723 28.2381 533.898 28.9405 534.109C30.6732 534.624 32.2537 535.631 33.682 537.13C35.1102 538.628 35.8244 540.806 35.8244 543.662C35.8244 545.348 35.5551 546.718 35.0166 547.771C34.4781 548.802 33.7639 549.656 32.8741 550.335C32.4527 550.64 32.0312 550.897 31.6098 551.108C31.1883 551.319 30.7668 551.483 30.3454 551.6C31.3288 551.74 32.2185 551.998 33.0146 552.372C34.279 552.934 35.3795 553.824 36.3161 555.042C37.2527 556.236 37.721 558.015 37.721 560.38C37.721 562.909 37.1005 565.063 35.8595 566.843C34.642 568.622 32.8039 569.863 30.3454 570.566C29.5024 570.8 28.5073 570.975 27.36 571.092C26.2361 571.21 25.0537 571.268 23.8127 571.268H4.84683ZM14.5405 564.033H23.1102C23.602 564.033 24.1054 563.986 24.6205 563.892C25.159 563.775 25.639 563.635 26.0605 563.471C26.7395 563.19 27.2195 562.71 27.5005 562.031C27.8049 561.352 27.9571 560.661 27.9571 559.959C27.9571 558.975 27.7346 558.203 27.2898 557.641C26.8683 557.079 26.3883 556.681 25.8498 556.447C25.4049 556.236 24.9132 556.119 24.3746 556.095C23.8595 556.049 23.4381 556.025 23.1102 556.025H14.5405V564.033ZM14.5405 548.65H20.3707C21.12 548.65 21.8224 548.614 22.4781 548.544C23.1571 548.451 23.719 548.298 24.1639 548.088C24.7727 547.807 25.2293 547.362 25.5337 546.753C25.8381 546.121 25.9902 545.418 25.9902 544.646C25.9902 543.826 25.8146 543.089 25.4634 542.433C25.1356 541.754 24.5854 541.297 23.8127 541.063C23.2976 540.876 22.642 540.771 21.8459 540.747C21.0732 540.724 20.5815 540.712 20.3707 540.712H14.5405V548.65ZM41.8923 571.268V533.336H51.4454V547.807H67.0396V533.336H76.5927V571.268H67.0396V556.728H51.4454V571.268H41.8923ZM83.5337 571.268V533.336H93.0869V545.418H96.5288C97.5825 545.418 98.8118 545.442 100.217 545.489C101.622 545.535 102.781 545.652 103.694 545.84C105.918 546.331 107.791 547.116 109.313 548.193C110.835 549.27 111.983 550.663 112.755 552.372C113.551 554.058 113.949 556.072 113.949 558.413C113.949 561.785 113.071 564.501 111.315 566.562C109.583 568.599 107.065 570.004 103.764 570.776C102.851 570.987 101.68 571.128 100.252 571.198C98.8235 571.245 97.5825 571.268 96.5288 571.268H83.5337ZM93.0869 563.892H97.5825C98.004 563.892 98.4723 563.869 98.9874 563.822C99.5025 563.775 100.018 563.682 100.533 563.541C101.516 563.26 102.383 562.64 103.132 561.68C103.881 560.72 104.256 559.631 104.256 558.413C104.256 557.079 103.869 555.943 103.097 555.007C102.324 554.047 101.423 553.426 100.392 553.145C99.9005 553.005 99.4088 552.911 98.9171 552.864C98.4254 552.817 97.9805 552.794 97.5825 552.794H93.0869V563.892ZM117.743 571.268V533.336H127.296V571.268H117.743ZM134.23 571.268V533.336H141.957L155.163 557.922L168.369 533.336H176.095V571.268H166.964V552.372L156.849 571.268H153.477L143.362 552.372V571.268H134.23ZM216.932 533.336V571.268H207.8V548.088L190.661 571.268H183.074V533.336H192.206V555.744L209.416 533.336H216.932Z" fill="#DADADA"/>
<path d="M20.8976 423.124C17.2449 423.077 14.1541 422.269 11.6254 420.7C9.09659 419.108 7.10634 416.919 5.65463 414.133C4.22634 411.323 3.33659 408.068 2.98537 404.369C2.79805 402.379 2.75122 400.142 2.84488 397.66C2.96195 395.155 3.23122 392.697 3.65268 390.285C4.07415 387.873 4.67122 385.801 5.4439 384.068C6.19317 382.453 7.15317 380.978 8.3239 379.643C9.51805 378.285 10.7824 377.138 12.1171 376.201C13.6859 375.1 15.3717 374.258 17.1746 373.672C18.9776 373.063 20.8741 372.595 22.8644 372.267C24.8546 371.94 26.9151 371.647 29.0459 371.389C31.2 371.132 33.3776 370.792 35.5785 370.371L36.4215 378.8C35.0868 379.151 33.5649 379.409 31.8556 379.573C30.1463 379.737 28.3902 379.912 26.5873 380.1C24.7844 380.263 23.0634 380.533 21.4244 380.907C19.7854 381.282 18.3688 381.844 17.1746 382.593C15.559 383.6 14.318 385.005 13.4517 386.808C12.6088 388.587 12.1171 390.39 11.9766 392.217C13.4283 390.109 15.1961 388.658 17.28 387.861C19.3873 387.065 21.4595 386.667 23.4966 386.667C26.8449 386.667 29.7132 387.475 32.1015 389.091C34.5132 390.683 36.3629 392.837 37.6507 395.553C38.9385 398.246 39.5824 401.231 39.5824 404.509C39.5824 408.232 38.7746 411.499 37.159 414.308C35.5668 417.118 33.3659 419.307 30.5561 420.876C27.7463 422.421 24.5268 423.171 20.8976 423.124ZM21.319 414.203C24.0351 414.203 26.0839 413.36 27.4654 411.674C28.8468 409.988 29.5376 407.74 29.5376 404.931C29.5376 402.051 28.8234 399.791 27.3951 398.152C25.9902 396.49 23.9649 395.659 21.319 395.659C18.6263 395.659 16.5776 396.49 15.1727 398.152C13.7912 399.791 13.1005 402.051 13.1005 404.931C13.1005 407.904 13.8146 410.199 15.2429 411.815C16.6712 413.407 18.6966 414.203 21.319 414.203ZM63.1152 423.054C59.3455 423.054 56.1962 422.176 53.6674 420.42C51.1387 418.663 49.2304 416.275 47.9426 413.255C46.6782 410.234 46.046 406.827 46.046 403.034C46.046 399.241 46.6782 395.834 47.9426 392.814C49.207 389.793 51.0684 387.405 53.527 385.649C55.9855 383.893 59.0177 383.015 62.6235 383.015C66.2528 383.015 69.4138 383.881 72.1065 385.614C74.7991 387.346 76.8831 389.723 78.3582 392.743C79.8567 395.74 80.606 399.171 80.606 403.034C80.606 406.827 79.8684 410.234 78.3933 413.255C76.9416 416.275 74.9045 418.663 72.2821 420.42C69.6596 422.176 66.604 423.054 63.1152 423.054ZM44.4304 438.859V384.068H52.8596V410.059H54.0538V438.859H44.4304ZM61.5699 414.554C63.6304 414.554 65.3162 414.039 66.6274 413.009C67.9387 411.979 68.9104 410.597 69.5426 408.864C70.1748 407.108 70.4909 405.165 70.4909 403.034C70.4909 400.927 70.1631 399.007 69.5074 397.274C68.8518 395.518 67.8333 394.125 66.4518 393.095C65.0938 392.041 63.3494 391.514 61.2187 391.514C59.2284 391.514 57.6128 391.994 56.3718 392.954C55.1543 393.914 54.2645 395.26 53.7026 396.993C53.1406 398.726 52.8596 400.74 52.8596 403.034C52.8596 405.329 53.1406 407.342 53.7026 409.075C54.2645 410.808 55.1777 412.154 56.4421 413.114C57.7299 414.074 59.4391 414.554 61.5699 414.554ZM103.156 423.054C99.2691 423.054 95.8388 422.222 92.8652 420.56C89.9149 418.874 87.5969 416.568 85.911 413.641C84.2486 410.691 83.4174 407.319 83.4174 403.526C83.4174 399.381 84.2369 395.776 85.8759 392.708C87.5149 389.641 89.7745 387.264 92.6545 385.579C95.5345 383.869 98.8476 383.015 102.594 383.015C106.574 383.015 109.958 383.951 112.744 385.824C115.531 387.698 117.591 390.332 118.926 393.727C120.26 397.122 120.729 401.114 120.331 405.703H110.883V402.191C110.883 398.328 110.262 395.553 109.021 393.867C107.804 392.158 105.802 391.303 103.015 391.303C99.7608 391.303 97.3608 392.299 95.8154 394.289C94.2935 396.256 93.5325 399.171 93.5325 403.034C93.5325 406.57 94.2935 409.309 95.8154 411.253C97.3608 413.173 99.6203 414.133 102.594 414.133C104.467 414.133 106.071 413.723 107.406 412.903C108.74 412.084 109.759 410.901 110.461 409.356L120.014 412.096C118.586 415.561 116.327 418.254 113.236 420.174C110.169 422.094 106.809 423.054 103.156 423.054ZM90.5823 405.703V398.609H115.73V405.703H90.5823ZM125.381 422V384.068H134.934V398.539H150.528V384.068H160.081V422H150.528V407.46H134.934V422H125.381ZM164.283 430.429V414.624C166.297 414.624 167.725 413.922 168.568 412.517C169.434 411.112 170.113 408.607 170.605 405.001C170.886 402.917 171.12 400.728 171.307 398.433C171.518 396.139 171.694 393.785 171.834 391.374C171.975 388.962 172.103 386.527 172.22 384.068H201.512V414.624H205.376V430.429H196.384V422H173.274V430.429H164.283ZM176.505 414.624H191.959V391.444H180.509C180.439 392.732 180.357 394.02 180.263 395.307C180.193 396.595 180.1 397.871 179.982 399.136C179.889 400.4 179.795 401.629 179.701 402.823C179.608 403.994 179.502 405.118 179.385 406.195C179.175 408.256 178.882 409.93 178.507 411.218C178.133 412.505 177.465 413.641 176.505 414.624ZM208.855 403.526V396.15H229.928V403.526H208.855Z" fill="#DADADA"/>
<path d="M435.587 62V24.0683H445.14V38.5385H460.734V24.0683H470.288V62H460.734V47.4595H445.14V62H435.587ZM487.835 63.0537C485.119 63.0537 482.813 62.5385 480.916 61.5083C479.043 60.4546 477.615 59.0615 476.631 57.3288C475.671 55.5727 475.191 53.641 475.191 51.5337C475.191 49.7776 475.461 48.1737 475.999 46.7219C476.538 45.2702 477.404 43.9941 478.598 42.8937C479.816 41.7698 481.443 40.8332 483.48 40.0839C484.885 39.5688 486.559 39.1122 488.503 38.7141C490.446 38.3161 492.647 37.9415 495.106 37.5902C497.564 37.2156 500.269 36.8059 503.219 36.361L499.777 38.2576C499.777 36.0098 499.238 34.359 498.161 33.3054C497.084 32.2517 495.281 31.7249 492.752 31.7249C491.348 31.7249 489.884 32.0644 488.362 32.7434C486.84 33.4224 485.775 34.6283 485.166 36.361L476.526 33.6215C477.486 30.4839 479.289 27.9317 481.935 25.9649C484.581 23.998 488.187 23.0146 492.752 23.0146C496.101 23.0146 499.074 23.5298 501.673 24.56C504.272 25.5902 506.239 27.3698 507.574 29.8985C508.323 31.3034 508.768 32.7083 508.909 34.1132C509.049 35.518 509.119 37.0868 509.119 38.8195V62H500.76V54.2029L501.954 55.8185C500.105 58.3707 498.103 60.2205 495.949 61.3678C493.818 62.4917 491.113 63.0537 487.835 63.0537ZM489.872 55.5376C491.629 55.5376 493.104 55.2332 494.298 54.6244C495.515 53.9922 496.475 53.278 497.178 52.482C497.904 51.6859 498.395 51.0185 498.653 50.48C499.145 49.4498 499.426 48.2556 499.496 46.8976C499.59 45.5161 499.636 44.3688 499.636 43.4556L502.446 44.158C499.613 44.6263 497.318 45.0244 495.562 45.3522C493.806 45.6566 492.39 45.9376 491.312 46.1951C490.235 46.4527 489.287 46.7337 488.468 47.038C487.531 47.4127 486.77 47.8224 486.185 48.2673C485.623 48.6888 485.201 49.1571 484.92 49.6722C484.663 50.1873 484.534 50.761 484.534 51.3932C484.534 52.2595 484.745 53.0088 485.166 53.641C485.611 54.2498 486.231 54.718 487.028 55.0459C487.824 55.3737 488.772 55.5376 489.872 55.5376ZM543.413 63.0537C539.479 63.0537 536.107 62.1756 533.297 60.4195C530.488 58.6634 528.334 56.2751 526.835 53.2546C525.336 50.2341 524.587 46.8273 524.587 43.0341C524.587 39.1941 525.36 35.7639 526.905 32.7434C528.474 29.7229 530.675 27.3463 533.508 25.6137C536.341 23.881 539.69 23.0146 543.553 23.0146C548.025 23.0146 551.772 24.1502 554.792 26.4215C557.836 28.6693 559.779 31.7483 560.622 35.6585L551.069 38.1873C550.507 36.2205 549.524 34.6868 548.119 33.5863C546.737 32.4859 545.169 31.9356 543.413 31.9356C541.399 31.9356 539.748 32.4273 538.46 33.4107C537.173 34.3707 536.224 35.6937 535.615 37.3795C535.007 39.0419 534.702 40.9268 534.702 43.0341C534.702 46.3356 535.428 49.0166 536.88 51.0771C538.355 53.1141 540.533 54.1327 543.413 54.1327C545.567 54.1327 547.206 53.641 548.33 52.6576C549.454 51.6741 550.296 50.2693 550.858 48.4429L560.622 50.48C559.545 54.5073 557.508 57.6098 554.511 59.7873C551.514 61.9649 547.815 63.0537 543.413 63.0537ZM574.11 62V32.4976H561.677V24.0683H596.096V32.4976H583.663V62H574.11ZM599.892 62V24.0683H609.445V36.1502H612.887C613.941 36.1502 615.17 36.1737 616.575 36.2205C617.98 36.2673 619.139 36.3844 620.052 36.5717C622.276 37.0634 624.15 37.8478 625.671 38.9249C627.193 40.002 628.341 41.3951 629.113 43.1044C629.91 44.7902 630.308 46.8039 630.308 49.1454C630.308 52.5171 629.43 55.2332 627.673 57.2937C625.941 59.3307 623.424 60.7356 620.122 61.5083C619.209 61.719 618.038 61.8595 616.61 61.9298C615.182 61.9766 613.941 62 612.887 62H599.892ZM609.445 54.6244H613.941C614.362 54.6244 614.83 54.601 615.346 54.5541C615.861 54.5073 616.376 54.4137 616.891 54.2732C617.874 53.9922 618.741 53.3717 619.49 52.4117C620.239 51.4517 620.614 50.3629 620.614 49.1454C620.614 47.8107 620.228 46.6751 619.455 45.7385C618.682 44.7785 617.781 44.158 616.75 43.8771C616.259 43.7366 615.767 43.6429 615.275 43.5961C614.784 43.5493 614.339 43.5259 613.941 43.5259H609.445V54.6244ZM634.101 62V24.0683H643.654V62H634.101ZM650.588 62L650.659 24.0683H660.352V42.3317L673.207 24.0683H685.008L671.31 43.0341L685.921 62H673.488L660.352 43.7366V62H650.588ZM702.866 63.0537C698.979 63.0537 695.549 62.2224 692.575 60.56C689.625 58.8741 687.307 56.5678 685.621 53.641C683.958 50.6907 683.127 47.319 683.127 43.5259C683.127 39.3815 683.947 35.7756 685.586 32.7083C687.225 29.641 689.484 27.2644 692.364 25.5785C695.244 23.8693 698.557 23.0146 702.304 23.0146C706.284 23.0146 709.668 23.9512 712.454 25.8244C715.24 27.6976 717.301 30.3317 718.635 33.7268C719.97 37.1219 720.438 41.1141 720.04 45.7034H710.592V42.1912C710.592 38.3278 709.972 35.5532 708.731 33.8673C707.513 32.158 705.512 31.3034 702.725 31.3034C699.471 31.3034 697.071 32.2985 695.525 34.2888C694.003 36.2556 693.242 39.1707 693.242 43.0341C693.242 46.5698 694.003 49.3093 695.525 51.2527C697.071 53.1727 699.33 54.1327 702.304 54.1327C704.177 54.1327 705.781 53.7229 707.115 52.9034C708.45 52.0839 709.469 50.9015 710.171 49.3561L719.724 52.0956C718.296 55.561 716.036 58.2537 712.946 60.1737C709.878 62.0937 706.518 63.0537 702.866 63.0537ZM690.292 45.7034V38.6088H715.439V45.7034H690.292Z" fill="#DADADA"/>
<path d="M482.794 94.3119V132.244H473.663V109.063L456.523 132.244H448.937V94.3119H458.068V116.72L475.278 94.3119H482.794ZM516.461 133.297C512.973 133.297 509.917 132.419 507.295 130.663C504.672 128.907 502.623 126.519 501.148 123.498C499.697 120.478 498.971 117.071 498.971 113.278C498.971 109.414 499.708 105.984 501.183 102.987C502.682 99.9666 504.777 97.59 507.47 95.8573C510.163 94.1246 513.324 93.2583 516.953 93.2583C520.559 93.2583 523.591 94.1363 526.05 95.8924C528.508 97.6485 530.37 100.037 531.634 103.057C532.898 106.078 533.531 109.485 533.531 113.278C533.531 117.071 532.887 120.478 531.599 123.498C530.335 126.519 528.438 128.907 525.909 130.663C523.38 132.419 520.231 133.297 516.461 133.297ZM518.007 124.798C520.137 124.798 521.835 124.318 523.099 123.358C524.387 122.398 525.312 121.051 525.874 119.319C526.436 117.586 526.717 115.572 526.717 113.278C526.717 110.983 526.436 108.97 525.874 107.237C525.312 105.504 524.411 104.158 523.17 103.198C521.952 102.238 520.348 101.758 518.358 101.758C516.227 101.758 514.471 102.285 513.09 103.338C511.732 104.369 510.725 105.762 510.069 107.518C509.414 109.25 509.086 111.17 509.086 113.278C509.086 115.409 509.402 117.352 510.034 119.108C510.666 120.841 511.638 122.222 512.949 123.252C514.26 124.283 515.946 124.798 518.007 124.798ZM526.717 132.244V106.253H525.523V81.668H535.146V132.244H526.717ZM542.873 89.0437V80.6144H552.426V89.0437H542.873ZM542.873 132.244V94.3119H552.426V132.244H542.873ZM576.372 150.156C574.218 150.156 572.169 149.805 570.226 149.102C568.283 148.423 566.538 147.463 564.993 146.222C563.471 145.005 562.23 143.576 561.27 141.937L570.121 137.652C570.729 138.776 571.596 139.631 572.72 140.216C573.867 140.802 575.108 141.094 576.443 141.094C577.871 141.094 579.217 140.849 580.482 140.357C581.746 139.889 582.753 139.174 583.502 138.214C584.275 137.278 584.638 136.107 584.591 134.702V123.674H585.785V94.3119H594.144V134.843C594.144 135.779 594.097 136.657 594.004 137.477C593.933 138.32 593.793 139.151 593.582 139.97C592.973 142.289 591.838 144.197 590.175 145.695C588.536 147.194 586.523 148.306 584.134 149.032C581.746 149.781 579.159 150.156 576.372 150.156ZM575.529 133.297C572.041 133.297 568.985 132.419 566.363 130.663C563.74 128.907 561.691 126.519 560.216 123.498C558.765 120.478 558.039 117.071 558.039 113.278C558.039 109.414 558.776 105.984 560.251 102.987C561.75 99.9666 563.845 97.59 566.538 95.8573C569.231 94.1246 572.392 93.2583 576.021 93.2583C579.627 93.2583 582.659 94.1363 585.118 95.8924C587.576 97.6485 589.438 100.037 590.702 103.057C591.966 106.078 592.599 109.485 592.599 113.278C592.599 117.071 591.955 120.478 590.667 123.498C589.403 126.519 587.506 128.907 584.977 130.663C582.448 132.419 579.299 133.297 575.529 133.297ZM577.075 124.798C579.205 124.798 580.903 124.318 582.167 123.358C583.455 122.398 584.38 121.051 584.942 119.319C585.504 117.586 585.785 115.572 585.785 113.278C585.785 110.983 585.504 108.97 584.942 107.237C584.38 105.504 583.479 104.158 582.238 103.198C581.02 102.238 579.416 101.758 577.426 101.758C575.295 101.758 573.539 102.285 572.158 103.338C570.8 104.369 569.793 105.762 569.137 107.518C568.482 109.25 568.154 111.17 568.154 113.278C568.154 115.409 568.47 117.352 569.102 119.108C569.734 120.841 570.706 122.222 572.017 123.252C573.328 124.283 575.014 124.798 577.075 124.798ZM601.872 89.0437V80.6144H611.426V89.0437H601.872ZM601.872 132.244V94.3119H611.426V132.244H601.872ZM641.904 132.244C639.282 132.735 636.706 132.946 634.178 132.876C631.672 132.829 629.424 132.396 627.434 131.576C625.467 130.733 623.969 129.387 622.939 127.537C622.002 125.805 621.51 124.049 621.463 122.269C621.417 120.466 621.393 118.429 621.393 116.158V83.7754H630.946V115.596C630.946 117.071 630.958 118.406 630.981 119.6C631.028 120.77 631.274 121.707 631.719 122.41C632.562 123.744 633.908 124.47 635.758 124.587C637.608 124.704 639.657 124.61 641.904 124.306V132.244ZM614.931 101.688V94.3119H641.904V101.688H614.931ZM658.084 133.297C655.368 133.297 653.062 132.782 651.165 131.752C649.292 130.698 647.864 129.305 646.88 127.572C645.92 125.816 645.44 123.885 645.44 121.777C645.44 120.021 645.709 118.417 646.248 116.966C646.787 115.514 647.653 114.238 648.847 113.137C650.065 112.013 651.692 111.077 653.729 110.328C655.134 109.812 656.808 109.356 658.751 108.958C660.695 108.56 662.896 108.185 665.354 107.834C667.813 107.459 670.517 107.05 673.467 106.605L670.026 108.501C670.026 106.253 669.487 104.603 668.41 103.549C667.333 102.495 665.53 101.969 663.001 101.969C661.596 101.969 660.133 102.308 658.611 102.987C657.089 103.666 656.024 104.872 655.415 106.605L646.775 103.865C647.735 100.728 649.538 98.1754 652.184 96.2085C654.829 94.2417 658.435 93.2583 663.001 93.2583C666.349 93.2583 669.323 93.7734 671.922 94.8036C674.521 95.8339 676.488 97.6134 677.823 100.142C678.572 101.547 679.017 102.952 679.157 104.357C679.298 105.762 679.368 107.33 679.368 109.063V132.244H671.009V124.447L672.203 126.062C670.353 128.614 668.351 130.464 666.197 131.611C664.067 132.735 661.362 133.297 658.084 133.297ZM660.121 125.781C661.877 125.781 663.352 125.477 664.547 124.868C665.764 124.236 666.724 123.522 667.427 122.726C668.152 121.93 668.644 121.262 668.902 120.724C669.393 119.693 669.674 118.499 669.745 117.141C669.838 115.76 669.885 114.612 669.885 113.699L672.695 114.402C669.862 114.87 667.567 115.268 665.811 115.596C664.055 115.9 662.638 116.181 661.561 116.439C660.484 116.696 659.536 116.977 658.716 117.282C657.78 117.656 657.019 118.066 656.433 118.511C655.871 118.932 655.45 119.401 655.169 119.916C654.911 120.431 654.783 121.005 654.783 121.637C654.783 122.503 654.993 123.252 655.415 123.885C655.86 124.493 656.48 124.962 657.276 125.29C658.072 125.617 659.021 125.781 660.121 125.781ZM686.393 132.244V80.6144H695.946V132.244H686.393ZM705.211 132.244V122.69H714.764V132.244H705.211Z" fill="#DADADA"/>
<path d="M576.576 202.488V164.556H594.348C595.753 164.556 596.982 164.638 598.036 164.802C599.09 164.942 599.968 165.118 600.67 165.329C602.403 165.844 603.983 166.851 605.412 168.349C606.84 169.848 607.554 172.025 607.554 174.882C607.554 176.568 607.285 177.938 606.746 178.991C606.208 180.021 605.493 180.876 604.604 181.555C604.182 181.859 603.761 182.117 603.339 182.328C602.918 182.539 602.496 182.702 602.075 182.819C603.058 182.96 603.948 183.218 604.744 183.592C606.009 184.154 607.109 185.044 608.046 186.261C608.982 187.456 609.451 189.235 609.451 191.6C609.451 194.129 608.83 196.283 607.589 198.062C606.372 199.842 604.533 201.083 602.075 201.785C601.232 202.02 600.237 202.195 599.09 202.312C597.966 202.429 596.783 202.488 595.542 202.488H576.576ZM586.27 195.253H594.84C595.332 195.253 595.835 195.206 596.35 195.112C596.889 194.995 597.369 194.855 597.79 194.691C598.469 194.41 598.949 193.93 599.23 193.251C599.534 192.572 599.687 191.881 599.687 191.179C599.687 190.195 599.464 189.422 599.019 188.86C598.598 188.299 598.118 187.9 597.579 187.666C597.134 187.456 596.643 187.339 596.104 187.315C595.589 187.268 595.168 187.245 594.84 187.245H586.27V195.253ZM586.27 179.869H592.1C592.85 179.869 593.552 179.834 594.208 179.764C594.887 179.67 595.449 179.518 595.893 179.307C596.502 179.026 596.959 178.581 597.263 177.973C597.568 177.34 597.72 176.638 597.72 175.865C597.72 175.046 597.544 174.308 597.193 173.653C596.865 172.974 596.315 172.517 595.542 172.283C595.027 172.096 594.372 171.99 593.575 171.967C592.803 171.943 592.311 171.932 592.1 171.932H586.27V179.869ZM613.622 202.488V164.556H623.175V179.026H638.769V164.556H648.322V202.488H638.769V187.947H623.175V202.488H613.622ZM689.121 164.556V202.488H679.989V179.307L662.85 202.488H655.263V164.556H664.395V186.964L681.605 164.556H689.121ZM695.449 184.014V176.638H716.523V184.014H695.449Z" fill="#DADADA"/>
<path d="M437.496 281.161V265.356C439.51 265.356 440.938 264.653 441.781 263.249C442.648 261.844 443.327 259.338 443.818 255.732C444.099 253.649 444.333 251.459 444.521 249.165C444.731 246.87 444.907 244.517 445.048 242.105C445.188 239.693 445.317 237.258 445.434 234.8H474.726V265.356H478.589V281.161H469.598V272.731H446.488V281.161H437.496ZM449.719 265.356H465.172V242.175H453.723C453.652 243.463 453.571 244.751 453.477 246.039C453.407 247.327 453.313 248.603 453.196 249.867C453.102 251.131 453.009 252.361 452.915 253.555C452.821 254.726 452.716 255.849 452.599 256.927C452.388 258.987 452.095 260.661 451.721 261.949C451.346 263.237 450.679 264.372 449.719 265.356ZM499.84 273.785C496.023 273.785 492.675 272.93 489.795 271.221C486.915 269.512 484.667 267.159 483.052 264.162C481.46 261.141 480.663 257.676 480.663 253.766C480.663 249.809 481.483 246.331 483.122 243.334C484.761 240.314 487.021 237.961 489.901 236.275C492.781 234.589 496.094 233.746 499.84 233.746C503.657 233.746 507.005 234.601 509.885 236.31C512.788 238.019 515.048 240.384 516.663 243.405C518.279 246.402 519.087 249.855 519.087 253.766C519.087 257.699 518.267 261.176 516.628 264.197C515.013 267.194 512.753 269.547 509.85 271.256C506.97 272.942 503.633 273.785 499.84 273.785ZM499.84 264.864C502.907 264.864 505.19 263.834 506.689 261.773C508.211 259.689 508.972 257.02 508.972 253.766C508.972 250.394 508.199 247.701 506.654 245.688C505.132 243.674 502.861 242.667 499.84 242.667C497.756 242.667 496.047 243.135 494.712 244.072C493.378 245.009 492.382 246.308 491.727 247.97C491.095 249.633 490.779 251.565 490.779 253.766C490.779 257.161 491.54 259.865 493.061 261.879C494.607 263.869 496.866 264.864 499.84 264.864ZM523.93 272.731V234.8H541.702C543.107 234.8 544.336 234.882 545.39 235.046C546.444 235.186 547.322 235.362 548.024 235.572C549.757 236.088 551.337 237.094 552.766 238.593C554.194 240.091 554.908 242.269 554.908 245.126C554.908 246.811 554.639 248.181 554.1 249.235C553.562 250.265 552.847 251.12 551.958 251.799C551.536 252.103 551.115 252.361 550.693 252.571C550.272 252.782 549.85 252.946 549.429 253.063C550.412 253.204 551.302 253.461 552.098 253.836C553.363 254.398 554.463 255.288 555.4 256.505C556.336 257.699 556.805 259.479 556.805 261.844C556.805 264.372 556.184 266.527 554.943 268.306C553.726 270.086 551.887 271.327 549.429 272.029C548.586 272.263 547.591 272.439 546.444 272.556C545.32 272.673 544.137 272.731 542.896 272.731H523.93ZM533.624 265.496H542.194C542.686 265.496 543.189 265.449 543.704 265.356C544.243 265.239 544.723 265.098 545.144 264.934C545.823 264.653 546.303 264.173 546.584 263.494C546.888 262.815 547.041 262.125 547.041 261.422C547.041 260.439 546.818 259.666 546.373 259.104C545.952 258.542 545.472 258.144 544.933 257.91C544.488 257.699 543.997 257.582 543.458 257.559C542.943 257.512 542.522 257.489 542.194 257.489H533.624V265.496ZM533.624 250.113H539.454C540.204 250.113 540.906 250.078 541.562 250.008C542.241 249.914 542.803 249.762 543.247 249.551C543.856 249.27 544.313 248.825 544.617 248.216C544.922 247.584 545.074 246.882 545.074 246.109C545.074 245.289 544.898 244.552 544.547 243.896C544.219 243.217 543.669 242.761 542.896 242.527C542.381 242.339 541.726 242.234 540.929 242.21C540.157 242.187 539.665 242.175 539.454 242.175H533.624V250.113ZM578.677 273.785C574.79 273.785 571.36 272.954 568.387 271.291C565.436 269.606 563.118 267.299 561.432 264.372C559.77 261.422 558.939 258.05 558.939 254.257C558.939 250.113 559.758 246.507 561.397 243.44C563.036 240.372 565.296 237.996 568.176 236.31C571.056 234.601 574.369 233.746 578.115 233.746C582.096 233.746 585.479 234.683 588.266 236.556C591.052 238.429 593.112 241.063 594.447 244.458C595.782 247.853 596.25 251.846 595.852 256.435H586.404V252.923C586.404 249.059 585.784 246.285 584.543 244.599C583.325 242.889 581.323 242.035 578.537 242.035C575.282 242.035 572.882 243.03 571.337 245.02C569.815 246.987 569.054 249.902 569.054 253.766C569.054 257.301 569.815 260.041 571.337 261.984C572.882 263.904 575.142 264.864 578.115 264.864C579.988 264.864 581.592 264.454 582.927 263.635C584.262 262.815 585.28 261.633 585.983 260.088L595.536 262.827C594.108 266.292 591.848 268.985 588.757 270.905C585.69 272.825 582.33 273.785 578.677 273.785ZM566.104 256.435V249.34H591.251V256.435H566.104ZM619.587 273.785C615.817 273.785 612.668 272.907 610.139 271.151C607.611 269.395 605.702 267.007 604.415 263.986C603.15 260.966 602.518 257.559 602.518 253.766C602.518 249.972 603.15 246.566 604.415 243.545C605.679 240.525 607.54 238.136 609.999 236.38C612.457 234.624 615.49 233.746 619.096 233.746C622.725 233.746 625.886 234.612 628.578 236.345C631.271 238.078 633.355 240.454 634.83 243.475C636.329 246.472 637.078 249.902 637.078 253.766C637.078 257.559 636.34 260.966 634.865 263.986C633.414 267.007 631.376 269.395 628.754 271.151C626.132 272.907 623.076 273.785 619.587 273.785ZM600.902 289.59V234.8H609.332V260.79H610.526V289.59H600.902ZM618.042 265.286C620.102 265.286 621.788 264.77 623.099 263.74C624.411 262.71 625.382 261.329 626.015 259.596C626.647 257.84 626.963 255.896 626.963 253.766C626.963 251.658 626.635 249.738 625.979 248.006C625.324 246.249 624.305 244.856 622.924 243.826C621.566 242.772 619.821 242.246 617.691 242.246C615.7 242.246 614.085 242.726 612.844 243.686C611.626 244.646 610.736 245.992 610.175 247.725C609.613 249.457 609.332 251.471 609.332 253.766C609.332 256.06 609.613 258.074 610.175 259.807C610.736 261.539 611.65 262.886 612.914 263.846C614.202 264.806 615.911 265.286 618.042 265.286ZM675.784 234.8V272.731H666.652V249.551L649.513 272.731H641.926V234.8H651.058V257.208L668.268 234.8H675.784ZM700.446 273.785C696.559 273.785 693.129 272.954 690.155 271.291C687.205 269.606 684.887 267.299 683.201 264.372C681.539 261.422 680.708 258.05 680.708 254.257C680.708 250.113 681.527 246.507 683.166 243.44C684.805 240.372 687.065 237.996 689.945 236.31C692.825 234.601 696.138 233.746 699.884 233.746C703.865 233.746 707.248 234.683 710.034 236.556C712.821 238.429 714.881 241.063 716.216 244.458C717.551 247.853 718.019 251.846 717.621 256.435H708.173V252.923C708.173 249.059 707.553 246.285 706.312 244.599C705.094 242.889 703.092 242.035 700.306 242.035C697.051 242.035 694.651 243.03 693.106 245.02C691.584 246.987 690.823 249.902 690.823 253.766C690.823 257.301 691.584 260.041 693.106 261.984C694.651 263.904 696.911 264.864 699.884 264.864C701.757 264.864 703.361 264.454 704.696 263.635C706.031 262.815 707.049 261.633 707.752 260.088L717.305 262.827C715.876 266.292 713.617 268.985 710.526 270.905C707.459 272.825 704.099 273.785 700.446 273.785ZM687.873 256.435V249.34H713.02V256.435H687.873Z" fill="#DADADA"/>
<path d="M461.507 351.405V334.055C463.029 334.055 464.316 333.68 465.37 332.931C466.447 332.158 467.325 331.081 468.004 329.699C468.683 328.295 469.222 326.656 469.62 324.782C470.018 322.909 470.311 320.872 470.498 318.671C470.732 315.861 470.943 313.099 471.13 310.382C471.317 307.643 471.505 304.81 471.692 301.883C471.879 298.933 472.09 295.748 472.324 292.33L505.901 292.4V334.055H509.764V351.405H500.211V342.976H471.06V351.405H461.507ZM475.766 334.055H496.348V301.321L481.035 301.251C480.871 303.569 480.73 305.699 480.613 307.643C480.519 309.586 480.402 311.553 480.262 313.543C480.121 315.534 479.934 317.758 479.7 320.217C479.466 322.675 479.232 324.7 478.997 326.293C478.763 327.861 478.4 329.231 477.909 330.402C477.44 331.573 476.726 332.79 475.766 334.055ZM532.301 344.029C528.414 344.029 524.984 343.198 522.01 341.536C519.06 339.85 516.742 337.543 515.056 334.617C513.394 331.666 512.563 328.295 512.563 324.501C512.563 320.357 513.382 316.751 515.021 313.684C516.66 310.617 518.92 308.24 521.8 306.554C524.68 304.845 527.993 303.99 531.739 303.99C535.72 303.99 539.103 304.927 541.889 306.8C544.676 308.673 546.736 311.307 548.071 314.702C549.405 318.098 549.874 322.09 549.476 326.679H540.028V323.167C540.028 319.303 539.407 316.529 538.166 314.843C536.949 313.134 534.947 312.279 532.161 312.279C528.906 312.279 526.506 313.274 524.961 315.264C523.439 317.231 522.678 320.146 522.678 324.01C522.678 327.545 523.439 330.285 524.961 332.228C526.506 334.148 528.765 335.108 531.739 335.108C533.612 335.108 535.216 334.699 536.551 333.879C537.885 333.059 538.904 331.877 539.606 330.332L549.16 333.071C547.731 336.537 545.472 339.229 542.381 341.149C539.314 343.069 535.954 344.029 532.301 344.029ZM519.727 326.679V319.584H544.875V326.679H519.727ZM551.084 342.976V335.038C552.466 335.296 553.531 335.284 554.28 335.003C555.03 334.699 555.591 334.113 555.966 333.247C556.364 332.357 556.704 331.151 556.985 329.629C557.359 327.616 557.687 325.262 557.968 322.57C558.272 319.877 558.53 317.032 558.741 314.035C558.951 311.015 559.139 308.018 559.303 305.044H587.962V342.976H578.409V313.965H567.662C567.568 315.182 567.439 316.634 567.275 318.32C567.135 320.006 566.971 321.762 566.784 323.588C566.62 325.391 566.432 327.124 566.222 328.786C566.011 330.425 565.789 331.83 565.554 333.001C564.992 335.975 564.161 338.316 563.061 340.025C561.96 341.735 560.45 342.823 558.53 343.292C556.61 343.783 554.128 343.678 551.084 342.976ZM605.54 344.029C602.824 344.029 600.517 343.514 598.621 342.484C596.747 341.43 595.319 340.037 594.336 338.304C593.376 336.548 592.896 334.617 592.896 332.509C592.896 330.753 593.165 329.149 593.704 327.698C594.242 326.246 595.108 324.97 596.303 323.869C597.52 322.745 599.147 321.809 601.185 321.059C602.589 320.544 604.264 320.088 606.207 319.69C608.15 319.292 610.351 318.917 612.81 318.566C615.268 318.191 617.973 317.781 620.923 317.337L617.481 319.233C617.481 316.985 616.943 315.335 615.866 314.281C614.788 313.227 612.986 312.7 610.457 312.7C609.052 312.7 607.588 313.04 606.066 313.719C604.545 314.398 603.479 315.604 602.87 317.337L594.23 314.597C595.19 311.459 596.993 308.907 599.639 306.94C602.285 304.974 605.891 303.99 610.457 303.99C613.805 303.99 616.779 304.505 619.378 305.536C621.977 306.566 623.944 308.345 625.278 310.874C626.027 312.279 626.472 313.684 626.613 315.089C626.753 316.494 626.824 318.062 626.824 319.795V342.976H618.465V335.179L619.659 336.794C617.809 339.346 615.807 341.196 613.653 342.343C611.522 343.467 608.818 344.029 605.54 344.029ZM607.577 336.513C609.333 336.513 610.808 336.209 612.002 335.6C613.22 334.968 614.18 334.254 614.882 333.458C615.608 332.661 616.1 331.994 616.357 331.456C616.849 330.425 617.13 329.231 617.2 327.873C617.294 326.492 617.341 325.344 617.341 324.431L620.15 325.134C617.317 325.602 615.023 326 613.266 326.328C611.51 326.632 610.094 326.913 609.017 327.171C607.94 327.428 606.991 327.709 606.172 328.014C605.235 328.388 604.474 328.798 603.889 329.243C603.327 329.664 602.906 330.133 602.625 330.648C602.367 331.163 602.238 331.737 602.238 332.369C602.238 333.235 602.449 333.984 602.87 334.617C603.315 335.225 603.936 335.694 604.732 336.021C605.528 336.349 606.476 336.513 607.577 336.513ZM650.777 344.029C646.89 344.029 643.46 343.198 640.487 341.536C637.536 339.85 635.218 337.543 633.532 334.617C631.87 331.666 631.039 328.295 631.039 324.501C631.039 320.357 631.858 316.751 633.497 313.684C635.136 310.617 637.396 308.24 640.276 306.554C643.156 304.845 646.469 303.99 650.215 303.99C654.196 303.99 657.579 304.927 660.366 306.8C663.152 308.673 665.212 311.307 666.547 314.702C667.882 318.098 668.35 322.09 667.952 326.679H658.504V323.167C658.504 319.303 657.884 316.529 656.643 314.843C655.425 313.134 653.423 312.279 650.637 312.279C647.382 312.279 644.982 313.274 643.437 315.264C641.915 317.231 641.154 320.146 641.154 324.01C641.154 327.545 641.915 330.285 643.437 332.228C644.982 334.148 647.242 335.108 650.215 335.108C652.089 335.108 653.692 334.699 655.027 333.879C656.362 333.059 657.38 331.877 658.083 330.332L667.636 333.071C666.208 336.537 663.948 339.229 660.857 341.149C657.79 343.069 654.43 344.029 650.777 344.029ZM638.204 326.679V319.584H663.351V326.679H638.204ZM671.973 342.976V305.044H679.7L692.906 329.629L706.112 305.044H713.839V342.976H704.707V324.08L694.592 342.976H691.22L681.105 324.08V342.976H671.973Z" fill="#DADADA"/>
<path d="M483.455 430.78L483.525 392.849H493.219V411.112L506.074 392.849H517.875L504.177 411.814L518.788 430.78H506.355L493.219 412.517V430.78H483.455ZM535.856 431.834C532.04 431.834 528.692 430.979 525.812 429.27C522.932 427.561 520.684 425.208 519.068 422.211C517.476 419.19 516.68 415.725 516.68 411.814C516.68 407.857 517.499 404.38 519.138 401.383C520.777 398.363 523.037 396.01 525.917 394.324C528.797 392.638 532.11 391.795 535.856 391.795C539.673 391.795 543.021 392.65 545.901 394.359C548.805 396.068 551.064 398.433 552.68 401.453C554.296 404.451 555.103 407.904 555.103 411.814C555.103 415.748 554.284 419.225 552.645 422.246C551.029 425.243 548.77 427.596 545.866 429.305C542.986 430.991 539.65 431.834 535.856 431.834ZM535.856 422.913C538.924 422.913 541.207 421.883 542.705 419.822C544.227 417.738 544.988 415.069 544.988 411.814C544.988 408.443 544.216 405.75 542.67 403.736C541.148 401.723 538.877 400.716 535.856 400.716C533.773 400.716 532.063 401.184 530.729 402.121C529.394 403.057 528.399 404.357 527.743 406.019C527.111 407.682 526.795 409.613 526.795 411.814C526.795 415.21 527.556 417.914 529.078 419.928C530.623 421.918 532.883 422.913 535.856 422.913ZM559.947 430.78V392.849H567.674L580.88 417.434L594.085 392.849H601.812V430.78H592.681V411.885L582.565 430.78H579.194L569.079 411.885V430.78H559.947ZM608.791 430.78V392.849H616.518L629.724 417.434L642.93 392.849H650.656V430.78H641.525V411.885L631.41 430.78H628.038L617.923 411.885V430.78H608.791ZM662.552 447.639L669.858 427.549L669.998 433.45L653.491 392.849H663.395L674.494 421.578H672.246L683.274 392.849H692.827L671.403 447.639H662.552ZM694.254 412.306V404.931H715.327V412.306H694.254Z" fill="#DADADA"/>
<path d="M417.511 502.078C413.133 502.078 409.445 500.989 406.448 498.811C403.451 496.634 401.402 493.531 400.302 489.504L410.066 487.467C410.628 489.293 411.47 490.698 412.594 491.681C413.742 492.665 415.381 493.157 417.511 493.157C419.83 493.157 421.691 492.489 423.096 491.155C424.501 489.797 425.426 487.982 425.87 485.711H414.702V478.335H425.87C425.449 476.251 424.571 474.507 423.236 473.102C421.902 471.674 420.087 470.96 417.792 470.96C415.896 470.96 414.245 471.498 412.84 472.575C411.459 473.629 410.464 475.174 409.855 477.211L400.302 474.682C401.145 470.772 403.088 467.693 406.132 465.445C409.176 463.174 412.922 462.039 417.371 462.039C421.234 462.039 424.583 462.905 427.416 464.638C430.272 466.37 432.473 468.759 434.019 471.802C435.564 474.823 436.337 478.265 436.337 482.128C436.337 485.898 435.588 489.293 434.089 492.314C432.59 495.311 430.436 497.687 427.627 499.443C424.817 501.2 421.445 502.078 417.511 502.078ZM458.954 516.829V501.656C455.255 502.241 451.906 501.855 448.909 500.497C445.912 499.116 443.536 496.868 441.78 493.754C440.024 490.64 439.145 486.741 439.145 482.058C439.145 477.375 440.024 473.477 441.78 470.362C443.536 467.225 445.912 464.977 448.909 463.619C451.906 462.261 455.255 461.875 458.954 462.46V451.151H467.384V462.46C471.083 461.875 474.431 462.261 477.428 463.619C480.425 464.977 482.802 467.225 484.558 470.362C486.314 473.477 487.192 477.375 487.192 482.058C487.192 486.741 486.314 490.64 484.558 493.754C482.802 496.868 480.425 499.116 477.428 500.497C474.431 501.855 471.083 502.241 467.384 501.656V516.829H458.954ZM458.954 493.157V471.03C457.058 470.702 455.454 470.761 454.143 471.205C452.855 471.627 451.825 472.353 451.052 473.383C450.279 474.39 449.717 475.642 449.366 477.141C449.015 478.616 448.839 480.255 448.839 482.058C448.839 483.861 449.026 485.512 449.401 487.01C449.776 488.485 450.361 489.738 451.157 490.768C451.977 491.799 453.03 492.536 454.318 492.981C455.606 493.402 457.151 493.461 458.954 493.157ZM467.384 493.157C469.186 493.461 470.732 493.402 472.02 492.981C473.307 492.56 474.349 491.845 475.145 490.839C475.965 489.832 476.562 488.579 476.937 487.081C477.311 485.582 477.499 483.908 477.499 482.058C477.499 480.185 477.323 478.511 476.972 477.036C476.621 475.537 476.059 474.284 475.286 473.278C474.513 472.271 473.471 471.568 472.16 471.17C470.872 470.749 469.28 470.702 467.384 471.03V493.157ZM509.788 516.829V501.656C506.088 502.241 502.74 501.855 499.743 500.497C496.746 499.116 494.369 496.868 492.613 493.754C490.857 490.64 489.979 486.741 489.979 482.058C489.979 477.375 490.857 473.477 492.613 470.362C494.369 467.225 496.746 464.977 499.743 463.619C502.74 462.261 506.088 461.875 509.788 462.46V451.151H518.217V462.46C521.917 461.875 525.265 462.261 528.262 463.619C531.259 464.977 533.636 467.225 535.392 470.362C537.148 473.477 538.026 477.375 538.026 482.058C538.026 486.741 537.148 490.64 535.392 493.754C533.636 496.868 531.259 499.116 528.262 500.497C525.265 501.855 521.917 502.241 518.217 501.656V516.829H509.788ZM509.788 493.157V471.03C507.891 470.702 506.287 470.761 504.976 471.205C503.688 471.627 502.658 472.353 501.885 473.383C501.113 474.39 500.551 475.642 500.2 477.141C499.848 478.616 499.673 480.255 499.673 482.058C499.673 483.861 499.86 485.512 500.235 487.01C500.609 488.485 501.195 489.738 501.991 490.768C502.81 491.799 503.864 492.536 505.152 492.981C506.44 493.402 507.985 493.461 509.788 493.157ZM518.217 493.157C520.02 493.461 521.565 493.402 522.853 492.981C524.141 492.56 525.183 491.845 525.979 490.839C526.799 489.832 527.396 488.579 527.77 487.081C528.145 485.582 528.332 483.908 528.332 482.058C528.332 480.185 528.157 478.511 527.805 477.036C527.454 475.537 526.892 474.284 526.12 473.278C525.347 472.271 524.305 471.568 522.994 471.17C521.706 470.749 520.114 470.702 518.217 471.03V493.157ZM560.551 502.078C556.664 502.078 553.234 501.246 550.26 499.584C547.31 497.898 544.992 495.592 543.306 492.665C541.644 489.715 540.813 486.343 540.813 482.55C540.813 478.405 541.632 474.8 543.271 471.732C544.91 468.665 547.17 466.288 550.05 464.602C552.93 462.893 556.243 462.039 559.989 462.039C563.97 462.039 567.353 462.975 570.139 464.848C572.926 466.721 574.986 469.356 576.321 472.751C577.655 476.146 578.124 480.138 577.726 484.727H568.278V481.215C568.278 477.352 567.657 474.577 566.416 472.891C565.199 471.182 563.197 470.327 560.411 470.327C557.156 470.327 554.756 471.322 553.211 473.313C551.689 475.28 550.928 478.195 550.928 482.058C550.928 485.594 551.689 488.333 553.211 490.277C554.756 492.197 557.015 493.157 559.989 493.157C561.862 493.157 563.466 492.747 564.801 491.927C566.135 491.108 567.154 489.925 567.856 488.38L577.41 491.12C575.981 494.585 573.722 497.278 570.631 499.198C567.564 501.118 564.204 502.078 560.551 502.078ZM547.977 484.727V477.633H573.125V484.727H547.977ZM582.776 501.024L582.846 463.092H592.54V481.356L605.395 463.092H617.196L603.498 482.058L618.109 501.024H605.676L592.54 482.761V501.024H582.776ZM628.066 501.024V471.521H615.633V463.092H650.053V471.521H637.62V501.024H628.066ZM687.706 463.092V501.024H678.575V477.843L661.435 501.024H653.849V463.092H662.98V485.5L680.19 463.092H687.706ZM694.035 482.55V475.174H715.108V482.55H694.035Z" fill="#DADADA"/>
<path d="M372.945 572.322C369.011 572.322 365.639 571.444 362.829 569.688C360.02 567.931 357.865 565.543 356.367 562.523C354.868 559.502 354.119 556.095 354.119 552.302C354.119 548.462 354.892 545.032 356.437 542.011C358.006 538.991 360.207 536.614 363.04 534.882C365.873 533.149 369.222 532.283 373.085 532.283C377.557 532.283 381.304 533.418 384.324 535.69C387.368 537.937 389.311 541.016 390.154 544.927L380.601 547.455C380.039 545.489 379.056 543.955 377.651 542.854C376.269 541.754 374.701 541.204 372.945 541.204C370.931 541.204 369.28 541.695 367.992 542.679C366.705 543.639 365.756 544.962 365.147 546.648C364.539 548.31 364.234 550.195 364.234 552.302C364.234 555.604 364.96 558.285 366.412 560.345C367.887 562.382 370.065 563.401 372.945 563.401C375.099 563.401 376.738 562.909 377.862 561.926C378.985 560.942 379.828 559.537 380.39 557.711L390.154 559.748C389.077 563.775 387.04 566.878 384.043 569.055C381.046 571.233 377.346 572.322 372.945 572.322ZM404.217 571.198V562.909L425.431 544.084C427.023 542.679 428.147 541.356 428.803 540.115C429.458 538.874 429.786 537.715 429.786 536.638C429.786 535.092 429.47 533.723 428.838 532.529C428.206 531.311 427.316 530.363 426.169 529.684C425.021 528.981 423.675 528.63 422.13 528.63C420.514 528.63 419.086 529.005 417.845 529.754C416.627 530.48 415.679 531.451 415 532.669C414.321 533.863 414.005 535.163 414.051 536.568H404.217C404.217 533.102 404.978 530.105 406.5 527.576C408.022 525.048 410.141 523.092 412.857 521.711C415.573 520.33 418.734 519.639 422.34 519.639C425.642 519.639 428.592 520.365 431.191 521.816C433.813 523.245 435.874 525.247 437.372 527.822C438.871 530.398 439.62 533.383 439.62 536.778C439.62 539.284 439.269 541.368 438.567 543.03C437.864 544.669 436.822 546.191 435.441 547.596C434.059 548.977 432.362 550.546 430.348 552.302L416.65 564.314L415.878 562.207H439.62V571.198H404.217ZM463.961 572.322C460.215 572.322 456.936 571.537 454.127 569.969C451.317 568.4 449.128 566.211 447.559 563.401C445.99 560.591 445.206 557.313 445.206 553.567V538.394C445.206 534.648 445.99 531.37 447.559 528.56C449.128 525.75 451.317 523.561 454.127 521.992C456.936 520.423 460.215 519.639 463.961 519.639C467.707 519.639 470.985 520.423 473.795 521.992C476.605 523.561 478.794 525.75 480.363 528.56C481.932 531.37 482.716 534.648 482.716 538.394V553.567C482.716 557.313 481.932 560.591 480.363 563.401C478.794 566.211 476.605 568.4 473.795 569.969C470.985 571.537 467.707 572.322 463.961 572.322ZM463.961 563.26C465.647 563.26 467.169 562.862 468.527 562.066C469.885 561.27 470.962 560.193 471.758 558.835C472.554 557.477 472.952 555.955 472.952 554.269V537.621C472.952 535.935 472.554 534.413 471.758 533.055C470.962 531.697 469.885 530.62 468.527 529.824C467.169 529.028 465.647 528.63 463.961 528.63C462.275 528.63 460.753 529.028 459.395 529.824C458.037 530.62 456.96 531.697 456.164 533.055C455.368 534.413 454.97 535.935 454.97 537.621V554.269C454.97 555.955 455.368 557.477 456.164 558.835C456.96 560.193 458.037 561.27 459.395 562.066C460.753 562.862 462.275 563.26 463.961 563.26ZM498.509 571.268V531.089L489.026 536.919V526.382L498.509 520.692H508.273V571.268H498.509ZM533.849 572.322C531.296 572.322 528.896 571.795 526.649 570.741C524.424 569.688 522.504 568.224 520.889 566.351C519.273 564.478 518.114 562.3 517.412 559.818L526.613 557.36C526.918 558.554 527.456 559.584 528.229 560.451C529.025 561.317 529.938 561.996 530.969 562.488C532.022 562.956 533.099 563.19 534.2 563.19C535.652 563.19 536.974 562.839 538.169 562.136C539.386 561.434 540.346 560.486 541.049 559.291C541.774 558.097 542.137 556.774 542.137 555.323C542.137 553.871 541.774 552.548 541.049 551.354C540.346 550.16 539.386 549.211 538.169 548.509C536.974 547.807 535.652 547.455 534.2 547.455C532.42 547.455 530.969 547.76 529.845 548.369C528.721 548.954 527.878 549.516 527.316 550.054L519.238 547.596L520.783 520.692H548.389V529.613H526.052L529.423 526.452L528.37 543.803L526.754 541.836C528.018 540.806 529.458 540.056 531.074 539.588C532.69 539.12 534.2 538.886 535.605 538.886C538.789 538.886 541.587 539.6 543.999 541.028C546.434 542.433 548.331 544.376 549.689 546.858C551.07 549.317 551.761 552.138 551.761 555.323C551.761 558.507 550.93 561.387 549.267 563.963C547.605 566.515 545.415 568.552 542.699 570.074C539.983 571.572 537.033 572.322 533.849 572.322ZM568.624 571.268V533.336H596.019V542.257H578.177V571.268H568.624ZM616.29 572.322C612.474 572.322 609.125 571.467 606.245 569.758C603.365 568.049 601.118 565.695 599.502 562.698C597.91 559.678 597.114 556.212 597.114 552.302C597.114 548.345 597.933 544.868 599.572 541.871C601.211 538.851 603.471 536.497 606.351 534.811C609.231 533.126 612.544 532.283 616.29 532.283C620.107 532.283 623.455 533.137 626.335 534.847C629.239 536.556 631.498 538.921 633.114 541.941C634.729 544.938 635.537 548.392 635.537 552.302C635.537 556.236 634.718 559.713 633.079 562.733C631.463 565.731 629.203 568.084 626.3 569.793C623.42 571.479 620.083 572.322 616.29 572.322ZM616.29 563.401C619.358 563.401 621.64 562.371 623.139 560.31C624.661 558.226 625.422 555.557 625.422 552.302C625.422 548.931 624.649 546.238 623.104 544.224C621.582 542.211 619.311 541.204 616.29 541.204C614.206 541.204 612.497 541.672 611.162 542.609C609.828 543.545 608.833 544.845 608.177 546.507C607.545 548.17 607.229 550.101 607.229 552.302C607.229 555.697 607.99 558.402 609.512 560.415C611.057 562.406 613.317 563.401 616.29 563.401ZM637.641 579.697V563.892C639.655 563.892 641.083 563.19 641.926 561.785C642.792 560.38 643.471 557.875 643.963 554.269C644.244 552.185 644.478 549.996 644.665 547.701C644.876 545.407 645.052 543.053 645.192 540.642C645.333 538.23 645.462 535.795 645.579 533.336H674.87V563.892H678.734V579.697H669.743V571.268H646.632V579.697H637.641ZM649.864 563.892H665.317V540.712H653.867C653.797 542 653.715 543.288 653.622 544.575C653.551 545.863 653.458 547.139 653.341 548.404C653.247 549.668 653.153 550.897 653.06 552.091C652.966 553.262 652.861 554.386 652.744 555.463C652.533 557.524 652.24 559.198 651.865 560.486C651.491 561.773 650.824 562.909 649.864 563.892ZM693.452 572.322C690.736 572.322 688.43 571.807 686.533 570.776C684.66 569.723 683.232 568.33 682.248 566.597C681.288 564.841 680.808 562.909 680.808 560.802C680.808 559.046 681.077 557.442 681.616 555.99C682.155 554.538 683.021 553.262 684.215 552.162C685.433 551.038 687.06 550.101 689.097 549.352C690.502 548.837 692.176 548.38 694.119 547.982C696.063 547.584 698.264 547.21 700.722 546.858C703.181 546.484 705.885 546.074 708.835 545.629L705.394 547.526C705.394 545.278 704.855 543.627 703.778 542.573C702.701 541.52 700.898 540.993 698.369 540.993C696.964 540.993 695.501 541.332 693.979 542.011C692.457 542.691 691.392 543.896 690.783 545.629L682.143 542.89C683.103 539.752 684.906 537.2 687.552 535.233C690.197 533.266 693.803 532.283 698.369 532.283C701.717 532.283 704.691 532.798 707.29 533.828C709.889 534.858 711.856 536.638 713.191 539.167C713.94 540.571 714.385 541.976 714.525 543.381C714.666 544.786 714.736 546.355 714.736 548.088V571.268H706.377V563.471L707.571 565.087C705.721 567.639 703.719 569.489 701.565 570.636C699.435 571.76 696.73 572.322 693.452 572.322ZM695.489 564.806C697.245 564.806 698.72 564.501 699.915 563.892C701.132 563.26 702.092 562.546 702.795 561.75C703.52 560.954 704.012 560.287 704.27 559.748C704.761 558.718 705.042 557.524 705.113 556.166C705.206 554.784 705.253 553.637 705.253 552.724L708.063 553.426C705.23 553.894 702.935 554.292 701.179 554.62C699.423 554.925 698.006 555.206 696.929 555.463C695.852 555.721 694.904 556.002 694.084 556.306C693.148 556.681 692.387 557.091 691.801 557.535C691.239 557.957 690.818 558.425 690.537 558.94C690.279 559.455 690.151 560.029 690.151 560.661C690.151 561.528 690.361 562.277 690.783 562.909C691.228 563.518 691.848 563.986 692.644 564.314C693.44 564.642 694.389 564.806 695.489 564.806Z" fill="#DADADA"/>
</svg>
