<svg width="1328" height="626" viewBox="0 0 1328 626" fill="none" xmlns="http://www.w3.org/2000/svg">
<g clip-path="url(#clip0_2120_60)">
<path d="M5.58 109V41.32H34.156C34.814 41.32 35.6913 41.3513 36.788 41.414C37.916 41.4453 38.9187 41.5393 39.796 41.696C43.838 42.3227 47.1437 43.6543 49.713 45.691C52.3137 47.7277 54.225 50.297 55.447 53.399C56.669 56.4697 57.28 59.9007 57.28 63.692C57.28 67.4833 56.6533 70.93 55.4 74.032C54.178 77.1027 52.2667 79.6563 49.666 81.693C47.0967 83.7297 43.8067 85.0613 39.796 85.688C38.9187 85.8133 37.916 85.9073 36.788 85.97C35.66 86.0327 34.7827 86.064 34.156 86.064H18.364V109H5.58ZM18.364 74.126H33.592C34.25 74.126 34.9707 74.0947 35.754 74.032C36.5373 73.9693 37.258 73.844 37.916 73.656C39.6393 73.186 40.971 72.4027 41.911 71.306C42.851 70.178 43.4933 68.9403 43.838 67.593C44.214 66.2143 44.402 64.914 44.402 63.692C44.402 62.47 44.214 61.1853 43.838 59.838C43.4933 58.4593 42.851 57.2217 41.911 56.125C40.971 54.997 39.6393 54.198 37.916 53.728C37.258 53.54 36.5373 53.4147 35.754 53.352C34.9707 53.2893 34.25 53.258 33.592 53.258H18.364V74.126ZM77.0567 110.41C73.4221 110.41 70.3357 109.721 67.7977 108.342C65.2911 106.932 63.3797 105.068 62.0637 102.749C60.7791 100.399 60.1367 97.814 60.1367 94.994C60.1367 92.644 60.4971 90.4977 61.2177 88.555C61.9384 86.6123 63.0977 84.9047 64.6957 83.432C66.3251 81.928 68.5027 80.6747 71.2287 79.672C73.1087 78.9827 75.3491 78.3717 77.9497 77.839C80.5504 77.3063 83.4957 76.805 86.7857 76.335C90.0757 75.8337 93.6947 75.2853 97.6427 74.69L93.0367 77.228C93.0367 74.22 92.3161 72.011 90.8747 70.601C89.4334 69.191 87.0207 68.486 83.6367 68.486C81.7567 68.486 79.7984 68.9403 77.7617 69.849C75.7251 70.7577 74.2994 72.3713 73.4847 74.69L61.9227 71.024C63.2074 66.8253 65.6201 63.41 69.1607 60.778C72.7014 58.146 77.5267 56.83 83.6367 56.83C88.1174 56.83 92.0967 57.5193 95.5747 58.898C99.0527 60.2767 101.685 62.658 103.471 66.042C104.473 67.922 105.069 69.802 105.257 71.682C105.445 73.562 105.539 75.6613 105.539 77.98V109H94.3527V98.566L95.9507 100.728C93.4754 104.143 90.7964 106.619 87.9137 108.154C85.0624 109.658 81.4434 110.41 77.0567 110.41ZM79.7827 100.352C82.1327 100.352 84.1067 99.9447 85.7047 99.13C87.3341 98.284 88.6187 97.3283 89.5587 96.263C90.5301 95.1977 91.1881 94.3047 91.5327 93.584C92.1907 92.2053 92.5667 90.6073 92.6607 88.79C92.7861 86.9413 92.8487 85.406 92.8487 84.184L96.6087 85.124C92.8174 85.7507 89.7467 86.2833 87.3967 86.722C85.0467 87.1293 83.1511 87.5053 81.7097 87.85C80.2684 88.1947 78.9994 88.5707 77.9027 88.978C76.6494 89.4793 75.6311 90.0277 74.8477 90.623C74.0957 91.187 73.5317 91.8137 73.1557 92.503C72.8111 93.1923 72.6387 93.96 72.6387 94.806C72.6387 95.9653 72.9207 96.968 73.4847 97.814C74.0801 98.6287 74.9104 99.2553 75.9757 99.694C77.0411 100.133 78.3101 100.352 79.7827 100.352ZM135.384 110.504C130.496 110.441 126.36 109.36 122.976 107.261C119.592 105.13 116.929 102.201 114.986 98.472C113.075 94.712 111.884 90.3567 111.414 85.406C111.164 82.7427 111.101 79.7503 111.226 76.429C111.383 73.0763 111.743 69.7863 112.307 66.559C112.871 63.3317 113.67 60.5587 114.704 58.24C115.707 56.078 116.992 54.104 118.558 52.318C120.156 50.5007 121.848 48.9653 123.634 47.712C125.734 46.2393 127.99 45.1113 130.402 44.328C132.815 43.5133 135.353 42.8867 138.016 42.448C140.68 42.0093 143.437 41.6177 146.288 41.273C149.171 40.9283 152.085 40.474 155.03 39.91L156.158 51.19C154.372 51.66 152.336 52.0047 150.048 52.224C147.761 52.4433 145.411 52.6783 142.998 52.929C140.586 53.1483 138.283 53.5087 136.089 54.01C133.896 54.5113 132 55.2633 130.402 56.266C128.24 57.6133 126.58 59.4933 125.42 61.906C124.292 64.2873 123.634 66.7 123.446 69.144C125.389 66.324 127.755 64.3813 130.543 63.316C133.363 62.2507 136.136 61.718 138.862 61.718C143.343 61.718 147.181 62.799 150.377 64.961C153.605 67.0917 156.08 69.9743 157.803 73.609C159.527 77.2123 160.388 81.2073 160.388 85.594C160.388 90.576 159.307 94.947 157.145 98.707C155.015 102.467 152.069 105.397 148.309 107.496C144.549 109.564 140.241 110.567 135.384 110.504ZM135.948 98.566C139.583 98.566 142.325 97.438 144.173 95.182C146.022 92.926 146.946 89.918 146.946 86.158C146.946 82.304 145.991 79.2803 144.079 77.087C142.199 74.8623 139.489 73.75 135.948 73.75C132.345 73.75 129.603 74.8623 127.723 77.087C125.875 79.2803 124.95 82.304 124.95 86.158C124.95 90.1373 125.906 93.208 127.817 95.37C129.729 97.5007 132.439 98.566 135.948 98.566ZM189.812 110.41C184.705 110.41 180.224 109.266 176.37 106.979C172.516 104.692 169.508 101.543 167.346 97.532C165.215 93.49 164.15 88.8527 164.15 83.62C164.15 78.3247 165.247 73.6717 167.44 69.661C169.633 65.619 172.657 62.47 176.511 60.214C180.365 57.958 184.799 56.83 189.812 56.83C194.919 56.83 199.4 57.9737 203.254 60.261C207.139 62.5483 210.163 65.713 212.325 69.755C214.487 73.7657 215.568 78.3873 215.568 83.62C215.568 88.884 214.471 93.537 212.278 97.579C210.116 101.59 207.092 104.739 203.207 107.026C199.353 109.282 194.888 110.41 189.812 110.41ZM189.812 98.472C193.917 98.472 196.972 97.0933 198.977 94.336C201.014 91.5473 202.032 87.9753 202.032 83.62C202.032 79.108 200.998 75.5047 198.93 72.81C196.893 70.1153 193.854 68.768 189.812 68.768C187.023 68.768 184.736 69.3947 182.95 70.648C181.164 71.9013 179.832 73.6403 178.955 75.865C178.109 78.0897 177.686 80.6747 177.686 83.62C177.686 88.1633 178.704 91.7823 180.741 94.477C182.809 97.1403 185.833 98.472 189.812 98.472ZM233.634 109V69.52H216.996V58.24H263.056V69.52H246.418V109H233.634ZM281.319 110.41C277.685 110.41 274.598 109.721 272.06 108.342C269.554 106.932 267.642 105.068 266.326 102.749C265.042 100.399 264.399 97.814 264.399 94.994C264.399 92.644 264.76 90.4977 265.48 88.555C266.201 86.6123 267.36 84.9047 268.958 83.432C270.588 81.928 272.765 80.6747 275.491 79.672C277.371 78.9827 279.612 78.3717 282.212 77.839C284.813 77.3063 287.758 76.805 291.048 76.335C294.338 75.8337 297.957 75.2853 301.905 74.69L297.299 77.228C297.299 74.22 296.579 72.011 295.137 70.601C293.696 69.191 291.283 68.486 287.899 68.486C286.019 68.486 284.061 68.9403 282.024 69.849C279.988 70.7577 278.562 72.3713 277.747 74.69L266.185 71.024C267.47 66.8253 269.883 63.41 273.423 60.778C276.964 58.146 281.789 56.83 287.899 56.83C292.38 56.83 296.359 57.5193 299.837 58.898C303.315 60.2767 305.947 62.658 307.733 66.042C308.736 67.922 309.331 69.802 309.519 71.682C309.707 73.562 309.801 75.6613 309.801 77.98V109H298.615V98.566L300.213 100.728C297.738 104.143 295.059 106.619 292.176 108.154C289.325 109.658 285.706 110.41 281.319 110.41ZM284.045 100.352C286.395 100.352 288.369 99.9447 289.967 99.13C291.597 98.284 292.881 97.3283 293.821 96.263C294.793 95.1977 295.451 94.3047 295.795 93.584C296.453 92.2053 296.829 90.6073 296.923 88.79C297.049 86.9413 297.111 85.406 297.111 84.184L300.871 85.124C297.08 85.7507 294.009 86.2833 291.659 86.722C289.309 87.1293 287.414 87.5053 285.972 87.85C284.531 88.1947 283.262 88.5707 282.165 88.978C280.912 89.4793 279.894 90.0277 279.11 90.623C278.358 91.187 277.794 91.8137 277.418 92.503C277.074 93.1923 276.901 93.96 276.901 94.806C276.901 95.9653 277.183 96.968 277.747 97.814C278.343 98.6287 279.173 99.2553 280.238 99.694C281.304 100.133 282.573 100.352 284.045 100.352ZM341.856 110.41C336.655 110.41 332.065 109.298 328.085 107.073C324.137 104.817 321.035 101.731 318.779 97.814C316.555 93.866 315.442 89.354 315.442 84.278C315.442 78.732 316.539 73.9067 318.732 69.802C320.926 65.6973 323.949 62.517 327.803 60.261C331.657 57.9737 336.091 56.83 341.104 56.83C346.431 56.83 350.959 58.0833 354.687 60.59C358.416 63.0967 361.173 66.6217 362.959 71.165C364.745 75.7083 365.372 81.0507 364.839 87.192H352.196V82.492C352.196 77.322 351.366 73.609 349.705 71.353C348.076 69.0657 345.397 67.922 341.668 67.922C337.313 67.922 334.101 69.2537 332.033 71.917C329.997 74.549 328.978 78.45 328.978 83.62C328.978 88.3513 329.997 92.0173 332.033 94.618C334.101 97.1873 337.125 98.472 341.104 98.472C343.611 98.472 345.757 97.9237 347.543 96.827C349.329 95.7303 350.692 94.148 351.632 92.08L364.416 95.746C362.505 100.383 359.481 103.987 355.345 106.556C351.241 109.125 346.744 110.41 341.856 110.41ZM325.03 87.192V77.698H358.682V87.192H325.03ZM370.221 109V58.24H380.561L398.233 91.14L415.905 58.24H426.245V109H414.025V83.714L400.489 109H395.977L382.441 83.714V109H370.221Z" fill="#DADADA"/>
<path d="M5.58 203V135.32H34.156C34.814 135.32 35.6913 135.351 36.788 135.414C37.916 135.445 38.9187 135.539 39.796 135.696C43.838 136.323 47.1437 137.654 49.713 139.691C52.3137 141.728 54.225 144.297 55.447 147.399C56.669 150.47 57.28 153.901 57.28 157.692C57.28 161.483 56.6533 164.93 55.4 168.032C54.178 171.103 52.2667 173.656 49.666 175.693C47.0967 177.73 43.8067 179.061 39.796 179.688C38.9187 179.813 37.916 179.907 36.788 179.97C35.66 180.033 34.7827 180.064 34.156 180.064H18.364V203H5.58ZM18.364 168.126H33.592C34.25 168.126 34.9707 168.095 35.754 168.032C36.5373 167.969 37.258 167.844 37.916 167.656C39.6393 167.186 40.971 166.403 41.911 165.306C42.851 164.178 43.4933 162.94 43.838 161.593C44.214 160.214 44.402 158.914 44.402 157.692C44.402 156.47 44.214 155.185 43.838 153.838C43.4933 152.459 42.851 151.222 41.911 150.125C40.971 148.997 39.6393 148.198 37.916 147.728C37.258 147.54 36.5373 147.415 35.754 147.352C34.9707 147.289 34.25 147.258 33.592 147.258H18.364V168.126ZM62.9567 203V135.32H91.5327C92.1907 135.32 93.0681 135.351 94.1647 135.414C95.2927 135.445 96.2954 135.539 97.1727 135.696C101.215 136.323 104.52 137.654 107.09 139.691C109.69 141.728 111.602 144.297 112.824 147.399C114.046 150.47 114.657 153.901 114.657 157.692C114.657 163.363 113.247 168.22 110.427 172.262C107.607 176.273 103.189 178.748 97.1727 179.688L91.5327 180.064H75.7407V203H62.9567ZM101.121 203L87.7727 175.458L100.933 172.92L115.597 203H101.121ZM75.7407 168.126H90.9687C91.6267 168.126 92.3474 168.095 93.1307 168.032C93.9141 167.969 94.6347 167.844 95.2927 167.656C97.0161 167.186 98.3477 166.403 99.2877 165.306C100.228 164.178 100.87 162.94 101.215 161.593C101.591 160.214 101.779 158.914 101.779 157.692C101.779 156.47 101.591 155.185 101.215 153.838C100.87 152.459 100.228 151.222 99.2877 150.125C98.3477 148.997 97.0161 148.198 95.2927 147.728C94.6347 147.54 93.9141 147.415 93.1307 147.352C92.3474 147.289 91.6267 147.258 90.9687 147.258H75.7407V168.126ZM121.229 215.69L121.981 210.332C123.485 210.457 124.707 210.207 125.647 209.58C126.587 208.985 127.23 208.107 127.574 206.948C127.95 205.82 128.029 204.504 127.809 203H121.229V190.216H134.013V203C134.013 207.512 132.964 210.927 130.864 213.246C128.765 215.565 125.553 216.379 121.229 215.69ZM163.116 203L163.21 152.24H176.182V176.68L193.384 152.24H209.176L190.846 177.62L210.398 203H193.76L176.182 178.56V203H163.116ZM236.225 204.41C231.18 204.41 226.966 203.235 223.582 200.885C220.198 198.535 217.644 195.339 215.921 191.297C214.229 187.255 213.383 182.696 213.383 177.62C213.383 172.544 214.229 167.985 215.921 163.943C217.613 159.901 220.104 156.705 223.394 154.355C226.684 152.005 230.742 150.83 235.567 150.83C240.424 150.83 244.654 151.989 248.257 154.308C251.86 156.627 254.649 159.807 256.623 163.849C258.628 167.86 259.631 172.45 259.631 177.62C259.631 182.696 258.644 187.255 256.67 191.297C254.727 195.339 252.001 198.535 248.492 200.885C244.983 203.235 240.894 204.41 236.225 204.41ZM211.221 225.56V152.24H222.501V187.02H224.099V225.56H211.221ZM234.157 193.036C236.914 193.036 239.17 192.347 240.925 190.968C242.68 189.589 243.98 187.741 244.826 185.422C245.672 183.072 246.095 180.471 246.095 177.62C246.095 174.8 245.656 172.231 244.779 169.912C243.902 167.562 242.539 165.698 240.69 164.319C238.873 162.909 236.538 162.204 233.687 162.204C231.024 162.204 228.862 162.846 227.201 164.131C225.572 165.416 224.381 167.217 223.629 169.536C222.877 171.855 222.501 174.549 222.501 177.62C222.501 180.691 222.877 183.385 223.629 185.704C224.381 188.023 225.603 189.824 227.295 191.109C229.018 192.394 231.306 193.036 234.157 193.036ZM289.807 204.41C284.606 204.41 280.016 203.298 276.036 201.073C272.088 198.817 268.986 195.731 266.73 191.814C264.506 187.866 263.393 183.354 263.393 178.278C263.393 172.732 264.49 167.907 266.683 163.802C268.877 159.697 271.9 156.517 275.754 154.261C279.608 151.974 284.042 150.83 289.055 150.83C294.382 150.83 298.91 152.083 302.638 154.59C306.367 157.097 309.124 160.622 310.91 165.165C312.696 169.708 313.323 175.051 312.79 181.192H300.147V176.492C300.147 171.322 299.317 167.609 297.656 165.353C296.027 163.066 293.348 161.922 289.619 161.922C285.264 161.922 282.052 163.254 279.984 165.917C277.948 168.549 276.929 172.45 276.929 177.62C276.929 182.351 277.948 186.017 279.984 188.618C282.052 191.187 285.076 192.472 289.055 192.472C291.562 192.472 293.708 191.924 295.494 190.827C297.28 189.73 298.643 188.148 299.583 186.08L312.367 189.746C310.456 194.383 307.432 197.987 303.296 200.556C299.192 203.125 294.695 204.41 289.807 204.41ZM272.981 181.192V171.698H306.633V181.192H272.981ZM332.825 204.41C329.19 204.41 326.104 203.721 323.566 202.342C321.059 200.932 319.148 199.068 317.832 196.749C316.547 194.399 315.905 191.814 315.905 188.994C315.905 186.644 316.265 184.498 316.986 182.555C317.707 180.612 318.866 178.905 320.464 177.432C322.093 175.928 324.271 174.675 326.997 173.672C328.877 172.983 331.117 172.372 333.718 171.839C336.319 171.306 339.264 170.805 342.554 170.335C345.844 169.834 349.463 169.285 353.411 168.69L348.805 171.228C348.805 168.22 348.084 166.011 346.643 164.601C345.202 163.191 342.789 162.486 339.405 162.486C337.525 162.486 335.567 162.94 333.53 163.849C331.493 164.758 330.068 166.371 329.253 168.69L317.691 165.024C318.976 160.825 321.388 157.41 324.929 154.778C328.47 152.146 333.295 150.83 339.405 150.83C343.886 150.83 347.865 151.519 351.343 152.898C354.821 154.277 357.453 156.658 359.239 160.042C360.242 161.922 360.837 163.802 361.025 165.682C361.213 167.562 361.307 169.661 361.307 171.98V203H350.121V192.566L351.719 194.728C349.244 198.143 346.565 200.619 343.682 202.154C340.831 203.658 337.212 204.41 332.825 204.41ZM335.551 194.352C337.901 194.352 339.875 193.945 341.473 193.13C343.102 192.284 344.387 191.328 345.327 190.263C346.298 189.198 346.956 188.305 347.301 187.584C347.959 186.205 348.335 184.607 348.429 182.79C348.554 180.941 348.617 179.406 348.617 178.184L352.377 179.124C348.586 179.751 345.515 180.283 343.165 180.722C340.815 181.129 338.919 181.505 337.478 181.85C336.037 182.195 334.768 182.571 333.671 182.978C332.418 183.479 331.399 184.028 330.616 184.623C329.864 185.187 329.3 185.814 328.924 186.503C328.579 187.192 328.407 187.96 328.407 188.806C328.407 189.965 328.689 190.968 329.253 191.814C329.848 192.629 330.679 193.255 331.744 193.694C332.809 194.133 334.078 194.352 335.551 194.352ZM382.176 203V163.52H365.538V152.24H411.598V163.52H394.96V203H382.176ZM461.985 152.24V203H449.765V171.98L426.829 203H416.677V152.24H428.897V182.226L451.927 152.24H461.985ZM471.3 203V152.24H495.082C496.962 152.24 498.607 152.35 500.017 152.569C501.427 152.757 502.602 152.992 503.542 153.274C505.861 153.963 507.976 155.311 509.887 157.316C511.798 159.321 512.754 162.235 512.754 166.058C512.754 168.314 512.394 170.147 511.673 171.557C510.952 172.936 509.997 174.079 508.806 174.988C508.242 175.395 507.678 175.74 507.114 176.022C506.55 176.304 505.986 176.523 505.422 176.68C506.738 176.868 507.929 177.213 508.994 177.714C510.686 178.466 512.159 179.657 513.412 181.286C514.665 182.884 515.292 185.265 515.292 188.43C515.292 191.814 514.462 194.697 512.801 197.078C511.172 199.459 508.712 201.12 505.422 202.06C504.294 202.373 502.962 202.608 501.427 202.765C499.923 202.922 498.341 203 496.68 203H471.3ZM484.272 193.318H495.74C496.398 193.318 497.072 193.255 497.761 193.13C498.482 192.973 499.124 192.785 499.688 192.566C500.597 192.19 501.239 191.548 501.615 190.639C502.022 189.73 502.226 188.806 502.226 187.866C502.226 186.55 501.928 185.516 501.333 184.764C500.769 184.012 500.127 183.479 499.406 183.166C498.811 182.884 498.153 182.727 497.432 182.696C496.743 182.633 496.179 182.602 495.74 182.602H484.272V193.318ZM484.272 172.732H492.074C493.077 172.732 494.017 172.685 494.894 172.591C495.803 172.466 496.555 172.262 497.15 171.98C497.965 171.604 498.576 171.009 498.983 170.194C499.39 169.348 499.594 168.408 499.594 167.374C499.594 166.277 499.359 165.29 498.889 164.413C498.45 163.504 497.714 162.893 496.68 162.58C495.991 162.329 495.113 162.188 494.048 162.157C493.014 162.126 492.356 162.11 492.074 162.11H484.272V172.732ZM535.068 204.41C531.433 204.41 528.347 203.721 525.809 202.342C523.302 200.932 521.391 199.068 520.075 196.749C518.79 194.399 518.148 191.814 518.148 188.994C518.148 186.644 518.508 184.498 519.229 182.555C519.95 180.612 521.109 178.905 522.707 177.432C524.336 175.928 526.514 174.675 529.24 173.672C531.12 172.983 533.36 172.372 535.961 171.839C538.562 171.306 541.507 170.805 544.797 170.335C548.087 169.834 551.706 169.285 555.654 168.69L551.048 171.228C551.048 168.22 550.327 166.011 548.886 164.601C547.445 163.191 545.032 162.486 541.648 162.486C539.768 162.486 537.81 162.94 535.773 163.849C533.736 164.758 532.311 166.371 531.496 168.69L519.934 165.024C521.219 160.825 523.631 157.41 527.172 154.778C530.713 152.146 535.538 150.83 541.648 150.83C546.129 150.83 550.108 151.519 553.586 152.898C557.064 154.277 559.696 156.658 561.482 160.042C562.485 161.922 563.08 163.802 563.268 165.682C563.456 167.562 563.55 169.661 563.55 171.98V203H552.364V192.566L553.962 194.728C551.487 198.143 548.808 200.619 545.925 202.154C543.074 203.658 539.455 204.41 535.068 204.41ZM537.794 194.352C540.144 194.352 542.118 193.945 543.716 193.13C545.345 192.284 546.63 191.328 547.57 190.263C548.541 189.198 549.199 188.305 549.544 187.584C550.202 186.205 550.578 184.607 550.672 182.79C550.797 180.941 550.86 179.406 550.86 178.184L554.62 179.124C550.829 179.751 547.758 180.283 545.408 180.722C543.058 181.129 541.162 181.505 539.721 181.85C538.28 182.195 537.011 182.571 535.914 182.978C534.661 183.479 533.642 184.028 532.859 184.623C532.107 185.187 531.543 185.814 531.167 186.503C530.822 187.192 530.65 187.96 530.65 188.806C530.65 189.965 530.932 190.968 531.496 191.814C532.091 192.629 532.922 193.255 533.987 193.694C535.052 194.133 536.321 194.352 537.794 194.352Z" fill="#DADADA"/>
<path d="M30.302 298.41C25.508 298.41 21.2937 297.705 17.659 296.295C14.0557 294.885 11.0163 293.083 8.541 290.89C6.06567 288.665 4.13867 286.347 2.76 283.934L13.57 276.414C14.322 277.981 15.3873 279.532 16.766 281.067C18.1447 282.602 19.9777 283.871 22.265 284.874C24.5523 285.877 27.4193 286.378 30.866 286.378C34.1247 286.378 36.741 285.908 38.715 284.968C40.7203 284.028 42.1617 282.822 43.039 281.349C43.9477 279.876 44.402 278.325 44.402 276.696C44.402 274.534 43.7597 272.873 42.475 271.714C41.2217 270.555 39.5923 269.756 37.587 269.317C35.5817 268.847 33.4667 268.581 31.242 268.518C29.08 268.455 27.5133 268.408 26.542 268.377C25.602 268.346 24.9597 268.33 24.615 268.33C24.3017 268.33 24.004 268.33 23.722 268.33V256.298C24.1293 256.298 24.7247 256.298 25.508 256.298C26.3227 256.298 27.1373 256.298 27.952 256.298C28.798 256.267 29.4873 256.235 30.02 256.204C33.31 256.047 36.0517 255.327 38.245 254.042C40.4697 252.757 41.582 250.752 41.582 248.026C41.582 245.519 40.595 243.53 38.621 242.057C36.6783 240.584 34.062 239.848 30.772 239.848C27.67 239.848 24.897 240.522 22.453 241.869C20.0403 243.185 18.27 244.642 17.142 246.24L8.4 236.84C10.75 234.396 13.899 232.297 17.847 230.542C21.795 228.787 26.2287 227.91 31.148 227.91C34.1247 227.91 37.0387 228.302 39.89 229.085C42.7413 229.837 45.3107 231.012 47.598 232.61C49.8853 234.177 51.7027 236.198 53.05 238.673C54.4287 241.148 55.118 244.109 55.118 247.556C55.118 250.47 54.601 253.227 53.567 255.828C52.533 258.397 51.0447 260.559 49.102 262.314C51.922 263.567 54.0997 265.385 55.635 267.766C57.1703 270.147 57.938 273.124 57.938 276.696C57.938 281.177 56.6847 285.046 54.178 288.305C51.7027 291.532 48.3657 294.023 44.167 295.778C39.9997 297.533 35.378 298.41 30.302 298.41ZM78.6173 298.41C74.9826 298.41 71.8963 297.721 69.3583 296.342C66.8516 294.932 64.9403 293.068 63.6243 290.749C62.3396 288.399 61.6973 285.814 61.6973 282.994C61.6973 280.644 62.0576 278.498 62.7783 276.555C63.4989 274.612 64.6583 272.905 66.2563 271.432C67.8856 269.928 70.0633 268.675 72.7893 267.672C74.6693 266.983 76.9096 266.372 79.5103 265.839C82.1109 265.306 85.0563 264.805 88.3463 264.335C91.6363 263.834 95.2553 263.285 99.2033 262.69L94.5973 265.228C94.5973 262.22 93.8766 260.011 92.4353 258.601C90.9939 257.191 88.5813 256.486 85.1973 256.486C83.3173 256.486 81.3589 256.94 79.3223 257.849C77.2856 258.758 75.8599 260.371 75.0453 262.69L63.4833 259.024C64.7679 254.825 67.1806 251.41 70.7213 248.778C74.2619 246.146 79.0873 244.83 85.1973 244.83C89.6779 244.83 93.6573 245.519 97.1353 246.898C100.613 248.277 103.245 250.658 105.031 254.042C106.034 255.922 106.629 257.802 106.817 259.682C107.005 261.562 107.099 263.661 107.099 265.98V297H95.9133V286.566L97.5113 288.728C95.0359 292.143 92.3569 294.619 89.4743 296.154C86.6229 297.658 83.0039 298.41 78.6173 298.41ZM81.3433 288.352C83.6933 288.352 85.6673 287.945 87.2653 287.13C88.8946 286.284 90.1793 285.328 91.1193 284.263C92.0906 283.198 92.7486 282.305 93.0933 281.584C93.7513 280.205 94.1273 278.607 94.2213 276.79C94.3466 274.941 94.4093 273.406 94.4093 272.184L98.1693 273.124C94.3779 273.751 91.3073 274.283 88.9573 274.722C86.6073 275.129 84.7116 275.505 83.2703 275.85C81.8289 276.195 80.5599 276.571 79.4633 276.978C78.2099 277.479 77.1916 278.028 76.4083 278.623C75.6563 279.187 75.0923 279.814 74.7163 280.503C74.3716 281.192 74.1993 281.96 74.1993 282.806C74.1993 283.965 74.4813 284.968 75.0453 285.814C75.6406 286.629 76.4709 287.255 77.5363 287.694C78.6016 288.133 79.8706 288.352 81.3433 288.352ZM115.466 297V246.24H139.248C141.128 246.24 142.773 246.35 144.183 246.569C145.593 246.757 146.768 246.992 147.708 247.274C150.027 247.963 152.142 249.311 154.053 251.316C155.964 253.321 156.92 256.235 156.92 260.058C156.92 262.314 156.56 264.147 155.839 265.557C155.118 266.936 154.163 268.079 152.972 268.988C152.408 269.395 151.844 269.74 151.28 270.022C150.716 270.304 150.152 270.523 149.588 270.68C150.904 270.868 152.095 271.213 153.16 271.714C154.852 272.466 156.325 273.657 157.578 275.286C158.831 276.884 159.458 279.265 159.458 282.43C159.458 285.814 158.628 288.697 156.967 291.078C155.338 293.459 152.878 295.12 149.588 296.06C148.46 296.373 147.128 296.608 145.593 296.765C144.089 296.922 142.507 297 140.846 297H115.466ZM128.438 287.318H139.906C140.564 287.318 141.238 287.255 141.927 287.13C142.648 286.973 143.29 286.785 143.854 286.566C144.763 286.19 145.405 285.548 145.781 284.639C146.188 283.73 146.392 282.806 146.392 281.866C146.392 280.55 146.094 279.516 145.499 278.764C144.935 278.012 144.293 277.479 143.572 277.166C142.977 276.884 142.319 276.727 141.598 276.696C140.909 276.633 140.345 276.602 139.906 276.602H128.438V287.318ZM128.438 266.732H136.24C137.243 266.732 138.183 266.685 139.06 266.591C139.969 266.466 140.721 266.262 141.316 265.98C142.131 265.604 142.742 265.009 143.149 264.194C143.556 263.348 143.76 262.408 143.76 261.374C143.76 260.277 143.525 259.29 143.055 258.413C142.616 257.504 141.88 256.893 140.846 256.58C140.157 256.329 139.279 256.188 138.214 256.157C137.18 256.126 136.522 256.11 136.24 256.11H128.438V266.732ZM187.976 298.41C182.869 298.41 178.388 297.266 174.534 294.979C170.68 292.692 167.672 289.543 165.51 285.532C163.379 281.49 162.314 276.853 162.314 271.62C162.314 266.325 163.411 261.672 165.604 257.661C167.797 253.619 170.821 250.47 174.675 248.214C178.529 245.958 182.963 244.83 187.976 244.83C193.083 244.83 197.564 245.974 201.418 248.261C205.303 250.548 208.327 253.713 210.489 257.755C212.651 261.766 213.732 266.387 213.732 271.62C213.732 276.884 212.635 281.537 210.442 285.579C208.28 289.59 205.256 292.739 201.371 295.026C197.517 297.282 193.052 298.41 187.976 298.41ZM187.976 286.472C192.081 286.472 195.136 285.093 197.141 282.336C199.178 279.547 200.196 275.975 200.196 271.62C200.196 267.108 199.162 263.505 197.094 260.81C195.057 258.115 192.018 256.768 187.976 256.768C185.187 256.768 182.9 257.395 181.114 258.648C179.328 259.901 177.996 261.64 177.119 263.865C176.273 266.09 175.85 268.675 175.85 271.62C175.85 276.163 176.868 279.782 178.905 282.477C180.973 285.14 183.997 286.472 187.976 286.472ZM243.902 298.41C238.7 298.41 234.11 297.298 230.131 295.073C226.183 292.817 223.081 289.731 220.825 285.814C218.6 281.866 217.488 277.354 217.488 272.278C217.488 266.732 218.584 261.907 220.778 257.802C222.971 253.697 225.995 250.517 229.849 248.261C233.703 245.974 238.136 244.83 243.15 244.83C248.476 244.83 253.004 246.083 256.733 248.59C260.461 251.097 263.219 254.622 265.005 259.165C266.791 263.708 267.417 269.051 266.885 275.192H254.242V270.492C254.242 265.322 253.411 261.609 251.751 259.353C250.121 257.066 247.442 255.922 243.714 255.922C239.358 255.922 236.147 257.254 234.079 259.917C232.042 262.549 231.024 266.45 231.024 271.62C231.024 276.351 232.042 280.017 234.079 282.618C236.147 285.187 239.17 286.472 243.15 286.472C245.656 286.472 247.803 285.924 249.589 284.827C251.375 283.73 252.738 282.148 253.678 280.08L266.462 283.746C264.55 288.383 261.527 291.987 257.391 294.556C253.286 297.125 248.79 298.41 243.902 298.41ZM227.076 275.192V265.698H260.728V275.192H227.076ZM273.643 297V246.24H297.425C299.305 246.24 300.95 246.35 302.36 246.569C303.77 246.757 304.945 246.992 305.885 247.274C308.204 247.963 310.319 249.311 312.23 251.316C314.141 253.321 315.097 256.235 315.097 260.058C315.097 262.314 314.737 264.147 314.016 265.557C313.295 266.936 312.34 268.079 311.149 268.988C310.585 269.395 310.021 269.74 309.457 270.022C308.893 270.304 308.329 270.523 307.765 270.68C309.081 270.868 310.272 271.213 311.337 271.714C313.029 272.466 314.502 273.657 315.755 275.286C317.008 276.884 317.635 279.265 317.635 282.43C317.635 285.814 316.805 288.697 315.144 291.078C313.515 293.459 311.055 295.12 307.765 296.06C306.637 296.373 305.305 296.608 303.77 296.765C302.266 296.922 300.684 297 299.023 297H273.643ZM286.615 287.318H298.083C298.741 287.318 299.415 287.255 300.104 287.13C300.825 286.973 301.467 286.785 302.031 286.566C302.94 286.19 303.582 285.548 303.958 284.639C304.365 283.73 304.569 282.806 304.569 281.866C304.569 280.55 304.271 279.516 303.676 278.764C303.112 278.012 302.47 277.479 301.749 277.166C301.154 276.884 300.496 276.727 299.775 276.696C299.086 276.633 298.522 276.602 298.083 276.602H286.615V287.318ZM286.615 266.732H294.417C295.42 266.732 296.36 266.685 297.237 266.591C298.146 266.466 298.898 266.262 299.493 265.98C300.308 265.604 300.919 265.009 301.326 264.194C301.733 263.348 301.937 262.408 301.937 261.374C301.937 260.277 301.702 259.29 301.232 258.413C300.793 257.504 300.057 256.893 299.023 256.58C298.334 256.329 297.456 256.188 296.391 256.157C295.357 256.126 294.699 256.11 294.417 256.11H286.615V266.732ZM323.217 297V246.24H336.001V262.408H340.607C342.017 262.408 343.662 262.439 345.542 262.502C347.422 262.565 348.973 262.721 350.195 262.972C353.172 263.63 355.678 264.68 357.715 266.121C359.752 267.562 361.287 269.427 362.321 271.714C363.386 273.97 363.919 276.665 363.919 279.798C363.919 284.31 362.744 287.945 360.394 290.702C358.075 293.428 354.707 295.308 350.289 296.342C349.067 296.624 347.5 296.812 345.589 296.906C343.678 296.969 342.017 297 340.607 297H323.217ZM336.001 287.13H342.017C342.581 287.13 343.208 287.099 343.897 287.036C344.586 286.973 345.276 286.848 345.965 286.66C347.281 286.284 348.44 285.454 349.443 284.169C350.446 282.884 350.947 281.427 350.947 279.798C350.947 278.012 350.43 276.492 349.396 275.239C348.362 273.954 347.156 273.124 345.777 272.748C345.119 272.56 344.461 272.435 343.803 272.372C343.145 272.309 342.55 272.278 342.017 272.278H336.001V287.13ZM368.995 297V246.24H381.779V297H368.995ZM391.059 297V246.24H414.841C416.721 246.24 418.366 246.35 419.776 246.569C421.186 246.757 422.361 246.992 423.301 247.274C425.619 247.963 427.734 249.311 429.646 251.316C431.557 253.321 432.513 256.235 432.513 260.058C432.513 262.314 432.152 264.147 431.432 265.557C430.711 266.936 429.755 268.079 428.565 268.988C428.001 269.395 427.437 269.74 426.873 270.022C426.309 270.304 425.745 270.523 425.181 270.68C426.497 270.868 427.687 271.213 428.753 271.714C430.445 272.466 431.917 273.657 433.171 275.286C434.424 276.884 435.051 279.265 435.051 282.43C435.051 285.814 434.22 288.697 432.56 291.078C430.93 293.459 428.471 295.12 425.181 296.06C424.053 296.373 422.721 296.608 421.186 296.765C419.682 296.922 418.099 297 416.439 297H391.059ZM404.031 287.318H415.499C416.157 287.318 416.83 287.255 417.52 287.13C418.24 286.973 418.883 286.785 419.447 286.566C420.355 286.19 420.998 285.548 421.374 284.639C421.781 283.73 421.985 282.806 421.985 281.866C421.985 280.55 421.687 279.516 421.092 278.764C420.528 278.012 419.885 277.479 419.165 277.166C418.569 276.884 417.911 276.727 417.191 276.696C416.501 276.633 415.937 276.602 415.499 276.602H404.031V287.318ZM404.031 266.732H411.833C412.835 266.732 413.775 266.685 414.653 266.591C415.561 266.466 416.313 266.262 416.909 265.98C417.723 265.604 418.334 265.009 418.742 264.194C419.149 263.348 419.353 262.408 419.353 261.374C419.353 260.277 419.118 259.29 418.648 258.413C418.209 257.504 417.473 256.893 416.439 256.58C415.749 256.329 414.872 256.188 413.807 256.157C412.773 256.126 412.115 256.11 411.833 256.11H404.031V266.732ZM454.827 298.41C451.192 298.41 448.106 297.721 445.568 296.342C443.061 294.932 441.15 293.068 439.834 290.749C438.549 288.399 437.907 285.814 437.907 282.994C437.907 280.644 438.267 278.498 438.988 276.555C439.708 274.612 440.868 272.905 442.466 271.432C444.095 269.928 446.273 268.675 448.999 267.672C450.879 266.983 453.119 266.372 455.72 265.839C458.32 265.306 461.266 264.805 464.556 264.335C467.846 263.834 471.465 263.285 475.413 262.69L470.807 265.228C470.807 262.22 470.086 260.011 468.645 258.601C467.203 257.191 464.791 256.486 461.407 256.486C459.527 256.486 457.568 256.94 455.532 257.849C453.495 258.758 452.069 260.371 451.255 262.69L439.693 259.024C440.977 254.825 443.39 251.41 446.931 248.778C450.471 246.146 455.297 244.83 461.407 244.83C465.887 244.83 469.867 245.519 473.345 246.898C476.823 248.277 479.455 250.658 481.241 254.042C482.243 255.922 482.839 257.802 483.027 259.682C483.215 261.562 483.309 263.661 483.309 265.98V297H472.123V286.566L473.721 288.728C471.245 292.143 468.566 294.619 465.684 296.154C462.832 297.658 459.213 298.41 454.827 298.41ZM457.553 288.352C459.903 288.352 461.877 287.945 463.475 287.13C465.104 286.284 466.389 285.328 467.329 284.263C468.3 283.198 468.958 282.305 469.303 281.584C469.961 280.205 470.337 278.607 470.431 276.79C470.556 274.941 470.619 273.406 470.619 272.184L474.379 273.124C470.587 273.751 467.517 274.283 465.167 274.722C462.817 275.129 460.921 275.505 459.48 275.85C458.038 276.195 456.769 276.571 455.673 276.978C454.419 277.479 453.401 278.028 452.618 278.623C451.866 279.187 451.302 279.814 450.926 280.503C450.581 281.192 450.409 281.96 450.409 282.806C450.409 283.965 450.691 284.968 451.255 285.814C451.85 286.629 452.68 287.255 453.746 287.694C454.811 288.133 456.08 288.352 457.553 288.352ZM515.363 298.41C510.162 298.41 505.572 297.298 501.592 295.073C497.644 292.817 494.542 289.731 492.286 285.814C490.062 281.866 488.949 277.354 488.949 272.278C488.949 266.732 490.046 261.907 492.239 257.802C494.433 253.697 497.456 250.517 501.31 248.261C505.164 245.974 509.598 244.83 514.611 244.83C519.938 244.83 524.466 246.083 528.194 248.59C531.923 251.097 534.68 254.622 536.466 259.165C538.252 263.708 538.879 269.051 538.346 275.192H525.703V270.492C525.703 265.322 524.873 261.609 523.212 259.353C521.583 257.066 518.904 255.922 515.175 255.922C510.82 255.922 507.608 257.254 505.54 259.917C503.504 262.549 502.485 266.45 502.485 271.62C502.485 276.351 503.504 280.017 505.54 282.618C507.608 285.187 510.632 286.472 514.611 286.472C517.118 286.472 519.264 285.924 521.05 284.827C522.836 283.73 524.199 282.148 525.139 280.08L537.923 283.746C536.012 288.383 532.988 291.987 528.852 294.556C524.748 297.125 520.251 298.41 515.363 298.41ZM498.537 275.192V265.698H532.189V275.192H498.537ZM543.728 297V246.24H554.068L571.74 279.14L589.412 246.24H599.752V297H587.532V271.714L573.996 297H569.484L555.948 271.714V297H543.728Z" fill="#DADADA"/>
<path d="M50.794 340.24V391H38.574V359.98L15.638 391H5.486V340.24H17.706V370.226L40.736 340.24H50.794ZM71.5012 402.28V381.13C74.1958 381.13 76.1072 380.19 77.2352 378.31C78.3945 376.43 79.3032 373.077 79.9612 368.252C80.3372 365.463 80.6505 362.534 80.9012 359.463C81.1832 356.392 81.4182 353.243 81.6062 350.016C81.7942 346.789 81.9665 343.53 82.1232 340.24H121.321V381.13H126.491V402.28H114.459V391H83.5332V402.28H71.5012ZM87.8572 381.13H108.537V350.11H93.2152C93.1212 351.833 93.0115 353.557 92.8862 355.28C92.7922 357.003 92.6668 358.711 92.5102 360.403C92.3848 362.095 92.2595 363.74 92.1342 365.338C92.0088 366.905 91.8678 368.409 91.7112 369.85C91.4292 372.607 91.0375 374.848 90.5362 376.571C90.0348 378.294 89.1418 379.814 87.8572 381.13ZM154.929 392.41C149.822 392.41 145.341 391.266 141.487 388.979C137.633 386.692 134.625 383.543 132.463 379.532C130.332 375.49 129.267 370.853 129.267 365.62C129.267 360.325 130.364 355.672 132.557 351.661C134.75 347.619 137.774 344.47 141.628 342.214C145.482 339.958 149.916 338.83 154.929 338.83C160.036 338.83 164.517 339.974 168.371 342.261C172.256 344.548 175.28 347.713 177.442 351.755C179.604 355.766 180.685 360.387 180.685 365.62C180.685 370.884 179.588 375.537 177.395 379.579C175.233 383.59 172.209 386.739 168.324 389.026C164.47 391.282 160.005 392.41 154.929 392.41ZM154.929 380.472C159.034 380.472 162.089 379.093 164.094 376.336C166.131 373.547 167.149 369.975 167.149 365.62C167.149 361.108 166.115 357.505 164.047 354.81C162.01 352.115 158.971 350.768 154.929 350.768C152.14 350.768 149.853 351.395 148.067 352.648C146.281 353.901 144.949 355.64 144.072 357.865C143.226 360.09 142.803 362.675 142.803 365.62C142.803 370.163 143.821 373.782 145.858 376.477C147.926 379.14 150.95 380.472 154.929 380.472ZM187.167 391V340.24H210.949C212.829 340.24 214.474 340.35 215.884 340.569C217.294 340.757 218.469 340.992 219.409 341.274C221.727 341.963 223.842 343.311 225.754 345.316C227.665 347.321 228.621 350.235 228.621 354.058C228.621 356.314 228.26 358.147 227.54 359.557C226.819 360.936 225.863 362.079 224.673 362.988C224.109 363.395 223.545 363.74 222.981 364.022C222.417 364.304 221.853 364.523 221.289 364.68C222.605 364.868 223.795 365.213 224.861 365.714C226.553 366.466 228.025 367.657 229.279 369.286C230.532 370.884 231.159 373.265 231.159 376.43C231.159 379.814 230.328 382.697 228.668 385.078C227.038 387.459 224.579 389.12 221.289 390.06C220.161 390.373 218.829 390.608 217.294 390.765C215.79 390.922 214.207 391 212.547 391H187.167ZM200.139 381.318H211.607C212.265 381.318 212.938 381.255 213.628 381.13C214.348 380.973 214.991 380.785 215.555 380.566C216.463 380.19 217.106 379.548 217.482 378.639C217.889 377.73 218.093 376.806 218.093 375.866C218.093 374.55 217.795 373.516 217.2 372.764C216.636 372.012 215.993 371.479 215.273 371.166C214.677 370.884 214.019 370.727 213.299 370.696C212.609 370.633 212.045 370.602 211.607 370.602H200.139V381.318ZM200.139 360.732H207.941C208.943 360.732 209.883 360.685 210.761 360.591C211.669 360.466 212.421 360.262 213.017 359.98C213.831 359.604 214.442 359.009 214.85 358.194C215.257 357.348 215.461 356.408 215.461 355.374C215.461 354.277 215.226 353.29 214.756 352.413C214.317 351.504 213.581 350.893 212.547 350.58C211.857 350.329 210.98 350.188 209.915 350.157C208.881 350.126 208.223 350.11 207.941 350.11H200.139V360.732ZM260.429 392.41C255.227 392.41 250.637 391.298 246.658 389.073C242.71 386.817 239.608 383.731 237.352 379.814C235.127 375.866 234.015 371.354 234.015 366.278C234.015 360.732 235.111 355.907 237.305 351.802C239.498 347.697 242.522 344.517 246.376 342.261C250.23 339.974 254.663 338.83 259.677 338.83C265.003 338.83 269.531 340.083 273.26 342.59C276.988 345.097 279.746 348.622 281.532 353.165C283.318 357.708 283.944 363.051 283.412 369.192H270.769V364.492C270.769 359.322 269.938 355.609 268.278 353.353C266.648 351.066 263.969 349.922 260.241 349.922C255.885 349.922 252.674 351.254 250.606 353.917C248.569 356.549 247.551 360.45 247.551 365.62C247.551 370.351 248.569 374.017 250.606 376.618C252.674 379.187 255.697 380.472 259.677 380.472C262.183 380.472 264.33 379.924 266.116 378.827C267.902 377.73 269.265 376.148 270.205 374.08L282.989 377.746C281.077 382.383 278.054 385.987 273.918 388.556C269.813 391.125 265.317 392.41 260.429 392.41ZM243.603 369.192V359.698H277.255V369.192H243.603ZM315.174 392.41C310.129 392.41 305.915 391.235 302.531 388.885C299.147 386.535 296.593 383.339 294.87 379.297C293.178 375.255 292.332 370.696 292.332 365.62C292.332 360.544 293.178 355.985 294.87 351.943C296.562 347.901 299.053 344.705 302.343 342.355C305.633 340.005 309.691 338.83 314.516 338.83C319.373 338.83 323.603 339.989 327.206 342.308C330.809 344.627 333.598 347.807 335.572 351.849C337.577 355.86 338.58 360.45 338.58 365.62C338.58 370.696 337.593 375.255 335.619 379.297C333.676 383.339 330.95 386.535 327.441 388.885C323.932 391.235 319.843 392.41 315.174 392.41ZM290.17 413.56V340.24H301.45V375.02H303.048V413.56H290.17ZM313.106 381.036C315.863 381.036 318.119 380.347 319.874 378.968C321.629 377.589 322.929 375.741 323.775 373.422C324.621 371.072 325.044 368.471 325.044 365.62C325.044 362.8 324.605 360.231 323.728 357.912C322.851 355.562 321.488 353.698 319.639 352.319C317.822 350.909 315.487 350.204 312.636 350.204C309.973 350.204 307.811 350.846 306.15 352.131C304.521 353.416 303.33 355.217 302.578 357.536C301.826 359.855 301.45 362.549 301.45 365.62C301.45 368.691 301.826 371.385 302.578 373.704C303.33 376.023 304.552 377.824 306.244 379.109C307.967 380.394 310.255 381.036 313.106 381.036ZM390.376 340.24V391H378.156V359.98L355.22 391H345.068V340.24H357.288V370.226L380.318 340.24H390.376ZM423.379 392.41C418.178 392.41 413.588 391.298 409.608 389.073C405.66 386.817 402.558 383.731 400.302 379.814C398.078 375.866 396.965 371.354 396.965 366.278C396.965 360.732 398.062 355.907 400.255 351.802C402.449 347.697 405.472 344.517 409.326 342.261C413.18 339.974 417.614 338.83 422.627 338.83C427.954 338.83 432.482 340.083 436.21 342.59C439.939 345.097 442.696 348.622 444.482 353.165C446.268 357.708 446.895 363.051 446.362 369.192H433.719V364.492C433.719 359.322 432.889 355.609 431.228 353.353C429.599 351.066 426.92 349.922 423.191 349.922C418.836 349.922 415.624 351.254 413.556 353.917C411.52 356.549 410.501 360.45 410.501 365.62C410.501 370.351 411.52 374.017 413.556 376.618C415.624 379.187 418.648 380.472 422.627 380.472C425.134 380.472 427.28 379.924 429.066 378.827C430.852 377.73 432.215 376.148 433.155 374.08L445.939 377.746C444.028 382.383 441.004 385.987 436.868 388.556C432.764 391.125 428.267 392.41 423.379 392.41ZM406.553 369.192V359.698H440.205V369.192H406.553Z" fill="#DADADA"/>
<path d="M1.82 496.28V473.062C3.85667 473.062 5.58 472.561 6.99 471.558C8.43133 470.524 9.60633 469.083 10.515 467.234C11.4237 465.354 12.1443 463.161 12.677 460.654C13.2097 458.147 13.6013 455.421 13.852 452.476C14.1653 448.716 14.4473 445.019 14.698 441.384C14.9487 437.718 15.1993 433.927 15.45 430.01C15.7007 426.062 15.9827 421.801 16.296 417.226L61.228 417.32V473.062H66.398V496.28H53.614V485H14.604V496.28H1.82ZM20.902 473.062H48.444V429.258L27.952 429.164C27.7327 432.266 27.5447 435.117 27.388 437.718C27.2627 440.319 27.106 442.951 26.918 445.614C26.73 448.277 26.4793 451.254 26.166 454.544C25.8527 457.834 25.5393 460.544 25.226 462.675C24.9127 464.774 24.427 466.607 23.769 468.174C23.1423 469.741 22.1867 471.37 20.902 473.062ZM96.5566 486.41C91.3552 486.41 86.7649 485.298 82.7856 483.073C78.8376 480.817 75.7356 477.731 73.4796 473.814C71.2549 469.866 70.1426 465.354 70.1426 460.278C70.1426 454.732 71.2392 449.907 73.4326 445.802C75.6259 441.697 78.6496 438.517 82.5036 436.261C86.3576 433.974 90.7912 432.83 95.8046 432.83C101.131 432.83 105.659 434.083 109.388 436.59C113.116 439.097 115.874 442.622 117.66 447.165C119.446 451.708 120.072 457.051 119.54 463.192H106.897V458.492C106.897 453.322 106.066 449.609 104.406 447.353C102.776 445.066 100.097 443.922 96.3686 443.922C92.0132 443.922 88.8016 445.254 86.7336 447.917C84.6969 450.549 83.6786 454.45 83.6786 459.62C83.6786 464.351 84.6969 468.017 86.7336 470.618C88.8016 473.187 91.8252 474.472 95.8046 474.472C98.3112 474.472 100.458 473.924 102.244 472.827C104.03 471.73 105.393 470.148 106.333 468.08L119.117 471.746C117.205 476.383 114.182 479.987 110.046 482.556C105.941 485.125 101.445 486.41 96.5566 486.41ZM79.7306 463.192V453.698H113.383V463.192H79.7306ZM121.692 485V474.378C123.541 474.723 124.966 474.707 125.969 474.331C126.972 473.924 127.724 473.14 128.225 471.981C128.758 470.79 129.212 469.177 129.588 467.14C130.089 464.445 130.528 461.296 130.904 457.693C131.311 454.09 131.656 450.283 131.938 446.272C132.22 442.23 132.471 438.219 132.69 434.24H171.042V485H158.258V446.178H143.876C143.751 447.807 143.578 449.75 143.359 452.006C143.171 454.262 142.952 456.612 142.701 459.056C142.482 461.469 142.231 463.787 141.949 466.012C141.667 468.205 141.369 470.085 141.056 471.652C140.304 475.631 139.192 478.765 137.719 481.052C136.246 483.339 134.225 484.796 131.656 485.423C129.087 486.081 125.765 485.94 121.692 485ZM194.564 486.41C190.929 486.41 187.843 485.721 185.305 484.342C182.798 482.932 180.887 481.068 179.571 478.749C178.286 476.399 177.644 473.814 177.644 470.994C177.644 468.644 178.004 466.498 178.725 464.555C179.446 462.612 180.605 460.905 182.203 459.432C183.832 457.928 186.01 456.675 188.736 455.672C190.616 454.983 192.856 454.372 195.457 453.839C198.058 453.306 201.003 452.805 204.293 452.335C207.583 451.834 211.202 451.285 215.15 450.69L210.544 453.228C210.544 450.22 209.823 448.011 208.382 446.601C206.941 445.191 204.528 444.486 201.144 444.486C199.264 444.486 197.306 444.94 195.269 445.849C193.232 446.758 191.807 448.371 190.992 450.69L179.43 447.024C180.715 442.825 183.127 439.41 186.668 436.778C190.209 434.146 195.034 432.83 201.144 432.83C205.625 432.83 209.604 433.519 213.082 434.898C216.56 436.277 219.192 438.658 220.978 442.042C221.981 443.922 222.576 445.802 222.764 447.682C222.952 449.562 223.046 451.661 223.046 453.98V485H211.86V474.566L213.458 476.728C210.983 480.143 208.304 482.619 205.421 484.154C202.57 485.658 198.951 486.41 194.564 486.41ZM197.29 476.352C199.64 476.352 201.614 475.945 203.212 475.13C204.841 474.284 206.126 473.328 207.066 472.263C208.037 471.198 208.695 470.305 209.04 469.584C209.698 468.205 210.074 466.607 210.168 464.79C210.293 462.941 210.356 461.406 210.356 460.184L214.116 461.124C210.325 461.751 207.254 462.283 204.904 462.722C202.554 463.129 200.658 463.505 199.217 463.85C197.776 464.195 196.507 464.571 195.41 464.978C194.157 465.479 193.138 466.028 192.355 466.623C191.603 467.187 191.039 467.814 190.663 468.503C190.318 469.192 190.146 469.96 190.146 470.806C190.146 471.965 190.428 472.968 190.992 473.814C191.587 474.629 192.418 475.255 193.483 475.694C194.548 476.133 195.817 476.352 197.29 476.352ZM255.101 486.41C249.899 486.41 245.309 485.298 241.33 483.073C237.382 480.817 234.28 477.731 232.024 473.814C229.799 469.866 228.687 465.354 228.687 460.278C228.687 454.732 229.783 449.907 231.977 445.802C234.17 441.697 237.194 438.517 241.048 436.261C244.902 433.974 249.335 432.83 254.349 432.83C259.675 432.83 264.203 434.083 267.932 436.59C271.66 439.097 274.418 442.622 276.204 447.165C277.99 451.708 278.616 457.051 278.084 463.192H265.441V458.492C265.441 453.322 264.61 449.609 262.95 447.353C261.32 445.066 258.641 443.922 254.913 443.922C250.557 443.922 247.346 445.254 245.278 447.917C243.241 450.549 242.223 454.45 242.223 459.62C242.223 464.351 243.241 468.017 245.278 470.618C247.346 473.187 250.369 474.472 254.349 474.472C256.855 474.472 259.002 473.924 260.788 472.827C262.574 471.73 263.937 470.148 264.877 468.08L277.661 471.746C275.749 476.383 272.726 479.987 268.59 482.556C264.485 485.125 259.989 486.41 255.101 486.41ZM238.275 463.192V453.698H271.927V463.192H238.275ZM283.465 485V434.24H293.805L311.477 467.14L329.149 434.24H339.489V485H327.269V459.714L313.733 485H309.221L295.685 459.714V485H283.465ZM385.366 486.504C380.478 486.441 376.342 485.36 372.958 483.261C369.574 481.13 366.91 478.201 364.968 474.472C363.056 470.712 361.866 466.357 361.396 461.406C361.145 458.743 361.082 455.75 361.208 452.429C361.364 449.076 361.725 445.786 362.289 442.559C362.853 439.332 363.652 436.559 364.686 434.24C365.688 432.078 366.973 430.104 368.54 428.318C370.138 426.501 371.83 424.965 373.616 423.712C375.715 422.239 377.971 421.111 380.384 420.328C382.796 419.513 385.334 418.887 387.998 418.448C390.661 418.009 393.418 417.618 396.27 417.273C399.152 416.928 402.066 416.474 405.012 415.91L406.14 427.19C404.354 427.66 402.317 428.005 400.03 428.224C397.742 428.443 395.392 428.678 392.98 428.929C390.567 429.148 388.264 429.509 386.071 430.01C383.877 430.511 381.982 431.263 380.384 432.266C378.222 433.613 376.561 435.493 375.402 437.906C374.274 440.287 373.616 442.7 373.428 445.144C375.37 442.324 377.736 440.381 380.525 439.316C383.345 438.251 386.118 437.718 388.844 437.718C393.324 437.718 397.163 438.799 400.359 440.961C403.586 443.092 406.061 445.974 407.785 449.609C409.508 453.212 410.37 457.207 410.37 461.594C410.37 466.576 409.289 470.947 407.127 474.707C404.996 478.467 402.051 481.397 398.291 483.496C394.531 485.564 390.222 486.567 385.366 486.504ZM385.93 474.566C389.564 474.566 392.306 473.438 394.155 471.182C396.003 468.926 396.928 465.918 396.928 462.158C396.928 458.304 395.972 455.28 394.061 453.087C392.181 450.862 389.47 449.75 385.93 449.75C382.326 449.75 379.585 450.862 377.705 453.087C375.856 455.28 374.932 458.304 374.932 462.158C374.932 466.137 375.887 469.208 377.799 471.37C379.71 473.501 382.42 474.566 385.93 474.566ZM441.861 486.41C436.817 486.41 432.602 485.235 429.218 482.885C425.834 480.535 423.281 477.339 421.557 473.297C419.865 469.255 419.019 464.696 419.019 459.62C419.019 454.544 419.865 449.985 421.557 445.943C423.249 441.901 425.74 438.705 429.03 436.355C432.32 434.005 436.378 432.83 441.203 432.83C446.06 432.83 450.29 433.989 453.893 436.308C457.497 438.627 460.285 441.807 462.259 445.849C464.265 449.86 465.267 454.45 465.267 459.62C465.267 464.696 464.28 469.255 462.306 473.297C460.364 477.339 457.638 480.535 454.128 482.885C450.619 485.235 446.53 486.41 441.861 486.41ZM416.857 507.56V434.24H428.137V469.02H429.735V507.56H416.857ZM439.793 475.036C442.551 475.036 444.807 474.347 446.561 472.968C448.316 471.589 449.616 469.741 450.462 467.422C451.308 465.072 451.731 462.471 451.731 459.62C451.731 456.8 451.293 454.231 450.415 451.912C449.538 449.562 448.175 447.698 446.326 446.319C444.509 444.909 442.175 444.204 439.323 444.204C436.66 444.204 434.498 444.846 432.837 446.131C431.208 447.416 430.017 449.217 429.265 451.536C428.513 453.855 428.137 456.549 428.137 459.62C428.137 462.691 428.513 465.385 429.265 467.704C430.017 470.023 431.239 471.824 432.931 473.109C434.655 474.394 436.942 475.036 439.793 475.036ZM495.443 486.41C490.242 486.41 485.652 485.298 481.672 483.073C477.724 480.817 474.622 477.731 472.366 473.814C470.142 469.866 469.029 465.354 469.029 460.278C469.029 454.732 470.126 449.907 472.319 445.802C474.513 441.697 477.536 438.517 481.39 436.261C485.244 433.974 489.678 432.83 494.691 432.83C500.018 432.83 504.546 434.083 508.274 436.59C512.003 439.097 514.76 442.622 516.546 447.165C518.332 451.708 518.959 457.051 518.426 463.192H505.783V458.492C505.783 453.322 504.953 449.609 503.292 447.353C501.663 445.066 498.984 443.922 495.255 443.922C490.9 443.922 487.688 445.254 485.62 447.917C483.584 450.549 482.565 454.45 482.565 459.62C482.565 464.351 483.584 468.017 485.62 470.618C487.688 473.187 490.712 474.472 494.691 474.472C497.198 474.472 499.344 473.924 501.13 472.827C502.916 471.73 504.279 470.148 505.219 468.08L518.003 471.746C516.092 476.383 513.068 479.987 508.932 482.556C504.828 485.125 500.331 486.41 495.443 486.41ZM478.617 463.192V453.698H512.269V463.192H478.617ZM525.185 485V434.24H537.969V453.604H558.837V434.24H571.621V485H558.837V465.542H537.969V485H525.185ZM577.243 496.28V475.13C579.938 475.13 581.849 474.19 582.977 472.31C584.137 470.43 585.045 467.077 585.703 462.252C586.079 459.463 586.393 456.534 586.643 453.463C586.925 450.392 587.16 447.243 587.348 444.016C587.536 440.789 587.709 437.53 587.865 434.24H627.063V475.13H632.233V496.28H620.201V485H589.275V496.28H577.243ZM593.599 475.13H614.279V444.11H598.957C598.863 445.833 598.754 447.557 598.628 449.28C598.534 451.003 598.409 452.711 598.252 454.403C598.127 456.095 598.002 457.74 597.876 459.338C597.751 460.905 597.61 462.409 597.453 463.85C597.171 466.607 596.78 468.848 596.278 470.571C595.777 472.294 594.884 473.814 593.599 475.13ZM636.889 460.278V450.408H665.089V460.278H636.889ZM673.448 485L673.542 434.24H686.514V458.68L703.716 434.24H719.508L701.178 459.62L720.73 485H704.092L686.514 460.56V485H673.448ZM743.571 486.41C738.464 486.41 733.983 485.266 730.129 482.979C726.275 480.692 723.267 477.543 721.105 473.532C718.974 469.49 717.909 464.853 717.909 459.62C717.909 454.325 719.006 449.672 721.199 445.661C723.392 441.619 726.416 438.47 730.27 436.214C734.124 433.958 738.558 432.83 743.571 432.83C748.678 432.83 753.159 433.974 757.013 436.261C760.898 438.548 763.922 441.713 766.084 445.755C768.246 449.766 769.327 454.387 769.327 459.62C769.327 464.884 768.23 469.537 766.037 473.579C763.875 477.59 760.851 480.739 756.966 483.026C753.112 485.282 748.647 486.41 743.571 486.41ZM743.571 474.472C747.676 474.472 750.731 473.093 752.736 470.336C754.773 467.547 755.791 463.975 755.791 459.62C755.791 455.108 754.757 451.505 752.689 448.81C750.652 446.115 747.613 444.768 743.571 444.768C740.782 444.768 738.495 445.395 736.709 446.648C734.923 447.901 733.591 449.64 732.714 451.865C731.868 454.09 731.445 456.675 731.445 459.62C731.445 464.163 732.463 467.782 734.5 470.477C736.568 473.14 739.592 474.472 743.571 474.472ZM775.809 485V434.24H786.149L803.821 467.14L821.493 434.24H831.833V485H819.613V459.714L806.077 485H801.565L788.029 459.714V485H775.809ZM841.172 485V434.24H851.512L869.184 467.14L886.856 434.24H897.196V485H884.976V459.714L871.44 485H866.928L853.392 459.714V485H841.172ZM913.115 507.56L922.891 480.676L923.079 488.572L900.989 434.24H914.243L929.095 472.686H926.087L940.845 434.24H953.629L924.959 507.56H913.115ZM956.384 485V434.24H969.168V453.604H990.036V434.24H1002.82V485H990.036V465.542H969.168V485H956.384ZM1057.42 434.24V485H1045.2V453.98L1022.26 485H1012.11V434.24H1024.33V464.226L1047.36 434.24H1057.42ZM1066.73 485L1066.83 434.24H1079.8V458.68L1097 434.24H1112.79L1094.46 459.62L1114.01 485H1097.38L1079.8 460.56V485H1066.73ZM1129.03 486.41C1125.4 486.41 1122.31 485.721 1119.77 484.342C1117.26 482.932 1115.35 481.068 1114.04 478.749C1112.75 476.399 1112.11 473.814 1112.11 470.994C1112.11 468.644 1112.47 466.498 1113.19 464.555C1113.91 462.612 1115.07 460.905 1116.67 459.432C1118.3 457.928 1120.48 456.675 1123.2 455.672C1125.08 454.983 1127.32 454.372 1129.92 453.839C1132.52 453.306 1135.47 452.805 1138.76 452.335C1142.05 451.834 1145.67 451.285 1149.62 450.69L1145.01 453.228C1145.01 450.22 1144.29 448.011 1142.85 446.601C1141.41 445.191 1138.99 444.486 1135.61 444.486C1133.73 444.486 1131.77 444.94 1129.74 445.849C1127.7 446.758 1126.27 448.371 1125.46 450.69L1113.9 447.024C1115.18 442.825 1117.59 439.41 1121.13 436.778C1124.68 434.146 1129.5 432.83 1135.61 432.83C1140.09 432.83 1144.07 433.519 1147.55 434.898C1151.03 436.277 1153.66 438.658 1155.44 442.042C1156.45 443.922 1157.04 445.802 1157.23 447.682C1157.42 449.562 1157.51 451.661 1157.51 453.98V485H1146.33V474.566L1147.92 476.728C1145.45 480.143 1142.77 482.619 1139.89 484.154C1137.04 485.658 1133.42 486.41 1129.03 486.41ZM1131.76 476.352C1134.11 476.352 1136.08 475.945 1137.68 475.13C1139.31 474.284 1140.59 473.328 1141.53 472.263C1142.5 471.198 1143.16 470.305 1143.51 469.584C1144.16 468.205 1144.54 466.607 1144.63 464.79C1144.76 462.941 1144.82 461.406 1144.82 460.184L1148.58 461.124C1144.79 461.751 1141.72 462.283 1139.37 462.722C1137.02 463.129 1135.12 463.505 1133.68 463.85C1132.24 464.195 1130.97 464.571 1129.88 464.978C1128.62 465.479 1127.6 466.028 1126.82 466.623C1126.07 467.187 1125.51 467.814 1125.13 468.503C1124.78 469.192 1124.61 469.96 1124.61 470.806C1124.61 471.965 1124.89 472.968 1125.46 473.814C1126.05 474.629 1126.88 475.255 1127.95 475.694C1129.01 476.133 1130.28 476.352 1131.76 476.352ZM1208.09 496.28V485H1165.88V434.24H1178.66V473.062H1198.4V434.24H1211.19V473.72H1220.87V496.28H1208.09ZM1269.85 434.24V485H1257.63V453.98L1234.69 485H1224.54V434.24H1236.76V464.226L1259.79 434.24H1269.85ZM1324.47 434.24V485H1312.25V453.98L1289.32 485H1279.16V434.24H1291.38V464.226L1314.41 434.24H1324.47Z" fill="#DADADA"/>
<path d="M24.944 580.41C19.0847 580.41 14.1497 578.953 10.139 576.039C6.12833 573.125 3.38667 568.973 1.914 563.584L14.98 560.858C15.732 563.302 16.86 565.182 18.364 566.498C19.8993 567.814 22.0927 568.472 24.944 568.472C28.046 568.472 30.537 567.579 32.417 565.793C34.297 563.976 35.5347 561.547 36.13 558.508H21.184V548.638H36.13C35.566 545.849 34.391 543.515 32.605 541.635C30.819 539.724 28.3907 538.768 25.32 538.768C22.782 538.768 20.573 539.489 18.693 540.93C16.8443 542.34 15.5127 544.408 14.698 547.134L1.914 543.75C3.042 538.517 5.64267 534.397 9.716 531.389C13.7893 528.35 18.8027 526.83 24.756 526.83C29.926 526.83 34.4067 527.989 38.198 530.308C42.0207 532.627 44.966 535.823 47.034 539.896C49.102 543.938 50.136 548.544 50.136 553.714C50.136 558.759 49.1333 563.302 47.128 567.344C45.1227 571.355 42.24 574.535 38.48 576.885C34.72 579.235 30.208 580.41 24.944 580.41ZM80.4025 600.15V579.846C75.4519 580.629 70.9712 580.112 66.9605 578.295C62.9499 576.446 59.7695 573.438 57.4195 569.271C55.0695 565.104 53.8945 559.887 53.8945 553.62C53.8945 547.353 55.0695 542.136 57.4195 537.969C59.7695 533.77 62.9499 530.762 66.9605 528.945C70.9712 527.128 75.4519 526.611 80.4025 527.394V512.26H91.6825V527.394C96.6332 526.611 101.114 527.128 105.125 528.945C109.135 530.762 112.316 533.77 114.666 537.969C117.016 542.136 118.191 547.353 118.191 553.62C118.191 559.887 117.016 565.104 114.666 569.271C112.316 573.438 109.135 576.446 105.125 578.295C101.114 580.112 96.6332 580.629 91.6825 579.846V600.15H80.4025ZM80.4025 568.472V538.862C77.8645 538.423 75.7182 538.502 73.9635 539.097C72.2402 539.661 70.8615 540.632 69.8275 542.011C68.7935 543.358 68.0415 545.035 67.5715 547.04C67.1015 549.014 66.8665 551.207 66.8665 553.62C66.8665 556.033 67.1172 558.242 67.6185 560.247C68.1199 562.221 68.9032 563.897 69.9685 565.276C71.0652 566.655 72.4752 567.642 74.1985 568.237C75.9219 568.801 77.9899 568.879 80.4025 568.472ZM91.6825 568.472C94.0952 568.879 96.1632 568.801 97.8865 568.237C99.6099 567.673 101.004 566.717 102.07 565.37C103.166 564.023 103.965 562.346 104.467 560.341C104.968 558.336 105.219 556.095 105.219 553.62C105.219 551.113 104.984 548.873 104.514 546.899C104.044 544.894 103.292 543.217 102.258 541.87C101.224 540.523 99.8292 539.583 98.0745 539.05C96.3512 538.486 94.2205 538.423 91.6825 538.862V568.472ZM148.428 600.15V579.846C143.477 580.629 138.996 580.112 134.986 578.295C130.975 576.446 127.795 573.438 125.445 569.271C123.095 565.104 121.92 559.887 121.92 553.62C121.92 547.353 123.095 542.136 125.445 537.969C127.795 533.77 130.975 530.762 134.986 528.945C138.996 527.128 143.477 526.611 148.428 527.394V512.26H159.708V527.394C164.658 526.611 169.139 527.128 173.15 528.945C177.16 530.762 180.341 533.77 182.691 537.969C185.041 542.136 186.216 547.353 186.216 553.62C186.216 559.887 185.041 565.104 182.691 569.271C180.341 573.438 177.16 576.446 173.15 578.295C169.139 580.112 164.658 580.629 159.708 579.846V600.15H148.428ZM148.428 568.472V538.862C145.89 538.423 143.743 538.502 141.989 539.097C140.265 539.661 138.887 540.632 137.853 542.011C136.819 543.358 136.067 545.035 135.597 547.04C135.127 549.014 134.892 551.207 134.892 553.62C134.892 556.033 135.142 558.242 135.644 560.247C136.145 562.221 136.928 563.897 137.994 565.276C139.09 566.655 140.5 567.642 142.224 568.237C143.947 568.801 146.015 568.879 148.428 568.472ZM159.708 568.472C162.12 568.879 164.188 568.801 165.912 568.237C167.635 567.673 169.029 566.717 170.095 565.37C171.191 564.023 171.99 562.346 172.492 560.341C172.993 558.336 173.244 556.095 173.244 553.62C173.244 551.113 173.009 548.873 172.539 546.899C172.069 544.894 171.317 543.217 170.283 541.87C169.249 540.523 167.854 539.583 166.1 539.05C164.376 538.486 162.246 538.423 159.708 538.862V568.472ZM216.359 580.41C211.158 580.41 206.567 579.298 202.588 577.073C198.64 574.817 195.538 571.731 193.282 567.814C191.057 563.866 189.945 559.354 189.945 554.278C189.945 548.732 191.042 543.907 193.235 539.802C195.428 535.697 198.452 532.517 202.306 530.261C206.16 527.974 210.594 526.83 215.607 526.83C220.934 526.83 225.461 528.083 229.19 530.59C232.919 533.097 235.676 536.622 237.462 541.165C239.248 545.708 239.875 551.051 239.342 557.192H226.699V552.492C226.699 547.322 225.869 543.609 224.208 541.353C222.579 539.066 219.9 537.922 216.171 537.922C211.816 537.922 208.604 539.254 206.536 541.917C204.499 544.549 203.481 548.45 203.481 553.62C203.481 558.351 204.499 562.017 206.536 564.618C208.604 567.187 211.628 568.472 215.607 568.472C218.114 568.472 220.26 567.924 222.046 566.827C223.832 565.73 225.195 564.148 226.135 562.08L238.919 565.746C237.008 570.383 233.984 573.987 229.848 576.556C225.743 579.125 221.247 580.41 216.359 580.41ZM199.533 557.192V547.698H233.185V557.192H199.533ZM246.1 579L246.194 528.24H259.166V552.68L276.368 528.24H292.16L273.83 553.62L293.382 579H276.744L259.166 554.56V579H246.1ZM306.708 579V539.52H290.07V528.24H336.13V539.52H319.492V579H306.708ZM386.517 528.24V579H374.297V547.98L351.361 579H341.209V528.24H353.429V558.226L376.459 528.24H386.517ZM395.832 579V528.24H419.614C421.494 528.24 423.139 528.35 424.549 528.569C425.959 528.757 427.134 528.992 428.074 529.274C430.393 529.963 432.508 531.311 434.419 533.316C436.33 535.321 437.286 538.235 437.286 542.058C437.286 544.314 436.926 546.147 436.205 547.557C435.484 548.936 434.529 550.079 433.338 550.988C432.774 551.395 432.21 551.74 431.646 552.022C431.082 552.304 430.518 552.523 429.954 552.68C431.27 552.868 432.461 553.213 433.526 553.714C435.218 554.466 436.691 555.657 437.944 557.286C439.197 558.884 439.824 561.265 439.824 564.43C439.824 567.814 438.994 570.697 437.333 573.078C435.704 575.459 433.244 577.12 429.954 578.06C428.826 578.373 427.494 578.608 425.959 578.765C424.455 578.922 422.873 579 421.212 579H395.832ZM408.804 569.318H420.272C420.93 569.318 421.604 569.255 422.293 569.13C423.014 568.973 423.656 568.785 424.22 568.566C425.129 568.19 425.771 567.548 426.147 566.639C426.554 565.73 426.758 564.806 426.758 563.866C426.758 562.55 426.46 561.516 425.865 560.764C425.301 560.012 424.659 559.479 423.938 559.166C423.343 558.884 422.685 558.727 421.964 558.696C421.275 558.633 420.711 558.602 420.272 558.602H408.804V569.318ZM408.804 548.732H416.606C417.609 548.732 418.549 548.685 419.426 548.591C420.335 548.466 421.087 548.262 421.682 547.98C422.497 547.604 423.108 547.009 423.515 546.194C423.922 545.348 424.126 544.408 424.126 543.374C424.126 542.277 423.891 541.29 423.421 540.413C422.982 539.504 422.246 538.893 421.212 538.58C420.523 538.329 419.645 538.188 418.58 538.157C417.546 538.126 416.888 538.11 416.606 538.11H408.804V548.732ZM445.406 579V528.24H458.19V547.604H479.058V528.24H491.842V579H479.058V559.542H458.19V579H445.406ZM501.13 579V528.24H513.914V544.408H518.52C519.93 544.408 521.575 544.439 523.455 544.502C525.335 544.565 526.886 544.721 528.108 544.972C531.085 545.63 533.592 546.68 535.628 548.121C537.665 549.562 539.2 551.427 540.234 553.714C541.3 555.97 541.832 558.665 541.832 561.798C541.832 566.31 540.657 569.945 538.307 572.702C535.989 575.428 532.62 577.308 528.202 578.342C526.98 578.624 525.414 578.812 523.502 578.906C521.591 578.969 519.93 579 518.52 579H501.13ZM513.914 569.13H519.93C520.494 569.13 521.121 569.099 521.81 569.036C522.5 568.973 523.189 568.848 523.878 568.66C525.194 568.284 526.354 567.454 527.356 566.169C528.359 564.884 528.86 563.427 528.86 561.798C528.86 560.012 528.343 558.492 527.309 557.239C526.275 555.954 525.069 555.124 523.69 554.748C523.032 554.56 522.374 554.435 521.716 554.372C521.058 554.309 520.463 554.278 519.93 554.278H513.914V569.13ZM546.908 579V528.24H559.692V579H546.908ZM568.972 579V528.24H579.312L596.984 561.14L614.656 528.24H624.996V579H612.776V553.714L599.24 579H594.728L581.192 553.714V579H568.972ZM679.643 528.24V579H667.423V547.98L644.487 579H634.335V528.24H646.555V558.226L669.585 528.24H679.643Z" fill="#DADADA"/>
<path d="M947.074 109V58.24H959.858V77.604H980.726V58.24H993.51V109H980.726V89.542H959.858V109H947.074ZM1016.99 110.41C1013.36 110.41 1010.27 109.721 1007.73 108.342C1005.23 106.932 1003.32 105.068 1002 102.749C1000.71 100.399 1000.07 97.814 1000.07 94.994C1000.07 92.644 1000.43 90.4977 1001.15 88.555C1001.87 86.6123 1003.03 84.9047 1004.63 83.432C1006.26 81.928 1008.44 80.6747 1011.16 79.672C1013.04 78.9827 1015.28 78.3717 1017.89 77.839C1020.49 77.3063 1023.43 76.805 1026.72 76.335C1030.01 75.8337 1033.63 75.2853 1037.58 74.69L1032.97 77.228C1032.97 74.22 1032.25 72.011 1030.81 70.601C1029.37 69.191 1026.96 68.486 1023.57 68.486C1021.69 68.486 1019.73 68.9403 1017.7 69.849C1015.66 70.7577 1014.23 72.3713 1013.42 74.69L1001.86 71.024C1003.14 66.8253 1005.56 63.41 1009.1 60.778C1012.64 58.146 1017.46 56.83 1023.57 56.83C1028.05 56.83 1032.03 57.5193 1035.51 58.898C1038.99 60.2767 1041.62 62.658 1043.41 66.042C1044.41 67.922 1045 69.802 1045.19 71.682C1045.38 73.562 1045.47 75.6613 1045.47 77.98V109H1034.29V98.566L1035.89 100.728C1033.41 104.143 1030.73 106.619 1027.85 108.154C1025 109.658 1021.38 110.41 1016.99 110.41ZM1019.72 100.352C1022.07 100.352 1024.04 99.9447 1025.64 99.13C1027.27 98.284 1028.55 97.3283 1029.49 96.263C1030.47 95.1977 1031.12 94.3047 1031.47 93.584C1032.13 92.2053 1032.5 90.6073 1032.6 88.79C1032.72 86.9413 1032.78 85.406 1032.78 84.184L1036.54 85.124C1032.75 85.7507 1029.68 86.2833 1027.33 86.722C1024.98 87.1293 1023.09 87.5053 1021.65 87.85C1020.2 88.1947 1018.93 88.5707 1017.84 88.978C1016.58 89.4793 1015.57 90.0277 1014.78 90.623C1014.03 91.187 1013.47 91.8137 1013.09 92.503C1012.75 93.1923 1012.57 93.96 1012.57 94.806C1012.57 95.9653 1012.86 96.968 1013.42 97.814C1014.02 98.6287 1014.85 99.2553 1015.91 99.694C1016.98 100.133 1018.25 100.352 1019.72 100.352ZM1091.37 110.41C1086.1 110.41 1081.59 109.235 1077.83 106.885C1074.07 104.535 1071.19 101.339 1069.18 97.297C1067.18 93.255 1066.17 88.696 1066.17 83.62C1066.17 78.4813 1067.21 73.891 1069.28 69.849C1071.37 65.807 1074.32 62.6267 1078.11 60.308C1081.9 57.9893 1086.38 56.83 1091.55 56.83C1097.54 56.83 1102.55 58.3497 1106.59 61.389C1110.67 64.397 1113.27 68.5173 1114.4 73.75L1101.61 77.134C1100.86 74.502 1099.54 72.4497 1097.66 70.977C1095.81 69.5043 1093.72 68.768 1091.37 68.768C1088.67 68.768 1086.46 69.426 1084.74 70.742C1083.01 72.0267 1081.75 73.797 1080.93 76.053C1080.12 78.2777 1079.71 80.8 1079.71 83.62C1079.71 88.038 1080.68 91.6257 1082.62 94.383C1084.6 97.109 1087.51 98.472 1091.37 98.472C1094.25 98.472 1096.44 97.814 1097.95 96.498C1099.45 95.182 1100.58 93.302 1101.33 90.858L1114.4 93.584C1112.95 98.9733 1110.23 103.125 1106.22 106.039C1102.21 108.953 1097.26 110.41 1091.37 110.41ZM1132.44 109V69.52H1115.81V58.24H1161.87V69.52H1145.23V109H1132.44ZM1166.95 109V58.24H1179.73V74.408H1184.34C1185.75 74.408 1187.39 74.4393 1189.27 74.502C1191.15 74.5647 1192.7 74.7213 1193.92 74.972C1196.9 75.63 1199.41 76.6797 1201.44 78.121C1203.48 79.5623 1205.02 81.4267 1206.05 83.714C1207.12 85.97 1207.65 88.6647 1207.65 91.798C1207.65 96.31 1206.47 99.9447 1204.12 102.702C1201.8 105.428 1198.44 107.308 1194.02 108.342C1192.8 108.624 1191.23 108.812 1189.32 108.906C1187.41 108.969 1185.75 109 1184.34 109H1166.95ZM1179.73 99.13H1185.75C1186.31 99.13 1186.94 99.0987 1187.63 99.036C1188.32 98.9733 1189 98.848 1189.69 98.66C1191.01 98.284 1192.17 97.4537 1193.17 96.169C1194.17 94.8843 1194.68 93.4273 1194.68 91.798C1194.68 90.012 1194.16 88.4923 1193.12 87.239C1192.09 85.9543 1190.88 85.124 1189.51 84.748C1188.85 84.56 1188.19 84.4347 1187.53 84.372C1186.87 84.3093 1186.28 84.278 1185.75 84.278H1179.73V99.13ZM1212.72 109V58.24H1225.51V109H1212.72ZM1234.79 109L1234.88 58.24H1247.85V82.68L1265.06 58.24H1280.85L1262.52 83.62L1282.07 109H1265.43L1247.85 84.56V109H1234.79ZM1304.74 110.41C1299.54 110.41 1294.95 109.298 1290.97 107.073C1287.03 104.817 1283.92 101.731 1281.67 97.814C1279.44 93.866 1278.33 89.354 1278.33 84.278C1278.33 78.732 1279.43 73.9067 1281.62 69.802C1283.81 65.6973 1286.84 62.517 1290.69 60.261C1294.55 57.9737 1298.98 56.83 1303.99 56.83C1309.32 56.83 1313.85 58.0833 1317.58 60.59C1321.3 63.0967 1324.06 66.6217 1325.85 71.165C1327.63 75.7083 1328.26 81.0507 1327.73 87.192H1315.08V82.492C1315.08 77.322 1314.25 73.609 1312.59 71.353C1310.96 69.0657 1308.29 67.922 1304.56 67.922C1300.2 67.922 1296.99 69.2537 1294.92 71.917C1292.88 74.549 1291.87 78.45 1291.87 83.62C1291.87 88.3513 1292.88 92.0173 1294.92 94.618C1296.99 97.1873 1300.01 98.472 1303.99 98.472C1306.5 98.472 1308.65 97.9237 1310.43 96.827C1312.22 95.7303 1313.58 94.148 1314.52 92.08L1327.3 95.746C1325.39 100.383 1322.37 103.987 1318.23 106.556C1314.13 109.125 1309.63 110.41 1304.74 110.41ZM1287.92 87.192V77.698H1321.57V87.192H1287.92Z" fill="#DADADA"/>
<path d="M1012.66 152.24V203H1000.44V171.98L977.506 203H967.354V152.24H979.574V182.226L1002.6 152.24H1012.66ZM1057.71 204.41C1053.05 204.41 1048.96 203.235 1045.45 200.885C1041.94 198.535 1039.2 195.339 1037.22 191.297C1035.28 187.255 1034.31 182.696 1034.31 177.62C1034.31 172.45 1035.3 167.86 1037.27 163.849C1039.28 159.807 1042.08 156.627 1045.68 154.308C1049.29 151.989 1053.52 150.83 1058.37 150.83C1063.2 150.83 1067.26 152.005 1070.55 154.355C1073.84 156.705 1076.33 159.901 1078.02 163.943C1079.71 167.985 1080.56 172.544 1080.56 177.62C1080.56 182.696 1079.7 187.255 1077.97 191.297C1076.28 195.339 1073.74 198.535 1070.36 200.885C1066.97 203.235 1062.76 204.41 1057.71 204.41ZM1059.78 193.036C1062.63 193.036 1064.91 192.394 1066.6 191.109C1068.32 189.824 1069.56 188.023 1070.31 185.704C1071.06 183.385 1071.44 180.691 1071.44 177.62C1071.44 174.549 1071.06 171.855 1070.31 169.536C1069.56 167.217 1068.35 165.416 1066.69 164.131C1065.06 162.846 1062.92 162.204 1060.25 162.204C1057.4 162.204 1055.05 162.909 1053.2 164.319C1051.39 165.698 1050.04 167.562 1049.16 169.912C1048.28 172.231 1047.84 174.8 1047.84 177.62C1047.84 180.471 1048.27 183.072 1049.11 185.422C1049.96 187.741 1051.26 189.589 1053.01 190.968C1054.77 192.347 1057.03 193.036 1059.78 193.036ZM1071.44 203V168.22H1069.84V135.32H1082.72V203H1071.44ZM1093.06 145.19V133.91H1105.84V145.19H1093.06ZM1093.06 203V152.24H1105.84V203H1093.06ZM1137.89 226.97C1135 226.97 1132.26 226.5 1129.66 225.56C1127.06 224.651 1124.73 223.367 1122.66 221.706C1120.62 220.077 1118.96 218.165 1117.68 215.972L1129.52 210.238C1130.34 211.742 1131.5 212.886 1133 213.669C1134.53 214.452 1136.2 214.844 1137.98 214.844C1139.89 214.844 1141.69 214.515 1143.39 213.857C1145.08 213.23 1146.43 212.275 1147.43 210.99C1148.46 209.737 1148.95 208.17 1148.89 206.29V191.532H1150.48V152.24H1161.67V206.478C1161.67 207.731 1161.61 208.906 1161.48 210.003C1161.39 211.131 1161.2 212.243 1160.92 213.34C1160.1 216.442 1158.58 218.996 1156.36 221.001C1154.16 223.006 1151.47 224.495 1148.27 225.466C1145.08 226.469 1141.62 226.97 1137.89 226.97ZM1136.76 204.41C1132.09 204.41 1128 203.235 1124.49 200.885C1120.98 198.535 1118.24 195.339 1116.27 191.297C1114.32 187.255 1113.35 182.696 1113.35 177.62C1113.35 172.45 1114.34 167.86 1116.31 163.849C1118.32 159.807 1121.12 156.627 1124.73 154.308C1128.33 151.989 1132.56 150.83 1137.42 150.83C1142.24 150.83 1146.3 152.005 1149.59 154.355C1152.88 156.705 1155.37 159.901 1157.06 163.943C1158.76 167.985 1159.6 172.544 1159.6 177.62C1159.6 182.696 1158.74 187.255 1157.02 191.297C1155.32 195.339 1152.79 198.535 1149.4 200.885C1146.02 203.235 1141.8 204.41 1136.76 204.41ZM1138.83 193.036C1141.68 193.036 1143.95 192.394 1145.64 191.109C1147.37 189.824 1148.6 188.023 1149.36 185.704C1150.11 183.385 1150.48 180.691 1150.48 177.62C1150.48 174.549 1150.11 171.855 1149.36 169.536C1148.6 167.217 1147.4 165.416 1145.74 164.131C1144.11 162.846 1141.96 162.204 1139.3 162.204C1136.45 162.204 1134.1 162.909 1132.25 164.319C1130.43 165.698 1129.08 167.562 1128.21 169.912C1127.33 172.231 1126.89 174.8 1126.89 177.62C1126.89 180.471 1127.31 183.072 1128.16 185.422C1129 187.741 1130.3 189.589 1132.06 190.968C1133.81 192.347 1136.07 193.036 1138.83 193.036ZM1172.01 145.19V133.91H1184.8V145.19H1172.01ZM1172.01 203V152.24H1184.8V203H1172.01ZM1225.58 203C1222.07 203.658 1218.63 203.94 1215.24 203.846C1211.89 203.783 1208.88 203.204 1206.22 202.107C1203.59 200.979 1201.58 199.177 1200.2 196.702C1198.95 194.383 1198.29 192.033 1198.23 189.652C1198.17 187.239 1198.13 184.513 1198.13 181.474V138.14H1210.92V180.722C1210.92 182.696 1210.93 184.482 1210.96 186.08C1211.03 187.647 1211.36 188.9 1211.95 189.84C1213.08 191.626 1214.88 192.597 1217.36 192.754C1219.83 192.911 1222.57 192.785 1225.58 192.378V203ZM1189.49 162.11V152.24H1225.58V162.11H1189.49ZM1247.23 204.41C1243.6 204.41 1240.51 203.721 1237.97 202.342C1235.47 200.932 1233.56 199.068 1232.24 196.749C1230.96 194.399 1230.31 191.814 1230.31 188.994C1230.31 186.644 1230.67 184.498 1231.39 182.555C1232.12 180.612 1233.27 178.905 1234.87 177.432C1236.5 175.928 1238.68 174.675 1241.41 173.672C1243.29 172.983 1245.53 172.372 1248.13 171.839C1250.73 171.306 1253.67 170.805 1256.96 170.335C1260.25 169.834 1263.87 169.285 1267.82 168.69L1263.21 171.228C1263.21 168.22 1262.49 166.011 1261.05 164.601C1259.61 163.191 1257.2 162.486 1253.81 162.486C1251.93 162.486 1249.98 162.94 1247.94 163.849C1245.9 164.758 1244.48 166.371 1243.66 168.69L1232.1 165.024C1233.38 160.825 1235.8 157.41 1239.34 154.778C1242.88 152.146 1247.7 150.83 1253.81 150.83C1258.29 150.83 1262.27 151.519 1265.75 152.898C1269.23 154.277 1271.86 156.658 1273.65 160.042C1274.65 161.922 1275.25 163.802 1275.43 165.682C1275.62 167.562 1275.72 169.661 1275.72 171.98V203H1264.53V192.566L1266.13 194.728C1263.65 198.143 1260.97 200.619 1258.09 202.154C1255.24 203.658 1251.62 204.41 1247.23 204.41ZM1249.96 194.352C1252.31 194.352 1254.28 193.945 1255.88 193.13C1257.51 192.284 1258.8 191.328 1259.74 190.263C1260.71 189.198 1261.36 188.305 1261.71 187.584C1262.37 186.205 1262.74 184.607 1262.84 182.79C1262.96 180.941 1263.03 179.406 1263.03 178.184L1266.79 179.124C1262.99 179.751 1259.92 180.283 1257.57 180.722C1255.22 181.129 1253.33 181.505 1251.89 181.85C1250.45 182.195 1249.18 182.571 1248.08 182.978C1246.83 183.479 1245.81 184.028 1245.02 184.623C1244.27 185.187 1243.71 185.814 1243.33 186.503C1242.99 187.192 1242.82 187.96 1242.82 188.806C1242.82 189.965 1243.1 190.968 1243.66 191.814C1244.26 192.629 1245.09 193.255 1246.15 193.694C1247.22 194.133 1248.49 194.352 1249.96 194.352ZM1285.12 203V133.91H1297.9V203H1285.12ZM1310.3 203V190.216H1323.08V203H1310.3Z" fill="#DADADA"/>
<path d="M890.622 297V246.24H914.404C916.284 246.24 917.929 246.35 919.339 246.569C920.749 246.757 921.924 246.992 922.864 247.274C925.183 247.963 927.298 249.311 929.209 251.316C931.121 253.321 932.076 256.235 932.076 260.058C932.076 262.314 931.716 264.147 930.995 265.557C930.275 266.936 929.319 268.079 928.128 268.988C927.564 269.395 927 269.74 926.436 270.022C925.872 270.304 925.308 270.523 924.744 270.68C926.06 270.868 927.251 271.213 928.316 271.714C930.008 272.466 931.481 273.657 932.734 275.286C933.988 276.884 934.614 279.265 934.614 282.43C934.614 285.814 933.784 288.697 932.123 291.078C930.494 293.459 928.034 295.12 924.744 296.06C923.616 296.373 922.285 296.608 920.749 296.765C919.245 296.922 917.663 297 916.002 297H890.622ZM903.594 287.318H915.062C915.72 287.318 916.394 287.255 917.083 287.13C917.804 286.973 918.446 286.785 919.01 286.566C919.919 286.19 920.561 285.548 920.937 284.639C921.345 283.73 921.548 282.806 921.548 281.866C921.548 280.55 921.251 279.516 920.655 278.764C920.091 278.012 919.449 277.479 918.728 277.166C918.133 276.884 917.475 276.727 916.754 276.696C916.065 276.633 915.501 276.602 915.062 276.602H903.594V287.318ZM903.594 266.732H911.396C912.399 266.732 913.339 266.685 914.216 266.591C915.125 266.466 915.877 266.262 916.472 265.98C917.287 265.604 917.898 265.009 918.305 264.194C918.713 263.348 918.916 262.408 918.916 261.374C918.916 260.277 918.681 259.29 918.211 258.413C917.773 257.504 917.036 256.893 916.002 256.58C915.313 256.329 914.436 256.188 913.37 256.157C912.336 256.126 911.678 256.11 911.396 256.11H903.594V266.732ZM940.196 297V246.24H952.98V265.604H973.848V246.24H986.632V297H973.848V277.542H952.98V297H940.196ZM1041.23 246.24V297H1029.01V265.98L1006.07 297H995.921V246.24H1008.14V276.226L1031.17 246.24H1041.23ZM1050.54 297V246.24H1060.88L1078.56 279.14L1096.23 246.24H1106.57V297H1094.35V271.714L1080.81 297H1076.3L1062.76 271.714V297H1050.54ZM1130.1 298.41C1126.47 298.41 1123.38 297.721 1120.84 296.342C1118.33 294.932 1116.42 293.068 1115.11 290.749C1113.82 288.399 1113.18 285.814 1113.18 282.994C1113.18 280.644 1113.54 278.498 1114.26 276.555C1114.98 274.612 1116.14 272.905 1117.74 271.432C1119.37 269.928 1121.55 268.675 1124.27 267.672C1126.15 266.983 1128.39 266.372 1130.99 265.839C1133.59 265.306 1136.54 264.805 1139.83 264.335C1143.12 263.834 1146.74 263.285 1150.69 262.69L1146.08 265.228C1146.08 262.22 1145.36 260.011 1143.92 258.601C1142.48 257.191 1140.06 256.486 1136.68 256.486C1134.8 256.486 1132.84 256.94 1130.81 257.849C1128.77 258.758 1127.34 260.371 1126.53 262.69L1114.97 259.024C1116.25 254.825 1118.66 251.41 1122.2 248.778C1125.75 246.146 1130.57 244.83 1136.68 244.83C1141.16 244.83 1145.14 245.519 1148.62 246.898C1152.1 248.277 1154.73 250.658 1156.51 254.042C1157.52 255.922 1158.11 257.802 1158.3 259.682C1158.49 261.562 1158.58 263.661 1158.58 265.98V297H1147.4V286.566L1148.99 288.728C1146.52 292.143 1143.84 294.619 1140.96 296.154C1138.11 297.658 1134.49 298.41 1130.1 298.41ZM1132.83 288.352C1135.18 288.352 1137.15 287.945 1138.75 287.13C1140.38 286.284 1141.66 285.328 1142.6 284.263C1143.57 283.198 1144.23 282.305 1144.58 281.584C1145.23 280.205 1145.61 278.607 1145.7 276.79C1145.83 274.941 1145.89 273.406 1145.89 272.184L1149.65 273.124C1145.86 273.751 1142.79 274.283 1140.44 274.722C1138.09 275.129 1136.19 275.505 1134.75 275.85C1133.31 276.195 1132.04 276.571 1130.95 276.978C1129.69 277.479 1128.67 278.028 1127.89 278.623C1127.14 279.187 1126.58 279.814 1126.2 280.503C1125.85 281.192 1125.68 281.96 1125.68 282.806C1125.68 283.965 1125.96 284.968 1126.53 285.814C1127.12 286.629 1127.95 287.255 1129.02 287.694C1130.08 288.133 1131.35 288.352 1132.83 288.352ZM1166.95 297V246.24H1179.73V265.604H1200.6V246.24H1213.39V297H1200.6V277.542H1179.73V297H1166.95ZM1267.98 246.24V297H1255.76V265.98L1232.83 297H1222.67V246.24H1234.89V276.226L1257.92 246.24H1267.98ZM1300.98 298.41C1295.78 298.41 1291.19 297.298 1287.21 295.073C1283.27 292.817 1280.16 289.731 1277.91 285.814C1275.68 281.866 1274.57 277.354 1274.57 272.278C1274.57 266.732 1275.67 261.907 1277.86 257.802C1280.05 253.697 1283.08 250.517 1286.93 248.261C1290.79 245.974 1295.22 244.83 1300.23 244.83C1305.56 244.83 1310.09 246.083 1313.82 248.59C1317.54 251.097 1320.3 254.622 1322.09 259.165C1323.87 263.708 1324.5 269.051 1323.97 275.192H1311.32V270.492C1311.32 265.322 1310.49 261.609 1308.83 259.353C1307.2 257.066 1304.53 255.922 1300.8 255.922C1296.44 255.922 1293.23 257.254 1291.16 259.917C1289.12 262.549 1288.11 266.45 1288.11 271.62C1288.11 276.351 1289.12 280.017 1291.16 282.618C1293.23 285.187 1296.25 286.472 1300.23 286.472C1302.74 286.472 1304.89 285.924 1306.67 284.827C1308.46 283.73 1309.82 282.148 1310.76 280.08L1323.54 283.746C1321.63 288.383 1318.61 291.987 1314.47 294.556C1310.37 297.125 1305.87 298.41 1300.98 298.41ZM1284.16 275.192V265.698H1317.81V275.192H1284.16Z" fill="#DADADA"/>
<path d="M850.959 391L851.053 340.24H864.025V364.68L881.227 340.24H897.019L878.689 365.62L898.241 391H881.603L864.025 366.56V391H850.959ZM935.601 392.504C930.713 392.441 926.577 391.36 923.193 389.261C919.809 387.13 917.146 384.201 915.203 380.472C913.292 376.712 912.101 372.357 911.631 367.406C911.381 364.743 911.318 361.75 911.443 358.429C911.6 355.076 911.96 351.786 912.524 348.559C913.088 345.332 913.887 342.559 914.921 340.24C915.924 338.078 917.209 336.104 918.775 334.318C920.373 332.501 922.065 330.965 923.851 329.712C925.951 328.239 928.207 327.111 930.619 326.328C933.032 325.513 935.57 324.887 938.233 324.448C940.897 324.009 943.654 323.618 946.505 323.273C949.388 322.928 952.302 322.474 955.247 321.91L956.375 333.19C954.589 333.66 952.553 334.005 950.265 334.224C947.978 334.443 945.628 334.678 943.215 334.929C940.803 335.148 938.5 335.509 936.306 336.01C934.113 336.511 932.217 337.263 930.619 338.266C928.457 339.613 926.797 341.493 925.637 343.906C924.509 346.287 923.851 348.7 923.663 351.144C925.606 348.324 927.972 346.381 930.76 345.316C933.58 344.251 936.353 343.718 939.079 343.718C943.56 343.718 947.398 344.799 950.594 346.961C953.822 349.092 956.297 351.974 958.02 355.609C959.744 359.212 960.605 363.207 960.605 367.594C960.605 372.576 959.524 376.947 957.362 380.707C955.232 384.467 952.286 387.397 948.526 389.496C944.766 391.564 940.458 392.567 935.601 392.504ZM936.165 380.566C939.8 380.566 942.542 379.438 944.39 377.182C946.239 374.926 947.163 371.918 947.163 368.158C947.163 364.304 946.208 361.28 944.296 359.087C942.416 356.862 939.706 355.75 936.165 355.75C932.562 355.75 929.82 356.862 927.94 359.087C926.092 361.28 925.167 364.304 925.167 368.158C925.167 372.137 926.123 375.208 928.034 377.37C929.946 379.501 932.656 380.566 936.165 380.566ZM992.097 392.41C987.052 392.41 982.838 391.235 979.454 388.885C976.07 386.535 973.516 383.339 971.793 379.297C970.101 375.255 969.255 370.696 969.255 365.62C969.255 360.544 970.101 355.985 971.793 351.943C973.485 347.901 975.976 344.705 979.266 342.355C982.556 340.005 986.614 338.83 991.439 338.83C996.296 338.83 1000.53 339.989 1004.13 342.308C1007.73 344.627 1010.52 347.807 1012.49 351.849C1014.5 355.86 1015.5 360.45 1015.5 365.62C1015.5 370.696 1014.52 375.255 1012.54 379.297C1010.6 383.339 1007.87 386.535 1004.36 388.885C1000.85 391.235 996.766 392.41 992.097 392.41ZM967.093 413.56V340.24H978.373V375.02H979.971V413.56H967.093ZM990.029 381.036C992.786 381.036 995.042 380.347 996.797 378.968C998.552 377.589 999.852 375.741 1000.7 373.422C1001.54 371.072 1001.97 368.471 1001.97 365.62C1001.97 362.8 1001.53 360.231 1000.65 357.912C999.774 355.562 998.411 353.698 996.562 352.319C994.745 350.909 992.41 350.204 989.559 350.204C986.896 350.204 984.734 350.846 983.073 352.131C981.444 353.416 980.253 355.217 979.501 357.536C978.749 359.855 978.373 362.549 978.373 365.62C978.373 368.691 978.749 371.385 979.501 373.704C980.253 376.023 981.475 377.824 983.167 379.109C984.89 380.394 987.178 381.036 990.029 381.036ZM1045.68 392.41C1040.48 392.41 1035.89 391.298 1031.91 389.073C1027.96 386.817 1024.86 383.731 1022.6 379.814C1020.38 375.866 1019.27 371.354 1019.27 366.278C1019.27 360.732 1020.36 355.907 1022.56 351.802C1024.75 347.697 1027.77 344.517 1031.63 342.261C1035.48 339.974 1039.91 338.83 1044.93 338.83C1050.25 338.83 1054.78 340.083 1058.51 342.59C1062.24 345.097 1065 348.622 1066.78 353.165C1068.57 357.708 1069.19 363.051 1068.66 369.192H1056.02V364.492C1056.02 359.322 1055.19 355.609 1053.53 353.353C1051.9 351.066 1049.22 349.922 1045.49 349.922C1041.14 349.922 1037.92 351.254 1035.86 353.917C1033.82 356.549 1032.8 360.45 1032.8 365.62C1032.8 370.351 1033.82 374.017 1035.86 376.618C1037.92 379.187 1040.95 380.472 1044.93 380.472C1047.43 380.472 1049.58 379.924 1051.37 378.827C1053.15 377.73 1054.52 376.148 1055.46 374.08L1068.24 377.746C1066.33 382.383 1063.3 385.987 1059.17 388.556C1055.06 391.125 1050.57 392.41 1045.68 392.41ZM1028.85 369.192V359.698H1062.51V369.192H1028.85ZM1075.42 391V340.24H1088.2V359.604H1109.07V340.24H1121.86V391H1109.07V371.542H1088.2V391H1075.42ZM1127.48 402.28V381.13C1130.17 381.13 1132.08 380.19 1133.21 378.31C1134.37 376.43 1135.28 373.077 1135.94 368.252C1136.31 365.463 1136.63 362.534 1136.88 359.463C1137.16 356.392 1137.4 353.243 1137.58 350.016C1137.77 346.789 1137.94 343.53 1138.1 340.24H1177.3V381.13H1182.47V402.28H1170.44V391H1139.51V402.28H1127.48ZM1143.83 381.13H1164.51V350.11H1149.19C1149.1 351.833 1148.99 353.557 1148.86 355.28C1148.77 357.003 1148.64 358.711 1148.49 360.403C1148.36 362.095 1148.24 363.74 1148.11 365.338C1147.99 366.905 1147.85 368.409 1147.69 369.85C1147.41 372.607 1147.02 374.848 1146.51 376.571C1146.01 378.294 1145.12 379.814 1143.83 381.13ZM1202.16 392.41C1198.53 392.41 1195.44 391.721 1192.91 390.342C1190.4 388.932 1188.49 387.068 1187.17 384.749C1185.89 382.399 1185.24 379.814 1185.24 376.994C1185.24 374.644 1185.61 372.498 1186.33 370.555C1187.05 368.612 1188.21 366.905 1189.8 365.432C1191.43 363.928 1193.61 362.675 1196.34 361.672C1198.22 360.983 1200.46 360.372 1203.06 359.839C1205.66 359.306 1208.6 358.805 1211.89 358.335C1215.18 357.834 1218.8 357.285 1222.75 356.69L1218.14 359.228C1218.14 356.22 1217.42 354.011 1215.98 352.601C1214.54 351.191 1212.13 350.486 1208.74 350.486C1206.86 350.486 1204.91 350.94 1202.87 351.849C1200.83 352.758 1199.41 354.371 1198.59 356.69L1187.03 353.024C1188.32 348.825 1190.73 345.41 1194.27 342.778C1197.81 340.146 1202.63 338.83 1208.74 338.83C1213.23 338.83 1217.2 339.519 1220.68 340.898C1224.16 342.277 1226.79 344.658 1228.58 348.042C1229.58 349.922 1230.18 351.802 1230.36 353.682C1230.55 355.562 1230.65 357.661 1230.65 359.98V391H1219.46V380.566L1221.06 382.728C1218.58 386.143 1215.9 388.619 1213.02 390.154C1210.17 391.658 1206.55 392.41 1202.16 392.41ZM1204.89 382.352C1207.24 382.352 1209.21 381.945 1210.81 381.13C1212.44 380.284 1213.73 379.328 1214.67 378.263C1215.64 377.198 1216.3 376.305 1216.64 375.584C1217.3 374.205 1217.67 372.607 1217.77 370.79C1217.89 368.941 1217.96 367.406 1217.96 366.184L1221.72 367.124C1217.93 367.751 1214.85 368.283 1212.5 368.722C1210.15 369.129 1208.26 369.505 1206.82 369.85C1205.38 370.195 1204.11 370.571 1203.01 370.978C1201.76 371.479 1200.74 372.028 1199.96 372.623C1199.2 373.187 1198.64 373.814 1198.26 374.503C1197.92 375.192 1197.75 375.96 1197.75 376.806C1197.75 377.965 1198.03 378.968 1198.59 379.814C1199.19 380.629 1200.02 381.255 1201.08 381.694C1202.15 382.133 1203.42 382.352 1204.89 382.352ZM1239.01 391V340.24H1249.35L1267.03 373.14L1284.7 340.24H1295.04V391H1282.82V365.714L1269.28 391H1264.77L1251.23 365.714V391H1239.01ZM1306.54 391V378.216H1319.32V391H1306.54Z" fill="#DADADA"/>
<path d="M864.976 580.41C859.712 580.41 855.2 579.235 851.44 576.885C847.68 574.535 844.797 571.339 842.792 567.297C840.787 563.255 839.784 558.696 839.784 553.62C839.784 548.481 840.818 543.891 842.886 539.849C844.985 535.807 847.931 532.627 851.722 530.308C855.513 527.989 859.994 526.83 865.164 526.83C871.149 526.83 876.162 528.35 880.204 531.389C884.277 534.397 886.878 538.517 888.006 543.75L875.222 547.134C874.47 544.502 873.154 542.45 871.274 540.977C869.425 539.504 867.326 538.768 864.976 538.768C862.281 538.768 860.072 539.426 858.349 540.742C856.626 542.027 855.357 543.797 854.542 546.053C853.727 548.278 853.32 550.8 853.32 553.62C853.32 558.038 854.291 561.626 856.234 564.383C858.208 567.109 861.122 568.472 864.976 568.472C867.859 568.472 870.052 567.814 871.556 566.498C873.06 565.182 874.188 563.302 874.94 560.858L888.006 563.584C886.565 568.973 883.839 573.125 879.828 576.039C875.817 578.953 870.867 580.41 864.976 580.41ZM906.825 578.906V567.814L935.213 542.622C937.344 540.742 938.848 538.972 939.725 537.311C940.602 535.65 941.041 534.099 941.041 532.658C941.041 530.59 940.618 528.757 939.772 527.159C938.926 525.53 937.735 524.261 936.2 523.352C934.665 522.412 932.863 521.942 930.795 521.942C928.633 521.942 926.722 522.443 925.061 523.446C923.432 524.417 922.163 525.718 921.254 527.347C920.345 528.945 919.922 530.684 919.985 532.564H906.825C906.825 527.927 907.843 523.916 909.88 520.532C911.917 517.148 914.752 514.532 918.387 512.683C922.022 510.834 926.252 509.91 931.077 509.91C935.495 509.91 939.443 510.881 942.921 512.824C946.43 514.735 949.188 517.414 951.193 520.861C953.198 524.308 954.201 528.303 954.201 532.846C954.201 536.199 953.731 538.987 952.791 541.212C951.851 543.405 950.457 545.442 948.608 547.322C946.759 549.171 944.488 551.27 941.793 553.62L923.463 569.694L922.429 566.874H954.201V578.906H906.825ZM986.773 580.41C981.76 580.41 977.373 579.36 973.613 577.261C969.853 575.162 966.924 572.232 964.824 568.472C962.725 564.712 961.675 560.325 961.675 555.312V535.008C961.675 529.995 962.725 525.608 964.824 521.848C966.924 518.088 969.853 515.158 973.613 513.059C977.373 510.96 981.76 509.91 986.773 509.91C991.787 509.91 996.173 510.96 999.933 513.059C1003.69 515.158 1006.62 518.088 1008.72 521.848C1010.82 525.608 1011.87 529.995 1011.87 535.008V555.312C1011.87 560.325 1010.82 564.712 1008.72 568.472C1006.62 572.232 1003.69 575.162 999.933 577.261C996.173 579.36 991.787 580.41 986.773 580.41ZM986.773 568.284C989.029 568.284 991.066 567.751 992.883 566.686C994.701 565.621 996.142 564.179 997.207 562.362C998.273 560.545 998.805 558.508 998.805 556.252V533.974C998.805 531.718 998.273 529.681 997.207 527.864C996.142 526.047 994.701 524.605 992.883 523.54C991.066 522.475 989.029 521.942 986.773 521.942C984.517 521.942 982.481 522.475 980.663 523.54C978.846 524.605 977.405 526.047 976.339 527.864C975.274 529.681 974.741 531.718 974.741 533.974V556.252C974.741 558.508 975.274 560.545 976.339 562.362C977.405 564.179 978.846 565.621 980.663 566.686C982.481 567.751 984.517 568.284 986.773 568.284ZM1033.01 579V525.232L1020.32 533.034V518.934L1033.01 511.32H1046.07V579H1033.01ZM1080.3 580.41C1076.88 580.41 1073.67 579.705 1070.66 578.295C1067.69 576.885 1065.12 574.927 1062.95 572.42C1060.79 569.913 1059.24 566.999 1058.3 563.678L1070.61 560.388C1071.02 561.986 1071.74 563.365 1072.78 564.524C1073.84 565.683 1075.06 566.592 1076.44 567.25C1077.85 567.877 1079.29 568.19 1080.77 568.19C1082.71 568.19 1084.48 567.72 1086.08 566.78C1087.71 565.84 1088.99 564.571 1089.93 562.973C1090.9 561.375 1091.39 559.605 1091.39 557.662C1091.39 555.719 1090.9 553.949 1089.93 552.351C1088.99 550.753 1087.71 549.484 1086.08 548.544C1084.48 547.604 1082.71 547.134 1080.77 547.134C1078.39 547.134 1076.44 547.541 1074.94 548.356C1073.43 549.139 1072.31 549.891 1071.55 550.612L1060.74 547.322L1062.81 511.32H1099.75V523.258H1069.86L1074.37 519.028L1072.96 542.246L1070.8 539.614C1072.49 538.235 1074.42 537.233 1076.58 536.606C1078.75 535.979 1080.77 535.666 1082.65 535.666C1086.91 535.666 1090.65 536.622 1093.88 538.533C1097.14 540.413 1099.68 543.014 1101.49 546.335C1103.34 549.625 1104.27 553.401 1104.27 557.662C1104.27 561.923 1103.15 565.777 1100.93 569.224C1098.71 572.639 1095.78 575.365 1092.14 577.402C1088.51 579.407 1084.56 580.41 1080.3 580.41ZM1126.83 579V528.24H1163.49V540.178H1139.62V579H1126.83ZM1190.62 580.41C1185.51 580.41 1181.03 579.266 1177.18 576.979C1173.32 574.692 1170.32 571.543 1168.15 567.532C1166.02 563.49 1164.96 558.853 1164.96 553.62C1164.96 548.325 1166.05 543.672 1168.25 539.661C1170.44 535.619 1173.46 532.47 1177.32 530.214C1181.17 527.958 1185.61 526.83 1190.62 526.83C1195.73 526.83 1200.21 527.974 1204.06 530.261C1207.95 532.548 1210.97 535.713 1213.13 539.755C1215.29 543.766 1216.38 548.387 1216.38 553.62C1216.38 558.884 1215.28 563.537 1213.09 567.579C1210.92 571.59 1207.9 574.739 1204.01 577.026C1200.16 579.282 1195.7 580.41 1190.62 580.41ZM1190.62 568.472C1194.72 568.472 1197.78 567.093 1199.78 564.336C1201.82 561.547 1202.84 557.975 1202.84 553.62C1202.84 549.108 1201.81 545.505 1199.74 542.81C1197.7 540.115 1194.66 538.768 1190.62 538.768C1187.83 538.768 1185.54 539.395 1183.76 540.648C1181.97 541.901 1180.64 543.64 1179.76 545.865C1178.92 548.09 1178.49 550.675 1178.49 553.62C1178.49 558.163 1179.51 561.782 1181.55 564.477C1183.62 567.14 1186.64 568.472 1190.62 568.472ZM1219.19 590.28V569.13C1221.89 569.13 1223.8 568.19 1224.93 566.31C1226.08 564.43 1226.99 561.077 1227.65 556.252C1228.03 553.463 1228.34 550.534 1228.59 547.463C1228.87 544.392 1229.11 541.243 1229.3 538.016C1229.48 534.789 1229.66 531.53 1229.81 528.24H1269.01V569.13H1274.18V590.28H1262.15V579H1231.22V590.28H1219.19ZM1235.55 569.13H1256.23V538.11H1240.91C1240.81 539.833 1240.7 541.557 1240.58 543.28C1240.48 545.003 1240.36 546.711 1240.2 548.403C1240.08 550.095 1239.95 551.74 1239.82 553.338C1239.7 554.905 1239.56 556.409 1239.4 557.85C1239.12 560.607 1238.73 562.848 1238.23 564.571C1237.73 566.294 1236.83 567.814 1235.55 569.13ZM1293.88 580.41C1290.24 580.41 1287.16 579.721 1284.62 578.342C1282.11 576.932 1280.2 575.068 1278.88 572.749C1277.6 570.399 1276.96 567.814 1276.96 564.994C1276.96 562.644 1277.32 560.498 1278.04 558.555C1278.76 556.612 1279.92 554.905 1281.52 553.432C1283.15 551.928 1285.32 550.675 1288.05 549.672C1289.93 548.983 1292.17 548.372 1294.77 547.839C1297.37 547.306 1300.32 546.805 1303.61 546.335C1306.9 545.834 1310.52 545.285 1314.46 544.69L1309.86 547.228C1309.86 544.22 1309.14 542.011 1307.7 540.601C1306.25 539.191 1303.84 538.486 1300.46 538.486C1298.58 538.486 1296.62 538.94 1294.58 539.849C1292.55 540.758 1291.12 542.371 1290.31 544.69L1278.74 541.024C1280.03 536.825 1282.44 533.41 1285.98 530.778C1289.52 528.146 1294.35 526.83 1300.46 526.83C1304.94 526.83 1308.92 527.519 1312.4 528.898C1315.87 530.277 1318.51 532.658 1320.29 536.042C1321.29 537.922 1321.89 539.802 1322.08 541.682C1322.27 543.562 1322.36 545.661 1322.36 547.98V579H1311.17V568.566L1312.77 570.728C1310.3 574.143 1307.62 576.619 1304.73 578.154C1301.88 579.658 1298.26 580.41 1293.88 580.41ZM1296.6 570.352C1298.95 570.352 1300.93 569.945 1302.53 569.13C1304.15 568.284 1305.44 567.328 1306.38 566.263C1307.35 565.198 1308.01 564.305 1308.35 563.584C1309.01 562.205 1309.39 560.607 1309.48 558.79C1309.61 556.941 1309.67 555.406 1309.67 554.184L1313.43 555.124C1309.64 555.751 1306.57 556.283 1304.22 556.722C1301.87 557.129 1299.97 557.505 1298.53 557.85C1297.09 558.195 1295.82 558.571 1294.72 558.978C1293.47 559.479 1292.45 560.028 1291.67 560.623C1290.92 561.187 1290.35 561.814 1289.98 562.503C1289.63 563.192 1289.46 563.96 1289.46 564.806C1289.46 565.965 1289.74 566.968 1290.31 567.814C1290.9 568.629 1291.73 569.255 1292.8 569.694C1293.86 570.133 1295.13 570.352 1296.6 570.352Z" fill="#DADADA"/>
</g>
<defs>
<clipPath id="clip0_2120_60">
<rect width="1328" height="626" fill="white"/>
</clipPath>
</defs>
</svg>
