{
	"asset":{
		"generator":"Khronos glTF Blender I/O v4.1.63",
		"version":"2.0"
	},
	"scene":0,
	"scenes":[
		{
			"name":"ArtLab - Scene",
			"nodes":[
				0
			]
		}
	],
	"nodes":[
		{
			"mesh":0,
			"name":"mesh1_Baked",
			"rotation":[
				0.70710688829422,
				0,
				0,
				0.7071066498756409
			]
		}
	],
	"materials":[
		{
			"doubleSided":true,
			"name":"mat1",
			"pbrMetallicRoughness":{
				"baseColorTexture":{
					"index":0
				},
				"metallicFactor":0,
				"roughnessFactor":0.6595745086669922
			}
		},
		{
			"doubleSided":true,
			"name":"Mat2",
			"pbrMetallicRoughness":{
				"baseColorTexture":{
					"index":1
				},
				"metallicFactor":0,
				"roughnessFactor":0.7234042882919312
			}
		}
	],
	"meshes":[
		{
			"name":"fabric_balls.002",
			"primitives":[
				{
					"attributes":{
						"POSITION":0,
						"NORMAL":1,
						"TEXCOORD_0":2
					},
					"indices":3,
					"material":0
				},
				{
					"attributes":{
						"POSITION":4,
						"NORMAL":5,
						"TEXCOORD_0":6
					},
					"indices":7,
					"material":1
				}
			]
		}
	],
	"textures":[
		{
			"sampler":0,
			"source":0
		},
		{
			"sampler":0,
			"source":1
		}
	],
	"images":[
		{
			"mimeType":"image/png",
			"name":"MergedBake_Bake1_PBR_Diffuse3",
			"uri":"MergedBake_Bake1_PBR_Diffuse3.png"
		},
		{
			"mimeType":"image/png",
			"name":"text1",
			"uri":"text1.png"
		}
	],
	"accessors":[
		{
			"bufferView":0,
			"componentType":5126,
			"count":43966,
			"max":[
				9.89670467376709,
				9.962495803833008,
				9.745044708251953
			],
			"min":[
				-9.567392349243164,
				-9.62913990020752,
				-9.880915641784668
			],
			"type":"VEC3"
		},
		{
			"bufferView":1,
			"componentType":5126,
			"count":43966,
			"type":"VEC3"
		},
		{
			"bufferView":2,
			"componentType":5126,
			"count":43966,
			"type":"VEC2"
		},
		{
			"bufferView":3,
			"componentType":5123,
			"count":154926,
			"type":"SCALAR"
		},
		{
			"bufferView":4,
			"componentType":5126,
			"count":57659,
			"max":[
				9.969709396362305,
				9.96731185913086,
				9.993595123291016
			],
			"min":[
				-10.024892807006836,
				-9.907198905944824,
				-10.000346183776855
			],
			"type":"VEC3"
		},
		{
			"bufferView":5,
			"componentType":5126,
			"count":57659,
			"type":"VEC3"
		},
		{
			"bufferView":6,
			"componentType":5126,
			"count":57659,
			"type":"VEC2"
		},
		{
			"bufferView":7,
			"componentType":5123,
			"count":321144,
			"type":"SCALAR"
		}
	],
	"bufferViews":[
		{
			"buffer":0,
			"byteLength":527592,
			"byteOffset":0,
			"target":34962
		},
		{
			"buffer":0,
			"byteLength":527592,
			"byteOffset":527592,
			"target":34962
		},
		{
			"buffer":0,
			"byteLength":351728,
			"byteOffset":1055184,
			"target":34962
		},
		{
			"buffer":0,
			"byteLength":309852,
			"byteOffset":1406912,
			"target":34963
		},
		{
			"buffer":0,
			"byteLength":691908,
			"byteOffset":1716764,
			"target":34962
		},
		{
			"buffer":0,
			"byteLength":691908,
			"byteOffset":2408672,
			"target":34962
		},
		{
			"buffer":0,
			"byteLength":461272,
			"byteOffset":3100580,
			"target":34962
		},
		{
			"buffer":0,
			"byteLength":642288,
			"byteOffset":3561852,
			"target":34963
		}
	],
	"samplers":[
		{
			"magFilter":9729,
			"minFilter":9987
		}
	],
	"buffers":[
		{
			"byteLength":4204140,
			"uri":"a3.bin"
		}
	]
}
