{
	"asset":{
		"generator":"Khronos glTF Blender I/O v4.1.63",
		"version":"2.0"
	},
	"extensionsUsed":[
		"KHR_materials_specular"
	],
	"scene":0,
	"scenes":[
		{
			"name":"ArtLab - Scene",
			"nodes":[
				0
			]
		}
	],
	"nodes":[
		{
			"mesh":0,
			"name":"fabric_balls",
			"rotation":[
				0.7071068286895752,
				0,
				0,
				0.7071068286895752
			]
		}
	],
	"materials":[
		{
			"doubleSided":true,
			"extensions":{
				"KHR_materials_specular":{}
			},
			"name":"Fabric",
			"pbrMetallicRoughness":{
				"metallicFactor":0,
				"roughnessFactor":0.5
			}
		}
	],
	"meshes":[
		{
			"name":"fabric_balls",
			"primitives":[
				{
					"attributes":{
						"POSITION":0,
						"NORMAL":1,
						"TEXCOORD_0":2
					},
					"indices":3,
					"material":0
				}
			]
		}
	],
	"accessors":[
		{
			"bufferView":0,
			"componentType":5126,
			"count":109695,
			"max":[
				9.969709396362305,
				9.96731185913086,
				9.993595123291016
			],
			"min":[
				-10.024892807006836,
				-9.907198905944824,
				-10.000346183776855
			],
			"type":"VEC3"
		},
		{
			"bufferView":1,
			"componentType":5126,
			"count":109695,
			"type":"VEC3"
		},
		{
			"bufferView":2,
			"componentType":5126,
			"count":109695,
			"type":"VEC2"
		},
		{
			"bufferView":3,
			"componentType":5125,
			"count":571218,
			"type":"SCALAR"
		}
	],
	"bufferViews":[
		{
			"buffer":0,
			"byteLength":1316340,
			"byteOffset":0,
			"target":34962
		},
		{
			"buffer":0,
			"byteLength":1316340,
			"byteOffset":1316340,
			"target":34962
		},
		{
			"buffer":0,
			"byteLength":877560,
			"byteOffset":2632680,
			"target":34962
		},
		{
			"buffer":0,
			"byteLength":2284872,
			"byteOffset":3510240,
			"target":34963
		}
	],
	"buffers":[
		{
			"byteLength":5795112,
			"uri":"Clubok.bin"
		}
	]
}
