<svg width="329" height="264" viewBox="0 0 329 264" fill="none" xmlns="http://www.w3.org/2000/svg">
<path d="M2.24 28V4.96H11.968C12.192 4.96 12.4907 4.97067 12.864 4.992C13.248 5.00267 13.5893 5.03467 13.888 5.088C15.264 5.30133 16.3893 5.75467 17.264 6.448C18.1493 7.14133 18.8 8.016 19.216 9.072C19.632 10.1173 19.84 11.2853 19.84 12.576C19.84 13.8667 19.6267 15.04 19.2 16.096C18.784 17.1413 18.1333 18.0107 17.248 18.704C16.3733 19.3973 15.2533 19.8507 13.888 20.064C13.5893 20.1067 13.248 20.1387 12.864 20.16C12.48 20.1813 12.1813 20.192 11.968 20.192H6.592V28H2.24ZM6.592 16.128H11.776C12 16.128 12.2453 16.1173 12.512 16.096C12.7787 16.0747 13.024 16.032 13.248 15.968C13.8347 15.808 14.288 15.5413 14.608 15.168C14.928 14.784 15.1467 14.3627 15.264 13.904C15.392 13.4347 15.456 12.992 15.456 12.576C15.456 12.16 15.392 11.7227 15.264 11.264C15.1467 10.7947 14.928 10.3733 14.608 10C14.288 9.616 13.8347 9.344 13.248 9.184C13.024 9.12 12.7787 9.07733 12.512 9.056C12.2453 9.03467 12 9.024 11.776 9.024H6.592V16.128ZM26.5725 28.48C25.3352 28.48 24.2845 28.2453 23.4205 27.776C22.5672 27.296 21.9165 26.6613 21.4685 25.872C21.0312 25.072 20.8125 24.192 20.8125 23.232C20.8125 22.432 20.9352 21.7013 21.1805 21.04C21.4258 20.3787 21.8205 19.7973 22.3645 19.296C22.9192 18.784 23.6605 18.3573 24.5885 18.016C25.2285 17.7813 25.9912 17.5733 26.8765 17.392C27.7618 17.2107 28.7645 17.04 29.8845 16.88C31.0045 16.7093 32.2365 16.5227 33.5805 16.32L32.0125 17.184C32.0125 16.16 31.7672 15.408 31.2765 14.928C30.7858 14.448 29.9645 14.208 28.8125 14.208C28.1725 14.208 27.5058 14.3627 26.8125 14.672C26.1192 14.9813 25.6338 15.5307 25.3565 16.32L21.4205 15.072C21.8578 13.6427 22.6792 12.48 23.8845 11.584C25.0898 10.688 26.7325 10.24 28.8125 10.24C30.3378 10.24 31.6925 10.4747 32.8765 10.944C34.0605 11.4133 34.9565 12.224 35.5645 13.376C35.9058 14.016 36.1085 14.656 36.1725 15.296C36.2365 15.936 36.2685 16.6507 36.2685 17.44V28H32.4605V24.448L33.0045 25.184C32.1618 26.3467 31.2498 27.1893 30.2685 27.712C29.2978 28.224 28.0658 28.48 26.5725 28.48ZM27.5005 25.056C28.3005 25.056 28.9725 24.9173 29.5165 24.64C30.0712 24.352 30.5085 24.0267 30.8285 23.664C31.1592 23.3013 31.3832 22.9973 31.5005 22.752C31.7245 22.2827 31.8525 21.7387 31.8845 21.12C31.9272 20.4907 31.9485 19.968 31.9485 19.552L33.2285 19.872C31.9378 20.0853 30.8925 20.2667 30.0925 20.416C29.2925 20.5547 28.6472 20.6827 28.1565 20.8C27.6658 20.9173 27.2338 21.0453 26.8605 21.184C26.4338 21.3547 26.0872 21.5413 25.8205 21.744C25.5645 21.936 25.3725 22.1493 25.2445 22.384C25.1272 22.6187 25.0685 22.88 25.0685 23.168C25.0685 23.5627 25.1645 23.904 25.3565 24.192C25.5592 24.4693 25.8418 24.6827 26.2045 24.832C26.5672 24.9813 26.9992 25.056 27.5005 25.056ZM46.4287 28.512C44.7647 28.4907 43.3567 28.1227 42.2047 27.408C41.0527 26.6827 40.1461 25.6853 39.4847 24.416C38.8341 23.136 38.4287 21.6533 38.2687 19.968C38.1834 19.0613 38.1621 18.0427 38.2047 16.912C38.2581 15.7707 38.3807 14.6507 38.5727 13.552C38.7647 12.4533 39.0367 11.5093 39.3887 10.72C39.7301 9.984 40.1674 9.312 40.7007 8.704C41.2447 8.08533 41.8207 7.56267 42.4287 7.136C43.1434 6.63467 43.9114 6.25067 44.7327 5.984C45.5541 5.70667 46.4181 5.49333 47.3247 5.344C48.2314 5.19467 49.1701 5.06133 50.1407 4.944C51.1221 4.82667 52.1141 4.672 53.1167 4.48L53.5007 8.32C52.8927 8.48 52.1994 8.59733 51.4207 8.672C50.6421 8.74667 49.8421 8.82667 49.0207 8.912C48.1994 8.98667 47.4154 9.10933 46.6687 9.28C45.9221 9.45067 45.2767 9.70667 44.7327 10.048C43.9967 10.5067 43.4314 11.1467 43.0367 11.968C42.6527 12.7787 42.4287 13.6 42.3647 14.432C43.0261 13.472 43.8314 12.8107 44.7807 12.448C45.7407 12.0853 46.6847 11.904 47.6127 11.904C49.1381 11.904 50.4447 12.272 51.5327 13.008C52.6314 13.7333 53.4741 14.7147 54.0607 15.952C54.6474 17.1787 54.9408 18.5387 54.9408 20.032C54.9408 21.728 54.5728 23.216 53.8368 24.496C53.1114 25.776 52.1087 26.7733 50.8287 27.488C49.5487 28.192 48.0821 28.5333 46.4287 28.512ZM46.6207 24.448C47.8581 24.448 48.7914 24.064 49.4207 23.296C50.0501 22.528 50.3647 21.504 50.3647 20.224C50.3647 18.912 50.0394 17.8827 49.3887 17.136C48.7487 16.3787 47.8261 16 46.6207 16C45.3941 16 44.4607 16.3787 43.8207 17.136C43.1914 17.8827 42.8767 18.912 42.8767 20.224C42.8767 21.5787 43.2021 22.624 43.8527 23.36C44.5034 24.0853 45.4261 24.448 46.6207 24.448ZM64.9573 28.48C63.2186 28.48 61.6933 28.0907 60.3812 27.312C59.0692 26.5333 58.0452 25.4613 57.3092 24.096C56.5839 22.72 56.2212 21.1413 56.2212 19.36C56.2212 17.5573 56.5946 15.9733 57.3412 14.608C58.0879 13.232 59.1173 12.16 60.4293 11.392C61.7413 10.624 63.2506 10.24 64.9573 10.24C66.6959 10.24 68.2213 10.6293 69.5333 11.408C70.8559 12.1867 71.8853 13.264 72.6213 14.64C73.3573 16.0053 73.7253 17.5787 73.7253 19.36C73.7253 21.152 73.3519 22.736 72.6053 24.112C71.8693 25.4773 70.8399 26.5493 69.5173 27.328C68.2053 28.096 66.6853 28.48 64.9573 28.48ZM64.9573 24.416C66.3546 24.416 67.3946 23.9467 68.0773 23.008C68.7706 22.0587 69.1173 20.8427 69.1173 19.36C69.1173 17.824 68.7653 16.5973 68.0613 15.68C67.3679 14.7627 66.3333 14.304 64.9573 14.304C64.0079 14.304 63.2292 14.5173 62.6213 14.944C62.0133 15.3707 61.5599 15.9627 61.2613 16.72C60.9733 17.4773 60.8293 18.3573 60.8293 19.36C60.8293 20.9067 61.1759 22.1387 61.8693 23.056C62.5733 23.9627 63.6026 24.416 64.9573 24.416ZM79.8752 28V14.56H74.2112V10.72H89.8912V14.56H84.2272V28H79.8752ZM96.1087 28.48C94.8714 28.48 93.8207 28.2453 92.9567 27.776C92.1034 27.296 91.4527 26.6613 91.0047 25.872C90.5674 25.072 90.3487 24.192 90.3487 23.232C90.3487 22.432 90.4714 21.7013 90.7167 21.04C90.9621 20.3787 91.3567 19.7973 91.9007 19.296C92.4554 18.784 93.1967 18.3573 94.1247 18.016C94.7647 17.7813 95.5274 17.5733 96.4127 17.392C97.2981 17.2107 98.3007 17.04 99.4207 16.88C100.541 16.7093 101.773 16.5227 103.117 16.32L101.549 17.184C101.549 16.16 101.303 15.408 100.813 14.928C100.322 14.448 99.5007 14.208 98.3487 14.208C97.7087 14.208 97.0421 14.3627 96.3487 14.672C95.6554 14.9813 95.1701 15.5307 94.8927 16.32L90.9567 15.072C91.3941 13.6427 92.2154 12.48 93.4207 11.584C94.6261 10.688 96.2687 10.24 98.3487 10.24C99.8741 10.24 101.229 10.4747 102.413 10.944C103.597 11.4133 104.493 12.224 105.101 13.376C105.442 14.016 105.645 14.656 105.709 15.296C105.773 15.936 105.805 16.6507 105.805 17.44V28H101.997V24.448L102.541 25.184C101.698 26.3467 100.786 27.1893 99.8047 27.712C98.8341 28.224 97.6021 28.48 96.1087 28.48ZM97.0367 25.056C97.8367 25.056 98.5087 24.9173 99.0527 24.64C99.6074 24.352 100.045 24.0267 100.365 23.664C100.695 23.3013 100.919 22.9973 101.037 22.752C101.261 22.2827 101.389 21.7387 101.421 21.12C101.463 20.4907 101.485 19.968 101.485 19.552L102.765 19.872C101.474 20.0853 100.429 20.2667 99.6287 20.416C98.8287 20.5547 98.1834 20.6827 97.6927 20.8C97.2021 20.9173 96.7701 21.0453 96.3967 21.184C95.9701 21.3547 95.6234 21.5413 95.3567 21.744C95.1007 21.936 94.9087 22.1493 94.7807 22.384C94.6634 22.6187 94.6047 22.88 94.6047 23.168C94.6047 23.5627 94.7007 23.904 94.8927 24.192C95.0954 24.4693 95.3781 24.6827 95.7407 24.832C96.1034 24.9813 96.5354 25.056 97.0367 25.056ZM116.717 28.48C114.946 28.48 113.384 28.1013 112.029 27.344C110.685 26.576 109.629 25.5253 108.861 24.192C108.104 22.848 107.725 21.312 107.725 19.584C107.725 17.696 108.098 16.0533 108.845 14.656C109.592 13.2587 110.621 12.176 111.933 11.408C113.245 10.6293 114.754 10.24 116.461 10.24C118.274 10.24 119.816 10.6667 121.085 11.52C122.354 12.3733 123.293 13.5733 123.901 15.12C124.509 16.6667 124.722 18.4853 124.541 20.576H120.237V18.976C120.237 17.216 119.954 15.952 119.389 15.184C118.834 14.4053 117.922 14.016 116.653 14.016C115.17 14.016 114.077 14.4693 113.373 15.376C112.68 16.272 112.333 17.6 112.333 19.36C112.333 20.9707 112.68 22.2187 113.373 23.104C114.077 23.9787 115.106 24.416 116.461 24.416C117.314 24.416 118.045 24.2293 118.653 23.856C119.261 23.4827 119.725 22.944 120.045 22.24L124.397 23.488C123.746 25.0667 122.717 26.2933 121.309 27.168C119.912 28.0427 118.381 28.48 116.717 28.48ZM110.989 20.576V17.344H122.445V20.576H110.989ZM126.373 28V10.72H129.893L135.909 21.92L141.925 10.72H145.445V28H141.285V19.392L136.677 28H135.141L130.533 19.392V28H126.373Z" fill="#DADADA"/>
<path d="M2.24 60V36.96H11.968C12.192 36.96 12.4907 36.9707 12.864 36.992C13.248 37.0027 13.5893 37.0347 13.888 37.088C15.264 37.3013 16.3893 37.7547 17.264 38.448C18.1493 39.1413 18.8 40.016 19.216 41.072C19.632 42.1173 19.84 43.2853 19.84 44.576C19.84 45.8667 19.6267 47.04 19.2 48.096C18.784 49.1413 18.1333 50.0107 17.248 50.704C16.3733 51.3973 15.2533 51.8507 13.888 52.064C13.5893 52.1067 13.248 52.1387 12.864 52.16C12.48 52.1813 12.1813 52.192 11.968 52.192H6.592V60H2.24ZM6.592 48.128H11.776C12 48.128 12.2453 48.1173 12.512 48.096C12.7787 48.0747 13.024 48.032 13.248 47.968C13.8347 47.808 14.288 47.5413 14.608 47.168C14.928 46.784 15.1467 46.3627 15.264 45.904C15.392 45.4347 15.456 44.992 15.456 44.576C15.456 44.16 15.392 43.7227 15.264 43.264C15.1467 42.7947 14.928 42.3733 14.608 42C14.288 41.616 13.8347 41.344 13.248 41.184C13.024 41.12 12.7787 41.0773 12.512 41.056C12.2453 41.0347 12 41.024 11.776 41.024H6.592V48.128ZM21.7725 60V36.96H31.5005C31.7245 36.96 32.0232 36.9707 32.3965 36.992C32.7805 37.0027 33.1218 37.0347 33.4205 37.088C34.7965 37.3013 35.9218 37.7547 36.7965 38.448C37.6818 39.1413 38.3325 40.016 38.7485 41.072C39.1645 42.1173 39.3725 43.2853 39.3725 44.576C39.3725 46.5067 38.8925 48.16 37.9325 49.536C36.9725 50.9013 35.4685 51.744 33.4205 52.064L31.5005 52.192H26.1245V60H21.7725ZM34.7645 60L30.2205 50.624L34.7005 49.76L39.6925 60H34.7645ZM26.1245 48.128H31.3085C31.5325 48.128 31.7778 48.1173 32.0445 48.096C32.3112 48.0747 32.5565 48.032 32.7805 47.968C33.3672 47.808 33.8205 47.5413 34.1405 47.168C34.4605 46.784 34.6792 46.3627 34.7965 45.904C34.9245 45.4347 34.9885 44.992 34.9885 44.576C34.9885 44.16 34.9245 43.7227 34.7965 43.264C34.6792 42.7947 34.4605 42.3733 34.1405 42C33.8205 41.616 33.3672 41.344 32.7805 41.184C32.5565 41.12 32.3112 41.0773 32.0445 41.056C31.7778 41.0347 31.5325 41.024 31.3085 41.024H26.1245V48.128ZM41.61 64.32L41.866 62.496C42.378 62.5387 42.794 62.4533 43.114 62.24C43.434 62.0373 43.6527 61.7387 43.77 61.344C43.898 60.96 43.9247 60.512 43.85 60H41.61V55.648H45.962V60C45.962 61.536 45.6047 62.6987 44.89 63.488C44.1753 64.2773 43.082 64.5547 41.61 64.32ZM55.8693 60L55.9013 42.72H60.3173V51.04L66.1733 42.72H71.5493L65.3093 51.36L71.9653 60H66.3013L60.3173 51.68V60H55.8693ZM80.7575 60.48C79.0402 60.48 77.6055 60.08 76.4535 59.28C75.3015 58.48 74.4322 57.392 73.8455 56.016C73.2695 54.64 72.9815 53.088 72.9815 51.36C72.9815 49.632 73.2695 48.08 73.8455 46.704C74.4215 45.328 75.2695 44.24 76.3895 43.44C77.5095 42.64 78.8908 42.24 80.5335 42.24C82.1868 42.24 83.6268 42.6347 84.8535 43.424C86.0802 44.2133 87.0295 45.296 87.7015 46.672C88.3842 48.0373 88.7255 49.6 88.7255 51.36C88.7255 53.088 88.3895 54.64 87.7175 56.016C87.0562 57.392 86.1282 58.48 84.9335 59.28C83.7388 60.08 82.3468 60.48 80.7575 60.48ZM72.2455 67.68V42.72H76.0855V54.56H76.6295V67.68H72.2455ZM80.0535 56.608C80.9922 56.608 81.7602 56.3733 82.3575 55.904C82.9548 55.4347 83.3975 54.8053 83.6855 54.016C83.9735 53.216 84.1175 52.3307 84.1175 51.36C84.1175 50.4 83.9682 49.5253 83.6695 48.736C83.3708 47.936 82.9068 47.3013 82.2775 46.832C81.6588 46.352 80.8642 46.112 79.8935 46.112C78.9868 46.112 78.2508 46.3307 77.6855 46.768C77.1308 47.2053 76.7255 47.8187 76.4695 48.608C76.2135 49.3973 76.0855 50.3147 76.0855 51.36C76.0855 52.4053 76.2135 53.3227 76.4695 54.112C76.7255 54.9013 77.1415 55.5147 77.7175 55.952C78.3042 56.3893 79.0828 56.608 80.0535 56.608ZM98.9983 60.48C97.2276 60.48 95.6649 60.1013 94.3102 59.344C92.9662 58.576 91.9102 57.5253 91.1422 56.192C90.3849 54.848 90.0062 53.312 90.0062 51.584C90.0062 49.696 90.3796 48.0533 91.1262 46.656C91.8729 45.2587 92.9022 44.176 94.2143 43.408C95.5263 42.6293 97.0356 42.24 98.7423 42.24C100.556 42.24 102.097 42.6667 103.366 43.52C104.636 44.3733 105.574 45.5733 106.182 47.12C106.79 48.6667 107.004 50.4853 106.822 52.576H102.518V50.976C102.518 49.216 102.236 47.952 101.67 47.184C101.116 46.4053 100.204 46.016 98.9342 46.016C97.4516 46.016 96.3582 46.4693 95.6543 47.376C94.9609 48.272 94.6143 49.6 94.6143 51.36C94.6143 52.9707 94.9609 54.2187 95.6543 55.104C96.3582 55.9787 97.3876 56.416 98.7423 56.416C99.5956 56.416 100.326 56.2293 100.934 55.856C101.542 55.4827 102.006 54.944 102.326 54.24L106.678 55.488C106.028 57.0667 104.998 58.2933 103.59 59.168C102.193 60.0427 100.662 60.48 98.9983 60.48ZM93.2702 52.576V49.344H104.726V52.576H93.2702ZM113.643 60.48C112.405 60.48 111.355 60.2453 110.491 59.776C109.637 59.296 108.987 58.6613 108.539 57.872C108.101 57.072 107.883 56.192 107.883 55.232C107.883 54.432 108.005 53.7013 108.251 53.04C108.496 52.3787 108.891 51.7973 109.435 51.296C109.989 50.784 110.731 50.3573 111.659 50.016C112.299 49.7813 113.061 49.5733 113.947 49.392C114.832 49.2107 115.835 49.04 116.955 48.88C118.075 48.7093 119.307 48.5227 120.651 48.32L119.083 49.184C119.083 48.16 118.837 47.408 118.347 46.928C117.856 46.448 117.035 46.208 115.883 46.208C115.243 46.208 114.576 46.3627 113.883 46.672C113.189 46.9813 112.704 47.5307 112.427 48.32L108.491 47.072C108.928 45.6427 109.749 44.48 110.955 43.584C112.16 42.688 113.803 42.24 115.883 42.24C117.408 42.24 118.763 42.4747 119.947 42.944C121.131 43.4133 122.027 44.224 122.635 45.376C122.976 46.016 123.179 46.656 123.243 47.296C123.307 47.936 123.339 48.6507 123.339 49.44V60H119.531V56.448L120.075 57.184C119.232 58.3467 118.32 59.1893 117.339 59.712C116.368 60.224 115.136 60.48 113.643 60.48ZM114.571 57.056C115.371 57.056 116.043 56.9173 116.587 56.64C117.141 56.352 117.579 56.0267 117.899 55.664C118.229 55.3013 118.453 54.9973 118.571 54.752C118.795 54.2827 118.923 53.7387 118.955 53.12C118.997 52.4907 119.019 51.968 119.019 51.552L120.299 51.872C119.008 52.0853 117.963 52.2667 117.163 52.416C116.363 52.5547 115.717 52.6827 115.227 52.8C114.736 52.9173 114.304 53.0453 113.931 53.184C113.504 53.3547 113.157 53.5413 112.891 53.744C112.635 53.936 112.443 54.1493 112.315 54.384C112.197 54.6187 112.139 54.88 112.139 55.168C112.139 55.5627 112.235 55.904 112.427 56.192C112.629 56.4693 112.912 56.6827 113.275 56.832C113.637 56.9813 114.069 57.056 114.571 57.056ZM130.443 60V46.56H124.779V42.72H140.459V46.56H134.795V60H130.443ZM157.612 42.72V60H153.452V49.44L145.644 60H142.188V42.72H146.348V52.928L154.188 42.72H157.612ZM160.783 60V42.72H168.879C169.519 42.72 170.079 42.7573 170.559 42.832C171.039 42.896 171.439 42.976 171.759 43.072C172.548 43.3067 173.268 43.7653 173.919 44.448C174.57 45.1307 174.895 46.1227 174.895 47.424C174.895 48.192 174.772 48.816 174.527 49.296C174.282 49.7653 173.956 50.1547 173.551 50.464C173.359 50.6027 173.167 50.72 172.975 50.816C172.783 50.912 172.591 50.9867 172.399 51.04C172.847 51.104 173.252 51.2213 173.615 51.392C174.191 51.648 174.692 52.0533 175.119 52.608C175.546 53.152 175.759 53.9627 175.759 55.04C175.759 56.192 175.476 57.1733 174.911 57.984C174.356 58.7947 173.519 59.36 172.399 59.68C172.015 59.7867 171.562 59.8667 171.039 59.92C170.527 59.9733 169.988 60 169.423 60H160.783ZM165.199 56.704H169.103C169.327 56.704 169.556 56.6827 169.791 56.64C170.036 56.5867 170.255 56.5227 170.447 56.448C170.756 56.32 170.975 56.1013 171.103 55.792C171.242 55.4827 171.311 55.168 171.311 54.848C171.311 54.4 171.21 54.048 171.007 53.792C170.815 53.536 170.596 53.3547 170.351 53.248C170.148 53.152 169.924 53.0987 169.679 53.088C169.444 53.0667 169.252 53.056 169.103 53.056H165.199V56.704ZM165.199 49.696H167.855C168.196 49.696 168.516 49.68 168.815 49.648C169.124 49.6053 169.38 49.536 169.583 49.44C169.86 49.312 170.068 49.1093 170.207 48.832C170.346 48.544 170.415 48.224 170.415 47.872C170.415 47.4987 170.335 47.1627 170.175 46.864C170.026 46.5547 169.775 46.3467 169.423 46.24C169.188 46.1547 168.89 46.1067 168.527 46.096C168.175 46.0853 167.951 46.08 167.855 46.08H165.199V49.696ZM182.491 60.48C181.254 60.48 180.203 60.2453 179.339 59.776C178.486 59.296 177.835 58.6613 177.387 57.872C176.95 57.072 176.731 56.192 176.731 55.232C176.731 54.432 176.854 53.7013 177.099 53.04C177.345 52.3787 177.739 51.7973 178.283 51.296C178.838 50.784 179.579 50.3573 180.507 50.016C181.147 49.7813 181.91 49.5733 182.795 49.392C183.681 49.2107 184.683 49.04 185.803 48.88C186.923 48.7093 188.155 48.5227 189.499 48.32L187.931 49.184C187.931 48.16 187.686 47.408 187.195 46.928C186.705 46.448 185.883 46.208 184.731 46.208C184.091 46.208 183.425 46.3627 182.731 46.672C182.038 46.9813 181.553 47.5307 181.275 48.32L177.339 47.072C177.777 45.6427 178.598 44.48 179.803 43.584C181.009 42.688 182.651 42.24 184.731 42.24C186.257 42.24 187.611 42.4747 188.795 42.944C189.979 43.4133 190.875 44.224 191.483 45.376C191.825 46.016 192.027 46.656 192.091 47.296C192.155 47.936 192.187 48.6507 192.187 49.44V60H188.379V56.448L188.923 57.184C188.081 58.3467 187.169 59.1893 186.187 59.712C185.217 60.224 183.985 60.48 182.491 60.48ZM183.419 57.056C184.219 57.056 184.891 56.9173 185.435 56.64C185.99 56.352 186.427 56.0267 186.747 55.664C187.078 55.3013 187.302 54.9973 187.419 54.752C187.643 54.2827 187.771 53.7387 187.803 53.12C187.846 52.4907 187.867 51.968 187.867 51.552L189.147 51.872C187.857 52.0853 186.811 52.2667 186.011 52.416C185.211 52.5547 184.566 52.6827 184.075 52.8C183.585 52.9173 183.153 53.0453 182.779 53.184C182.353 53.3547 182.006 53.5413 181.739 53.744C181.483 53.936 181.291 54.1493 181.163 54.384C181.046 54.6187 180.987 54.88 180.987 55.168C180.987 55.5627 181.083 55.904 181.275 56.192C181.478 56.4693 181.761 56.6827 182.123 56.832C182.486 56.9813 182.918 57.056 183.419 57.056Z" fill="#DADADA"/>
<path d="M10.656 92.48C9.024 92.48 7.58933 92.24 6.352 91.76C5.12533 91.28 4.09067 90.6667 3.248 89.92C2.40533 89.1627 1.74933 88.3733 1.28 87.552L4.96 84.992C5.216 85.5253 5.57867 86.0533 6.048 86.576C6.51733 87.0987 7.14133 87.5307 7.92 87.872C8.69867 88.2133 9.67467 88.384 10.848 88.384C11.9573 88.384 12.848 88.224 13.52 87.904C14.2027 87.584 14.6933 87.1733 14.992 86.672C15.3013 86.1707 15.456 85.6427 15.456 85.088C15.456 84.352 15.2373 83.7867 14.8 83.392C14.3733 82.9973 13.8187 82.7253 13.136 82.576C12.4533 82.416 11.7333 82.3253 10.976 82.304C10.24 82.2827 9.70667 82.2667 9.376 82.256C9.056 82.2453 8.83733 82.24 8.72 82.24C8.61333 82.24 8.512 82.24 8.416 82.24V78.144C8.55467 78.144 8.75733 78.144 9.024 78.144C9.30133 78.144 9.57867 78.144 9.856 78.144C10.144 78.1333 10.3787 78.1227 10.56 78.112C11.68 78.0587 12.6133 77.8133 13.36 77.376C14.1173 76.9387 14.496 76.256 14.496 75.328C14.496 74.4747 14.16 73.7973 13.488 73.296C12.8267 72.7947 11.936 72.544 10.816 72.544C9.76 72.544 8.816 72.7733 7.984 73.232C7.16267 73.68 6.56 74.176 6.176 74.72L3.2 71.52C4 70.688 5.072 69.9733 6.416 69.376C7.76 68.7787 9.26933 68.48 10.944 68.48C11.9573 68.48 12.9493 68.6133 13.92 68.88C14.8907 69.136 15.7653 69.536 16.544 70.08C17.3227 70.6133 17.9413 71.3013 18.4 72.144C18.8693 72.9867 19.104 73.9947 19.104 75.168C19.104 76.16 18.928 77.0987 18.576 77.984C18.224 78.8587 17.7173 79.5947 17.056 80.192C18.016 80.6187 18.7573 81.2373 19.28 82.048C19.8027 82.8587 20.064 83.872 20.064 85.088C20.064 86.6133 19.6373 87.9307 18.784 89.04C17.9413 90.1387 16.8053 90.9867 15.376 91.584C13.9573 92.1813 12.384 92.48 10.656 92.48ZM27.1037 92.48C25.8664 92.48 24.8157 92.2453 23.9517 91.776C23.0984 91.296 22.4477 90.6613 21.9997 89.872C21.5624 89.072 21.3437 88.192 21.3437 87.232C21.3437 86.432 21.4664 85.7013 21.7117 85.04C21.9571 84.3787 22.3517 83.7973 22.8957 83.296C23.4504 82.784 24.1917 82.3573 25.1197 82.016C25.7597 81.7813 26.5224 81.5733 27.4077 81.392C28.2931 81.2107 29.2957 81.04 30.4157 80.88C31.5357 80.7093 32.7677 80.5227 34.1117 80.32L32.5437 81.184C32.5437 80.16 32.2984 79.408 31.8077 78.928C31.3171 78.448 30.4957 78.208 29.3438 78.208C28.7037 78.208 28.0371 78.3627 27.3437 78.672C26.6504 78.9813 26.1651 79.5307 25.8877 80.32L21.9517 79.072C22.3891 77.6427 23.2104 76.48 24.4157 75.584C25.6211 74.688 27.2637 74.24 29.3438 74.24C30.8691 74.24 32.2238 74.4747 33.4078 74.944C34.5918 75.4133 35.4878 76.224 36.0958 77.376C36.4371 78.016 36.6398 78.656 36.7038 79.296C36.7677 79.936 36.7997 80.6507 36.7997 81.44V92H32.9917V88.448L33.5358 89.184C32.6931 90.3467 31.7811 91.1893 30.7997 91.712C29.8291 92.224 28.5971 92.48 27.1037 92.48ZM28.0317 89.056C28.8317 89.056 29.5037 88.9173 30.0477 88.64C30.6024 88.352 31.0398 88.0267 31.3597 87.664C31.6904 87.3013 31.9144 86.9973 32.0317 86.752C32.2558 86.2827 32.3837 85.7387 32.4157 85.12C32.4584 84.4907 32.4797 83.968 32.4797 83.552L33.7598 83.872C32.4691 84.0853 31.4237 84.2667 30.6237 84.416C29.8237 84.5547 29.1784 84.6827 28.6877 84.8C28.1971 84.9173 27.7651 85.0453 27.3917 85.184C26.9651 85.3547 26.6184 85.5413 26.3517 85.744C26.0957 85.936 25.9037 86.1493 25.7757 86.384C25.6584 86.6187 25.5997 86.88 25.5997 87.168C25.5997 87.5627 25.6957 87.904 25.8877 88.192C26.0904 88.4693 26.3731 88.6827 26.7357 88.832C27.0984 88.9813 27.5304 89.056 28.0317 89.056ZM39.648 92V74.72H47.744C48.384 74.72 48.944 74.7573 49.424 74.832C49.904 74.896 50.304 74.976 50.624 75.072C51.4133 75.3067 52.1333 75.7653 52.784 76.448C53.4347 77.1307 53.76 78.1227 53.76 79.424C53.76 80.192 53.6373 80.816 53.392 81.296C53.1467 81.7653 52.8213 82.1547 52.416 82.464C52.224 82.6027 52.032 82.72 51.84 82.816C51.648 82.912 51.456 82.9867 51.264 83.04C51.712 83.104 52.1173 83.2213 52.48 83.392C53.056 83.648 53.5573 84.0533 53.984 84.608C54.4107 85.152 54.624 85.9627 54.624 87.04C54.624 88.192 54.3413 89.1733 53.776 89.984C53.2213 90.7947 52.384 91.36 51.264 91.68C50.88 91.7867 50.4267 91.8667 49.904 91.92C49.392 91.9733 48.8533 92 48.288 92H39.648ZM44.064 88.704H47.968C48.192 88.704 48.4213 88.6827 48.656 88.64C48.9013 88.5867 49.12 88.5227 49.312 88.448C49.6213 88.32 49.84 88.1013 49.968 87.792C50.1067 87.4827 50.176 87.168 50.176 86.848C50.176 86.4 50.0747 86.048 49.872 85.792C49.68 85.536 49.4613 85.3547 49.216 85.248C49.0133 85.152 48.7893 85.0987 48.544 85.088C48.3093 85.0667 48.1173 85.056 47.968 85.056H44.064V88.704ZM44.064 81.696H46.72C47.0613 81.696 47.3813 81.68 47.68 81.648C47.9893 81.6053 48.2453 81.536 48.448 81.44C48.7253 81.312 48.9333 81.1093 49.072 80.832C49.2107 80.544 49.28 80.224 49.28 79.872C49.28 79.4987 49.2 79.1627 49.04 78.864C48.8907 78.5547 48.64 78.3467 48.288 78.24C48.0533 78.1547 47.7547 78.1067 47.392 78.096C47.04 78.0853 46.816 78.08 46.72 78.08H44.064V81.696ZM64.3323 92.48C62.5936 92.48 61.0683 92.0907 59.7562 91.312C58.4442 90.5333 57.4202 89.4613 56.6842 88.096C55.9589 86.72 55.5962 85.1413 55.5962 83.36C55.5962 81.5573 55.9696 79.9733 56.7162 78.608C57.4629 77.232 58.4923 76.16 59.8043 75.392C61.1163 74.624 62.6256 74.24 64.3323 74.24C66.0709 74.24 67.5963 74.6293 68.9083 75.408C70.2309 76.1867 71.2603 77.264 71.9963 78.64C72.7323 80.0053 73.1003 81.5787 73.1003 83.36C73.1003 85.152 72.7269 86.736 71.9803 88.112C71.2443 89.4773 70.2149 90.5493 68.8923 91.328C67.5803 92.096 66.0603 92.48 64.3323 92.48ZM64.3323 88.416C65.7296 88.416 66.7696 87.9467 67.4523 87.008C68.1456 86.0587 68.4923 84.8427 68.4923 83.36C68.4923 81.824 68.1403 80.5973 67.4363 79.68C66.7429 78.7627 65.7083 78.304 64.3323 78.304C63.3829 78.304 62.6042 78.5173 61.9963 78.944C61.3883 79.3707 60.9349 79.9627 60.6363 80.72C60.3483 81.4773 60.2043 82.3573 60.2043 83.36C60.2043 84.9067 60.5509 86.1387 61.2443 87.056C61.9483 87.9627 62.9776 88.416 64.3323 88.416ZM83.3707 92.48C81.6001 92.48 80.0374 92.1013 78.6827 91.344C77.3387 90.576 76.2827 89.5253 75.5147 88.192C74.7574 86.848 74.3787 85.312 74.3787 83.584C74.3787 81.696 74.7521 80.0533 75.4987 78.656C76.2454 77.2587 77.2747 76.176 78.5867 75.408C79.8987 74.6293 81.4081 74.24 83.1147 74.24C84.9281 74.24 86.4694 74.6667 87.7387 75.52C89.0081 76.3733 89.9467 77.5733 90.5547 79.12C91.1627 80.6667 91.3761 82.4853 91.1947 84.576H86.8907V82.976C86.8907 81.216 86.6081 79.952 86.0427 79.184C85.4881 78.4053 84.5761 78.016 83.3067 78.016C81.8241 78.016 80.7307 78.4693 80.0267 79.376C79.3334 80.272 78.9867 81.6 78.9867 83.36C78.9867 84.9707 79.3334 86.2187 80.0267 87.104C80.7307 87.9787 81.7601 88.416 83.1147 88.416C83.9681 88.416 84.6987 88.2293 85.3067 87.856C85.9147 87.4827 86.3787 86.944 86.6987 86.24L91.0507 87.488C90.4001 89.0667 89.3707 90.2933 87.9627 91.168C86.5654 92.0427 85.0347 92.48 83.3707 92.48ZM77.6427 84.576V81.344H89.0987V84.576H77.6427ZM93.4955 92V74.72H101.591C102.231 74.72 102.791 74.7573 103.271 74.832C103.751 74.896 104.151 74.976 104.471 75.072C105.261 75.3067 105.981 75.7653 106.631 76.448C107.282 77.1307 107.608 78.1227 107.608 79.424C107.608 80.192 107.485 80.816 107.239 81.296C106.994 81.7653 106.669 82.1547 106.263 82.464C106.071 82.6027 105.879 82.72 105.687 82.816C105.495 82.912 105.303 82.9867 105.111 83.04C105.559 83.104 105.965 83.2213 106.327 83.392C106.903 83.648 107.405 84.0533 107.831 84.608C108.258 85.152 108.471 85.9627 108.471 87.04C108.471 88.192 108.189 89.1733 107.623 89.984C107.069 90.7947 106.231 91.36 105.111 91.68C104.727 91.7867 104.274 91.8667 103.751 91.92C103.239 91.9733 102.701 92 102.135 92H93.4955ZM97.9115 88.704H101.815C102.039 88.704 102.269 88.6827 102.503 88.64C102.749 88.5867 102.967 88.5227 103.159 88.448C103.469 88.32 103.687 88.1013 103.815 87.792C103.954 87.4827 104.023 87.168 104.023 86.848C104.023 86.4 103.922 86.048 103.719 85.792C103.527 85.536 103.309 85.3547 103.063 85.248C102.861 85.152 102.637 85.0987 102.391 85.088C102.157 85.0667 101.965 85.056 101.815 85.056H97.9115V88.704ZM97.9115 81.696H100.567C100.909 81.696 101.229 81.68 101.527 81.648C101.837 81.6053 102.093 81.536 102.295 81.44C102.573 81.312 102.781 81.1093 102.919 80.832C103.058 80.544 103.127 80.224 103.127 79.872C103.127 79.4987 103.047 79.1627 102.887 78.864C102.738 78.5547 102.487 78.3467 102.135 78.24C101.901 78.1547 101.602 78.1067 101.239 78.096C100.887 78.0853 100.663 78.08 100.567 78.08H97.9115V81.696ZM110.372 92V74.72H114.724V80.224H116.292C116.772 80.224 117.332 80.2347 117.972 80.256C118.612 80.2773 119.14 80.3307 119.556 80.416C120.569 80.64 121.422 80.9973 122.116 81.488C122.809 81.9787 123.332 82.6133 123.684 83.392C124.046 84.16 124.228 85.0773 124.228 86.144C124.228 87.68 123.828 88.9173 123.028 89.856C122.238 90.784 121.092 91.424 119.588 91.776C119.172 91.872 118.638 91.936 117.988 91.968C117.337 91.9893 116.772 92 116.292 92H110.372ZM114.724 88.64H116.772C116.964 88.64 117.177 88.6293 117.412 88.608C117.646 88.5867 117.881 88.544 118.116 88.48C118.564 88.352 118.958 88.0693 119.3 87.632C119.641 87.1947 119.812 86.6987 119.812 86.144C119.812 85.536 119.636 85.0187 119.284 84.592C118.932 84.1547 118.521 83.872 118.052 83.744C117.828 83.68 117.604 83.6373 117.38 83.616C117.156 83.5947 116.953 83.584 116.772 83.584H114.724V88.64ZM125.956 92V74.72H130.308V92H125.956ZM133.467 92V74.72H141.563C142.203 74.72 142.763 74.7573 143.243 74.832C143.723 74.896 144.123 74.976 144.443 75.072C145.232 75.3067 145.952 75.7653 146.603 76.448C147.253 77.1307 147.579 78.1227 147.579 79.424C147.579 80.192 147.456 80.816 147.211 81.296C146.965 81.7653 146.64 82.1547 146.235 82.464C146.043 82.6027 145.851 82.72 145.659 82.816C145.467 82.912 145.275 82.9867 145.083 83.04C145.531 83.104 145.936 83.2213 146.299 83.392C146.875 83.648 147.376 84.0533 147.803 84.608C148.229 85.152 148.443 85.9627 148.443 87.04C148.443 88.192 148.16 89.1733 147.595 89.984C147.04 90.7947 146.203 91.36 145.083 91.68C144.699 91.7867 144.245 91.8667 143.723 91.92C143.211 91.9733 142.672 92 142.107 92H133.467ZM137.883 88.704H141.787C142.011 88.704 142.24 88.6827 142.475 88.64C142.72 88.5867 142.939 88.5227 143.131 88.448C143.44 88.32 143.659 88.1013 143.787 87.792C143.925 87.4827 143.995 87.168 143.995 86.848C143.995 86.4 143.893 86.048 143.691 85.792C143.499 85.536 143.28 85.3547 143.035 85.248C142.832 85.152 142.608 85.0987 142.363 85.088C142.128 85.0667 141.936 85.056 141.787 85.056H137.883V88.704ZM137.883 81.696H140.539C140.88 81.696 141.2 81.68 141.499 81.648C141.808 81.6053 142.064 81.536 142.267 81.44C142.544 81.312 142.752 81.1093 142.891 80.832C143.029 80.544 143.099 80.224 143.099 79.872C143.099 79.4987 143.019 79.1627 142.859 78.864C142.709 78.5547 142.459 78.3467 142.107 78.24C141.872 78.1547 141.573 78.1067 141.211 78.096C140.859 78.0853 140.635 78.08 140.539 78.08H137.883V81.696ZM155.175 92.48C153.938 92.48 152.887 92.2453 152.023 91.776C151.17 91.296 150.519 90.6613 150.071 89.872C149.634 89.072 149.415 88.192 149.415 87.232C149.415 86.432 149.538 85.7013 149.783 85.04C150.028 84.3787 150.423 83.7973 150.967 83.296C151.522 82.784 152.263 82.3573 153.191 82.016C153.831 81.7813 154.594 81.5733 155.479 81.392C156.364 81.2107 157.367 81.04 158.487 80.88C159.607 80.7093 160.839 80.5227 162.183 80.32L160.615 81.184C160.615 80.16 160.37 79.408 159.879 78.928C159.388 78.448 158.567 78.208 157.415 78.208C156.775 78.208 156.108 78.3627 155.415 78.672C154.722 78.9813 154.236 79.5307 153.959 80.32L150.023 79.072C150.46 77.6427 151.282 76.48 152.487 75.584C153.692 74.688 155.335 74.24 157.415 74.24C158.94 74.24 160.295 74.4747 161.479 74.944C162.663 75.4133 163.559 76.224 164.167 77.376C164.508 78.016 164.711 78.656 164.775 79.296C164.839 79.936 164.871 80.6507 164.871 81.44V92H161.063V88.448L161.607 89.184C160.764 90.3467 159.852 91.1893 158.871 91.712C157.9 92.224 156.668 92.48 155.175 92.48ZM156.103 89.056C156.903 89.056 157.575 88.9173 158.119 88.64C158.674 88.352 159.111 88.0267 159.431 87.664C159.762 87.3013 159.986 86.9973 160.103 86.752C160.327 86.2827 160.455 85.7387 160.487 85.12C160.53 84.4907 160.551 83.968 160.551 83.552L161.831 83.872C160.54 84.0853 159.495 84.2667 158.695 84.416C157.895 84.5547 157.25 84.6827 156.759 84.8C156.268 84.9173 155.836 85.0453 155.463 85.184C155.036 85.3547 154.69 85.5413 154.423 85.744C154.167 85.936 153.975 86.1493 153.847 86.384C153.73 86.6187 153.671 86.88 153.671 87.168C153.671 87.5627 153.767 87.904 153.959 88.192C154.162 88.4693 154.444 88.6827 154.807 88.832C155.17 88.9813 155.602 89.056 156.103 89.056ZM175.783 92.48C174.013 92.48 172.45 92.1013 171.095 91.344C169.751 90.576 168.695 89.5253 167.927 88.192C167.17 86.848 166.791 85.312 166.791 83.584C166.791 81.696 167.165 80.0533 167.911 78.656C168.658 77.2587 169.687 76.176 170.999 75.408C172.311 74.6293 173.821 74.24 175.527 74.24C177.341 74.24 178.882 74.6667 180.151 75.52C181.421 76.3733 182.359 77.5733 182.967 79.12C183.575 80.6667 183.789 82.4853 183.607 84.576H179.303V82.976C179.303 81.216 179.021 79.952 178.455 79.184C177.901 78.4053 176.989 78.016 175.719 78.016C174.237 78.016 173.143 78.4693 172.439 79.376C171.746 80.272 171.399 81.6 171.399 83.36C171.399 84.9707 171.746 86.2187 172.439 87.104C173.143 87.9787 174.173 88.416 175.527 88.416C176.381 88.416 177.111 88.2293 177.719 87.856C178.327 87.4827 178.791 86.944 179.111 86.24L183.463 87.488C182.813 89.0667 181.783 90.2933 180.375 91.168C178.978 92.0427 177.447 92.48 175.783 92.48ZM170.055 84.576V81.344H181.511V84.576H170.055ZM185.439 92V74.72H188.959L194.975 85.92L200.991 74.72H204.511V92H200.351V83.392L195.743 92H194.207L189.599 83.392V92H185.439Z" fill="#DADADA"/>
<path d="M2.208 124V106.72H5.728L11.744 117.92L17.76 106.72H21.28V124H17.12V115.392L12.512 124H10.976L6.368 115.392V124H2.208ZM29.2912 124.48C28.0539 124.48 27.0032 124.245 26.1392 123.776C25.2859 123.296 24.6352 122.661 24.1872 121.872C23.7499 121.072 23.5312 120.192 23.5312 119.232C23.5312 118.432 23.6539 117.701 23.8992 117.04C24.1446 116.379 24.5392 115.797 25.0832 115.296C25.6379 114.784 26.3792 114.357 27.3072 114.016C27.9472 113.781 28.7099 113.573 29.5952 113.392C30.4806 113.211 31.4832 113.04 32.6032 112.88C33.7232 112.709 34.9552 112.523 36.2992 112.32L34.7312 113.184C34.7312 112.16 34.4859 111.408 33.9952 110.928C33.5046 110.448 32.6832 110.208 31.5312 110.208C30.8912 110.208 30.2246 110.363 29.5312 110.672C28.8379 110.981 28.3526 111.531 28.0752 112.32L24.1392 111.072C24.5766 109.643 25.3979 108.48 26.6032 107.584C27.8086 106.688 29.4512 106.24 31.5312 106.24C33.0566 106.24 34.4113 106.475 35.5953 106.944C36.7793 107.413 37.6753 108.224 38.2833 109.376C38.6246 110.016 38.8273 110.656 38.8913 111.296C38.9552 111.936 38.9872 112.651 38.9872 113.44V124H35.1792V120.448L35.7233 121.184C34.8806 122.347 33.9686 123.189 32.9872 123.712C32.0166 124.224 30.7846 124.48 29.2912 124.48ZM30.2192 121.056C31.0192 121.056 31.6912 120.917 32.2352 120.64C32.7899 120.352 33.2273 120.027 33.5472 119.664C33.8779 119.301 34.1019 118.997 34.2192 118.752C34.4433 118.283 34.5712 117.739 34.6032 117.12C34.6459 116.491 34.6672 115.968 34.6672 115.552L35.9473 115.872C34.6566 116.085 33.6112 116.267 32.8112 116.416C32.0112 116.555 31.3659 116.683 30.8752 116.8C30.3846 116.917 29.9526 117.045 29.5792 117.184C29.1526 117.355 28.8059 117.541 28.5392 117.744C28.2832 117.936 28.0912 118.149 27.9632 118.384C27.8459 118.619 27.7872 118.88 27.7872 119.168C27.7872 119.563 27.8832 119.904 28.0752 120.192C28.2779 120.469 28.5606 120.683 28.9232 120.832C29.2859 120.981 29.7179 121.056 30.2192 121.056ZM41.8355 124V106.72H46.1875V113.312H53.2915V106.72H57.6435V124H53.2915V117.376H46.1875V124H41.8355ZM76.2295 106.72V124H72.0695V113.44L64.2615 124H60.8055V106.72H64.9655V116.928L72.8055 106.72H76.2295ZM87.4645 124.48C85.6938 124.48 84.1312 124.101 82.7765 123.344C81.4325 122.576 80.3765 121.525 79.6085 120.192C78.8512 118.848 78.4725 117.312 78.4725 115.584C78.4725 113.696 78.8458 112.053 79.5925 110.656C80.3392 109.259 81.3685 108.176 82.6805 107.408C83.9925 106.629 85.5018 106.24 87.2085 106.24C89.0218 106.24 90.5632 106.667 91.8325 107.52C93.1018 108.373 94.0405 109.573 94.6485 111.12C95.2565 112.667 95.4698 114.485 95.2885 116.576H90.9845V114.976C90.9845 113.216 90.7018 111.952 90.1365 111.184C89.5818 110.405 88.6698 110.016 87.4005 110.016C85.9178 110.016 84.8245 110.469 84.1205 111.376C83.4272 112.272 83.0805 113.6 83.0805 115.36C83.0805 116.971 83.4272 118.219 84.1205 119.104C84.8245 119.979 85.8538 120.416 87.2085 120.416C88.0618 120.416 88.7925 120.229 89.4005 119.856C90.0085 119.483 90.4725 118.944 90.7925 118.24L95.1445 119.488C94.4938 121.067 93.4645 122.293 92.0565 123.168C90.6592 124.043 89.1285 124.48 87.4645 124.48ZM81.7365 116.576V113.344H93.1925V116.576H81.7365ZM118.139 106.72V124H113.98V113.44L106.171 124H102.715V106.72H106.876V116.928L114.716 106.72H118.139Z" fill="#DADADA"/>
<path d="M2.208 156L2.24 138.72H6.656V147.04L12.512 138.72H17.888L11.648 147.36L18.304 156H12.64L6.656 147.68V156H2.208ZM31.0225 156.512C29.3585 156.491 27.9505 156.123 26.7985 155.408C25.6465 154.683 24.7398 153.685 24.0785 152.416C23.4278 151.136 23.0225 149.653 22.8625 147.968C22.7772 147.061 22.7558 146.043 22.7985 144.912C22.8518 143.771 22.9745 142.651 23.1665 141.552C23.3585 140.453 23.6305 139.509 23.9825 138.72C24.3238 137.984 24.7612 137.312 25.2945 136.704C25.8385 136.085 26.4145 135.563 27.0225 135.136C27.7372 134.635 28.5052 134.251 29.3265 133.984C30.1478 133.707 31.0118 133.493 31.9185 133.344C32.8252 133.195 33.7638 133.061 34.7345 132.944C35.7158 132.827 36.7078 132.672 37.7105 132.48L38.0945 136.32C37.4865 136.48 36.7932 136.597 36.0145 136.672C35.2358 136.747 34.4358 136.827 33.6145 136.912C32.7932 136.987 32.0092 137.109 31.2625 137.28C30.5158 137.451 29.8705 137.707 29.3265 138.048C28.5905 138.507 28.0252 139.147 27.6305 139.968C27.2465 140.779 27.0225 141.6 26.9585 142.432C27.6198 141.472 28.4252 140.811 29.3745 140.448C30.3345 140.085 31.2785 139.904 32.2065 139.904C33.7318 139.904 35.0385 140.272 36.1265 141.008C37.2252 141.733 38.0678 142.715 38.6545 143.952C39.2412 145.179 39.5345 146.539 39.5345 148.032C39.5345 149.728 39.1665 151.216 38.4305 152.496C37.7052 153.776 36.7025 154.773 35.4225 155.488C34.1425 156.192 32.6758 156.533 31.0225 156.512ZM31.2145 152.448C32.4518 152.448 33.3852 152.064 34.0145 151.296C34.6438 150.528 34.9585 149.504 34.9585 148.224C34.9585 146.912 34.6332 145.883 33.9825 145.136C33.3425 144.379 32.4198 144 31.2145 144C29.9878 144 29.0545 144.379 28.4145 145.136C27.7852 145.883 27.4705 146.912 27.4705 148.224C27.4705 149.579 27.7958 150.624 28.4465 151.36C29.0972 152.085 30.0198 152.448 31.2145 152.448ZM50.255 156.48C48.5377 156.48 47.103 156.08 45.951 155.28C44.799 154.48 43.9297 153.392 43.343 152.016C42.767 150.64 42.479 149.088 42.479 147.36C42.479 145.632 42.767 144.08 43.343 142.704C43.919 141.328 44.767 140.24 45.887 139.44C47.007 138.64 48.3883 138.24 50.031 138.24C51.6843 138.24 53.1243 138.635 54.351 139.424C55.5777 140.213 56.527 141.296 57.199 142.672C57.8817 144.037 58.223 145.6 58.223 147.36C58.223 149.088 57.887 150.64 57.215 152.016C56.5537 153.392 55.6257 154.48 54.431 155.28C53.2363 156.08 51.8443 156.48 50.255 156.48ZM41.743 163.68V138.72H45.583V150.56H46.127V163.68H41.743ZM49.551 152.608C50.4897 152.608 51.2577 152.373 51.855 151.904C52.4523 151.435 52.895 150.805 53.183 150.016C53.471 149.216 53.615 148.331 53.615 147.36C53.615 146.4 53.4657 145.525 53.167 144.736C52.8683 143.936 52.4043 143.301 51.775 142.832C51.1563 142.352 50.3617 142.112 49.391 142.112C48.4843 142.112 47.7483 142.331 47.183 142.768C46.6283 143.205 46.223 143.819 45.967 144.608C45.711 145.397 45.583 146.315 45.583 147.36C45.583 148.405 45.711 149.323 45.967 150.112C46.223 150.901 46.639 151.515 47.215 151.952C47.8017 152.389 48.5803 152.608 49.551 152.608ZM68.4958 156.48C66.7251 156.48 65.1624 156.101 63.8078 155.344C62.4638 154.576 61.4078 153.525 60.6398 152.192C59.8824 150.848 59.5038 149.312 59.5038 147.584C59.5038 145.696 59.8771 144.053 60.6238 142.656C61.3704 141.259 62.3998 140.176 63.7118 139.408C65.0238 138.629 66.5331 138.24 68.2398 138.24C70.0531 138.24 71.5944 138.667 72.8638 139.52C74.1331 140.373 75.0718 141.573 75.6798 143.12C76.2878 144.667 76.5011 146.485 76.3198 148.576H72.0158V146.976C72.0158 145.216 71.7331 143.952 71.1678 143.184C70.6131 142.405 69.7011 142.016 68.4318 142.016C66.9491 142.016 65.8558 142.469 65.1518 143.376C64.4584 144.272 64.1118 145.6 64.1118 147.36C64.1118 148.971 64.4584 150.219 65.1518 151.104C65.8558 151.979 66.8851 152.416 68.2398 152.416C69.0931 152.416 69.8238 152.229 70.4318 151.856C71.0398 151.483 71.5038 150.944 71.8238 150.24L76.1758 151.488C75.5251 153.067 74.4958 154.293 73.0878 155.168C71.6904 156.043 70.1598 156.48 68.4958 156.48ZM62.7678 148.576V145.344H74.2238V148.576H62.7678ZM78.6205 156V138.72H82.9725V145.312H90.0765V138.72H94.4285V156H90.0765V149.376H82.9725V156H78.6205ZM96.3425 159.84V152.64C97.2598 152.64 97.9105 152.32 98.2945 151.68C98.6892 151.04 98.9985 149.899 99.2225 148.256C99.3505 147.307 99.4572 146.309 99.5425 145.264C99.6385 144.219 99.7185 143.147 99.7825 142.048C99.8465 140.949 99.9052 139.84 99.9585 138.72H113.302V152.64H115.062V159.84H110.967V156H100.438V159.84H96.3425ZM101.911 152.64H108.951V142.08H103.734C103.703 142.667 103.665 143.253 103.623 143.84C103.591 144.427 103.548 145.008 103.495 145.584C103.452 146.16 103.409 146.72 103.366 147.264C103.324 147.797 103.276 148.309 103.222 148.8C103.127 149.739 102.993 150.501 102.823 151.088C102.652 151.675 102.348 152.192 101.911 152.64ZM121.768 156.48C120.53 156.48 119.48 156.245 118.616 155.776C117.762 155.296 117.112 154.661 116.664 153.872C116.226 153.072 116.008 152.192 116.008 151.232C116.008 150.432 116.13 149.701 116.376 149.04C116.621 148.379 117.016 147.797 117.56 147.296C118.114 146.784 118.856 146.357 119.784 146.016C120.424 145.781 121.186 145.573 122.072 145.392C122.957 145.211 123.96 145.04 125.08 144.88C126.2 144.709 127.432 144.523 128.776 144.32L127.208 145.184C127.208 144.16 126.962 143.408 126.472 142.928C125.981 142.448 125.16 142.208 124.008 142.208C123.368 142.208 122.701 142.363 122.008 142.672C121.314 142.981 120.829 143.531 120.552 144.32L116.616 143.072C117.053 141.643 117.874 140.48 119.08 139.584C120.285 138.688 121.928 138.24 124.008 138.24C125.533 138.24 126.888 138.475 128.072 138.944C129.256 139.413 130.152 140.224 130.76 141.376C131.101 142.016 131.304 142.656 131.368 143.296C131.432 143.936 131.464 144.651 131.464 145.44V156H127.656V152.448L128.2 153.184C127.357 154.347 126.445 155.189 125.464 155.712C124.493 156.224 123.261 156.48 121.768 156.48ZM122.696 153.056C123.496 153.056 124.168 152.917 124.712 152.64C125.266 152.352 125.704 152.027 126.024 151.664C126.354 151.301 126.578 150.997 126.696 150.752C126.92 150.283 127.048 149.739 127.08 149.12C127.122 148.491 127.144 147.968 127.144 147.552L128.424 147.872C127.133 148.085 126.088 148.267 125.288 148.416C124.488 148.555 123.842 148.683 123.352 148.8C122.861 148.917 122.429 149.045 122.056 149.184C121.629 149.355 121.282 149.541 121.016 149.744C120.76 149.936 120.568 150.149 120.44 150.384C120.322 150.619 120.264 150.88 120.264 151.168C120.264 151.563 120.36 151.904 120.552 152.192C120.754 152.469 121.037 152.683 121.4 152.832C121.762 152.981 122.194 153.056 122.696 153.056ZM134.312 156V138.72H137.832L143.848 149.92L149.864 138.72H153.384V156H149.224V147.392L144.616 156H143.08L138.472 147.392V156H134.312ZM157.299 156V151.648H161.651V156H157.299Z" fill="#DADADA"/>
<path d="M2.208 228V210.72H6.56V217.312H13.664V210.72H18.016V228H13.664V221.376H6.56V228H2.208ZM36.602 210.72V228H32.442V217.44L24.634 228H21.178V210.72H25.338V220.928L33.178 210.72H36.602ZM39.773 228L39.805 210.72H44.221V219.04L50.077 210.72H55.453L49.213 219.36L55.869 228H50.205L44.221 219.68V228H39.773ZM60.9813 228.48C59.7439 228.48 58.6932 228.245 57.8293 227.776C56.9759 227.296 56.3252 226.661 55.8772 225.872C55.4399 225.072 55.2212 224.192 55.2212 223.232C55.2212 222.432 55.3439 221.701 55.5892 221.04C55.8346 220.379 56.2292 219.797 56.7732 219.296C57.3279 218.784 58.0693 218.357 58.9973 218.016C59.6373 217.781 60.3999 217.573 61.2853 217.392C62.1706 217.211 63.1733 217.04 64.2933 216.88C65.4133 216.709 66.6453 216.523 67.9893 216.32L66.4213 217.184C66.4213 216.16 66.1759 215.408 65.6853 214.928C65.1946 214.448 64.3733 214.208 63.2213 214.208C62.5813 214.208 61.9146 214.363 61.2213 214.672C60.5279 214.981 60.0426 215.531 59.7653 216.32L55.8292 215.072C56.2666 213.643 57.0879 212.48 58.2933 211.584C59.4986 210.688 61.1413 210.24 63.2213 210.24C64.7466 210.24 66.1013 210.475 67.2853 210.944C68.4693 211.413 69.3653 212.224 69.9733 213.376C70.3146 214.016 70.5173 214.656 70.5813 215.296C70.6453 215.936 70.6772 216.651 70.6772 217.44V228H66.8693V224.448L67.4133 225.184C66.5706 226.347 65.6586 227.189 64.6772 227.712C63.7066 228.224 62.4746 228.48 60.9813 228.48ZM61.9093 225.056C62.7093 225.056 63.3813 224.917 63.9253 224.64C64.4799 224.352 64.9173 224.027 65.2373 223.664C65.5679 223.301 65.7919 222.997 65.9093 222.752C66.1333 222.283 66.2613 221.739 66.2933 221.12C66.3359 220.491 66.3573 219.968 66.3573 219.552L67.6373 219.872C66.3466 220.085 65.3013 220.267 64.5013 220.416C63.7013 220.555 63.0559 220.683 62.5653 220.8C62.0746 220.917 61.6426 221.045 61.2693 221.184C60.8426 221.355 60.4959 221.541 60.2292 221.744C59.9733 221.936 59.7813 222.149 59.6533 222.384C59.5359 222.619 59.4773 222.88 59.4773 223.168C59.4773 223.563 59.5733 223.904 59.7653 224.192C59.9679 224.469 60.2506 224.683 60.6133 224.832C60.9759 224.981 61.4079 225.056 61.9093 225.056ZM87.8935 231.84V228H73.5255V210.72H77.8775V223.936H84.5975V210.72H88.9495V224.16H92.2455V231.84H87.8935ZM108.919 210.72V228H104.759V217.44L96.9515 228H93.4955V210.72H97.6555V220.928L105.495 210.72H108.919ZM127.514 210.72V228H123.355V217.44L115.546 228H112.09V210.72H116.251V220.928L124.091 210.72H127.514Z" fill="#DADADA"/>
<path d="M6.464 260V246.56H0.8V242.72H16.48V246.56H10.816V260H6.464ZM33.6332 242.72V260H29.4733V249.44L21.6652 260H18.2092V242.72H22.3692V252.928L30.2093 242.72H33.6332ZM36.8042 260V242.72H44.9002C45.5402 242.72 46.1002 242.757 46.5802 242.832C47.0602 242.896 47.4602 242.976 47.7802 243.072C48.5696 243.307 49.2896 243.765 49.9402 244.448C50.5909 245.131 50.9163 246.123 50.9163 247.424C50.9163 248.192 50.7936 248.816 50.5482 249.296C50.3029 249.765 49.9776 250.155 49.5722 250.464C49.3802 250.603 49.1882 250.72 48.9962 250.816C48.8042 250.912 48.6122 250.987 48.4202 251.04C48.8682 251.104 49.2736 251.221 49.6362 251.392C50.2122 251.648 50.7136 252.053 51.1402 252.608C51.5669 253.152 51.7802 253.963 51.7802 255.04C51.7802 256.192 51.4976 257.173 50.9322 257.984C50.3776 258.795 49.5402 259.36 48.4202 259.68C48.0362 259.787 47.5829 259.867 47.0602 259.92C46.5482 259.973 46.0096 260 45.4442 260H36.8042ZM41.2202 256.704H45.1242C45.3482 256.704 45.5776 256.683 45.8122 256.64C46.0576 256.587 46.2762 256.523 46.4682 256.448C46.7776 256.32 46.9962 256.101 47.1242 255.792C47.2629 255.483 47.3322 255.168 47.3322 254.848C47.3322 254.4 47.2309 254.048 47.0282 253.792C46.8362 253.536 46.6176 253.355 46.3722 253.248C46.1696 253.152 45.9456 253.099 45.7002 253.088C45.4656 253.067 45.2736 253.056 45.1242 253.056H41.2202V256.704ZM41.2202 249.696H43.8762C44.2176 249.696 44.5376 249.68 44.8362 249.648C45.1456 249.605 45.4016 249.536 45.6042 249.44C45.8816 249.312 46.0896 249.109 46.2282 248.832C46.3669 248.544 46.4362 248.224 46.4362 247.872C46.4362 247.499 46.3562 247.163 46.1962 246.864C46.0469 246.555 45.7962 246.347 45.4442 246.24C45.2096 246.155 44.9109 246.107 44.5482 246.096C44.1962 246.085 43.9722 246.08 43.8762 246.08H41.2202V249.696ZM53.6805 260V242.72H58.0325V249.312H65.1365V242.72H69.4885V260H65.1365V253.376H58.0325V260H53.6805ZM72.6505 260V242.72H77.0025V248.224H78.5705C79.0505 248.224 79.6105 248.235 80.2505 248.256C80.8905 248.277 81.4185 248.331 81.8345 248.416C82.8478 248.64 83.7012 248.997 84.3945 249.488C85.0878 249.979 85.6105 250.613 85.9625 251.392C86.3252 252.16 86.5065 253.077 86.5065 254.144C86.5065 255.68 86.1065 256.917 85.3065 257.856C84.5172 258.784 83.3705 259.424 81.8665 259.776C81.4505 259.872 80.9172 259.936 80.2665 259.968C79.6158 259.989 79.0505 260 78.5705 260H72.6505ZM77.0025 256.64H79.0505C79.2425 256.64 79.4558 256.629 79.6905 256.608C79.9252 256.587 80.1598 256.544 80.3945 256.48C80.8425 256.352 81.2372 256.069 81.5785 255.632C81.9198 255.195 82.0905 254.699 82.0905 254.144C82.0905 253.536 81.9145 253.019 81.5625 252.592C81.2105 252.155 80.7998 251.872 80.3305 251.744C80.1065 251.68 79.8825 251.637 79.6585 251.616C79.4345 251.595 79.2318 251.584 79.0505 251.584H77.0025V256.64ZM88.2345 260V242.72H92.5865V260H88.2345ZM95.7455 260V242.72H99.2655L105.281 253.92L111.297 242.72H114.817V260H110.657V251.392L106.049 260H104.513L99.9055 251.392V260H95.7455ZM133.421 242.72V260H129.261V249.44L121.453 260H117.997V242.72H122.157V252.928L129.997 242.72H133.421Z" fill="#DADADA"/>
<path d="M9.52 192.512C7.856 192.491 6.448 192.123 5.296 191.408C4.144 190.683 3.23733 189.685 2.576 188.416C1.92533 187.136 1.52 185.653 1.36 183.968C1.27467 183.061 1.25333 182.043 1.296 180.912C1.34933 179.771 1.472 178.651 1.664 177.552C1.856 176.453 2.128 175.509 2.48 174.72C2.82133 173.984 3.25867 173.312 3.792 172.704C4.336 172.085 4.912 171.563 5.52 171.136C6.23467 170.635 7.00267 170.251 7.824 169.984C8.64533 169.707 9.50933 169.493 10.416 169.344C11.3227 169.195 12.2613 169.061 13.232 168.944C14.2133 168.827 15.2053 168.672 16.208 168.48L16.592 172.32C15.984 172.48 15.2907 172.597 14.512 172.672C13.7333 172.747 12.9333 172.827 12.112 172.912C11.2907 172.987 10.5067 173.109 9.76 173.28C9.01333 173.451 8.368 173.707 7.824 174.048C7.088 174.507 6.52267 175.147 6.128 175.968C5.744 176.779 5.52 177.6 5.456 178.432C6.11733 177.472 6.92267 176.811 7.872 176.448C8.832 176.085 9.776 175.904 10.704 175.904C12.2293 175.904 13.536 176.272 14.624 177.008C15.7227 177.733 16.5653 178.715 17.152 179.952C17.7387 181.179 18.032 182.539 18.032 184.032C18.032 185.728 17.664 187.216 16.928 188.496C16.2027 189.776 15.2 190.773 13.92 191.488C12.64 192.192 11.1733 192.533 9.52 192.512ZM9.712 188.448C10.9493 188.448 11.8827 188.064 12.512 187.296C13.1413 186.528 13.456 185.504 13.456 184.224C13.456 182.912 13.1307 181.883 12.48 181.136C11.84 180.379 10.9173 180 9.712 180C8.48533 180 7.552 180.379 6.912 181.136C6.28267 181.883 5.968 182.912 5.968 184.224C5.968 185.579 6.29333 186.624 6.944 187.36C7.59467 188.085 8.51733 188.448 9.712 188.448ZM28.7525 192.48C27.0352 192.48 25.6005 192.08 24.4485 191.28C23.2965 190.48 22.4272 189.392 21.8405 188.016C21.2645 186.64 20.9765 185.088 20.9765 183.36C20.9765 181.632 21.2645 180.08 21.8405 178.704C22.4165 177.328 23.2645 176.24 24.3845 175.44C25.5045 174.64 26.8858 174.24 28.5285 174.24C30.1818 174.24 31.6218 174.635 32.8485 175.424C34.0752 176.213 35.0245 177.296 35.6965 178.672C36.3792 180.037 36.7205 181.6 36.7205 183.36C36.7205 185.088 36.3845 186.64 35.7125 188.016C35.0512 189.392 34.1232 190.48 32.9285 191.28C31.7338 192.08 30.3418 192.48 28.7525 192.48ZM20.2405 199.68V174.72H24.0805V186.56H24.6245V199.68H20.2405ZM28.0485 188.608C28.9872 188.608 29.7552 188.373 30.3525 187.904C30.9498 187.435 31.3925 186.805 31.6805 186.016C31.9685 185.216 32.1125 184.331 32.1125 183.36C32.1125 182.4 31.9632 181.525 31.6645 180.736C31.3658 179.936 30.9018 179.301 30.2725 178.832C29.6538 178.352 28.8592 178.112 27.8885 178.112C26.9818 178.112 26.2458 178.331 25.6805 178.768C25.1258 179.205 24.7205 179.819 24.4645 180.608C24.2085 181.397 24.0805 182.315 24.0805 183.36C24.0805 184.405 24.2085 185.323 24.4645 186.112C24.7205 186.901 25.1365 187.515 25.7125 187.952C26.2992 188.389 27.0778 188.608 28.0485 188.608ZM46.9932 192.48C45.2226 192.48 43.6599 192.101 42.3052 191.344C40.9612 190.576 39.9052 189.525 39.1372 188.192C38.3799 186.848 38.0012 185.312 38.0012 183.584C38.0012 181.696 38.3746 180.053 39.1212 178.656C39.8679 177.259 40.8972 176.176 42.2092 175.408C43.5212 174.629 45.0306 174.24 46.7372 174.24C48.5506 174.24 50.0919 174.667 51.3612 175.52C52.6306 176.373 53.5692 177.573 54.1772 179.12C54.7852 180.667 54.9986 182.485 54.8172 184.576H50.5132V182.976C50.5132 181.216 50.2306 179.952 49.6652 179.184C49.1106 178.405 48.1986 178.016 46.9292 178.016C45.4466 178.016 44.3532 178.469 43.6492 179.376C42.9559 180.272 42.6092 181.6 42.6092 183.36C42.6092 184.971 42.9559 186.219 43.6492 187.104C44.3532 187.979 45.3826 188.416 46.7372 188.416C47.5906 188.416 48.3212 188.229 48.9292 187.856C49.5372 187.483 50.0012 186.944 50.3212 186.24L54.6733 187.488C54.0226 189.067 52.9932 190.293 51.5852 191.168C50.1879 192.043 48.6572 192.48 46.9932 192.48ZM41.2652 184.576V181.344H52.7212V184.576H41.2652ZM57.118 192V174.72H61.47V181.312H68.574V174.72H72.926V192H68.574V185.376H61.47V192H57.118ZM74.84 195.84V188.64C75.7573 188.64 76.408 188.32 76.792 187.68C77.1867 187.04 77.496 185.899 77.72 184.256C77.848 183.307 77.9547 182.309 78.04 181.264C78.136 180.219 78.216 179.147 78.28 178.048C78.344 176.949 78.4027 175.84 78.456 174.72H91.8V188.64H93.56V195.84H89.464V192H78.936V195.84H74.84ZM80.408 188.64H87.448V178.08H82.232C82.2 178.667 82.1627 179.253 82.12 179.84C82.088 180.427 82.0453 181.008 81.992 181.584C81.9493 182.16 81.9067 182.72 81.864 183.264C81.8213 183.797 81.7733 184.309 81.72 184.8C81.624 185.739 81.4907 186.501 81.32 187.088C81.1493 187.675 80.8453 188.192 80.408 188.64ZM95.145 183.584V180.224H104.745V183.584H95.145Z" fill="#DADADA"/>
<path d="M198.323 28V10.72H202.675V17.312H209.779V10.72H214.131V28H209.779V21.376H202.675V28H198.323ZM222.125 28.48C220.888 28.48 219.837 28.2453 218.973 27.776C218.12 27.296 217.469 26.6613 217.021 25.872C216.584 25.072 216.365 24.192 216.365 23.232C216.365 22.432 216.488 21.7013 216.733 21.04C216.978 20.3787 217.373 19.7973 217.917 19.296C218.472 18.784 219.213 18.3573 220.141 18.016C220.781 17.7813 221.544 17.5733 222.429 17.392C223.314 17.2107 224.317 17.04 225.437 16.88C226.557 16.7093 227.789 16.5227 229.133 16.32L227.565 17.184C227.565 16.16 227.32 15.408 226.829 14.928C226.338 14.448 225.517 14.208 224.365 14.208C223.725 14.208 223.058 14.3627 222.365 14.672C221.672 14.9813 221.186 15.5307 220.909 16.32L216.973 15.072C217.41 13.6427 218.232 12.48 219.437 11.584C220.642 10.688 222.285 10.24 224.365 10.24C225.89 10.24 227.245 10.4747 228.429 10.944C229.613 11.4133 230.509 12.224 231.117 13.376C231.458 14.016 231.661 14.656 231.725 15.296C231.789 15.936 231.821 16.6507 231.821 17.44V28H228.013V24.448L228.557 25.184C227.714 26.3467 226.802 27.1893 225.821 27.712C224.85 28.224 223.618 28.48 222.125 28.48ZM223.053 25.056C223.853 25.056 224.525 24.9173 225.069 24.64C225.624 24.352 226.061 24.0267 226.381 23.664C226.712 23.3013 226.936 22.9973 227.053 22.752C227.277 22.2827 227.405 21.7387 227.437 21.12C227.48 20.4907 227.501 19.968 227.501 19.552L228.781 19.872C227.49 20.0853 226.445 20.2667 225.645 20.416C224.845 20.5547 224.2 20.6827 223.709 20.8C223.218 20.9173 222.786 21.0453 222.413 21.184C221.986 21.3547 221.64 21.5413 221.373 21.744C221.117 21.936 220.925 22.1493 220.797 22.384C220.68 22.6187 220.621 22.88 220.621 23.168C220.621 23.5627 220.717 23.904 220.909 24.192C221.112 24.4693 221.394 24.6827 221.757 24.832C222.12 24.9813 222.552 25.056 223.053 25.056ZM247.444 28.48C245.652 28.48 244.116 28.08 242.836 27.28C241.556 26.48 240.574 25.392 239.892 24.016C239.209 22.64 238.868 21.088 238.868 19.36C238.868 17.6107 239.22 16.048 239.924 14.672C240.638 13.296 241.641 12.2133 242.932 11.424C244.222 10.6347 245.748 10.24 247.508 10.24C249.545 10.24 251.252 10.7573 252.628 11.792C254.014 12.816 254.9 14.2187 255.284 16L250.932 17.152C250.676 16.256 250.228 15.5573 249.588 15.056C248.958 14.5547 248.244 14.304 247.444 14.304C246.526 14.304 245.774 14.528 245.188 14.976C244.601 15.4133 244.169 16.016 243.892 16.784C243.614 17.5413 243.476 18.4 243.476 19.36C243.476 20.864 243.806 22.0853 244.468 23.024C245.14 23.952 246.132 24.416 247.444 24.416C248.425 24.416 249.172 24.192 249.684 23.744C250.196 23.296 250.58 22.656 250.836 21.824L255.284 22.752C254.793 24.5867 253.865 26 252.5 26.992C251.134 27.984 249.449 28.48 247.444 28.48ZM261.428 28V14.56H255.764V10.72H271.444V14.56H265.78V28H261.428ZM273.173 28V10.72H277.525V16.224H279.093C279.573 16.224 280.133 16.2347 280.773 16.256C281.413 16.2773 281.941 16.3307 282.357 16.416C283.37 16.64 284.224 16.9973 284.917 17.488C285.61 17.9787 286.133 18.6133 286.485 19.392C286.848 20.16 287.029 21.0773 287.029 22.144C287.029 23.68 286.629 24.9173 285.829 25.856C285.04 26.784 283.893 27.424 282.389 27.776C281.973 27.872 281.44 27.936 280.789 27.968C280.138 27.9893 279.573 28 279.093 28H273.173ZM277.525 24.64H279.573C279.765 24.64 279.978 24.6293 280.213 24.608C280.448 24.5867 280.682 24.544 280.917 24.48C281.365 24.352 281.76 24.0693 282.101 23.632C282.442 23.1947 282.613 22.6987 282.613 22.144C282.613 21.536 282.437 21.0187 282.085 20.592C281.733 20.1547 281.322 19.872 280.853 19.744C280.629 19.68 280.405 19.6373 280.181 19.616C279.957 19.5947 279.754 19.584 279.573 19.584H277.525V24.64ZM288.757 28V10.72H293.109V28H288.757ZM296.268 28L296.3 10.72H300.716V19.04L306.572 10.72H311.948L305.708 19.36L312.364 28H306.7L300.716 19.68V28H296.268ZM320.083 28.48C318.313 28.48 316.75 28.1013 315.395 27.344C314.051 26.576 312.995 25.5253 312.227 24.192C311.47 22.848 311.091 21.312 311.091 19.584C311.091 17.696 311.465 16.0533 312.211 14.656C312.958 13.2587 313.987 12.176 315.299 11.408C316.611 10.6293 318.121 10.24 319.827 10.24C321.641 10.24 323.182 10.6667 324.451 11.52C325.721 12.3733 326.659 13.5733 327.267 15.12C327.875 16.6667 328.089 18.4853 327.907 20.576H323.603V18.976C323.603 17.216 323.321 15.952 322.755 15.184C322.201 14.4053 321.289 14.016 320.019 14.016C318.537 14.016 317.443 14.4693 316.739 15.376C316.046 16.272 315.699 17.6 315.699 19.36C315.699 20.9707 316.046 22.2187 316.739 23.104C317.443 23.9787 318.473 24.416 319.827 24.416C320.681 24.416 321.411 24.2293 322.019 23.856C322.627 23.4827 323.091 22.944 323.411 22.24L327.763 23.488C327.113 25.0667 326.083 26.2933 324.675 27.168C323.278 28.0427 321.747 28.48 320.083 28.48ZM314.355 20.576V17.344H325.811V20.576H314.355Z" fill="#DADADA"/>
<path d="M220.651 42.72V60H216.491V49.44L208.683 60H205.227V42.72H209.387V52.928L217.227 42.72H220.651ZM235.988 60.48C234.399 60.48 233.007 60.08 231.812 59.28C230.617 58.48 229.684 57.392 229.012 56.016C228.351 54.64 228.02 53.088 228.02 51.36C228.02 49.6 228.356 48.0373 229.028 46.672C229.711 45.296 230.665 44.2133 231.892 43.424C233.119 42.6347 234.559 42.24 236.212 42.24C237.855 42.24 239.236 42.64 240.356 43.44C241.476 44.24 242.324 45.328 242.9 46.704C243.476 48.08 243.764 49.632 243.764 51.36C243.764 53.088 243.471 54.64 242.884 56.016C242.308 57.392 241.444 58.48 240.292 59.28C239.14 60.08 237.705 60.48 235.988 60.48ZM236.692 56.608C237.663 56.608 238.436 56.3893 239.012 55.952C239.599 55.5147 240.02 54.9013 240.276 54.112C240.532 53.3227 240.66 52.4053 240.66 51.36C240.66 50.3147 240.532 49.3973 240.276 48.608C240.02 47.8187 239.609 47.2053 239.044 46.768C238.489 46.3307 237.759 46.112 236.852 46.112C235.881 46.112 235.081 46.352 234.452 46.832C233.833 47.3013 233.375 47.936 233.076 48.736C232.777 49.5253 232.628 50.4 232.628 51.36C232.628 52.3307 232.772 53.216 233.06 54.016C233.348 54.8053 233.791 55.4347 234.388 55.904C234.985 56.3733 235.753 56.608 236.692 56.608ZM240.66 60V48.16H240.116V36.96H244.5V60H240.66ZM248.02 40.32V36.48H252.372V40.32H248.02ZM248.02 60V42.72H252.372V60H248.02ZM263.281 68.16C262.299 68.16 261.366 68 260.481 67.68C259.595 67.3707 258.801 66.9333 258.097 66.368C257.403 65.8133 256.838 65.1627 256.401 64.416L260.433 62.464C260.71 62.976 261.105 63.3653 261.617 63.632C262.139 63.8987 262.705 64.032 263.313 64.032C263.963 64.032 264.577 63.92 265.153 63.696C265.729 63.4827 266.187 63.1573 266.529 62.72C266.881 62.2933 267.046 61.76 267.025 61.12V56.096H267.569V42.72H271.377V61.184C271.377 61.6107 271.355 62.0107 271.313 62.384C271.281 62.768 271.217 63.1467 271.121 63.52C270.843 64.576 270.326 65.4453 269.569 66.128C268.822 66.8107 267.905 67.3173 266.817 67.648C265.729 67.9893 264.55 68.16 263.281 68.16ZM262.897 60.48C261.307 60.48 259.915 60.08 258.721 59.28C257.526 58.48 256.593 57.392 255.921 56.016C255.259 54.64 254.929 53.088 254.929 51.36C254.929 49.6 255.265 48.0373 255.937 46.672C256.619 45.296 257.574 44.2133 258.801 43.424C260.027 42.6347 261.467 42.24 263.121 42.24C264.763 42.24 266.145 42.64 267.265 43.44C268.385 44.24 269.233 45.328 269.809 46.704C270.385 48.08 270.673 49.632 270.673 51.36C270.673 53.088 270.379 54.64 269.793 56.016C269.217 57.392 268.353 58.48 267.201 59.28C266.049 60.08 264.614 60.48 262.897 60.48ZM263.601 56.608C264.571 56.608 265.345 56.3893 265.921 55.952C266.507 55.5147 266.929 54.9013 267.185 54.112C267.441 53.3227 267.569 52.4053 267.569 51.36C267.569 50.3147 267.441 49.3973 267.185 48.608C266.929 47.8187 266.518 47.2053 265.953 46.768C265.398 46.3307 264.667 46.112 263.761 46.112C262.79 46.112 261.99 46.352 261.361 46.832C260.742 47.3013 260.283 47.936 259.985 48.736C259.686 49.5253 259.537 50.4 259.537 51.36C259.537 52.3307 259.681 53.216 259.969 54.016C260.257 54.8053 260.699 55.4347 261.297 55.904C261.894 56.3733 262.662 56.608 263.601 56.608ZM274.898 40.32V36.48H279.25V40.32H274.898ZM274.898 60V42.72H279.25V60H274.898ZM293.134 60C291.94 60.224 290.766 60.32 289.614 60.288C288.473 60.2667 287.449 60.0693 286.542 59.696C285.646 59.312 284.964 58.6987 284.494 57.856C284.068 57.0667 283.844 56.2667 283.822 55.456C283.801 54.6347 283.79 53.7067 283.79 52.672V37.92H288.142V52.416C288.142 53.088 288.148 53.696 288.158 54.24C288.18 54.7733 288.292 55.2 288.494 55.52C288.878 56.128 289.492 56.4587 290.334 56.512C291.177 56.5653 292.11 56.5227 293.134 56.384V60ZM280.846 46.08V42.72H293.134V46.08H280.846ZM300.505 60.48C299.268 60.48 298.217 60.2453 297.353 59.776C296.5 59.296 295.849 58.6613 295.401 57.872C294.964 57.072 294.745 56.192 294.745 55.232C294.745 54.432 294.868 53.7013 295.113 53.04C295.358 52.3787 295.753 51.7973 296.297 51.296C296.852 50.784 297.593 50.3573 298.521 50.016C299.161 49.7813 299.924 49.5733 300.809 49.392C301.694 49.2107 302.697 49.04 303.817 48.88C304.937 48.7093 306.169 48.5227 307.513 48.32L305.945 49.184C305.945 48.16 305.7 47.408 305.209 46.928C304.718 46.448 303.897 46.208 302.745 46.208C302.105 46.208 301.438 46.3627 300.745 46.672C300.052 46.9813 299.566 47.5307 299.289 48.32L295.353 47.072C295.79 45.6427 296.612 44.48 297.817 43.584C299.022 42.688 300.665 42.24 302.745 42.24C304.27 42.24 305.625 42.4747 306.809 42.944C307.993 43.4133 308.889 44.224 309.497 45.376C309.838 46.016 310.041 46.656 310.105 47.296C310.169 47.936 310.201 48.6507 310.201 49.44V60H306.393V56.448L306.937 57.184C306.094 58.3467 305.182 59.1893 304.201 59.712C303.23 60.224 301.998 60.48 300.505 60.48ZM301.433 57.056C302.233 57.056 302.905 56.9173 303.449 56.64C304.004 56.352 304.441 56.0267 304.761 55.664C305.092 55.3013 305.316 54.9973 305.433 54.752C305.657 54.2827 305.785 53.7387 305.817 53.12C305.86 52.4907 305.881 51.968 305.881 51.552L307.161 51.872C305.87 52.0853 304.825 52.2667 304.025 52.416C303.225 52.5547 302.58 52.6827 302.089 52.8C301.598 52.9173 301.166 53.0453 300.793 53.184C300.366 53.3547 300.02 53.5413 299.753 53.744C299.497 53.936 299.305 54.1493 299.177 54.384C299.06 54.6187 299.001 54.88 299.001 55.168C299.001 55.5627 299.097 55.904 299.289 56.192C299.492 56.4693 299.774 56.6827 300.137 56.832C300.5 56.9813 300.932 57.056 301.433 57.056ZM313.401 60V36.48H317.753V60H313.401ZM321.974 60V55.648H326.326V60H321.974Z" fill="#DADADA"/>
<path d="M262.329 92V74.72H270.425C271.065 74.72 271.625 74.7573 272.105 74.832C272.585 74.896 272.985 74.976 273.305 75.072C274.095 75.3067 274.815 75.7653 275.465 76.448C276.116 77.1307 276.441 78.1227 276.441 79.424C276.441 80.192 276.319 80.816 276.073 81.296C275.828 81.7653 275.503 82.1547 275.097 82.464C274.905 82.6027 274.713 82.72 274.521 82.816C274.329 82.912 274.137 82.9867 273.945 83.04C274.393 83.104 274.799 83.2213 275.161 83.392C275.737 83.648 276.239 84.0533 276.665 84.608C277.092 85.152 277.305 85.9627 277.305 87.04C277.305 88.192 277.023 89.1733 276.457 89.984C275.903 90.7947 275.065 91.36 273.945 91.68C273.561 91.7867 273.108 91.8667 272.585 91.92C272.073 91.9733 271.535 92 270.969 92H262.329ZM266.745 88.704H270.649C270.873 88.704 271.103 88.6827 271.337 88.64C271.583 88.5867 271.801 88.5227 271.993 88.448C272.303 88.32 272.521 88.1013 272.649 87.792C272.788 87.4827 272.857 87.168 272.857 86.848C272.857 86.4 272.756 86.048 272.553 85.792C272.361 85.536 272.143 85.3547 271.897 85.248C271.695 85.152 271.471 85.0987 271.225 85.088C270.991 85.0667 270.799 85.056 270.649 85.056H266.745V88.704ZM266.745 81.696H269.401C269.743 81.696 270.063 81.68 270.361 81.648C270.671 81.6053 270.927 81.536 271.129 81.44C271.407 81.312 271.615 81.1093 271.753 80.832C271.892 80.544 271.961 80.224 271.961 79.872C271.961 79.4987 271.881 79.1627 271.721 78.864C271.572 78.5547 271.321 78.3467 270.969 78.24C270.735 78.1547 270.436 78.1067 270.073 78.096C269.721 78.0853 269.497 78.08 269.401 78.08H266.745V81.696ZM279.205 92V74.72H283.557V81.312H290.661V74.72H295.013V92H290.661V85.376H283.557V92H279.205ZM313.599 74.72V92H309.439V81.44L301.631 92H298.175V74.72H302.335V84.928L310.175 74.72H313.599ZM316.482 83.584V80.224H326.082V83.584H316.482Z" fill="#DADADA"/>
<path d="M199.015 127.84V120.64C199.932 120.64 200.583 120.32 200.967 119.68C201.362 119.04 201.671 117.899 201.895 116.256C202.023 115.307 202.13 114.309 202.215 113.264C202.311 112.219 202.391 111.147 202.455 110.048C202.519 108.949 202.578 107.84 202.631 106.72H215.975V120.64H217.735V127.84H213.639V124H203.111V127.84H199.015ZM204.583 120.64H211.623V110.08H206.407C206.375 110.667 206.338 111.253 206.295 111.84C206.263 112.427 206.22 113.008 206.167 113.584C206.124 114.16 206.082 114.72 206.039 115.264C205.996 115.797 205.948 116.309 205.895 116.8C205.799 117.739 205.666 118.501 205.495 119.088C205.324 119.675 205.02 120.192 204.583 120.64ZM227.416 124.48C225.677 124.48 224.152 124.091 222.84 123.312C221.528 122.533 220.504 121.461 219.768 120.096C219.043 118.72 218.68 117.141 218.68 115.36C218.68 113.557 219.053 111.973 219.8 110.608C220.547 109.232 221.576 108.16 222.888 107.392C224.2 106.624 225.709 106.24 227.416 106.24C229.155 106.24 230.68 106.629 231.992 107.408C233.315 108.187 234.344 109.264 235.08 110.64C235.816 112.005 236.184 113.579 236.184 115.36C236.184 117.152 235.811 118.736 235.064 120.112C234.328 121.477 233.299 122.549 231.976 123.328C230.664 124.096 229.144 124.48 227.416 124.48ZM227.416 120.416C228.813 120.416 229.853 119.947 230.536 119.008C231.229 118.059 231.576 116.843 231.576 115.36C231.576 113.824 231.224 112.597 230.52 111.68C229.827 110.763 228.792 110.304 227.416 110.304C226.467 110.304 225.688 110.517 225.08 110.944C224.472 111.371 224.019 111.963 223.72 112.72C223.432 113.477 223.288 114.357 223.288 115.36C223.288 116.907 223.635 118.139 224.328 119.056C225.032 119.963 226.061 120.416 227.416 120.416ZM238.39 124V106.72H246.486C247.126 106.72 247.686 106.757 248.166 106.832C248.646 106.896 249.046 106.976 249.366 107.072C250.156 107.307 250.876 107.765 251.526 108.448C252.177 109.131 252.502 110.123 252.502 111.424C252.502 112.192 252.38 112.816 252.134 113.296C251.889 113.765 251.564 114.155 251.158 114.464C250.966 114.603 250.774 114.72 250.582 114.816C250.39 114.912 250.198 114.987 250.006 115.04C250.454 115.104 250.86 115.221 251.222 115.392C251.798 115.648 252.3 116.053 252.726 116.608C253.153 117.152 253.366 117.963 253.366 119.04C253.366 120.192 253.084 121.173 252.518 121.984C251.964 122.795 251.126 123.36 250.006 123.68C249.622 123.787 249.169 123.867 248.646 123.92C248.134 123.973 247.596 124 247.03 124H238.39ZM242.806 120.704H246.71C246.934 120.704 247.164 120.683 247.398 120.64C247.644 120.587 247.862 120.523 248.054 120.448C248.364 120.32 248.582 120.101 248.71 119.792C248.849 119.483 248.918 119.168 248.918 118.848C248.918 118.4 248.817 118.048 248.614 117.792C248.422 117.536 248.204 117.355 247.958 117.248C247.756 117.152 247.532 117.099 247.286 117.088C247.052 117.067 246.86 117.056 246.71 117.056H242.806V120.704ZM242.806 113.696H245.462C245.804 113.696 246.124 113.68 246.422 113.648C246.732 113.605 246.988 113.536 247.19 113.44C247.468 113.312 247.676 113.109 247.814 112.832C247.953 112.544 248.022 112.224 248.022 111.872C248.022 111.499 247.942 111.163 247.782 110.864C247.633 110.555 247.382 110.347 247.03 110.24C246.796 110.155 246.497 110.107 246.134 110.096C245.782 110.085 245.558 110.08 245.462 110.08H242.806V113.696ZM263.331 124.48C261.56 124.48 259.997 124.101 258.643 123.344C257.299 122.576 256.243 121.525 255.475 120.192C254.717 118.848 254.339 117.312 254.339 115.584C254.339 113.696 254.712 112.053 255.459 110.656C256.205 109.259 257.235 108.176 258.547 107.408C259.859 106.629 261.368 106.24 263.075 106.24C264.888 106.24 266.429 106.667 267.699 107.52C268.968 108.373 269.907 109.573 270.515 111.12C271.123 112.667 271.336 114.485 271.155 116.576H266.851V114.976C266.851 113.216 266.568 111.952 266.003 111.184C265.448 110.405 264.536 110.016 263.267 110.016C261.784 110.016 260.691 110.469 259.987 111.376C259.293 112.272 258.947 113.6 258.947 115.36C258.947 116.971 259.293 118.219 259.987 119.104C260.691 119.979 261.72 120.416 263.075 120.416C263.928 120.416 264.659 120.229 265.267 119.856C265.875 119.483 266.339 118.944 266.659 118.24L271.011 119.488C270.36 121.067 269.331 122.293 267.923 123.168C266.525 124.043 264.995 124.48 263.331 124.48ZM257.603 116.576V113.344H269.059V116.576H257.603ZM281.967 124.48C280.25 124.48 278.815 124.08 277.663 123.28C276.511 122.48 275.642 121.392 275.055 120.016C274.479 118.64 274.191 117.088 274.191 115.36C274.191 113.632 274.479 112.08 275.055 110.704C275.631 109.328 276.479 108.24 277.599 107.44C278.719 106.64 280.101 106.24 281.743 106.24C283.397 106.24 284.837 106.635 286.063 107.424C287.29 108.213 288.239 109.296 288.911 110.672C289.594 112.037 289.935 113.6 289.935 115.36C289.935 117.088 289.599 118.64 288.927 120.016C288.266 121.392 287.338 122.48 286.143 123.28C284.949 124.08 283.557 124.48 281.967 124.48ZM273.455 131.68V106.72H277.295V118.56H277.839V131.68H273.455ZM281.263 120.608C282.202 120.608 282.97 120.373 283.567 119.904C284.165 119.435 284.607 118.805 284.895 118.016C285.183 117.216 285.327 116.331 285.327 115.36C285.327 114.4 285.178 113.525 284.879 112.736C284.581 111.936 284.117 111.301 283.487 110.832C282.869 110.352 282.074 110.112 281.103 110.112C280.197 110.112 279.461 110.331 278.895 110.768C278.341 111.205 277.935 111.819 277.679 112.608C277.423 113.397 277.295 114.315 277.295 115.36C277.295 116.405 277.423 117.323 277.679 118.112C277.935 118.901 278.351 119.515 278.927 119.952C279.514 120.389 280.293 120.608 281.263 120.608ZM307.568 106.72V124H303.408V113.44L295.6 124H292.144V106.72H296.304V116.928L304.144 106.72H307.568ZM318.803 124.48C317.033 124.48 315.47 124.101 314.115 123.344C312.771 122.576 311.715 121.525 310.947 120.192C310.19 118.848 309.811 117.312 309.811 115.584C309.811 113.696 310.185 112.053 310.931 110.656C311.678 109.259 312.707 108.176 314.019 107.408C315.331 106.629 316.841 106.24 318.547 106.24C320.361 106.24 321.902 106.667 323.171 107.52C324.441 108.373 325.379 109.573 325.987 111.12C326.595 112.667 326.809 114.485 326.627 116.576H322.323V114.976C322.323 113.216 322.041 111.952 321.475 111.184C320.921 110.405 320.009 110.016 318.739 110.016C317.257 110.016 316.163 110.469 315.459 111.376C314.766 112.272 314.419 113.6 314.419 115.36C314.419 116.971 314.766 118.219 315.459 119.104C316.163 119.979 317.193 120.416 318.547 120.416C319.401 120.416 320.131 120.229 320.739 119.856C321.347 119.483 321.811 118.944 322.131 118.24L326.483 119.488C325.833 121.067 324.803 122.293 323.395 123.168C321.998 124.043 320.467 124.48 318.803 124.48ZM313.075 116.576V113.344H324.531V116.576H313.075Z" fill="#DADADA"/>
<path d="M210.798 159.84V151.936C211.491 151.936 212.078 151.765 212.558 151.424C213.048 151.072 213.448 150.581 213.758 149.952C214.067 149.312 214.312 148.565 214.494 147.712C214.675 146.859 214.808 145.931 214.894 144.928C215 143.648 215.096 142.389 215.182 141.152C215.267 139.904 215.352 138.613 215.438 137.28C215.523 135.936 215.619 134.485 215.726 132.928L231.022 132.96V151.936H232.782V159.84H228.43V156H215.15V159.84H210.798ZM217.294 151.936H226.67V137.024L219.694 136.992C219.619 138.048 219.555 139.019 219.502 139.904C219.459 140.789 219.406 141.685 219.342 142.592C219.278 143.499 219.192 144.512 219.086 145.632C218.979 146.752 218.872 147.675 218.766 148.4C218.659 149.115 218.494 149.739 218.27 150.272C218.056 150.805 217.731 151.36 217.294 151.936ZM243.048 156.48C241.278 156.48 239.715 156.101 238.36 155.344C237.016 154.576 235.96 153.525 235.192 152.192C234.435 150.848 234.056 149.312 234.056 147.584C234.056 145.696 234.43 144.053 235.176 142.656C235.923 141.259 236.952 140.176 238.264 139.408C239.576 138.629 241.086 138.24 242.792 138.24C244.606 138.24 246.147 138.667 247.416 139.52C248.686 140.373 249.624 141.573 250.232 143.12C250.84 144.667 251.054 146.485 250.872 148.576H246.568V146.976C246.568 145.216 246.286 143.952 245.72 143.184C245.166 142.405 244.254 142.016 242.984 142.016C241.502 142.016 240.408 142.469 239.704 143.376C239.011 144.272 238.664 145.6 238.664 147.36C238.664 148.971 239.011 150.219 239.704 151.104C240.408 151.979 241.438 152.416 242.792 152.416C243.646 152.416 244.376 152.229 244.984 151.856C245.592 151.483 246.056 150.944 246.376 150.24L250.728 151.488C250.078 153.067 249.048 154.293 247.64 155.168C246.243 156.043 244.712 156.48 243.048 156.48ZM237.32 148.576V145.344H248.776V148.576H237.32ZM251.605 156V152.384C252.234 152.501 252.72 152.496 253.061 152.368C253.402 152.229 253.658 151.963 253.829 151.568C254.01 151.163 254.165 150.613 254.293 149.92C254.464 149.003 254.613 147.931 254.741 146.704C254.88 145.477 254.997 144.181 255.093 142.816C255.189 141.44 255.274 140.075 255.349 138.72H268.405V156H264.053V142.784H259.157C259.114 143.339 259.056 144 258.981 144.768C258.917 145.536 258.842 146.336 258.757 147.168C258.682 147.989 258.597 148.779 258.501 149.536C258.405 150.283 258.304 150.923 258.197 151.456C257.941 152.811 257.562 153.877 257.061 154.656C256.56 155.435 255.872 155.931 254.997 156.144C254.122 156.368 252.992 156.32 251.605 156ZM276.413 156.48C275.175 156.48 274.125 156.245 273.261 155.776C272.407 155.296 271.757 154.661 271.309 153.872C270.871 153.072 270.653 152.192 270.653 151.232C270.653 150.432 270.775 149.701 271.021 149.04C271.266 148.379 271.661 147.797 272.205 147.296C272.759 146.784 273.501 146.357 274.429 146.016C275.069 145.781 275.831 145.573 276.717 145.392C277.602 145.211 278.605 145.04 279.725 144.88C280.845 144.709 282.077 144.523 283.421 144.32L281.853 145.184C281.853 144.16 281.607 143.408 281.117 142.928C280.626 142.448 279.805 142.208 278.653 142.208C278.013 142.208 277.346 142.363 276.653 142.672C275.959 142.981 275.474 143.531 275.197 144.32L271.261 143.072C271.698 141.643 272.519 140.48 273.725 139.584C274.93 138.688 276.573 138.24 278.653 138.24C280.178 138.24 281.533 138.475 282.717 138.944C283.901 139.413 284.797 140.224 285.405 141.376C285.746 142.016 285.949 142.656 286.013 143.296C286.077 143.936 286.109 144.651 286.109 145.44V156H282.301V152.448L282.845 153.184C282.002 154.347 281.09 155.189 280.109 155.712C279.138 156.224 277.906 156.48 276.413 156.48ZM277.341 153.056C278.141 153.056 278.813 152.917 279.357 152.64C279.911 152.352 280.349 152.027 280.669 151.664C280.999 151.301 281.223 150.997 281.341 150.752C281.565 150.283 281.693 149.739 281.725 149.12C281.767 148.491 281.789 147.968 281.789 147.552L283.069 147.872C281.778 148.085 280.733 148.267 279.933 148.416C279.133 148.555 278.487 148.683 277.997 148.8C277.506 148.917 277.074 149.045 276.701 149.184C276.274 149.355 275.927 149.541 275.661 149.744C275.405 149.936 275.213 150.149 275.085 150.384C274.967 150.619 274.909 150.88 274.909 151.168C274.909 151.563 275.005 151.904 275.197 152.192C275.399 152.469 275.682 152.683 276.045 152.832C276.407 152.981 276.839 153.056 277.341 153.056ZM297.021 156.48C295.25 156.48 293.687 156.101 292.333 155.344C290.989 154.576 289.933 153.525 289.165 152.192C288.407 150.848 288.029 149.312 288.029 147.584C288.029 145.696 288.402 144.053 289.149 142.656C289.895 141.259 290.925 140.176 292.237 139.408C293.549 138.629 295.058 138.24 296.765 138.24C298.578 138.24 300.119 138.667 301.389 139.52C302.658 140.373 303.597 141.573 304.205 143.12C304.813 144.667 305.026 146.485 304.845 148.576H300.541V146.976C300.541 145.216 300.258 143.952 299.693 143.184C299.138 142.405 298.226 142.016 296.957 142.016C295.474 142.016 294.381 142.469 293.677 143.376C292.983 144.272 292.637 145.6 292.637 147.36C292.637 148.971 292.983 150.219 293.677 151.104C294.381 151.979 295.41 152.416 296.765 152.416C297.618 152.416 298.349 152.229 298.957 151.856C299.565 151.483 300.029 150.944 300.349 150.24L304.701 151.488C304.05 153.067 303.021 154.293 301.613 155.168C300.215 156.043 298.685 156.48 297.021 156.48ZM291.293 148.576V145.344H302.749V148.576H291.293ZM306.677 156V138.72H310.197L316.213 149.92L322.229 138.72H325.749V156H321.589V147.392L316.981 156H315.445L310.837 147.392V156H306.677Z" fill="#DADADA"/>
<path d="M220.452 196L220.484 178.72H224.9V187.04L230.756 178.72H236.132L229.892 187.36L236.548 196H230.884L224.9 187.68V196H220.452ZM244.324 196.48C242.585 196.48 241.06 196.091 239.748 195.312C238.436 194.533 237.412 193.461 236.676 192.096C235.95 190.72 235.588 189.141 235.588 187.36C235.588 185.557 235.961 183.973 236.708 182.608C237.454 181.232 238.484 180.16 239.796 179.392C241.108 178.624 242.617 178.24 244.324 178.24C246.062 178.24 247.588 178.629 248.9 179.408C250.222 180.187 251.252 181.264 251.988 182.64C252.724 184.005 253.092 185.579 253.092 187.36C253.092 189.152 252.718 190.736 251.972 192.112C251.236 193.477 250.206 194.549 248.884 195.328C247.572 196.096 246.052 196.48 244.324 196.48ZM244.324 192.416C245.721 192.416 246.761 191.947 247.444 191.008C248.137 190.059 248.484 188.843 248.484 187.36C248.484 185.824 248.132 184.597 247.428 183.68C246.734 182.763 245.7 182.304 244.324 182.304C243.374 182.304 242.596 182.517 241.988 182.944C241.38 183.371 240.926 183.963 240.628 184.72C240.34 185.477 240.196 186.357 240.196 187.36C240.196 188.907 240.542 190.139 241.236 191.056C241.94 191.963 242.969 192.416 244.324 192.416ZM255.298 196V178.72H258.818L264.834 189.92L270.85 178.72H274.37V196H270.21V187.392L265.602 196H264.066L259.458 187.392V196H255.298ZM277.549 196V178.72H281.069L287.085 189.92L293.101 178.72H296.621V196H292.461V187.392L287.853 196H286.317L281.709 187.392V196H277.549ZM302.04 203.68L305.368 194.528L305.432 197.216L297.912 178.72H302.424L307.48 191.808H306.456L311.48 178.72H315.833L306.072 203.68H302.04ZM316.483 187.584V184.224H326.083V187.584H316.483Z" fill="#DADADA"/>
<path d="M226.076 228.48C224.081 228.48 222.401 227.984 221.036 226.992C219.67 226 218.737 224.587 218.236 222.752L222.684 221.824C222.94 222.656 223.324 223.296 223.836 223.744C224.358 224.192 225.105 224.416 226.076 224.416C227.132 224.416 227.98 224.112 228.62 223.504C229.26 222.885 229.681 222.059 229.884 221.024H224.796V217.664H229.884C229.692 216.715 229.292 215.92 228.684 215.28C228.076 214.629 227.249 214.304 226.204 214.304C225.34 214.304 224.588 214.549 223.948 215.04C223.318 215.52 222.865 216.224 222.588 217.152L218.236 216C218.62 214.219 219.505 212.816 220.892 211.792C222.278 210.757 223.985 210.24 226.012 210.24C227.772 210.24 229.297 210.635 230.588 211.424C231.889 212.213 232.892 213.301 233.596 214.688C234.3 216.064 234.652 217.632 234.652 219.392C234.652 221.109 234.31 222.656 233.628 224.032C232.945 225.397 231.964 226.48 230.684 227.28C229.404 228.08 227.868 228.48 226.076 228.48ZM244.955 235.2V228.288C243.27 228.555 241.745 228.379 240.379 227.76C239.014 227.131 237.931 226.107 237.131 224.688C236.331 223.269 235.931 221.493 235.931 219.36C235.931 217.227 236.331 215.451 237.131 214.032C237.931 212.603 239.014 211.579 240.379 210.96C241.745 210.341 243.27 210.165 244.955 210.432V205.28H248.795V210.432C250.481 210.165 252.006 210.341 253.371 210.96C254.737 211.579 255.819 212.603 256.619 214.032C257.419 215.451 257.819 217.227 257.819 219.36C257.819 221.493 257.419 223.269 256.619 224.688C255.819 226.107 254.737 227.131 253.371 227.76C252.006 228.379 250.481 228.555 248.795 228.288V235.2H244.955ZM244.955 224.416V214.336C244.091 214.187 243.361 214.213 242.763 214.416C242.177 214.608 241.707 214.939 241.355 215.408C241.003 215.867 240.747 216.437 240.587 217.12C240.427 217.792 240.347 218.539 240.347 219.36C240.347 220.181 240.433 220.933 240.603 221.616C240.774 222.288 241.041 222.859 241.403 223.328C241.777 223.797 242.257 224.133 242.843 224.336C243.43 224.528 244.134 224.555 244.955 224.416ZM248.795 224.416C249.617 224.555 250.321 224.528 250.907 224.336C251.494 224.144 251.969 223.819 252.331 223.36C252.705 222.901 252.977 222.331 253.147 221.648C253.318 220.965 253.403 220.203 253.403 219.36C253.403 218.507 253.323 217.744 253.163 217.072C253.003 216.389 252.747 215.819 252.395 215.36C252.043 214.901 251.569 214.581 250.971 214.4C250.385 214.208 249.659 214.187 248.795 214.336V224.416ZM268.113 235.2V228.288C266.427 228.555 264.902 228.379 263.537 227.76C262.171 227.131 261.089 226.107 260.289 224.688C259.489 223.269 259.089 221.493 259.089 219.36C259.089 217.227 259.489 215.451 260.289 214.032C261.089 212.603 262.171 211.579 263.537 210.96C264.902 210.341 266.427 210.165 268.113 210.432V205.28H271.953V210.432C273.638 210.165 275.163 210.341 276.529 210.96C277.894 211.579 278.977 212.603 279.777 214.032C280.577 215.451 280.977 217.227 280.977 219.36C280.977 221.493 280.577 223.269 279.777 224.688C278.977 226.107 277.894 227.131 276.529 227.76C275.163 228.379 273.638 228.555 271.953 228.288V235.2H268.113ZM268.113 224.416V214.336C267.249 214.187 266.518 214.213 265.921 214.416C265.334 214.608 264.865 214.939 264.513 215.408C264.161 215.867 263.905 216.437 263.745 217.12C263.585 217.792 263.505 218.539 263.505 219.36C263.505 220.181 263.59 220.933 263.761 221.616C263.931 222.288 264.198 222.859 264.561 223.328C264.934 223.797 265.414 224.133 266.001 224.336C266.587 224.528 267.291 224.555 268.113 224.416ZM271.953 224.416C272.774 224.555 273.478 224.528 274.065 224.336C274.651 224.144 275.126 223.819 275.489 223.36C275.862 222.901 276.134 222.331 276.305 221.648C276.475 220.965 276.561 220.203 276.561 219.36C276.561 218.507 276.481 217.744 276.321 217.072C276.161 216.389 275.905 215.819 275.553 215.36C275.201 214.901 274.726 214.581 274.129 214.4C273.542 214.208 272.817 214.187 271.953 214.336V224.416ZM291.238 228.48C289.468 228.48 287.905 228.101 286.55 227.344C285.206 226.576 284.15 225.525 283.382 224.192C282.625 222.848 282.246 221.312 282.246 219.584C282.246 217.696 282.62 216.053 283.366 214.656C284.113 213.259 285.142 212.176 286.454 211.408C287.766 210.629 289.276 210.24 290.982 210.24C292.796 210.24 294.337 210.667 295.606 211.52C296.876 212.373 297.814 213.573 298.422 215.12C299.03 216.667 299.244 218.485 299.062 220.576H294.758V218.976C294.758 217.216 294.476 215.952 293.91 215.184C293.356 214.405 292.444 214.016 291.174 214.016C289.692 214.016 288.598 214.469 287.894 215.376C287.201 216.272 286.854 217.6 286.854 219.36C286.854 220.971 287.201 222.219 287.894 223.104C288.598 223.979 289.628 224.416 290.982 224.416C291.836 224.416 292.566 224.229 293.174 223.856C293.782 223.483 294.246 222.944 294.566 222.24L298.918 223.488C298.268 225.067 297.238 226.293 295.83 227.168C294.433 228.043 292.902 228.48 291.238 228.48ZM285.51 220.576V217.344H296.966V220.576H285.51ZM301.363 228L301.395 210.72H305.811V219.04L311.667 210.72H317.043L310.803 219.36L317.459 228H311.795L305.811 219.68V228H301.363ZM316.483 219.584V216.224H326.083V219.584H316.483Z" fill="#DADADA"/>
<path d="M170.375 260.48C168.583 260.48 167.047 260.08 165.767 259.28C164.487 258.48 163.505 257.392 162.823 256.016C162.14 254.64 161.799 253.088 161.799 251.36C161.799 249.611 162.151 248.048 162.855 246.672C163.569 245.296 164.572 244.213 165.863 243.424C167.153 242.635 168.679 242.24 170.439 242.24C172.476 242.24 174.183 242.757 175.559 243.792C176.945 244.816 177.831 246.219 178.215 248L173.863 249.152C173.607 248.256 173.159 247.557 172.519 247.056C171.889 246.555 171.175 246.304 170.375 246.304C169.457 246.304 168.705 246.528 168.119 246.976C167.532 247.413 167.1 248.016 166.823 248.784C166.545 249.541 166.407 250.4 166.407 251.36C166.407 252.864 166.737 254.085 167.399 255.024C168.071 255.952 169.063 256.416 170.375 256.416C171.356 256.416 172.103 256.192 172.615 255.744C173.127 255.296 173.511 254.656 173.767 253.824L178.215 254.752C177.724 256.587 176.796 258 175.431 258.992C174.065 259.984 172.38 260.48 170.375 260.48ZM184.621 259.968V256.192L194.285 247.616C195.011 246.976 195.523 246.373 195.821 245.808C196.12 245.243 196.269 244.715 196.269 244.224C196.269 243.52 196.125 242.896 195.837 242.352C195.549 241.797 195.144 241.365 194.621 241.056C194.099 240.736 193.485 240.576 192.781 240.576C192.045 240.576 191.395 240.747 190.829 241.088C190.275 241.419 189.843 241.861 189.533 242.416C189.224 242.96 189.08 243.552 189.101 244.192H184.621C184.621 242.613 184.968 241.248 185.661 240.096C186.355 238.944 187.32 238.053 188.557 237.424C189.795 236.795 191.235 236.48 192.877 236.48C194.381 236.48 195.725 236.811 196.909 237.472C198.104 238.123 199.043 239.035 199.725 240.208C200.408 241.381 200.749 242.741 200.749 244.288C200.749 245.429 200.589 246.379 200.269 247.136C199.949 247.883 199.475 248.576 198.845 249.216C198.216 249.845 197.443 250.56 196.525 251.36L190.285 256.832L189.933 255.872H200.749V259.968H184.621ZM211.838 260.48C210.131 260.48 208.638 260.123 207.358 259.408C206.078 258.693 205.08 257.696 204.366 256.416C203.651 255.136 203.294 253.643 203.294 251.936V245.024C203.294 243.317 203.651 241.824 204.366 240.544C205.08 239.264 206.078 238.267 207.358 237.552C208.638 236.837 210.131 236.48 211.838 236.48C213.544 236.48 215.038 236.837 216.318 237.552C217.598 238.267 218.595 239.264 219.31 240.544C220.024 241.824 220.382 243.317 220.382 245.024V251.936C220.382 253.643 220.024 255.136 219.31 256.416C218.595 257.696 217.598 258.693 216.318 259.408C215.038 260.123 213.544 260.48 211.838 260.48ZM211.838 256.352C212.606 256.352 213.299 256.171 213.918 255.808C214.536 255.445 215.027 254.955 215.39 254.336C215.752 253.717 215.934 253.024 215.934 252.256V244.672C215.934 243.904 215.752 243.211 215.39 242.592C215.027 241.973 214.536 241.483 213.918 241.12C213.299 240.757 212.606 240.576 211.838 240.576C211.07 240.576 210.376 240.757 209.758 241.12C209.139 241.483 208.648 241.973 208.286 242.592C207.923 243.211 207.742 243.904 207.742 244.672V252.256C207.742 253.024 207.923 253.717 208.286 254.336C208.648 254.955 209.139 255.445 209.758 255.808C210.376 256.171 211.07 256.352 211.838 256.352ZM227.576 260V241.696L223.256 244.352V239.552L227.576 236.96H232.024V260H227.576ZM243.676 260.48C242.513 260.48 241.42 260.24 240.396 259.76C239.382 259.28 238.508 258.613 237.772 257.76C237.036 256.907 236.508 255.915 236.188 254.784L240.38 253.664C240.518 254.208 240.764 254.677 241.116 255.072C241.478 255.467 241.894 255.776 242.364 256C242.844 256.213 243.334 256.32 243.836 256.32C244.497 256.32 245.1 256.16 245.644 255.84C246.198 255.52 246.636 255.088 246.956 254.544C247.286 254 247.452 253.397 247.452 252.736C247.452 252.075 247.286 251.472 246.956 250.928C246.636 250.384 246.198 249.952 245.644 249.632C245.1 249.312 244.497 249.152 243.836 249.152C243.025 249.152 242.364 249.291 241.852 249.568C241.34 249.835 240.956 250.091 240.7 250.336L237.02 249.216L237.724 236.96H250.3V241.024H240.124L241.66 239.584L241.18 247.488L240.444 246.592C241.02 246.123 241.676 245.781 242.412 245.568C243.148 245.355 243.836 245.248 244.476 245.248C245.926 245.248 247.201 245.573 248.3 246.224C249.409 246.864 250.273 247.749 250.892 248.88C251.521 250 251.836 251.285 251.836 252.736C251.836 254.187 251.457 255.499 250.7 256.672C249.942 257.835 248.945 258.763 247.708 259.456C246.47 260.139 245.126 260.48 243.676 260.48ZM259.518 260V242.72H271.998V246.784H263.87V260H259.518ZM281.232 260.48C279.494 260.48 277.968 260.091 276.656 259.312C275.344 258.533 274.32 257.461 273.584 256.096C272.859 254.72 272.496 253.141 272.496 251.36C272.496 249.557 272.87 247.973 273.616 246.608C274.363 245.232 275.392 244.16 276.704 243.392C278.016 242.624 279.526 242.24 281.232 242.24C282.971 242.24 284.496 242.629 285.808 243.408C287.131 244.187 288.16 245.264 288.896 246.64C289.632 248.005 290 249.579 290 251.36C290 253.152 289.627 254.736 288.88 256.112C288.144 257.477 287.115 258.549 285.792 259.328C284.48 260.096 282.96 260.48 281.232 260.48ZM281.232 256.416C282.63 256.416 283.67 255.947 284.352 255.008C285.046 254.059 285.392 252.843 285.392 251.36C285.392 249.824 285.04 248.597 284.336 247.68C283.643 246.763 282.608 246.304 281.232 246.304C280.283 246.304 279.504 246.517 278.896 246.944C278.288 247.371 277.835 247.963 277.536 248.72C277.248 249.477 277.104 250.357 277.104 251.36C277.104 252.907 277.451 254.139 278.144 255.056C278.848 255.963 279.878 256.416 281.232 256.416ZM290.959 263.84V256.64C291.876 256.64 292.527 256.32 292.911 255.68C293.305 255.04 293.615 253.899 293.839 252.256C293.967 251.307 294.073 250.309 294.159 249.264C294.255 248.219 294.335 247.147 294.399 246.048C294.463 244.949 294.521 243.84 294.575 242.72H307.919V256.64H309.679V263.84H305.583V260H295.055V263.84H290.959ZM296.527 256.64H303.567V246.08H298.351C298.319 246.667 298.281 247.253 298.239 247.84C298.207 248.427 298.164 249.008 298.111 249.584C298.068 250.16 298.025 250.72 297.983 251.264C297.94 251.797 297.892 252.309 297.839 252.8C297.743 253.739 297.609 254.501 297.439 255.088C297.268 255.675 296.964 256.192 296.527 256.64ZM316.384 260.48C315.146 260.48 314.096 260.245 313.232 259.776C312.378 259.296 311.728 258.661 311.28 257.872C310.842 257.072 310.624 256.192 310.624 255.232C310.624 254.432 310.746 253.701 310.992 253.04C311.237 252.379 311.632 251.797 312.176 251.296C312.73 250.784 313.472 250.357 314.4 250.016C315.04 249.781 315.802 249.573 316.688 249.392C317.573 249.211 318.576 249.04 319.696 248.88C320.816 248.709 322.048 248.523 323.392 248.32L321.824 249.184C321.824 248.16 321.578 247.408 321.088 246.928C320.597 246.448 319.776 246.208 318.624 246.208C317.984 246.208 317.317 246.363 316.624 246.672C315.93 246.981 315.445 247.531 315.168 248.32L311.232 247.072C311.669 245.643 312.49 244.48 313.696 243.584C314.901 242.688 316.544 242.24 318.624 242.24C320.149 242.24 321.504 242.475 322.688 242.944C323.872 243.413 324.768 244.224 325.376 245.376C325.717 246.016 325.92 246.656 325.984 247.296C326.048 247.936 326.08 248.651 326.08 249.44V260H322.272V256.448L322.816 257.184C321.973 258.347 321.061 259.189 320.08 259.712C319.109 260.224 317.877 260.48 316.384 260.48ZM317.312 257.056C318.112 257.056 318.784 256.917 319.328 256.64C319.882 256.352 320.32 256.027 320.64 255.664C320.97 255.301 321.194 254.997 321.312 254.752C321.536 254.283 321.664 253.739 321.696 253.12C321.738 252.491 321.76 251.968 321.76 251.552L323.04 251.872C321.749 252.085 320.704 252.267 319.904 252.416C319.104 252.555 318.458 252.683 317.968 252.8C317.477 252.917 317.045 253.045 316.672 253.184C316.245 253.355 315.898 253.541 315.632 253.744C315.376 253.936 315.184 254.149 315.056 254.384C314.938 254.619 314.88 254.88 314.88 255.168C314.88 255.563 314.976 255.904 315.168 256.192C315.37 256.469 315.653 256.683 316.016 256.832C316.378 256.981 316.81 257.056 317.312 257.056Z" fill="#DADADA"/>
</svg>
