<svg width="1330" height="575" viewBox="0 0 1330 575" fill="none" xmlns="http://www.w3.org/2000/svg">
<path d="M6.58 83V15.32H35.156C35.814 15.32 36.6913 15.3513 37.788 15.414C38.916 15.4453 39.9187 15.5393 40.796 15.696C44.838 16.3227 48.1437 17.6543 50.713 19.691C53.3137 21.7277 55.225 24.297 56.447 27.399C57.669 30.4697 58.28 33.9007 58.28 37.692C58.28 41.4833 57.6533 44.93 56.4 48.032C55.178 51.1027 53.2667 53.6563 50.666 55.693C48.0967 57.7297 44.8067 59.0613 40.796 59.688C39.9187 59.8133 38.916 59.9073 37.788 59.97C36.66 60.0327 35.7827 60.064 35.156 60.064H19.364V83H6.58ZM19.364 48.126H34.592C35.25 48.126 35.9707 48.0947 36.754 48.032C37.5373 47.9693 38.258 47.844 38.916 47.656C40.6393 47.186 41.971 46.4027 42.911 45.306C43.851 44.178 44.4933 42.9403 44.838 41.593C45.214 40.2143 45.402 38.914 45.402 37.692C45.402 36.47 45.214 35.1853 44.838 33.838C44.4933 32.4593 43.851 31.2217 42.911 30.125C41.971 28.997 40.6393 28.198 38.916 27.728C38.258 27.54 37.5373 27.4147 36.754 27.352C35.9707 27.2893 35.25 27.258 34.592 27.258H19.364V48.126ZM78.0567 84.41C74.4221 84.41 71.3357 83.7207 68.7977 82.342C66.2911 80.932 64.3797 79.0677 63.0637 76.749C61.7791 74.399 61.1367 71.814 61.1367 68.994C61.1367 66.644 61.4971 64.4977 62.2177 62.555C62.9384 60.6123 64.0977 58.9047 65.6957 57.432C67.3251 55.928 69.5027 54.6747 72.2287 53.672C74.1087 52.9827 76.3491 52.3717 78.9497 51.839C81.5504 51.3063 84.4957 50.805 87.7857 50.335C91.0757 49.8337 94.6947 49.2853 98.6427 48.69L94.0367 51.228C94.0367 48.22 93.3161 46.011 91.8747 44.601C90.4334 43.191 88.0207 42.486 84.6367 42.486C82.7567 42.486 80.7984 42.9403 78.7617 43.849C76.7251 44.7577 75.2994 46.3713 74.4847 48.69L62.9227 45.024C64.2074 40.8253 66.6201 37.41 70.1607 34.778C73.7014 32.146 78.5267 30.83 84.6367 30.83C89.1174 30.83 93.0967 31.5193 96.5747 32.898C100.053 34.2767 102.685 36.658 104.471 40.042C105.473 41.922 106.069 43.802 106.257 45.682C106.445 47.562 106.539 49.6613 106.539 51.98V83H95.3527V72.566L96.9507 74.728C94.4754 78.1433 91.7964 80.6187 88.9137 82.154C86.0624 83.658 82.4434 84.41 78.0567 84.41ZM80.7827 74.352C83.1327 74.352 85.1067 73.9447 86.7047 73.13C88.3341 72.284 89.6187 71.3283 90.5587 70.263C91.5301 69.1977 92.1881 68.3047 92.5327 67.584C93.1907 66.2053 93.5667 64.6073 93.6607 62.79C93.7861 60.9413 93.8487 59.406 93.8487 58.184L97.6087 59.124C93.8174 59.7507 90.7467 60.2833 88.3967 60.722C86.0467 61.1293 84.1511 61.5053 82.7097 61.85C81.2684 62.1947 79.9994 62.5707 78.9027 62.978C77.6494 63.4793 76.6311 64.0277 75.8477 64.623C75.0957 65.187 74.5317 65.8137 74.1557 66.503C73.8111 67.1923 73.6387 67.96 73.6387 68.806C73.6387 69.9653 73.9207 70.968 74.4847 71.814C75.0801 72.6287 75.9104 73.2553 76.9757 73.694C78.0411 74.1327 79.3101 74.352 80.7827 74.352ZM136.384 84.504C131.496 84.4413 127.36 83.3603 123.976 81.261C120.592 79.1303 117.929 76.2007 115.986 72.472C114.075 68.712 112.884 64.3567 112.414 59.406C112.164 56.7427 112.101 53.7503 112.226 50.429C112.383 47.0763 112.743 43.7863 113.307 40.559C113.871 37.3317 114.67 34.5587 115.704 32.24C116.707 30.078 117.992 28.104 119.558 26.318C121.156 24.5007 122.848 22.9653 124.634 21.712C126.734 20.2393 128.99 19.1113 131.402 18.328C133.815 17.5133 136.353 16.8867 139.016 16.448C141.68 16.0093 144.437 15.6177 147.288 15.273C150.171 14.9283 153.085 14.474 156.03 13.91L157.158 25.19C155.372 25.66 153.336 26.0047 151.048 26.224C148.761 26.4433 146.411 26.6783 143.998 26.929C141.586 27.1483 139.283 27.5087 137.089 28.01C134.896 28.5113 133 29.2633 131.402 30.266C129.24 31.6133 127.58 33.4933 126.42 35.906C125.292 38.2873 124.634 40.7 124.446 43.144C126.389 40.324 128.755 38.3813 131.543 37.316C134.363 36.2507 137.136 35.718 139.862 35.718C144.343 35.718 148.181 36.799 151.377 38.961C154.605 41.0917 157.08 43.9743 158.803 47.609C160.527 51.2123 161.388 55.2073 161.388 59.594C161.388 64.576 160.307 68.947 158.145 72.707C156.015 76.467 153.069 79.3967 149.309 81.496C145.549 83.564 141.241 84.5667 136.384 84.504ZM136.948 72.566C140.583 72.566 143.325 71.438 145.173 69.182C147.022 66.926 147.946 63.918 147.946 60.158C147.946 56.304 146.991 53.2803 145.079 51.087C143.199 48.8623 140.489 47.75 136.948 47.75C133.345 47.75 130.603 48.8623 128.723 51.087C126.875 53.2803 125.95 56.304 125.95 60.158C125.95 64.1373 126.906 67.208 128.817 69.37C130.729 71.5007 133.439 72.566 136.948 72.566ZM190.812 84.41C185.705 84.41 181.224 83.2663 177.37 80.979C173.516 78.6917 170.508 75.5427 168.346 71.532C166.215 67.49 165.15 62.8527 165.15 57.62C165.15 52.3247 166.247 47.6717 168.44 43.661C170.633 39.619 173.657 36.47 177.511 34.214C181.365 31.958 185.799 30.83 190.812 30.83C195.919 30.83 200.4 31.9737 204.254 34.261C208.139 36.5483 211.163 39.713 213.325 43.755C215.487 47.7657 216.568 52.3873 216.568 57.62C216.568 62.884 215.471 67.537 213.278 71.579C211.116 75.5897 208.092 78.7387 204.207 81.026C200.353 83.282 195.888 84.41 190.812 84.41ZM190.812 72.472C194.917 72.472 197.972 71.0933 199.977 68.336C202.014 65.5473 203.032 61.9753 203.032 57.62C203.032 53.108 201.998 49.5047 199.93 46.81C197.893 44.1153 194.854 42.768 190.812 42.768C188.023 42.768 185.736 43.3947 183.95 44.648C182.164 45.9013 180.832 47.6403 179.955 49.865C179.109 52.0897 178.686 54.6747 178.686 57.62C178.686 62.1633 179.704 65.7823 181.741 68.477C183.809 71.1403 186.833 72.472 190.812 72.472ZM234.634 83V43.52H217.996V32.24H264.056V43.52H247.418V83H234.634ZM282.411 84.41C278.777 84.41 275.69 83.7207 273.152 82.342C270.646 80.932 268.734 79.0677 267.418 76.749C266.134 74.399 265.491 71.814 265.491 68.994C265.491 66.644 265.852 64.4977 266.572 62.555C267.293 60.6123 268.452 58.9047 270.05 57.432C271.68 55.928 273.857 54.6747 276.583 53.672C278.463 52.9827 280.704 52.3717 283.304 51.839C285.905 51.3063 288.85 50.805 292.14 50.335C295.43 49.8337 299.049 49.2853 302.997 48.69L298.391 51.228C298.391 48.22 297.671 46.011 296.229 44.601C294.788 43.191 292.375 42.486 288.991 42.486C287.111 42.486 285.153 42.9403 283.116 43.849C281.08 44.7577 279.654 46.3713 278.839 48.69L267.277 45.024C268.562 40.8253 270.975 37.41 274.515 34.778C278.056 32.146 282.881 30.83 288.991 30.83C293.472 30.83 297.451 31.5193 300.929 32.898C304.407 34.2767 307.039 36.658 308.825 40.042C309.828 41.922 310.423 43.802 310.611 45.682C310.799 47.562 310.893 49.6613 310.893 51.98V83H299.707V72.566L301.305 74.728C298.83 78.1433 296.151 80.6187 293.268 82.154C290.417 83.658 286.798 84.41 282.411 84.41ZM285.137 74.352C287.487 74.352 289.461 73.9447 291.059 73.13C292.689 72.284 293.973 71.3283 294.913 70.263C295.885 69.1977 296.543 68.3047 296.887 67.584C297.545 66.2053 297.921 64.6073 298.015 62.79C298.141 60.9413 298.203 59.406 298.203 58.184L301.963 59.124C298.172 59.7507 295.101 60.2833 292.751 60.722C290.401 61.1293 288.506 61.5053 287.064 61.85C285.623 62.1947 284.354 62.5707 283.257 62.978C282.004 63.4793 280.986 64.0277 280.202 64.623C279.45 65.187 278.886 65.8137 278.51 66.503C278.166 67.1923 277.993 67.96 277.993 68.806C277.993 69.9653 278.275 70.968 278.839 71.814C279.435 72.6287 280.265 73.2553 281.33 73.694C282.396 74.1327 283.665 74.352 285.137 74.352ZM342.948 84.41C337.747 84.41 333.156 83.2977 329.177 81.073C325.229 78.817 322.127 75.7307 319.871 71.814C317.646 67.866 316.534 63.354 316.534 58.278C316.534 52.732 317.631 47.9067 319.824 43.802C322.017 39.6973 325.041 36.517 328.895 34.261C332.749 31.9737 337.183 30.83 342.196 30.83C347.523 30.83 352.05 32.0833 355.779 34.59C359.508 37.0967 362.265 40.6217 364.051 45.165C365.837 49.7083 366.464 55.0507 365.931 61.192H353.288V56.492C353.288 51.322 352.458 47.609 350.797 45.353C349.168 43.0657 346.489 41.922 342.76 41.922C338.405 41.922 335.193 43.2537 333.125 45.917C331.088 48.549 330.07 52.45 330.07 57.62C330.07 62.3513 331.088 66.0173 333.125 68.618C335.193 71.1873 338.217 72.472 342.196 72.472C344.703 72.472 346.849 71.9237 348.635 70.827C350.421 69.7303 351.784 68.148 352.724 66.08L365.508 69.746C363.597 74.3833 360.573 77.9867 356.437 80.556C352.332 83.1253 347.836 84.41 342.948 84.41ZM326.122 61.192V51.698H359.774V61.192H326.122ZM371.312 83V32.24H381.652L399.324 65.14L416.996 32.24H427.336V83H415.116V57.714L401.58 83H397.068L383.532 57.714V83H371.312Z" fill="#DADADA"/>
<path d="M6.58 177V109.32H35.156C35.814 109.32 36.6913 109.351 37.788 109.414C38.916 109.445 39.9187 109.539 40.796 109.696C44.838 110.323 48.1437 111.654 50.713 113.691C53.3137 115.728 55.225 118.297 56.447 121.399C57.669 124.47 58.28 127.901 58.28 131.692C58.28 135.483 57.6533 138.93 56.4 142.032C55.178 145.103 53.2667 147.656 50.666 149.693C48.0967 151.73 44.8067 153.061 40.796 153.688C39.9187 153.813 38.916 153.907 37.788 153.97C36.66 154.033 35.7827 154.064 35.156 154.064H19.364V177H6.58ZM19.364 142.126H34.592C35.25 142.126 35.9707 142.095 36.754 142.032C37.5373 141.969 38.258 141.844 38.916 141.656C40.6393 141.186 41.971 140.403 42.911 139.306C43.851 138.178 44.4933 136.94 44.838 135.593C45.214 134.214 45.402 132.914 45.402 131.692C45.402 130.47 45.214 129.185 44.838 127.838C44.4933 126.459 43.851 125.222 42.911 124.125C41.971 122.997 40.6393 122.198 38.916 121.728C38.258 121.54 37.5373 121.415 36.754 121.352C35.9707 121.289 35.25 121.258 34.592 121.258H19.364V142.126ZM63.9567 177V109.32H92.5327C93.1907 109.32 94.0681 109.351 95.1647 109.414C96.2927 109.445 97.2954 109.539 98.1727 109.696C102.215 110.323 105.52 111.654 108.09 113.691C110.69 115.728 112.602 118.297 113.824 121.399C115.046 124.47 115.657 127.901 115.657 131.692C115.657 137.363 114.247 142.22 111.427 146.262C108.607 150.273 104.189 152.748 98.1727 153.688L92.5327 154.064H76.7407V177H63.9567ZM102.121 177L88.7727 149.458L101.933 146.92L116.597 177H102.121ZM76.7407 142.126H91.9687C92.6267 142.126 93.3474 142.095 94.1307 142.032C94.9141 141.969 95.6347 141.844 96.2927 141.656C98.0161 141.186 99.3477 140.403 100.288 139.306C101.228 138.178 101.87 136.94 102.215 135.593C102.591 134.214 102.779 132.914 102.779 131.692C102.779 130.47 102.591 129.185 102.215 127.838C101.87 126.459 101.228 125.222 100.288 124.125C99.3477 122.997 98.0161 122.198 96.2927 121.728C95.6347 121.54 94.9141 121.415 94.1307 121.352C93.3474 121.289 92.6267 121.258 91.9687 121.258H76.7407V142.126ZM122.229 189.69L122.981 184.332C124.485 184.457 125.707 184.207 126.647 183.58C127.587 182.985 128.23 182.107 128.574 180.948C128.95 179.82 129.029 178.504 128.809 177H122.229V164.216H135.013V177C135.013 181.512 133.964 184.927 131.864 187.246C129.765 189.565 126.553 190.379 122.229 189.69ZM164.116 177L164.21 126.24H177.182V150.68L194.384 126.24H210.176L191.846 151.62L211.398 177H194.76L177.182 152.56V177H164.116ZM237.225 178.41C232.18 178.41 227.966 177.235 224.582 174.885C221.198 172.535 218.644 169.339 216.921 165.297C215.229 161.255 214.383 156.696 214.383 151.62C214.383 146.544 215.229 141.985 216.921 137.943C218.613 133.901 221.104 130.705 224.394 128.355C227.684 126.005 231.742 124.83 236.567 124.83C241.424 124.83 245.654 125.989 249.257 128.308C252.86 130.627 255.649 133.807 257.623 137.849C259.628 141.86 260.631 146.45 260.631 151.62C260.631 156.696 259.644 161.255 257.67 165.297C255.727 169.339 253.001 172.535 249.492 174.885C245.983 177.235 241.894 178.41 237.225 178.41ZM212.221 199.56V126.24H223.501V161.02H225.099V199.56H212.221ZM235.157 167.036C237.914 167.036 240.17 166.347 241.925 164.968C243.68 163.589 244.98 161.741 245.826 159.422C246.672 157.072 247.095 154.471 247.095 151.62C247.095 148.8 246.656 146.231 245.779 143.912C244.902 141.562 243.539 139.698 241.69 138.319C239.873 136.909 237.538 136.204 234.687 136.204C232.024 136.204 229.862 136.846 228.201 138.131C226.572 139.416 225.381 141.217 224.629 143.536C223.877 145.855 223.501 148.549 223.501 151.62C223.501 154.691 223.877 157.385 224.629 159.704C225.381 162.023 226.603 163.824 228.295 165.109C230.018 166.394 232.306 167.036 235.157 167.036ZM290.807 178.41C285.606 178.41 281.016 177.298 277.036 175.073C273.088 172.817 269.986 169.731 267.73 165.814C265.506 161.866 264.393 157.354 264.393 152.278C264.393 146.732 265.49 141.907 267.683 137.802C269.877 133.697 272.9 130.517 276.754 128.261C280.608 125.974 285.042 124.83 290.055 124.83C295.382 124.83 299.91 126.083 303.638 128.59C307.367 131.097 310.124 134.622 311.91 139.165C313.696 143.708 314.323 149.051 313.79 155.192H301.147V150.492C301.147 145.322 300.317 141.609 298.656 139.353C297.027 137.066 294.348 135.922 290.619 135.922C286.264 135.922 283.052 137.254 280.984 139.917C278.948 142.549 277.929 146.45 277.929 151.62C277.929 156.351 278.948 160.017 280.984 162.618C283.052 165.187 286.076 166.472 290.055 166.472C292.562 166.472 294.708 165.924 296.494 164.827C298.28 163.73 299.643 162.148 300.583 160.08L313.367 163.746C311.456 168.383 308.432 171.987 304.296 174.556C300.192 177.125 295.695 178.41 290.807 178.41ZM273.981 155.192V145.698H307.633V155.192H273.981ZM333.825 178.41C330.19 178.41 327.104 177.721 324.566 176.342C322.059 174.932 320.148 173.068 318.832 170.749C317.547 168.399 316.905 165.814 316.905 162.994C316.905 160.644 317.265 158.498 317.986 156.555C318.707 154.612 319.866 152.905 321.464 151.432C323.093 149.928 325.271 148.675 327.997 147.672C329.877 146.983 332.117 146.372 334.718 145.839C337.319 145.306 340.264 144.805 343.554 144.335C346.844 143.834 350.463 143.285 354.411 142.69L349.805 145.228C349.805 142.22 349.084 140.011 347.643 138.601C346.202 137.191 343.789 136.486 340.405 136.486C338.525 136.486 336.567 136.94 334.53 137.849C332.493 138.758 331.068 140.371 330.253 142.69L318.691 139.024C319.976 134.825 322.388 131.41 325.929 128.778C329.47 126.146 334.295 124.83 340.405 124.83C344.886 124.83 348.865 125.519 352.343 126.898C355.821 128.277 358.453 130.658 360.239 134.042C361.242 135.922 361.837 137.802 362.025 139.682C362.213 141.562 362.307 143.661 362.307 145.98V177H351.121V166.566L352.719 168.728C350.244 172.143 347.565 174.619 344.682 176.154C341.831 177.658 338.212 178.41 333.825 178.41ZM336.551 168.352C338.901 168.352 340.875 167.945 342.473 167.13C344.102 166.284 345.387 165.328 346.327 164.263C347.298 163.198 347.956 162.305 348.301 161.584C348.959 160.205 349.335 158.607 349.429 156.79C349.554 154.941 349.617 153.406 349.617 152.184L353.377 153.124C349.586 153.751 346.515 154.283 344.165 154.722C341.815 155.129 339.919 155.505 338.478 155.85C337.037 156.195 335.768 156.571 334.671 156.978C333.418 157.479 332.399 158.028 331.616 158.623C330.864 159.187 330.3 159.814 329.924 160.503C329.579 161.192 329.407 161.96 329.407 162.806C329.407 163.965 329.689 164.968 330.253 165.814C330.848 166.629 331.679 167.255 332.744 167.694C333.809 168.133 335.078 168.352 336.551 168.352ZM383.176 177V137.52H366.538V126.24H412.598V137.52H395.96V177H383.176ZM462.985 126.24V177H450.765V145.98L427.829 177H417.677V126.24H429.897V156.226L452.927 126.24H462.985ZM472.3 177V126.24H496.082C497.962 126.24 499.607 126.35 501.017 126.569C502.427 126.757 503.602 126.992 504.542 127.274C506.861 127.963 508.976 129.311 510.887 131.316C512.798 133.321 513.754 136.235 513.754 140.058C513.754 142.314 513.394 144.147 512.673 145.557C511.952 146.936 510.997 148.079 509.806 148.988C509.242 149.395 508.678 149.74 508.114 150.022C507.55 150.304 506.986 150.523 506.422 150.68C507.738 150.868 508.929 151.213 509.994 151.714C511.686 152.466 513.159 153.657 514.412 155.286C515.665 156.884 516.292 159.265 516.292 162.43C516.292 165.814 515.462 168.697 513.801 171.078C512.172 173.459 509.712 175.12 506.422 176.06C505.294 176.373 503.962 176.608 502.427 176.765C500.923 176.922 499.341 177 497.68 177H472.3ZM485.272 167.318H496.74C497.398 167.318 498.072 167.255 498.761 167.13C499.482 166.973 500.124 166.785 500.688 166.566C501.597 166.19 502.239 165.548 502.615 164.639C503.022 163.73 503.226 162.806 503.226 161.866C503.226 160.55 502.928 159.516 502.333 158.764C501.769 158.012 501.127 157.479 500.406 157.166C499.811 156.884 499.153 156.727 498.432 156.696C497.743 156.633 497.179 156.602 496.74 156.602H485.272V167.318ZM485.272 146.732H493.074C494.077 146.732 495.017 146.685 495.894 146.591C496.803 146.466 497.555 146.262 498.15 145.98C498.965 145.604 499.576 145.009 499.983 144.194C500.39 143.348 500.594 142.408 500.594 141.374C500.594 140.277 500.359 139.29 499.889 138.413C499.45 137.504 498.714 136.893 497.68 136.58C496.991 136.329 496.113 136.188 495.048 136.157C494.014 136.126 493.356 136.11 493.074 136.11H485.272V146.732ZM536.068 178.41C532.433 178.41 529.347 177.721 526.809 176.342C524.302 174.932 522.391 173.068 521.075 170.749C519.79 168.399 519.148 165.814 519.148 162.994C519.148 160.644 519.508 158.498 520.229 156.555C520.95 154.612 522.109 152.905 523.707 151.432C525.336 149.928 527.514 148.675 530.24 147.672C532.12 146.983 534.36 146.372 536.961 145.839C539.562 145.306 542.507 144.805 545.797 144.335C549.087 143.834 552.706 143.285 556.654 142.69L552.048 145.228C552.048 142.22 551.327 140.011 549.886 138.601C548.445 137.191 546.032 136.486 542.648 136.486C540.768 136.486 538.81 136.94 536.773 137.849C534.736 138.758 533.311 140.371 532.496 142.69L520.934 139.024C522.219 134.825 524.631 131.41 528.172 128.778C531.713 126.146 536.538 124.83 542.648 124.83C547.129 124.83 551.108 125.519 554.586 126.898C558.064 128.277 560.696 130.658 562.482 134.042C563.485 135.922 564.08 137.802 564.268 139.682C564.456 141.562 564.55 143.661 564.55 145.98V177H553.364V166.566L554.962 168.728C552.487 172.143 549.808 174.619 546.925 176.154C544.074 177.658 540.455 178.41 536.068 178.41ZM538.794 168.352C541.144 168.352 543.118 167.945 544.716 167.13C546.345 166.284 547.63 165.328 548.57 164.263C549.541 163.198 550.199 162.305 550.544 161.584C551.202 160.205 551.578 158.607 551.672 156.79C551.797 154.941 551.86 153.406 551.86 152.184L555.62 153.124C551.829 153.751 548.758 154.283 546.408 154.722C544.058 155.129 542.162 155.505 540.721 155.85C539.28 156.195 538.011 156.571 536.914 156.978C535.661 157.479 534.642 158.028 533.859 158.623C533.107 159.187 532.543 159.814 532.167 160.503C531.822 161.192 531.65 161.96 531.65 162.806C531.65 163.965 531.932 164.968 532.496 165.814C533.091 166.629 533.922 167.255 534.987 167.694C536.052 168.133 537.321 168.352 538.794 168.352Z" fill="#DADADA"/>
<path d="M31.302 272.41C26.508 272.41 22.2937 271.705 18.659 270.295C15.0557 268.885 12.0163 267.083 9.541 264.89C7.06567 262.665 5.13867 260.347 3.76 257.934L14.57 250.414C15.322 251.981 16.3873 253.532 17.766 255.067C19.1447 256.602 20.9777 257.871 23.265 258.874C25.5523 259.877 28.4193 260.378 31.866 260.378C35.1247 260.378 37.741 259.908 39.715 258.968C41.7203 258.028 43.1617 256.822 44.039 255.349C44.9477 253.876 45.402 252.325 45.402 250.696C45.402 248.534 44.7597 246.873 43.475 245.714C42.2217 244.555 40.5923 243.756 38.587 243.317C36.5817 242.847 34.4667 242.581 32.242 242.518C30.08 242.455 28.5133 242.408 27.542 242.377C26.602 242.346 25.9597 242.33 25.615 242.33C25.3017 242.33 25.004 242.33 24.722 242.33V230.298C25.1293 230.298 25.7247 230.298 26.508 230.298C27.3227 230.298 28.1373 230.298 28.952 230.298C29.798 230.267 30.4873 230.235 31.02 230.204C34.31 230.047 37.0517 229.327 39.245 228.042C41.4697 226.757 42.582 224.752 42.582 222.026C42.582 219.519 41.595 217.53 39.621 216.057C37.6783 214.584 35.062 213.848 31.772 213.848C28.67 213.848 25.897 214.522 23.453 215.869C21.0403 217.185 19.27 218.642 18.142 220.24L9.4 210.84C11.75 208.396 14.899 206.297 18.847 204.542C22.795 202.787 27.2287 201.91 32.148 201.91C35.1247 201.91 38.0387 202.302 40.89 203.085C43.7413 203.837 46.3107 205.012 48.598 206.61C50.8853 208.177 52.7027 210.198 54.05 212.673C55.4287 215.148 56.118 218.109 56.118 221.556C56.118 224.47 55.601 227.227 54.567 229.828C53.533 232.397 52.0447 234.559 50.102 236.314C52.922 237.567 55.0997 239.385 56.635 241.766C58.1703 244.147 58.938 247.124 58.938 250.696C58.938 255.177 57.6847 259.046 55.178 262.305C52.7027 265.532 49.3657 268.023 45.167 269.778C40.9997 271.533 36.378 272.41 31.302 272.41ZM79.6173 272.41C75.9826 272.41 72.8963 271.721 70.3583 270.342C67.8516 268.932 65.9403 267.068 64.6243 264.749C63.3396 262.399 62.6973 259.814 62.6973 256.994C62.6973 254.644 63.0576 252.498 63.7783 250.555C64.4989 248.612 65.6583 246.905 67.2563 245.432C68.8856 243.928 71.0633 242.675 73.7893 241.672C75.6693 240.983 77.9096 240.372 80.5103 239.839C83.1109 239.306 86.0563 238.805 89.3463 238.335C92.6363 237.834 96.2553 237.285 100.203 236.69L95.5973 239.228C95.5973 236.22 94.8766 234.011 93.4353 232.601C91.9939 231.191 89.5813 230.486 86.1973 230.486C84.3173 230.486 82.3589 230.94 80.3223 231.849C78.2856 232.758 76.8599 234.371 76.0453 236.69L64.4833 233.024C65.7679 228.825 68.1806 225.41 71.7213 222.778C75.2619 220.146 80.0873 218.83 86.1973 218.83C90.6779 218.83 94.6573 219.519 98.1353 220.898C101.613 222.277 104.245 224.658 106.031 228.042C107.034 229.922 107.629 231.802 107.817 233.682C108.005 235.562 108.099 237.661 108.099 239.98V271H96.9133V260.566L98.5113 262.728C96.0359 266.143 93.3569 268.619 90.4743 270.154C87.6229 271.658 84.0039 272.41 79.6173 272.41ZM82.3433 262.352C84.6933 262.352 86.6673 261.945 88.2653 261.13C89.8946 260.284 91.1793 259.328 92.1193 258.263C93.0906 257.198 93.7486 256.305 94.0933 255.584C94.7513 254.205 95.1273 252.607 95.2213 250.79C95.3466 248.941 95.4093 247.406 95.4093 246.184L99.1693 247.124C95.3779 247.751 92.3073 248.283 89.9573 248.722C87.6073 249.129 85.7116 249.505 84.2703 249.85C82.8289 250.195 81.5599 250.571 80.4633 250.978C79.2099 251.479 78.1916 252.028 77.4083 252.623C76.6563 253.187 76.0923 253.814 75.7163 254.503C75.3716 255.192 75.1993 255.96 75.1993 256.806C75.1993 257.965 75.4813 258.968 76.0453 259.814C76.6406 260.629 77.4709 261.255 78.5363 261.694C79.6016 262.133 80.8706 262.352 82.3433 262.352ZM116.466 271V220.24H140.248C142.128 220.24 143.773 220.35 145.183 220.569C146.593 220.757 147.768 220.992 148.708 221.274C151.027 221.963 153.142 223.311 155.053 225.316C156.964 227.321 157.92 230.235 157.92 234.058C157.92 236.314 157.56 238.147 156.839 239.557C156.118 240.936 155.163 242.079 153.972 242.988C153.408 243.395 152.844 243.74 152.28 244.022C151.716 244.304 151.152 244.523 150.588 244.68C151.904 244.868 153.095 245.213 154.16 245.714C155.852 246.466 157.325 247.657 158.578 249.286C159.831 250.884 160.458 253.265 160.458 256.43C160.458 259.814 159.628 262.697 157.967 265.078C156.338 267.459 153.878 269.12 150.588 270.06C149.46 270.373 148.128 270.608 146.593 270.765C145.089 270.922 143.507 271 141.846 271H116.466ZM129.438 261.318H140.906C141.564 261.318 142.238 261.255 142.927 261.13C143.648 260.973 144.29 260.785 144.854 260.566C145.763 260.19 146.405 259.548 146.781 258.639C147.188 257.73 147.392 256.806 147.392 255.866C147.392 254.55 147.094 253.516 146.499 252.764C145.935 252.012 145.293 251.479 144.572 251.166C143.977 250.884 143.319 250.727 142.598 250.696C141.909 250.633 141.345 250.602 140.906 250.602H129.438V261.318ZM129.438 240.732H137.24C138.243 240.732 139.183 240.685 140.06 240.591C140.969 240.466 141.721 240.262 142.316 239.98C143.131 239.604 143.742 239.009 144.149 238.194C144.556 237.348 144.76 236.408 144.76 235.374C144.76 234.277 144.525 233.29 144.055 232.413C143.616 231.504 142.88 230.893 141.846 230.58C141.157 230.329 140.279 230.188 139.214 230.157C138.18 230.126 137.522 230.11 137.24 230.11H129.438V240.732ZM188.976 272.41C183.869 272.41 179.388 271.266 175.534 268.979C171.68 266.692 168.672 263.543 166.51 259.532C164.379 255.49 163.314 250.853 163.314 245.62C163.314 240.325 164.411 235.672 166.604 231.661C168.797 227.619 171.821 224.47 175.675 222.214C179.529 219.958 183.963 218.83 188.976 218.83C194.083 218.83 198.564 219.974 202.418 222.261C206.303 224.548 209.327 227.713 211.489 231.755C213.651 235.766 214.732 240.387 214.732 245.62C214.732 250.884 213.635 255.537 211.442 259.579C209.28 263.59 206.256 266.739 202.371 269.026C198.517 271.282 194.052 272.41 188.976 272.41ZM188.976 260.472C193.081 260.472 196.136 259.093 198.141 256.336C200.178 253.547 201.196 249.975 201.196 245.62C201.196 241.108 200.162 237.505 198.094 234.81C196.057 232.115 193.018 230.768 188.976 230.768C186.187 230.768 183.9 231.395 182.114 232.648C180.328 233.901 178.996 235.64 178.119 237.865C177.273 240.09 176.85 242.675 176.85 245.62C176.85 250.163 177.868 253.782 179.905 256.477C181.973 259.14 184.997 260.472 188.976 260.472ZM244.902 272.41C239.7 272.41 235.11 271.298 231.131 269.073C227.183 266.817 224.081 263.731 221.825 259.814C219.6 255.866 218.488 251.354 218.488 246.278C218.488 240.732 219.584 235.907 221.778 231.802C223.971 227.697 226.995 224.517 230.849 222.261C234.703 219.974 239.136 218.83 244.15 218.83C249.476 218.83 254.004 220.083 257.733 222.59C261.461 225.097 264.219 228.622 266.005 233.165C267.791 237.708 268.417 243.051 267.885 249.192H255.242V244.492C255.242 239.322 254.411 235.609 252.751 233.353C251.121 231.066 248.442 229.922 244.714 229.922C240.358 229.922 237.147 231.254 235.079 233.917C233.042 236.549 232.024 240.45 232.024 245.62C232.024 250.351 233.042 254.017 235.079 256.618C237.147 259.187 240.17 260.472 244.15 260.472C246.656 260.472 248.803 259.924 250.589 258.827C252.375 257.73 253.738 256.148 254.678 254.08L267.462 257.746C265.55 262.383 262.527 265.987 258.391 268.556C254.286 271.125 249.79 272.41 244.902 272.41ZM228.076 249.192V239.698H261.728V249.192H228.076ZM274.643 271V220.24H298.425C300.305 220.24 301.95 220.35 303.36 220.569C304.77 220.757 305.945 220.992 306.885 221.274C309.204 221.963 311.319 223.311 313.23 225.316C315.141 227.321 316.097 230.235 316.097 234.058C316.097 236.314 315.737 238.147 315.016 239.557C314.295 240.936 313.34 242.079 312.149 242.988C311.585 243.395 311.021 243.74 310.457 244.022C309.893 244.304 309.329 244.523 308.765 244.68C310.081 244.868 311.272 245.213 312.337 245.714C314.029 246.466 315.502 247.657 316.755 249.286C318.008 250.884 318.635 253.265 318.635 256.43C318.635 259.814 317.805 262.697 316.144 265.078C314.515 267.459 312.055 269.12 308.765 270.06C307.637 270.373 306.305 270.608 304.77 270.765C303.266 270.922 301.684 271 300.023 271H274.643ZM287.615 261.318H299.083C299.741 261.318 300.415 261.255 301.104 261.13C301.825 260.973 302.467 260.785 303.031 260.566C303.94 260.19 304.582 259.548 304.958 258.639C305.365 257.73 305.569 256.806 305.569 255.866C305.569 254.55 305.271 253.516 304.676 252.764C304.112 252.012 303.47 251.479 302.749 251.166C302.154 250.884 301.496 250.727 300.775 250.696C300.086 250.633 299.522 250.602 299.083 250.602H287.615V261.318ZM287.615 240.732H295.417C296.42 240.732 297.36 240.685 298.237 240.591C299.146 240.466 299.898 240.262 300.493 239.98C301.308 239.604 301.919 239.009 302.326 238.194C302.733 237.348 302.937 236.408 302.937 235.374C302.937 234.277 302.702 233.29 302.232 232.413C301.793 231.504 301.057 230.893 300.023 230.58C299.334 230.329 298.456 230.188 297.391 230.157C296.357 230.126 295.699 230.11 295.417 230.11H287.615V240.732ZM324.217 271V220.24H337.001V236.408H341.607C343.017 236.408 344.662 236.439 346.542 236.502C348.422 236.565 349.973 236.721 351.195 236.972C354.172 237.63 356.678 238.68 358.715 240.121C360.752 241.562 362.287 243.427 363.321 245.714C364.386 247.97 364.919 250.665 364.919 253.798C364.919 258.31 363.744 261.945 361.394 264.702C359.075 267.428 355.707 269.308 351.289 270.342C350.067 270.624 348.5 270.812 346.589 270.906C344.678 270.969 343.017 271 341.607 271H324.217ZM337.001 261.13H343.017C343.581 261.13 344.208 261.099 344.897 261.036C345.586 260.973 346.276 260.848 346.965 260.66C348.281 260.284 349.44 259.454 350.443 258.169C351.446 256.884 351.947 255.427 351.947 253.798C351.947 252.012 351.43 250.492 350.396 249.239C349.362 247.954 348.156 247.124 346.777 246.748C346.119 246.56 345.461 246.435 344.803 246.372C344.145 246.309 343.55 246.278 343.017 246.278H337.001V261.13ZM369.995 271V220.24H382.779V271H369.995ZM392.059 271V220.24H415.841C417.721 220.24 419.366 220.35 420.776 220.569C422.186 220.757 423.361 220.992 424.301 221.274C426.619 221.963 428.734 223.311 430.646 225.316C432.557 227.321 433.513 230.235 433.513 234.058C433.513 236.314 433.152 238.147 432.432 239.557C431.711 240.936 430.755 242.079 429.565 242.988C429.001 243.395 428.437 243.74 427.873 244.022C427.309 244.304 426.745 244.523 426.181 244.68C427.497 244.868 428.687 245.213 429.753 245.714C431.445 246.466 432.917 247.657 434.171 249.286C435.424 250.884 436.051 253.265 436.051 256.43C436.051 259.814 435.22 262.697 433.56 265.078C431.93 267.459 429.471 269.12 426.181 270.06C425.053 270.373 423.721 270.608 422.186 270.765C420.682 270.922 419.099 271 417.439 271H392.059ZM405.031 261.318H416.499C417.157 261.318 417.83 261.255 418.52 261.13C419.24 260.973 419.883 260.785 420.447 260.566C421.355 260.19 421.998 259.548 422.374 258.639C422.781 257.73 422.985 256.806 422.985 255.866C422.985 254.55 422.687 253.516 422.092 252.764C421.528 252.012 420.885 251.479 420.165 251.166C419.569 250.884 418.911 250.727 418.191 250.696C417.501 250.633 416.937 250.602 416.499 250.602H405.031V261.318ZM405.031 240.732H412.833C413.835 240.732 414.775 240.685 415.653 240.591C416.561 240.466 417.313 240.262 417.909 239.98C418.723 239.604 419.334 239.009 419.742 238.194C420.149 237.348 420.353 236.408 420.353 235.374C420.353 234.277 420.118 233.29 419.648 232.413C419.209 231.504 418.473 230.893 417.439 230.58C416.749 230.329 415.872 230.188 414.807 230.157C413.773 230.126 413.115 230.11 412.833 230.11H405.031V240.732ZM455.827 272.41C452.192 272.41 449.106 271.721 446.568 270.342C444.061 268.932 442.15 267.068 440.834 264.749C439.549 262.399 438.907 259.814 438.907 256.994C438.907 254.644 439.267 252.498 439.988 250.555C440.708 248.612 441.868 246.905 443.466 245.432C445.095 243.928 447.273 242.675 449.999 241.672C451.879 240.983 454.119 240.372 456.72 239.839C459.32 239.306 462.266 238.805 465.556 238.335C468.846 237.834 472.465 237.285 476.413 236.69L471.807 239.228C471.807 236.22 471.086 234.011 469.645 232.601C468.203 231.191 465.791 230.486 462.407 230.486C460.527 230.486 458.568 230.94 456.532 231.849C454.495 232.758 453.069 234.371 452.255 236.69L440.693 233.024C441.977 228.825 444.39 225.41 447.931 222.778C451.471 220.146 456.297 218.83 462.407 218.83C466.887 218.83 470.867 219.519 474.345 220.898C477.823 222.277 480.455 224.658 482.241 228.042C483.243 229.922 483.839 231.802 484.027 233.682C484.215 235.562 484.309 237.661 484.309 239.98V271H473.123V260.566L474.721 262.728C472.245 266.143 469.566 268.619 466.684 270.154C463.832 271.658 460.213 272.41 455.827 272.41ZM458.553 262.352C460.903 262.352 462.877 261.945 464.475 261.13C466.104 260.284 467.389 259.328 468.329 258.263C469.3 257.198 469.958 256.305 470.303 255.584C470.961 254.205 471.337 252.607 471.431 250.79C471.556 248.941 471.619 247.406 471.619 246.184L475.379 247.124C471.587 247.751 468.517 248.283 466.167 248.722C463.817 249.129 461.921 249.505 460.48 249.85C459.038 250.195 457.769 250.571 456.673 250.978C455.419 251.479 454.401 252.028 453.618 252.623C452.866 253.187 452.302 253.814 451.926 254.503C451.581 255.192 451.409 255.96 451.409 256.806C451.409 257.965 451.691 258.968 452.255 259.814C452.85 260.629 453.68 261.255 454.746 261.694C455.811 262.133 457.08 262.352 458.553 262.352ZM516.363 272.41C511.162 272.41 506.572 271.298 502.592 269.073C498.644 266.817 495.542 263.731 493.286 259.814C491.062 255.866 489.949 251.354 489.949 246.278C489.949 240.732 491.046 235.907 493.239 231.802C495.433 227.697 498.456 224.517 502.31 222.261C506.164 219.974 510.598 218.83 515.611 218.83C520.938 218.83 525.466 220.083 529.194 222.59C532.923 225.097 535.68 228.622 537.466 233.165C539.252 237.708 539.879 243.051 539.346 249.192H526.703V244.492C526.703 239.322 525.873 235.609 524.212 233.353C522.583 231.066 519.904 229.922 516.175 229.922C511.82 229.922 508.608 231.254 506.54 233.917C504.504 236.549 503.485 240.45 503.485 245.62C503.485 250.351 504.504 254.017 506.54 256.618C508.608 259.187 511.632 260.472 515.611 260.472C518.118 260.472 520.264 259.924 522.05 258.827C523.836 257.73 525.199 256.148 526.139 254.08L538.923 257.746C537.012 262.383 533.988 265.987 529.852 268.556C525.748 271.125 521.251 272.41 516.363 272.41ZM499.537 249.192V239.698H533.189V249.192H499.537ZM544.728 271V220.24H555.068L572.74 253.14L590.412 220.24H600.752V271H588.532V245.714L574.996 271H570.484L556.948 245.714V271H544.728Z" fill="#DADADA"/>
<path d="M51.794 314.24V365H39.574V333.98L16.638 365H6.486V314.24H18.706V344.226L41.736 314.24H51.794ZM72.5012 376.28V355.13C75.1958 355.13 77.1072 354.19 78.2352 352.31C79.3945 350.43 80.3032 347.077 80.9612 342.252C81.3372 339.463 81.6505 336.534 81.9012 333.463C82.1832 330.392 82.4182 327.243 82.6062 324.016C82.7942 320.789 82.9665 317.53 83.1232 314.24H122.321V355.13H127.491V376.28H115.459V365H84.5332V376.28H72.5012ZM88.8572 355.13H109.537V324.11H94.2152C94.1212 325.833 94.0115 327.557 93.8862 329.28C93.7922 331.003 93.6668 332.711 93.5102 334.403C93.3848 336.095 93.2595 337.74 93.1342 339.338C93.0088 340.905 92.8678 342.409 92.7112 343.85C92.4292 346.607 92.0375 348.848 91.5362 350.571C91.0348 352.294 90.1418 353.814 88.8572 355.13ZM155.929 366.41C150.822 366.41 146.341 365.266 142.487 362.979C138.633 360.692 135.625 357.543 133.463 353.532C131.332 349.49 130.267 344.853 130.267 339.62C130.267 334.325 131.364 329.672 133.557 325.661C135.75 321.619 138.774 318.47 142.628 316.214C146.482 313.958 150.916 312.83 155.929 312.83C161.036 312.83 165.517 313.974 169.371 316.261C173.256 318.548 176.28 321.713 178.442 325.755C180.604 329.766 181.685 334.387 181.685 339.62C181.685 344.884 180.588 349.537 178.395 353.579C176.233 357.59 173.209 360.739 169.324 363.026C165.47 365.282 161.005 366.41 155.929 366.41ZM155.929 354.472C160.034 354.472 163.089 353.093 165.094 350.336C167.131 347.547 168.149 343.975 168.149 339.62C168.149 335.108 167.115 331.505 165.047 328.81C163.01 326.115 159.971 324.768 155.929 324.768C153.14 324.768 150.853 325.395 149.067 326.648C147.281 327.901 145.949 329.64 145.072 331.865C144.226 334.09 143.803 336.675 143.803 339.62C143.803 344.163 144.821 347.782 146.858 350.477C148.926 353.14 151.95 354.472 155.929 354.472ZM188.167 365V314.24H211.949C213.829 314.24 215.474 314.35 216.884 314.569C218.294 314.757 219.469 314.992 220.409 315.274C222.727 315.963 224.842 317.311 226.754 319.316C228.665 321.321 229.621 324.235 229.621 328.058C229.621 330.314 229.26 332.147 228.54 333.557C227.819 334.936 226.863 336.079 225.673 336.988C225.109 337.395 224.545 337.74 223.981 338.022C223.417 338.304 222.853 338.523 222.289 338.68C223.605 338.868 224.795 339.213 225.861 339.714C227.553 340.466 229.025 341.657 230.279 343.286C231.532 344.884 232.159 347.265 232.159 350.43C232.159 353.814 231.328 356.697 229.668 359.078C228.038 361.459 225.579 363.12 222.289 364.06C221.161 364.373 219.829 364.608 218.294 364.765C216.79 364.922 215.207 365 213.547 365H188.167ZM201.139 355.318H212.607C213.265 355.318 213.938 355.255 214.628 355.13C215.348 354.973 215.991 354.785 216.555 354.566C217.463 354.19 218.106 353.548 218.482 352.639C218.889 351.73 219.093 350.806 219.093 349.866C219.093 348.55 218.795 347.516 218.2 346.764C217.636 346.012 216.993 345.479 216.273 345.166C215.677 344.884 215.019 344.727 214.299 344.696C213.609 344.633 213.045 344.602 212.607 344.602H201.139V355.318ZM201.139 334.732H208.941C209.943 334.732 210.883 334.685 211.761 334.591C212.669 334.466 213.421 334.262 214.017 333.98C214.831 333.604 215.442 333.009 215.85 332.194C216.257 331.348 216.461 330.408 216.461 329.374C216.461 328.277 216.226 327.29 215.756 326.413C215.317 325.504 214.581 324.893 213.547 324.58C212.857 324.329 211.98 324.188 210.915 324.157C209.881 324.126 209.223 324.11 208.941 324.11H201.139V334.732ZM261.429 366.41C256.227 366.41 251.637 365.298 247.658 363.073C243.71 360.817 240.608 357.731 238.352 353.814C236.127 349.866 235.015 345.354 235.015 340.278C235.015 334.732 236.111 329.907 238.305 325.802C240.498 321.697 243.522 318.517 247.376 316.261C251.23 313.974 255.663 312.83 260.677 312.83C266.003 312.83 270.531 314.083 274.26 316.59C277.988 319.097 280.746 322.622 282.532 327.165C284.318 331.708 284.944 337.051 284.412 343.192H271.769V338.492C271.769 333.322 270.938 329.609 269.278 327.353C267.648 325.066 264.969 323.922 261.241 323.922C256.885 323.922 253.674 325.254 251.606 327.917C249.569 330.549 248.551 334.45 248.551 339.62C248.551 344.351 249.569 348.017 251.606 350.618C253.674 353.187 256.697 354.472 260.677 354.472C263.183 354.472 265.33 353.924 267.116 352.827C268.902 351.73 270.265 350.148 271.205 348.08L283.989 351.746C282.077 356.383 279.054 359.987 274.918 362.556C270.813 365.125 266.317 366.41 261.429 366.41ZM244.603 343.192V333.698H278.255V343.192H244.603ZM316.174 366.41C311.129 366.41 306.915 365.235 303.531 362.885C300.147 360.535 297.593 357.339 295.87 353.297C294.178 349.255 293.332 344.696 293.332 339.62C293.332 334.544 294.178 329.985 295.87 325.943C297.562 321.901 300.053 318.705 303.343 316.355C306.633 314.005 310.691 312.83 315.516 312.83C320.373 312.83 324.603 313.989 328.206 316.308C331.809 318.627 334.598 321.807 336.572 325.849C338.577 329.86 339.58 334.45 339.58 339.62C339.58 344.696 338.593 349.255 336.619 353.297C334.676 357.339 331.95 360.535 328.441 362.885C324.932 365.235 320.843 366.41 316.174 366.41ZM291.17 387.56V314.24H302.45V349.02H304.048V387.56H291.17ZM314.106 355.036C316.863 355.036 319.119 354.347 320.874 352.968C322.629 351.589 323.929 349.741 324.775 347.422C325.621 345.072 326.044 342.471 326.044 339.62C326.044 336.8 325.605 334.231 324.728 331.912C323.851 329.562 322.488 327.698 320.639 326.319C318.822 324.909 316.487 324.204 313.636 324.204C310.973 324.204 308.811 324.846 307.15 326.131C305.521 327.416 304.33 329.217 303.578 331.536C302.826 333.855 302.45 336.549 302.45 339.62C302.45 342.691 302.826 345.385 303.578 347.704C304.33 350.023 305.552 351.824 307.244 353.109C308.967 354.394 311.255 355.036 314.106 355.036ZM391.376 314.24V365H379.156V333.98L356.22 365H346.068V314.24H358.288V344.226L381.318 314.24H391.376ZM424.379 366.41C419.178 366.41 414.588 365.298 410.608 363.073C406.66 360.817 403.558 357.731 401.302 353.814C399.078 349.866 397.965 345.354 397.965 340.278C397.965 334.732 399.062 329.907 401.255 325.802C403.449 321.697 406.472 318.517 410.326 316.261C414.18 313.974 418.614 312.83 423.627 312.83C428.954 312.83 433.482 314.083 437.21 316.59C440.939 319.097 443.696 322.622 445.482 327.165C447.268 331.708 447.895 337.051 447.362 343.192H434.719V338.492C434.719 333.322 433.889 329.609 432.228 327.353C430.599 325.066 427.92 323.922 424.191 323.922C419.836 323.922 416.624 325.254 414.556 327.917C412.52 330.549 411.501 334.45 411.501 339.62C411.501 344.351 412.52 348.017 414.556 350.618C416.624 353.187 419.648 354.472 423.627 354.472C426.134 354.472 428.28 353.924 430.066 352.827C431.852 351.73 433.215 350.148 434.155 348.08L446.939 351.746C445.028 356.383 442.004 359.987 437.868 362.556C433.764 365.125 429.267 366.41 424.379 366.41ZM407.553 343.192V333.698H441.205V343.192H407.553Z" fill="#DADADA"/>
<path d="M2.82 470.28V447.062C4.85667 447.062 6.58 446.561 7.99 445.558C9.43133 444.524 10.6063 443.083 11.515 441.234C12.4237 439.354 13.1443 437.161 13.677 434.654C14.2097 432.147 14.6013 429.421 14.852 426.476C15.1653 422.716 15.4473 419.019 15.698 415.384C15.9487 411.718 16.1993 407.927 16.45 404.01C16.7007 400.062 16.9827 395.801 17.296 391.226L62.228 391.32V447.062H67.398V470.28H54.614V459H15.604V470.28H2.82ZM21.902 447.062H49.444V403.258L28.952 403.164C28.7327 406.266 28.5447 409.117 28.388 411.718C28.2627 414.319 28.106 416.951 27.918 419.614C27.73 422.277 27.4793 425.254 27.166 428.544C26.8527 431.834 26.5393 434.544 26.226 436.675C25.9127 438.774 25.427 440.607 24.769 442.174C24.1423 443.741 23.1867 445.37 21.902 447.062ZM97.5566 460.41C92.3552 460.41 87.7649 459.298 83.7856 457.073C79.8376 454.817 76.7356 451.731 74.4796 447.814C72.2549 443.866 71.1426 439.354 71.1426 434.278C71.1426 428.732 72.2392 423.907 74.4326 419.802C76.6259 415.697 79.6496 412.517 83.5036 410.261C87.3576 407.974 91.7912 406.83 96.8046 406.83C102.131 406.83 106.659 408.083 110.388 410.59C114.116 413.097 116.874 416.622 118.66 421.165C120.446 425.708 121.072 431.051 120.54 437.192H107.897V432.492C107.897 427.322 107.066 423.609 105.406 421.353C103.776 419.066 101.097 417.922 97.3686 417.922C93.0132 417.922 89.8016 419.254 87.7336 421.917C85.6969 424.549 84.6786 428.45 84.6786 433.62C84.6786 438.351 85.6969 442.017 87.7336 444.618C89.8016 447.187 92.8252 448.472 96.8046 448.472C99.3112 448.472 101.458 447.924 103.244 446.827C105.03 445.73 106.393 444.148 107.333 442.08L120.117 445.746C118.205 450.383 115.182 453.987 111.046 456.556C106.941 459.125 102.445 460.41 97.5566 460.41ZM80.7306 437.192V427.698H114.383V437.192H80.7306ZM122.692 459V448.378C124.541 448.723 125.966 448.707 126.969 448.331C127.972 447.924 128.724 447.14 129.225 445.981C129.758 444.79 130.212 443.177 130.588 441.14C131.089 438.445 131.528 435.296 131.904 431.693C132.311 428.09 132.656 424.283 132.938 420.272C133.22 416.23 133.471 412.219 133.69 408.24H172.042V459H159.258V420.178H144.876C144.751 421.807 144.578 423.75 144.359 426.006C144.171 428.262 143.952 430.612 143.701 433.056C143.482 435.469 143.231 437.787 142.949 440.012C142.667 442.205 142.369 444.085 142.056 445.652C141.304 449.631 140.192 452.765 138.719 455.052C137.246 457.339 135.225 458.796 132.656 459.423C130.087 460.081 126.765 459.94 122.692 459ZM195.564 460.41C191.929 460.41 188.843 459.721 186.305 458.342C183.798 456.932 181.887 455.068 180.571 452.749C179.286 450.399 178.644 447.814 178.644 444.994C178.644 442.644 179.004 440.498 179.725 438.555C180.446 436.612 181.605 434.905 183.203 433.432C184.832 431.928 187.01 430.675 189.736 429.672C191.616 428.983 193.856 428.372 196.457 427.839C199.058 427.306 202.003 426.805 205.293 426.335C208.583 425.834 212.202 425.285 216.15 424.69L211.544 427.228C211.544 424.22 210.823 422.011 209.382 420.601C207.941 419.191 205.528 418.486 202.144 418.486C200.264 418.486 198.306 418.94 196.269 419.849C194.232 420.758 192.807 422.371 191.992 424.69L180.43 421.024C181.715 416.825 184.127 413.41 187.668 410.778C191.209 408.146 196.034 406.83 202.144 406.83C206.625 406.83 210.604 407.519 214.082 408.898C217.56 410.277 220.192 412.658 221.978 416.042C222.981 417.922 223.576 419.802 223.764 421.682C223.952 423.562 224.046 425.661 224.046 427.98V459H212.86V448.566L214.458 450.728C211.983 454.143 209.304 456.619 206.421 458.154C203.57 459.658 199.951 460.41 195.564 460.41ZM198.29 450.352C200.64 450.352 202.614 449.945 204.212 449.13C205.841 448.284 207.126 447.328 208.066 446.263C209.037 445.198 209.695 444.305 210.04 443.584C210.698 442.205 211.074 440.607 211.168 438.79C211.293 436.941 211.356 435.406 211.356 434.184L215.116 435.124C211.325 435.751 208.254 436.283 205.904 436.722C203.554 437.129 201.658 437.505 200.217 437.85C198.776 438.195 197.507 438.571 196.41 438.978C195.157 439.479 194.138 440.028 193.355 440.623C192.603 441.187 192.039 441.814 191.663 442.503C191.318 443.192 191.146 443.96 191.146 444.806C191.146 445.965 191.428 446.968 191.992 447.814C192.587 448.629 193.418 449.255 194.483 449.694C195.548 450.133 196.817 450.352 198.29 450.352ZM256.101 460.41C250.899 460.41 246.309 459.298 242.33 457.073C238.382 454.817 235.28 451.731 233.024 447.814C230.799 443.866 229.687 439.354 229.687 434.278C229.687 428.732 230.783 423.907 232.977 419.802C235.17 415.697 238.194 412.517 242.048 410.261C245.902 407.974 250.335 406.83 255.349 406.83C260.675 406.83 265.203 408.083 268.932 410.59C272.66 413.097 275.418 416.622 277.204 421.165C278.99 425.708 279.616 431.051 279.084 437.192H266.441V432.492C266.441 427.322 265.61 423.609 263.95 421.353C262.32 419.066 259.641 417.922 255.913 417.922C251.557 417.922 248.346 419.254 246.278 421.917C244.241 424.549 243.223 428.45 243.223 433.62C243.223 438.351 244.241 442.017 246.278 444.618C248.346 447.187 251.369 448.472 255.349 448.472C257.855 448.472 260.002 447.924 261.788 446.827C263.574 445.73 264.937 444.148 265.877 442.08L278.661 445.746C276.749 450.383 273.726 453.987 269.59 456.556C265.485 459.125 260.989 460.41 256.101 460.41ZM239.275 437.192V427.698H272.927V437.192H239.275ZM284.465 459V408.24H294.805L312.477 441.14L330.149 408.24H340.489V459H328.269V433.714L314.733 459H310.221L296.685 433.714V459H284.465ZM386.366 460.504C381.478 460.441 377.342 459.36 373.958 457.261C370.574 455.13 367.91 452.201 365.968 448.472C364.056 444.712 362.866 440.357 362.396 435.406C362.145 432.743 362.082 429.75 362.208 426.429C362.364 423.076 362.725 419.786 363.289 416.559C363.853 413.332 364.652 410.559 365.686 408.24C366.688 406.078 367.973 404.104 369.54 402.318C371.138 400.501 372.83 398.965 374.616 397.712C376.715 396.239 378.971 395.111 381.384 394.328C383.796 393.513 386.334 392.887 388.998 392.448C391.661 392.009 394.418 391.618 397.27 391.273C400.152 390.928 403.066 390.474 406.012 389.91L407.14 401.19C405.354 401.66 403.317 402.005 401.03 402.224C398.742 402.443 396.392 402.678 393.98 402.929C391.567 403.148 389.264 403.509 387.071 404.01C384.877 404.511 382.982 405.263 381.384 406.266C379.222 407.613 377.561 409.493 376.402 411.906C375.274 414.287 374.616 416.7 374.428 419.144C376.37 416.324 378.736 414.381 381.525 413.316C384.345 412.251 387.118 411.718 389.844 411.718C394.324 411.718 398.163 412.799 401.359 414.961C404.586 417.092 407.061 419.974 408.785 423.609C410.508 427.212 411.37 431.207 411.37 435.594C411.37 440.576 410.289 444.947 408.127 448.707C405.996 452.467 403.051 455.397 399.291 457.496C395.531 459.564 391.222 460.567 386.366 460.504ZM386.93 448.566C390.564 448.566 393.306 447.438 395.155 445.182C397.003 442.926 397.928 439.918 397.928 436.158C397.928 432.304 396.972 429.28 395.061 427.087C393.181 424.862 390.47 423.75 386.93 423.75C383.326 423.75 380.585 424.862 378.705 427.087C376.856 429.28 375.932 432.304 375.932 436.158C375.932 440.137 376.887 443.208 378.799 445.37C380.71 447.501 383.42 448.566 386.93 448.566ZM442.861 460.41C437.817 460.41 433.602 459.235 430.218 456.885C426.834 454.535 424.281 451.339 422.557 447.297C420.865 443.255 420.019 438.696 420.019 433.62C420.019 428.544 420.865 423.985 422.557 419.943C424.249 415.901 426.74 412.705 430.03 410.355C433.32 408.005 437.378 406.83 442.203 406.83C447.06 406.83 451.29 407.989 454.893 410.308C458.497 412.627 461.285 415.807 463.259 419.849C465.265 423.86 466.267 428.45 466.267 433.62C466.267 438.696 465.28 443.255 463.306 447.297C461.364 451.339 458.638 454.535 455.128 456.885C451.619 459.235 447.53 460.41 442.861 460.41ZM417.857 481.56V408.24H429.137V443.02H430.735V481.56H417.857ZM440.793 449.036C443.551 449.036 445.807 448.347 447.561 446.968C449.316 445.589 450.616 443.741 451.462 441.422C452.308 439.072 452.731 436.471 452.731 433.62C452.731 430.8 452.293 428.231 451.415 425.912C450.538 423.562 449.175 421.698 447.326 420.319C445.509 418.909 443.175 418.204 440.323 418.204C437.66 418.204 435.498 418.846 433.837 420.131C432.208 421.416 431.017 423.217 430.265 425.536C429.513 427.855 429.137 430.549 429.137 433.62C429.137 436.691 429.513 439.385 430.265 441.704C431.017 444.023 432.239 445.824 433.931 447.109C435.655 448.394 437.942 449.036 440.793 449.036ZM496.443 460.41C491.242 460.41 486.652 459.298 482.672 457.073C478.724 454.817 475.622 451.731 473.366 447.814C471.142 443.866 470.029 439.354 470.029 434.278C470.029 428.732 471.126 423.907 473.319 419.802C475.513 415.697 478.536 412.517 482.39 410.261C486.244 407.974 490.678 406.83 495.691 406.83C501.018 406.83 505.546 408.083 509.274 410.59C513.003 413.097 515.76 416.622 517.546 421.165C519.332 425.708 519.959 431.051 519.426 437.192H506.783V432.492C506.783 427.322 505.953 423.609 504.292 421.353C502.663 419.066 499.984 417.922 496.255 417.922C491.9 417.922 488.688 419.254 486.62 421.917C484.584 424.549 483.565 428.45 483.565 433.62C483.565 438.351 484.584 442.017 486.62 444.618C488.688 447.187 491.712 448.472 495.691 448.472C498.198 448.472 500.344 447.924 502.13 446.827C503.916 445.73 505.279 444.148 506.219 442.08L519.003 445.746C517.092 450.383 514.068 453.987 509.932 456.556C505.828 459.125 501.331 460.41 496.443 460.41ZM479.617 437.192V427.698H513.269V437.192H479.617ZM526.185 459V408.24H538.969V427.604H559.837V408.24H572.621V459H559.837V439.542H538.969V459H526.185ZM578.243 470.28V449.13C580.938 449.13 582.849 448.19 583.977 446.31C585.137 444.43 586.045 441.077 586.703 436.252C587.079 433.463 587.393 430.534 587.643 427.463C587.925 424.392 588.16 421.243 588.348 418.016C588.536 414.789 588.709 411.53 588.865 408.24H628.063V449.13H633.233V470.28H621.201V459H590.275V470.28H578.243ZM594.599 449.13H615.279V418.11H599.957C599.863 419.833 599.754 421.557 599.628 423.28C599.534 425.003 599.409 426.711 599.252 428.403C599.127 430.095 599.002 431.74 598.876 433.338C598.751 434.905 598.61 436.409 598.453 437.85C598.171 440.607 597.78 442.848 597.278 444.571C596.777 446.294 595.884 447.814 594.599 449.13ZM637.889 434.278V424.408H666.089V434.278H637.889ZM674.448 459L674.542 408.24H687.514V432.68L704.716 408.24H720.508L702.178 433.62L721.73 459H705.092L687.514 434.56V459H674.448ZM744.571 460.41C739.464 460.41 734.983 459.266 731.129 456.979C727.275 454.692 724.267 451.543 722.105 447.532C719.974 443.49 718.909 438.853 718.909 433.62C718.909 428.325 720.006 423.672 722.199 419.661C724.392 415.619 727.416 412.47 731.27 410.214C735.124 407.958 739.558 406.83 744.571 406.83C749.678 406.83 754.159 407.974 758.013 410.261C761.898 412.548 764.922 415.713 767.084 419.755C769.246 423.766 770.327 428.387 770.327 433.62C770.327 438.884 769.23 443.537 767.037 447.579C764.875 451.59 761.851 454.739 757.966 457.026C754.112 459.282 749.647 460.41 744.571 460.41ZM744.571 448.472C748.676 448.472 751.731 447.093 753.736 444.336C755.773 441.547 756.791 437.975 756.791 433.62C756.791 429.108 755.757 425.505 753.689 422.81C751.652 420.115 748.613 418.768 744.571 418.768C741.782 418.768 739.495 419.395 737.709 420.648C735.923 421.901 734.591 423.64 733.714 425.865C732.868 428.09 732.445 430.675 732.445 433.62C732.445 438.163 733.463 441.782 735.5 444.477C737.568 447.14 740.592 448.472 744.571 448.472ZM776.809 459V408.24H787.149L804.821 441.14L822.493 408.24H832.833V459H820.613V433.714L807.077 459H802.565L789.029 433.714V459H776.809ZM842.172 459V408.24H852.512L870.184 441.14L887.856 408.24H898.196V459H885.976V433.714L872.44 459H867.928L854.392 433.714V459H842.172ZM914.115 481.56L923.891 454.676L924.079 462.572L901.989 408.24H915.243L930.095 446.686H927.087L941.845 408.24H954.629L925.959 481.56H914.115ZM957.384 459V408.24H970.168V427.604H991.036V408.24H1003.82V459H991.036V439.542H970.168V459H957.384ZM1058.42 408.24V459H1046.2V427.98L1023.26 459H1013.11V408.24H1025.33V438.226L1048.36 408.24H1058.42ZM1067.73 459L1067.83 408.24H1080.8V432.68L1098 408.24H1113.79L1095.46 433.62L1115.01 459H1098.38L1080.8 434.56V459H1067.73ZM1130.03 460.41C1126.4 460.41 1123.31 459.721 1120.77 458.342C1118.26 456.932 1116.35 455.068 1115.04 452.749C1113.75 450.399 1113.11 447.814 1113.11 444.994C1113.11 442.644 1113.47 440.498 1114.19 438.555C1114.91 436.612 1116.07 434.905 1117.67 433.432C1119.3 431.928 1121.48 430.675 1124.2 429.672C1126.08 428.983 1128.32 428.372 1130.92 427.839C1133.52 427.306 1136.47 426.805 1139.76 426.335C1143.05 425.834 1146.67 425.285 1150.62 424.69L1146.01 427.228C1146.01 424.22 1145.29 422.011 1143.85 420.601C1142.41 419.191 1139.99 418.486 1136.61 418.486C1134.73 418.486 1132.77 418.94 1130.74 419.849C1128.7 420.758 1127.27 422.371 1126.46 424.69L1114.9 421.024C1116.18 416.825 1118.59 413.41 1122.13 410.778C1125.68 408.146 1130.5 406.83 1136.61 406.83C1141.09 406.83 1145.07 407.519 1148.55 408.898C1152.03 410.277 1154.66 412.658 1156.44 416.042C1157.45 417.922 1158.04 419.802 1158.23 421.682C1158.42 423.562 1158.51 425.661 1158.51 427.98V459H1147.33V448.566L1148.92 450.728C1146.45 454.143 1143.77 456.619 1140.89 458.154C1138.04 459.658 1134.42 460.41 1130.03 460.41ZM1132.76 450.352C1135.11 450.352 1137.08 449.945 1138.68 449.13C1140.31 448.284 1141.59 447.328 1142.53 446.263C1143.5 445.198 1144.16 444.305 1144.51 443.584C1145.16 442.205 1145.54 440.607 1145.63 438.79C1145.76 436.941 1145.82 435.406 1145.82 434.184L1149.58 435.124C1145.79 435.751 1142.72 436.283 1140.37 436.722C1138.02 437.129 1136.12 437.505 1134.68 437.85C1133.24 438.195 1131.97 438.571 1130.88 438.978C1129.62 439.479 1128.6 440.028 1127.82 440.623C1127.07 441.187 1126.51 441.814 1126.13 442.503C1125.78 443.192 1125.61 443.96 1125.61 444.806C1125.61 445.965 1125.89 446.968 1126.46 447.814C1127.05 448.629 1127.88 449.255 1128.95 449.694C1130.01 450.133 1131.28 450.352 1132.76 450.352ZM1209.09 470.28V459H1166.88V408.24H1179.66V447.062H1199.4V408.24H1212.19V447.72H1221.87V470.28H1209.09ZM1270.85 408.24V459H1258.63V427.98L1235.69 459H1225.54V408.24H1237.76V438.226L1260.79 408.24H1270.85ZM1325.47 408.24V459H1313.25V427.98L1290.32 459H1280.16V408.24H1292.38V438.226L1315.41 408.24H1325.47Z" fill="#DADADA"/>
<path d="M25.944 554.41C20.0847 554.41 15.1497 552.953 11.139 550.039C7.12833 547.125 4.38667 542.973 2.914 537.584L15.98 534.858C16.732 537.302 17.86 539.182 19.364 540.498C20.8993 541.814 23.0927 542.472 25.944 542.472C29.046 542.472 31.537 541.579 33.417 539.793C35.297 537.976 36.5347 535.547 37.13 532.508H22.184V522.638H37.13C36.566 519.849 35.391 517.515 33.605 515.635C31.819 513.724 29.3907 512.768 26.32 512.768C23.782 512.768 21.573 513.489 19.693 514.93C17.8443 516.34 16.5127 518.408 15.698 521.134L2.914 517.75C4.042 512.517 6.64267 508.397 10.716 505.389C14.7893 502.35 19.8027 500.83 25.756 500.83C30.926 500.83 35.4067 501.989 39.198 504.308C43.0207 506.627 45.966 509.823 48.034 513.896C50.102 517.938 51.136 522.544 51.136 527.714C51.136 532.759 50.1333 537.302 48.128 541.344C46.1227 545.355 43.24 548.535 39.48 550.885C35.72 553.235 31.208 554.41 25.944 554.41ZM81.4025 574.15V553.846C76.4519 554.629 71.9712 554.112 67.9605 552.295C63.9499 550.446 60.7695 547.438 58.4195 543.271C56.0695 539.104 54.8945 533.887 54.8945 527.62C54.8945 521.353 56.0695 516.136 58.4195 511.969C60.7695 507.77 63.9499 504.762 67.9605 502.945C71.9712 501.128 76.4519 500.611 81.4025 501.394V486.26H92.6825V501.394C97.6332 500.611 102.114 501.128 106.125 502.945C110.135 504.762 113.316 507.77 115.666 511.969C118.016 516.136 119.191 521.353 119.191 527.62C119.191 533.887 118.016 539.104 115.666 543.271C113.316 547.438 110.135 550.446 106.125 552.295C102.114 554.112 97.6332 554.629 92.6825 553.846V574.15H81.4025ZM81.4025 542.472V512.862C78.8645 512.423 76.7182 512.502 74.9635 513.097C73.2402 513.661 71.8615 514.632 70.8275 516.011C69.7935 517.358 69.0415 519.035 68.5715 521.04C68.1015 523.014 67.8665 525.207 67.8665 527.62C67.8665 530.033 68.1172 532.242 68.6185 534.247C69.1199 536.221 69.9032 537.897 70.9685 539.276C72.0652 540.655 73.4752 541.642 75.1985 542.237C76.9219 542.801 78.9899 542.879 81.4025 542.472ZM92.6825 542.472C95.0952 542.879 97.1632 542.801 98.8865 542.237C100.61 541.673 102.004 540.717 103.07 539.37C104.166 538.023 104.965 536.346 105.467 534.341C105.968 532.336 106.219 530.095 106.219 527.62C106.219 525.113 105.984 522.873 105.514 520.899C105.044 518.894 104.292 517.217 103.258 515.87C102.224 514.523 100.829 513.583 99.0745 513.05C97.3512 512.486 95.2205 512.423 92.6825 512.862V542.472ZM149.428 574.15V553.846C144.477 554.629 139.996 554.112 135.986 552.295C131.975 550.446 128.795 547.438 126.445 543.271C124.095 539.104 122.92 533.887 122.92 527.62C122.92 521.353 124.095 516.136 126.445 511.969C128.795 507.77 131.975 504.762 135.986 502.945C139.996 501.128 144.477 500.611 149.428 501.394V486.26H160.708V501.394C165.658 500.611 170.139 501.128 174.15 502.945C178.16 504.762 181.341 507.77 183.691 511.969C186.041 516.136 187.216 521.353 187.216 527.62C187.216 533.887 186.041 539.104 183.691 543.271C181.341 547.438 178.16 550.446 174.15 552.295C170.139 554.112 165.658 554.629 160.708 553.846V574.15H149.428ZM149.428 542.472V512.862C146.89 512.423 144.743 512.502 142.989 513.097C141.265 513.661 139.887 514.632 138.853 516.011C137.819 517.358 137.067 519.035 136.597 521.04C136.127 523.014 135.892 525.207 135.892 527.62C135.892 530.033 136.142 532.242 136.644 534.247C137.145 536.221 137.928 537.897 138.994 539.276C140.09 540.655 141.5 541.642 143.224 542.237C144.947 542.801 147.015 542.879 149.428 542.472ZM160.708 542.472C163.12 542.879 165.188 542.801 166.912 542.237C168.635 541.673 170.029 540.717 171.095 539.37C172.191 538.023 172.99 536.346 173.492 534.341C173.993 532.336 174.244 530.095 174.244 527.62C174.244 525.113 174.009 522.873 173.539 520.899C173.069 518.894 172.317 517.217 171.283 515.87C170.249 514.523 168.854 513.583 167.1 513.05C165.376 512.486 163.246 512.423 160.708 512.862V542.472ZM217.359 554.41C212.158 554.41 207.567 553.298 203.588 551.073C199.64 548.817 196.538 545.731 194.282 541.814C192.057 537.866 190.945 533.354 190.945 528.278C190.945 522.732 192.042 517.907 194.235 513.802C196.428 509.697 199.452 506.517 203.306 504.261C207.16 501.974 211.594 500.83 216.607 500.83C221.934 500.83 226.461 502.083 230.19 504.59C233.919 507.097 236.676 510.622 238.462 515.165C240.248 519.708 240.875 525.051 240.342 531.192H227.699V526.492C227.699 521.322 226.869 517.609 225.208 515.353C223.579 513.066 220.9 511.922 217.171 511.922C212.816 511.922 209.604 513.254 207.536 515.917C205.499 518.549 204.481 522.45 204.481 527.62C204.481 532.351 205.499 536.017 207.536 538.618C209.604 541.187 212.628 542.472 216.607 542.472C219.114 542.472 221.26 541.924 223.046 540.827C224.832 539.73 226.195 538.148 227.135 536.08L239.919 539.746C238.008 544.383 234.984 547.987 230.848 550.556C226.743 553.125 222.247 554.41 217.359 554.41ZM200.533 531.192V521.698H234.185V531.192H200.533ZM247.1 553L247.194 502.24H260.166V526.68L277.368 502.24H293.16L274.83 527.62L294.382 553H277.744L260.166 528.56V553H247.1ZM307.708 553V513.52H291.07V502.24H337.13V513.52H320.492V553H307.708ZM387.517 502.24V553H375.297V521.98L352.361 553H342.209V502.24H354.429V532.226L377.459 502.24H387.517ZM396.832 553V502.24H420.614C422.494 502.24 424.139 502.35 425.549 502.569C426.959 502.757 428.134 502.992 429.074 503.274C431.393 503.963 433.508 505.311 435.419 507.316C437.33 509.321 438.286 512.235 438.286 516.058C438.286 518.314 437.926 520.147 437.205 521.557C436.484 522.936 435.529 524.079 434.338 524.988C433.774 525.395 433.21 525.74 432.646 526.022C432.082 526.304 431.518 526.523 430.954 526.68C432.27 526.868 433.461 527.213 434.526 527.714C436.218 528.466 437.691 529.657 438.944 531.286C440.197 532.884 440.824 535.265 440.824 538.43C440.824 541.814 439.994 544.697 438.333 547.078C436.704 549.459 434.244 551.12 430.954 552.06C429.826 552.373 428.494 552.608 426.959 552.765C425.455 552.922 423.873 553 422.212 553H396.832ZM409.804 543.318H421.272C421.93 543.318 422.604 543.255 423.293 543.13C424.014 542.973 424.656 542.785 425.22 542.566C426.129 542.19 426.771 541.548 427.147 540.639C427.554 539.73 427.758 538.806 427.758 537.866C427.758 536.55 427.46 535.516 426.865 534.764C426.301 534.012 425.659 533.479 424.938 533.166C424.343 532.884 423.685 532.727 422.964 532.696C422.275 532.633 421.711 532.602 421.272 532.602H409.804V543.318ZM409.804 522.732H417.606C418.609 522.732 419.549 522.685 420.426 522.591C421.335 522.466 422.087 522.262 422.682 521.98C423.497 521.604 424.108 521.009 424.515 520.194C424.922 519.348 425.126 518.408 425.126 517.374C425.126 516.277 424.891 515.29 424.421 514.413C423.982 513.504 423.246 512.893 422.212 512.58C421.523 512.329 420.645 512.188 419.58 512.157C418.546 512.126 417.888 512.11 417.606 512.11H409.804V522.732ZM446.406 553V502.24H459.19V521.604H480.058V502.24H492.842V553H480.058V533.542H459.19V553H446.406ZM502.13 553V502.24H514.914V518.408H519.52C520.93 518.408 522.575 518.439 524.455 518.502C526.335 518.565 527.886 518.721 529.108 518.972C532.085 519.63 534.592 520.68 536.628 522.121C538.665 523.562 540.2 525.427 541.234 527.714C542.3 529.97 542.832 532.665 542.832 535.798C542.832 540.31 541.657 543.945 539.307 546.702C536.989 549.428 533.62 551.308 529.202 552.342C527.98 552.624 526.414 552.812 524.502 552.906C522.591 552.969 520.93 553 519.52 553H502.13ZM514.914 543.13H520.93C521.494 543.13 522.121 543.099 522.81 543.036C523.5 542.973 524.189 542.848 524.878 542.66C526.194 542.284 527.354 541.454 528.356 540.169C529.359 538.884 529.86 537.427 529.86 535.798C529.86 534.012 529.343 532.492 528.309 531.239C527.275 529.954 526.069 529.124 524.69 528.748C524.032 528.56 523.374 528.435 522.716 528.372C522.058 528.309 521.463 528.278 520.93 528.278H514.914V543.13ZM547.908 553V502.24H560.692V553H547.908ZM569.972 553V502.24H580.312L597.984 535.14L615.656 502.24H625.996V553H613.776V527.714L600.24 553H595.728L582.192 527.714V553H569.972ZM680.643 502.24V553H668.423V521.98L645.487 553H635.335V502.24H647.555V532.226L670.585 502.24H680.643Z" fill="#DADADA"/>
<path d="M948.074 83V32.24H960.858V51.604H981.726V32.24H994.51V83H981.726V63.542H960.858V83H948.074ZM1017.99 84.41C1014.36 84.41 1011.27 83.7207 1008.73 82.342C1006.23 80.932 1004.32 79.0677 1003 76.749C1001.71 74.399 1001.07 71.814 1001.07 68.994C1001.07 66.644 1001.43 64.4977 1002.15 62.555C1002.87 60.6123 1004.03 58.9047 1005.63 57.432C1007.26 55.928 1009.44 54.6747 1012.16 53.672C1014.04 52.9827 1016.28 52.3717 1018.89 51.839C1021.49 51.3063 1024.43 50.805 1027.72 50.335C1031.01 49.8337 1034.63 49.2853 1038.58 48.69L1033.97 51.228C1033.97 48.22 1033.25 46.011 1031.81 44.601C1030.37 43.191 1027.96 42.486 1024.57 42.486C1022.69 42.486 1020.73 42.9403 1018.7 43.849C1016.66 44.7577 1015.23 46.3713 1014.42 48.69L1002.86 45.024C1004.14 40.8253 1006.56 37.41 1010.1 34.778C1013.64 32.146 1018.46 30.83 1024.57 30.83C1029.05 30.83 1033.03 31.5193 1036.51 32.898C1039.99 34.2767 1042.62 36.658 1044.41 40.042C1045.41 41.922 1046 43.802 1046.19 45.682C1046.38 47.562 1046.47 49.6613 1046.47 51.98V83H1035.29V72.566L1036.89 74.728C1034.41 78.1433 1031.73 80.6187 1028.85 82.154C1026 83.658 1022.38 84.41 1017.99 84.41ZM1020.72 74.352C1023.07 74.352 1025.04 73.9447 1026.64 73.13C1028.27 72.284 1029.55 71.3283 1030.49 70.263C1031.47 69.1977 1032.12 68.3047 1032.47 67.584C1033.13 66.2053 1033.5 64.6073 1033.6 62.79C1033.72 60.9413 1033.78 59.406 1033.78 58.184L1037.54 59.124C1033.75 59.7507 1030.68 60.2833 1028.33 60.722C1025.98 61.1293 1024.09 61.5053 1022.65 61.85C1021.2 62.1947 1019.93 62.5707 1018.84 62.978C1017.58 63.4793 1016.57 64.0277 1015.78 64.623C1015.03 65.187 1014.47 65.8137 1014.09 66.503C1013.75 67.1923 1013.57 67.96 1013.57 68.806C1013.57 69.9653 1013.86 70.968 1014.42 71.814C1015.02 72.6287 1015.85 73.2553 1016.91 73.694C1017.98 74.1327 1019.25 74.352 1020.72 74.352ZM1092.37 84.41C1087.1 84.41 1082.59 83.235 1078.83 80.885C1075.07 78.535 1072.19 75.339 1070.18 71.297C1068.18 67.255 1067.17 62.696 1067.17 57.62C1067.17 52.4813 1068.21 47.891 1070.28 43.849C1072.37 39.807 1075.32 36.6267 1079.11 34.308C1082.9 31.9893 1087.38 30.83 1092.55 30.83C1098.54 30.83 1103.55 32.3497 1107.59 35.389C1111.67 38.397 1114.27 42.5173 1115.4 47.75L1102.61 51.134C1101.86 48.502 1100.54 46.4497 1098.66 44.977C1096.81 43.5043 1094.72 42.768 1092.37 42.768C1089.67 42.768 1087.46 43.426 1085.74 44.742C1084.01 46.0267 1082.75 47.797 1081.93 50.053C1081.12 52.2777 1080.71 54.8 1080.71 57.62C1080.71 62.038 1081.68 65.6257 1083.62 68.383C1085.6 71.109 1088.51 72.472 1092.37 72.472C1095.25 72.472 1097.44 71.814 1098.95 70.498C1100.45 69.182 1101.58 67.302 1102.33 64.858L1115.4 67.584C1113.95 72.9733 1111.23 77.125 1107.22 80.039C1103.21 82.953 1098.26 84.41 1092.37 84.41ZM1133.44 83V43.52H1116.81V32.24H1162.87V43.52H1146.23V83H1133.44ZM1167.95 83V32.24H1180.73V48.408H1185.34C1186.75 48.408 1188.39 48.4393 1190.27 48.502C1192.15 48.5647 1193.7 48.7213 1194.92 48.972C1197.9 49.63 1200.41 50.6797 1202.44 52.121C1204.48 53.5623 1206.02 55.4267 1207.05 57.714C1208.12 59.97 1208.65 62.6647 1208.65 65.798C1208.65 70.31 1207.47 73.9447 1205.12 76.702C1202.8 79.428 1199.44 81.308 1195.02 82.342C1193.8 82.624 1192.23 82.812 1190.32 82.906C1188.41 82.9687 1186.75 83 1185.34 83H1167.95ZM1180.73 73.13H1186.75C1187.31 73.13 1187.94 73.0987 1188.63 73.036C1189.32 72.9733 1190 72.848 1190.69 72.66C1192.01 72.284 1193.17 71.4537 1194.17 70.169C1195.17 68.8843 1195.68 67.4273 1195.68 65.798C1195.68 64.012 1195.16 62.4923 1194.12 61.239C1193.09 59.9543 1191.88 59.124 1190.51 58.748C1189.85 58.56 1189.19 58.4347 1188.53 58.372C1187.87 58.3093 1187.28 58.278 1186.75 58.278H1180.73V73.13ZM1213.72 83V32.24H1226.51V83H1213.72ZM1235.79 83L1235.88 32.24H1248.85V56.68L1266.06 32.24H1281.85L1263.52 57.62L1283.07 83H1266.43L1248.85 58.56V83H1235.79ZM1305.74 84.41C1300.54 84.41 1295.95 83.2977 1291.97 81.073C1288.03 78.817 1284.92 75.7307 1282.67 71.814C1280.44 67.866 1279.33 63.354 1279.33 58.278C1279.33 52.732 1280.43 47.9067 1282.62 43.802C1284.81 39.6973 1287.84 36.517 1291.69 34.261C1295.55 31.9737 1299.98 30.83 1304.99 30.83C1310.32 30.83 1314.85 32.0833 1318.58 34.59C1322.3 37.0967 1325.06 40.6217 1326.85 45.165C1328.63 49.7083 1329.26 55.0507 1328.73 61.192H1316.08V56.492C1316.08 51.322 1315.25 47.609 1313.59 45.353C1311.96 43.0657 1309.29 41.922 1305.56 41.922C1301.2 41.922 1297.99 43.2537 1295.92 45.917C1293.88 48.549 1292.87 52.45 1292.87 57.62C1292.87 62.3513 1293.88 66.0173 1295.92 68.618C1297.99 71.1873 1301.01 72.472 1304.99 72.472C1307.5 72.472 1309.65 71.9237 1311.43 70.827C1313.22 69.7303 1314.58 68.148 1315.52 66.08L1328.3 69.746C1326.39 74.3833 1323.37 77.9867 1319.23 80.556C1315.13 83.1253 1310.63 84.41 1305.74 84.41ZM1288.92 61.192V51.698H1322.57V61.192H1288.92Z" fill="#DADADA"/>
<path d="M1013.66 126.24V177H1001.44V145.98L978.506 177H968.354V126.24H980.574V156.226L1003.6 126.24H1013.66ZM1058.71 178.41C1054.05 178.41 1049.96 177.235 1046.45 174.885C1042.94 172.535 1040.2 169.339 1038.22 165.297C1036.28 161.255 1035.31 156.696 1035.31 151.62C1035.31 146.45 1036.3 141.86 1038.27 137.849C1040.28 133.807 1043.08 130.627 1046.68 128.308C1050.29 125.989 1054.52 124.83 1059.37 124.83C1064.2 124.83 1068.26 126.005 1071.55 128.355C1074.84 130.705 1077.33 133.901 1079.02 137.943C1080.71 141.985 1081.56 146.544 1081.56 151.62C1081.56 156.696 1080.7 161.255 1078.97 165.297C1077.28 169.339 1074.74 172.535 1071.36 174.885C1067.97 177.235 1063.76 178.41 1058.71 178.41ZM1060.78 167.036C1063.63 167.036 1065.91 166.394 1067.6 165.109C1069.32 163.824 1070.56 162.023 1071.31 159.704C1072.06 157.385 1072.44 154.691 1072.44 151.62C1072.44 148.549 1072.06 145.855 1071.31 143.536C1070.56 141.217 1069.35 139.416 1067.69 138.131C1066.06 136.846 1063.92 136.204 1061.25 136.204C1058.4 136.204 1056.05 136.909 1054.2 138.319C1052.39 139.698 1051.04 141.562 1050.16 143.912C1049.28 146.231 1048.84 148.8 1048.84 151.62C1048.84 154.471 1049.27 157.072 1050.11 159.422C1050.96 161.741 1052.26 163.589 1054.01 164.968C1055.77 166.347 1058.03 167.036 1060.78 167.036ZM1072.44 177V142.22H1070.84V109.32H1083.72V177H1072.44ZM1094.06 119.19V107.91H1106.84V119.19H1094.06ZM1094.06 177V126.24H1106.84V177H1094.06ZM1138.89 200.97C1136 200.97 1133.26 200.5 1130.66 199.56C1128.06 198.651 1125.73 197.367 1123.66 195.706C1121.62 194.077 1119.96 192.165 1118.68 189.972L1130.52 184.238C1131.34 185.742 1132.5 186.886 1134 187.669C1135.53 188.452 1137.2 188.844 1138.98 188.844C1140.89 188.844 1142.69 188.515 1144.39 187.857C1146.08 187.23 1147.43 186.275 1148.43 184.99C1149.46 183.737 1149.95 182.17 1149.89 180.29V165.532H1151.48V126.24H1162.67V180.478C1162.67 181.731 1162.61 182.906 1162.48 184.003C1162.39 185.131 1162.2 186.243 1161.92 187.34C1161.1 190.442 1159.58 192.996 1157.36 195.001C1155.16 197.006 1152.47 198.495 1149.27 199.466C1146.08 200.469 1142.62 200.97 1138.89 200.97ZM1137.76 178.41C1133.09 178.41 1129 177.235 1125.49 174.885C1121.98 172.535 1119.24 169.339 1117.27 165.297C1115.32 161.255 1114.35 156.696 1114.35 151.62C1114.35 146.45 1115.34 141.86 1117.31 137.849C1119.32 133.807 1122.12 130.627 1125.73 128.308C1129.33 125.989 1133.56 124.83 1138.42 124.83C1143.24 124.83 1147.3 126.005 1150.59 128.355C1153.88 130.705 1156.37 133.901 1158.06 137.943C1159.76 141.985 1160.6 146.544 1160.6 151.62C1160.6 156.696 1159.74 161.255 1158.02 165.297C1156.32 169.339 1153.79 172.535 1150.4 174.885C1147.02 177.235 1142.8 178.41 1137.76 178.41ZM1139.83 167.036C1142.68 167.036 1144.95 166.394 1146.64 165.109C1148.37 163.824 1149.6 162.023 1150.36 159.704C1151.11 157.385 1151.48 154.691 1151.48 151.62C1151.48 148.549 1151.11 145.855 1150.36 143.536C1149.6 141.217 1148.4 139.416 1146.74 138.131C1145.11 136.846 1142.96 136.204 1140.3 136.204C1137.45 136.204 1135.1 136.909 1133.25 138.319C1131.43 139.698 1130.08 141.562 1129.21 143.912C1128.33 146.231 1127.89 148.8 1127.89 151.62C1127.89 154.471 1128.31 157.072 1129.16 159.422C1130 161.741 1131.3 163.589 1133.06 164.968C1134.81 166.347 1137.07 167.036 1139.83 167.036ZM1173.01 119.19V107.91H1185.8V119.19H1173.01ZM1173.01 177V126.24H1185.8V177H1173.01ZM1226.58 177C1223.07 177.658 1219.63 177.94 1216.24 177.846C1212.89 177.783 1209.88 177.204 1207.22 176.107C1204.59 174.979 1202.58 173.177 1201.2 170.702C1199.95 168.383 1199.29 166.033 1199.23 163.652C1199.17 161.239 1199.13 158.513 1199.13 155.474V112.14H1211.92V154.722C1211.92 156.696 1211.93 158.482 1211.96 160.08C1212.03 161.647 1212.36 162.9 1212.95 163.84C1214.08 165.626 1215.88 166.597 1218.36 166.754C1220.83 166.911 1223.57 166.785 1226.58 166.378V177ZM1190.49 136.11V126.24H1226.58V136.11H1190.49ZM1248.23 178.41C1244.6 178.41 1241.51 177.721 1238.97 176.342C1236.47 174.932 1234.56 173.068 1233.24 170.749C1231.96 168.399 1231.31 165.814 1231.31 162.994C1231.31 160.644 1231.67 158.498 1232.39 156.555C1233.12 154.612 1234.27 152.905 1235.87 151.432C1237.5 149.928 1239.68 148.675 1242.41 147.672C1244.29 146.983 1246.53 146.372 1249.13 145.839C1251.73 145.306 1254.67 144.805 1257.96 144.335C1261.25 143.834 1264.87 143.285 1268.82 142.69L1264.21 145.228C1264.21 142.22 1263.49 140.011 1262.05 138.601C1260.61 137.191 1258.2 136.486 1254.81 136.486C1252.93 136.486 1250.98 136.94 1248.94 137.849C1246.9 138.758 1245.48 140.371 1244.66 142.69L1233.1 139.024C1234.38 134.825 1236.8 131.41 1240.34 128.778C1243.88 126.146 1248.7 124.83 1254.81 124.83C1259.29 124.83 1263.27 125.519 1266.75 126.898C1270.23 128.277 1272.86 130.658 1274.65 134.042C1275.65 135.922 1276.25 137.802 1276.43 139.682C1276.62 141.562 1276.72 143.661 1276.72 145.98V177H1265.53V166.566L1267.13 168.728C1264.65 172.143 1261.97 174.619 1259.09 176.154C1256.24 177.658 1252.62 178.41 1248.23 178.41ZM1250.96 168.352C1253.31 168.352 1255.28 167.945 1256.88 167.13C1258.51 166.284 1259.8 165.328 1260.74 164.263C1261.71 163.198 1262.36 162.305 1262.71 161.584C1263.37 160.205 1263.74 158.607 1263.84 156.79C1263.96 154.941 1264.03 153.406 1264.03 152.184L1267.79 153.124C1263.99 153.751 1260.92 154.283 1258.57 154.722C1256.22 155.129 1254.33 155.505 1252.89 155.85C1251.45 156.195 1250.18 156.571 1249.08 156.978C1247.83 157.479 1246.81 158.028 1246.02 158.623C1245.27 159.187 1244.71 159.814 1244.33 160.503C1243.99 161.192 1243.82 161.96 1243.82 162.806C1243.82 163.965 1244.1 164.968 1244.66 165.814C1245.26 166.629 1246.09 167.255 1247.15 167.694C1248.22 168.133 1249.49 168.352 1250.96 168.352ZM1286.12 177V107.91H1298.9V177H1286.12ZM1311.3 177V164.216H1324.08V177H1311.3Z" fill="#DADADA"/>
<path d="M891.622 271V220.24H915.404C917.284 220.24 918.929 220.35 920.339 220.569C921.749 220.757 922.924 220.992 923.864 221.274C926.183 221.963 928.298 223.311 930.209 225.316C932.121 227.321 933.076 230.235 933.076 234.058C933.076 236.314 932.716 238.147 931.995 239.557C931.275 240.936 930.319 242.079 929.128 242.988C928.564 243.395 928 243.74 927.436 244.022C926.872 244.304 926.308 244.523 925.744 244.68C927.06 244.868 928.251 245.213 929.316 245.714C931.008 246.466 932.481 247.657 933.734 249.286C934.988 250.884 935.614 253.265 935.614 256.43C935.614 259.814 934.784 262.697 933.123 265.078C931.494 267.459 929.034 269.12 925.744 270.06C924.616 270.373 923.285 270.608 921.749 270.765C920.245 270.922 918.663 271 917.002 271H891.622ZM904.594 261.318H916.062C916.72 261.318 917.394 261.255 918.083 261.13C918.804 260.973 919.446 260.785 920.01 260.566C920.919 260.19 921.561 259.548 921.937 258.639C922.345 257.73 922.548 256.806 922.548 255.866C922.548 254.55 922.251 253.516 921.655 252.764C921.091 252.012 920.449 251.479 919.728 251.166C919.133 250.884 918.475 250.727 917.754 250.696C917.065 250.633 916.501 250.602 916.062 250.602H904.594V261.318ZM904.594 240.732H912.396C913.399 240.732 914.339 240.685 915.216 240.591C916.125 240.466 916.877 240.262 917.472 239.98C918.287 239.604 918.898 239.009 919.305 238.194C919.713 237.348 919.916 236.408 919.916 235.374C919.916 234.277 919.681 233.29 919.211 232.413C918.773 231.504 918.036 230.893 917.002 230.58C916.313 230.329 915.436 230.188 914.37 230.157C913.336 230.126 912.678 230.11 912.396 230.11H904.594V240.732ZM941.196 271V220.24H953.98V239.604H974.848V220.24H987.632V271H974.848V251.542H953.98V271H941.196ZM1042.23 220.24V271H1030.01V239.98L1007.07 271H996.921V220.24H1009.14V250.226L1032.17 220.24H1042.23ZM1051.54 271V220.24H1061.88L1079.56 253.14L1097.23 220.24H1107.57V271H1095.35V245.714L1081.81 271H1077.3L1063.76 245.714V271H1051.54ZM1131.1 272.41C1127.47 272.41 1124.38 271.721 1121.84 270.342C1119.33 268.932 1117.42 267.068 1116.11 264.749C1114.82 262.399 1114.18 259.814 1114.18 256.994C1114.18 254.644 1114.54 252.498 1115.26 250.555C1115.98 248.612 1117.14 246.905 1118.74 245.432C1120.37 243.928 1122.55 242.675 1125.27 241.672C1127.15 240.983 1129.39 240.372 1131.99 239.839C1134.59 239.306 1137.54 238.805 1140.83 238.335C1144.12 237.834 1147.74 237.285 1151.69 236.69L1147.08 239.228C1147.08 236.22 1146.36 234.011 1144.92 232.601C1143.48 231.191 1141.06 230.486 1137.68 230.486C1135.8 230.486 1133.84 230.94 1131.81 231.849C1129.77 232.758 1128.34 234.371 1127.53 236.69L1115.97 233.024C1117.25 228.825 1119.66 225.41 1123.2 222.778C1126.75 220.146 1131.57 218.83 1137.68 218.83C1142.16 218.83 1146.14 219.519 1149.62 220.898C1153.1 222.277 1155.73 224.658 1157.51 228.042C1158.52 229.922 1159.11 231.802 1159.3 233.682C1159.49 235.562 1159.58 237.661 1159.58 239.98V271H1148.4V260.566L1149.99 262.728C1147.52 266.143 1144.84 268.619 1141.96 270.154C1139.11 271.658 1135.49 272.41 1131.1 272.41ZM1133.83 262.352C1136.18 262.352 1138.15 261.945 1139.75 261.13C1141.38 260.284 1142.66 259.328 1143.6 258.263C1144.57 257.198 1145.23 256.305 1145.58 255.584C1146.23 254.205 1146.61 252.607 1146.7 250.79C1146.83 248.941 1146.89 247.406 1146.89 246.184L1150.65 247.124C1146.86 247.751 1143.79 248.283 1141.44 248.722C1139.09 249.129 1137.19 249.505 1135.75 249.85C1134.31 250.195 1133.04 250.571 1131.95 250.978C1130.69 251.479 1129.67 252.028 1128.89 252.623C1128.14 253.187 1127.58 253.814 1127.2 254.503C1126.85 255.192 1126.68 255.96 1126.68 256.806C1126.68 257.965 1126.96 258.968 1127.53 259.814C1128.12 260.629 1128.95 261.255 1130.02 261.694C1131.08 262.133 1132.35 262.352 1133.83 262.352ZM1167.95 271V220.24H1180.73V239.604H1201.6V220.24H1214.39V271H1201.6V251.542H1180.73V271H1167.95ZM1268.98 220.24V271H1256.76V239.98L1233.83 271H1223.67V220.24H1235.89V250.226L1258.92 220.24H1268.98ZM1301.98 272.41C1296.78 272.41 1292.19 271.298 1288.21 269.073C1284.27 266.817 1281.16 263.731 1278.91 259.814C1276.68 255.866 1275.57 251.354 1275.57 246.278C1275.57 240.732 1276.67 235.907 1278.86 231.802C1281.05 227.697 1284.08 224.517 1287.93 222.261C1291.79 219.974 1296.22 218.83 1301.23 218.83C1306.56 218.83 1311.09 220.083 1314.82 222.59C1318.54 225.097 1321.3 228.622 1323.09 233.165C1324.87 237.708 1325.5 243.051 1324.97 249.192H1312.32V244.492C1312.32 239.322 1311.49 235.609 1309.83 233.353C1308.2 231.066 1305.53 229.922 1301.8 229.922C1297.44 229.922 1294.23 231.254 1292.16 233.917C1290.12 236.549 1289.11 240.45 1289.11 245.62C1289.11 250.351 1290.12 254.017 1292.16 256.618C1294.23 259.187 1297.25 260.472 1301.23 260.472C1303.74 260.472 1305.89 259.924 1307.67 258.827C1309.46 257.73 1310.82 256.148 1311.76 254.08L1324.54 257.746C1322.63 262.383 1319.61 265.987 1315.47 268.556C1311.37 271.125 1306.87 272.41 1301.98 272.41ZM1285.16 249.192V239.698H1318.81V249.192H1285.16Z" fill="#DADADA"/>
<path d="M851.959 365L852.053 314.24H865.025V338.68L882.227 314.24H898.019L879.689 339.62L899.241 365H882.603L865.025 340.56V365H851.959ZM936.601 366.504C931.713 366.441 927.577 365.36 924.193 363.261C920.809 361.13 918.146 358.201 916.203 354.472C914.292 350.712 913.101 346.357 912.631 341.406C912.381 338.743 912.318 335.75 912.443 332.429C912.6 329.076 912.96 325.786 913.524 322.559C914.088 319.332 914.887 316.559 915.921 314.24C916.924 312.078 918.209 310.104 919.775 308.318C921.373 306.501 923.065 304.965 924.851 303.712C926.951 302.239 929.207 301.111 931.619 300.328C934.032 299.513 936.57 298.887 939.233 298.448C941.897 298.009 944.654 297.618 947.505 297.273C950.388 296.928 953.302 296.474 956.247 295.91L957.375 307.19C955.589 307.66 953.553 308.005 951.265 308.224C948.978 308.443 946.628 308.678 944.215 308.929C941.803 309.148 939.5 309.509 937.306 310.01C935.113 310.511 933.217 311.263 931.619 312.266C929.457 313.613 927.797 315.493 926.637 317.906C925.509 320.287 924.851 322.7 924.663 325.144C926.606 322.324 928.972 320.381 931.76 319.316C934.58 318.251 937.353 317.718 940.079 317.718C944.56 317.718 948.398 318.799 951.594 320.961C954.822 323.092 957.297 325.974 959.02 329.609C960.744 333.212 961.605 337.207 961.605 341.594C961.605 346.576 960.524 350.947 958.362 354.707C956.232 358.467 953.286 361.397 949.526 363.496C945.766 365.564 941.458 366.567 936.601 366.504ZM937.165 354.566C940.8 354.566 943.542 353.438 945.39 351.182C947.239 348.926 948.163 345.918 948.163 342.158C948.163 338.304 947.208 335.28 945.296 333.087C943.416 330.862 940.706 329.75 937.165 329.75C933.562 329.75 930.82 330.862 928.94 333.087C927.092 335.28 926.167 338.304 926.167 342.158C926.167 346.137 927.123 349.208 929.034 351.37C930.946 353.501 933.656 354.566 937.165 354.566ZM993.097 366.41C988.052 366.41 983.838 365.235 980.454 362.885C977.07 360.535 974.516 357.339 972.793 353.297C971.101 349.255 970.255 344.696 970.255 339.62C970.255 334.544 971.101 329.985 972.793 325.943C974.485 321.901 976.976 318.705 980.266 316.355C983.556 314.005 987.614 312.83 992.439 312.83C997.296 312.83 1001.53 313.989 1005.13 316.308C1008.73 318.627 1011.52 321.807 1013.49 325.849C1015.5 329.86 1016.5 334.45 1016.5 339.62C1016.5 344.696 1015.52 349.255 1013.54 353.297C1011.6 357.339 1008.87 360.535 1005.36 362.885C1001.85 365.235 997.766 366.41 993.097 366.41ZM968.093 387.56V314.24H979.373V349.02H980.971V387.56H968.093ZM991.029 355.036C993.786 355.036 996.042 354.347 997.797 352.968C999.552 351.589 1000.85 349.741 1001.7 347.422C1002.54 345.072 1002.97 342.471 1002.97 339.62C1002.97 336.8 1002.53 334.231 1001.65 331.912C1000.77 329.562 999.411 327.698 997.562 326.319C995.745 324.909 993.41 324.204 990.559 324.204C987.896 324.204 985.734 324.846 984.073 326.131C982.444 327.416 981.253 329.217 980.501 331.536C979.749 333.855 979.373 336.549 979.373 339.62C979.373 342.691 979.749 345.385 980.501 347.704C981.253 350.023 982.475 351.824 984.167 353.109C985.89 354.394 988.178 355.036 991.029 355.036ZM1046.68 366.41C1041.48 366.41 1036.89 365.298 1032.91 363.073C1028.96 360.817 1025.86 357.731 1023.6 353.814C1021.38 349.866 1020.27 345.354 1020.27 340.278C1020.27 334.732 1021.36 329.907 1023.56 325.802C1025.75 321.697 1028.77 318.517 1032.63 316.261C1036.48 313.974 1040.91 312.83 1045.93 312.83C1051.25 312.83 1055.78 314.083 1059.51 316.59C1063.24 319.097 1066 322.622 1067.78 327.165C1069.57 331.708 1070.19 337.051 1069.66 343.192H1057.02V338.492C1057.02 333.322 1056.19 329.609 1054.53 327.353C1052.9 325.066 1050.22 323.922 1046.49 323.922C1042.14 323.922 1038.92 325.254 1036.86 327.917C1034.82 330.549 1033.8 334.45 1033.8 339.62C1033.8 344.351 1034.82 348.017 1036.86 350.618C1038.92 353.187 1041.95 354.472 1045.93 354.472C1048.43 354.472 1050.58 353.924 1052.37 352.827C1054.15 351.73 1055.52 350.148 1056.46 348.08L1069.24 351.746C1067.33 356.383 1064.3 359.987 1060.17 362.556C1056.06 365.125 1051.57 366.41 1046.68 366.41ZM1029.85 343.192V333.698H1063.51V343.192H1029.85ZM1076.42 365V314.24H1089.2V333.604H1110.07V314.24H1122.86V365H1110.07V345.542H1089.2V365H1076.42ZM1128.48 376.28V355.13C1131.17 355.13 1133.08 354.19 1134.21 352.31C1135.37 350.43 1136.28 347.077 1136.94 342.252C1137.31 339.463 1137.63 336.534 1137.88 333.463C1138.16 330.392 1138.4 327.243 1138.58 324.016C1138.77 320.789 1138.94 317.53 1139.1 314.24H1178.3V355.13H1183.47V376.28H1171.44V365H1140.51V376.28H1128.48ZM1144.83 355.13H1165.51V324.11H1150.19C1150.1 325.833 1149.99 327.557 1149.86 329.28C1149.77 331.003 1149.64 332.711 1149.49 334.403C1149.36 336.095 1149.24 337.74 1149.11 339.338C1148.99 340.905 1148.85 342.409 1148.69 343.85C1148.41 346.607 1148.02 348.848 1147.51 350.571C1147.01 352.294 1146.12 353.814 1144.83 355.13ZM1203.16 366.41C1199.53 366.41 1196.44 365.721 1193.91 364.342C1191.4 362.932 1189.49 361.068 1188.17 358.749C1186.89 356.399 1186.24 353.814 1186.24 350.994C1186.24 348.644 1186.61 346.498 1187.33 344.555C1188.05 342.612 1189.21 340.905 1190.8 339.432C1192.43 337.928 1194.61 336.675 1197.34 335.672C1199.22 334.983 1201.46 334.372 1204.06 333.839C1206.66 333.306 1209.6 332.805 1212.89 332.335C1216.18 331.834 1219.8 331.285 1223.75 330.69L1219.14 333.228C1219.14 330.22 1218.42 328.011 1216.98 326.601C1215.54 325.191 1213.13 324.486 1209.74 324.486C1207.86 324.486 1205.91 324.94 1203.87 325.849C1201.83 326.758 1200.41 328.371 1199.59 330.69L1188.03 327.024C1189.32 322.825 1191.73 319.41 1195.27 316.778C1198.81 314.146 1203.63 312.83 1209.74 312.83C1214.23 312.83 1218.2 313.519 1221.68 314.898C1225.16 316.277 1227.79 318.658 1229.58 322.042C1230.58 323.922 1231.18 325.802 1231.36 327.682C1231.55 329.562 1231.65 331.661 1231.65 333.98V365H1220.46V354.566L1222.06 356.728C1219.58 360.143 1216.9 362.619 1214.02 364.154C1211.17 365.658 1207.55 366.41 1203.16 366.41ZM1205.89 356.352C1208.24 356.352 1210.21 355.945 1211.81 355.13C1213.44 354.284 1214.73 353.328 1215.67 352.263C1216.64 351.198 1217.3 350.305 1217.64 349.584C1218.3 348.205 1218.67 346.607 1218.77 344.79C1218.89 342.941 1218.96 341.406 1218.96 340.184L1222.72 341.124C1218.93 341.751 1215.85 342.283 1213.5 342.722C1211.15 343.129 1209.26 343.505 1207.82 343.85C1206.38 344.195 1205.11 344.571 1204.01 344.978C1202.76 345.479 1201.74 346.028 1200.96 346.623C1200.2 347.187 1199.64 347.814 1199.26 348.503C1198.92 349.192 1198.75 349.96 1198.75 350.806C1198.75 351.965 1199.03 352.968 1199.59 353.814C1200.19 354.629 1201.02 355.255 1202.08 355.694C1203.15 356.133 1204.42 356.352 1205.89 356.352ZM1240.01 365V314.24H1250.35L1268.03 347.14L1285.7 314.24H1296.04V365H1283.82V339.714L1270.28 365H1265.77L1252.23 339.714V365H1240.01ZM1307.54 365V352.216H1320.32V365H1307.54Z" fill="#DADADA"/>
<path d="M865.976 554.41C860.712 554.41 856.2 553.235 852.44 550.885C848.68 548.535 845.797 545.339 843.792 541.297C841.787 537.255 840.784 532.696 840.784 527.62C840.784 522.481 841.818 517.891 843.886 513.849C845.985 509.807 848.931 506.627 852.722 504.308C856.513 501.989 860.994 500.83 866.164 500.83C872.149 500.83 877.162 502.35 881.204 505.389C885.277 508.397 887.878 512.517 889.006 517.75L876.222 521.134C875.47 518.502 874.154 516.45 872.274 514.977C870.425 513.504 868.326 512.768 865.976 512.768C863.281 512.768 861.072 513.426 859.349 514.742C857.626 516.027 856.357 517.797 855.542 520.053C854.727 522.278 854.32 524.8 854.32 527.62C854.32 532.038 855.291 535.626 857.234 538.383C859.208 541.109 862.122 542.472 865.976 542.472C868.859 542.472 871.052 541.814 872.556 540.498C874.06 539.182 875.188 537.302 875.94 534.858L889.006 537.584C887.565 542.973 884.839 547.125 880.828 550.039C876.817 552.953 871.867 554.41 865.976 554.41ZM907.825 552.906V541.814L936.213 516.622C938.344 514.742 939.848 512.972 940.725 511.311C941.602 509.65 942.041 508.099 942.041 506.658C942.041 504.59 941.618 502.757 940.772 501.159C939.926 499.53 938.735 498.261 937.2 497.352C935.665 496.412 933.863 495.942 931.795 495.942C929.633 495.942 927.722 496.443 926.061 497.446C924.432 498.417 923.163 499.718 922.254 501.347C921.345 502.945 920.922 504.684 920.985 506.564H907.825C907.825 501.927 908.843 497.916 910.88 494.532C912.917 491.148 915.752 488.532 919.387 486.683C923.022 484.834 927.252 483.91 932.077 483.91C936.495 483.91 940.443 484.881 943.921 486.824C947.43 488.735 950.188 491.414 952.193 494.861C954.198 498.308 955.201 502.303 955.201 506.846C955.201 510.199 954.731 512.987 953.791 515.212C952.851 517.405 951.457 519.442 949.608 521.322C947.759 523.171 945.488 525.27 942.793 527.62L924.463 543.694L923.429 540.874H955.201V552.906H907.825ZM987.773 554.41C982.76 554.41 978.373 553.36 974.613 551.261C970.853 549.162 967.924 546.232 965.824 542.472C963.725 538.712 962.675 534.325 962.675 529.312V509.008C962.675 503.995 963.725 499.608 965.824 495.848C967.924 492.088 970.853 489.158 974.613 487.059C978.373 484.96 982.76 483.91 987.773 483.91C992.787 483.91 997.173 484.96 1000.93 487.059C1004.69 489.158 1007.62 492.088 1009.72 495.848C1011.82 499.608 1012.87 503.995 1012.87 509.008V529.312C1012.87 534.325 1011.82 538.712 1009.72 542.472C1007.62 546.232 1004.69 549.162 1000.93 551.261C997.173 553.36 992.787 554.41 987.773 554.41ZM987.773 542.284C990.029 542.284 992.066 541.751 993.883 540.686C995.701 539.621 997.142 538.179 998.207 536.362C999.273 534.545 999.805 532.508 999.805 530.252V507.974C999.805 505.718 999.273 503.681 998.207 501.864C997.142 500.047 995.701 498.605 993.883 497.54C992.066 496.475 990.029 495.942 987.773 495.942C985.517 495.942 983.481 496.475 981.663 497.54C979.846 498.605 978.405 500.047 977.339 501.864C976.274 503.681 975.741 505.718 975.741 507.974V530.252C975.741 532.508 976.274 534.545 977.339 536.362C978.405 538.179 979.846 539.621 981.663 540.686C983.481 541.751 985.517 542.284 987.773 542.284ZM1034.01 553V499.232L1021.32 507.034V492.934L1034.01 485.32H1047.07V553H1034.01ZM1081.3 554.41C1077.88 554.41 1074.67 553.705 1071.66 552.295C1068.69 550.885 1066.12 548.927 1063.95 546.42C1061.79 543.913 1060.24 540.999 1059.3 537.678L1071.61 534.388C1072.02 535.986 1072.74 537.365 1073.78 538.524C1074.84 539.683 1076.06 540.592 1077.44 541.25C1078.85 541.877 1080.29 542.19 1081.77 542.19C1083.71 542.19 1085.48 541.72 1087.08 540.78C1088.71 539.84 1089.99 538.571 1090.93 536.973C1091.9 535.375 1092.39 533.605 1092.39 531.662C1092.39 529.719 1091.9 527.949 1090.93 526.351C1089.99 524.753 1088.71 523.484 1087.08 522.544C1085.48 521.604 1083.71 521.134 1081.77 521.134C1079.39 521.134 1077.44 521.541 1075.94 522.356C1074.43 523.139 1073.31 523.891 1072.55 524.612L1061.74 521.322L1063.81 485.32H1100.75V497.258H1070.86L1075.37 493.028L1073.96 516.246L1071.8 513.614C1073.49 512.235 1075.42 511.233 1077.58 510.606C1079.75 509.979 1081.77 509.666 1083.65 509.666C1087.91 509.666 1091.65 510.622 1094.88 512.533C1098.14 514.413 1100.68 517.014 1102.49 520.335C1104.34 523.625 1105.27 527.401 1105.27 531.662C1105.27 535.923 1104.15 539.777 1101.93 543.224C1099.71 546.639 1096.78 549.365 1093.14 551.402C1089.51 553.407 1085.56 554.41 1081.3 554.41ZM1127.83 553V502.24H1164.49V514.178H1140.62V553H1127.83ZM1191.62 554.41C1186.51 554.41 1182.03 553.266 1178.18 550.979C1174.32 548.692 1171.32 545.543 1169.15 541.532C1167.02 537.49 1165.96 532.853 1165.96 527.62C1165.96 522.325 1167.05 517.672 1169.25 513.661C1171.44 509.619 1174.46 506.47 1178.32 504.214C1182.17 501.958 1186.61 500.83 1191.62 500.83C1196.73 500.83 1201.21 501.974 1205.06 504.261C1208.95 506.548 1211.97 509.713 1214.13 513.755C1216.29 517.766 1217.38 522.387 1217.38 527.62C1217.38 532.884 1216.28 537.537 1214.09 541.579C1211.92 545.59 1208.9 548.739 1205.01 551.026C1201.16 553.282 1196.7 554.41 1191.62 554.41ZM1191.62 542.472C1195.72 542.472 1198.78 541.093 1200.78 538.336C1202.82 535.547 1203.84 531.975 1203.84 527.62C1203.84 523.108 1202.81 519.505 1200.74 516.81C1198.7 514.115 1195.66 512.768 1191.62 512.768C1188.83 512.768 1186.54 513.395 1184.76 514.648C1182.97 515.901 1181.64 517.64 1180.76 519.865C1179.92 522.09 1179.49 524.675 1179.49 527.62C1179.49 532.163 1180.51 535.782 1182.55 538.477C1184.62 541.14 1187.64 542.472 1191.62 542.472ZM1220.19 564.28V543.13C1222.89 543.13 1224.8 542.19 1225.93 540.31C1227.08 538.43 1227.99 535.077 1228.65 530.252C1229.03 527.463 1229.34 524.534 1229.59 521.463C1229.87 518.392 1230.11 515.243 1230.3 512.016C1230.48 508.789 1230.66 505.53 1230.81 502.24H1270.01V543.13H1275.18V564.28H1263.15V553H1232.22V564.28H1220.19ZM1236.55 543.13H1257.23V512.11H1241.91C1241.81 513.833 1241.7 515.557 1241.58 517.28C1241.48 519.003 1241.36 520.711 1241.2 522.403C1241.08 524.095 1240.95 525.74 1240.82 527.338C1240.7 528.905 1240.56 530.409 1240.4 531.85C1240.12 534.607 1239.73 536.848 1239.23 538.571C1238.73 540.294 1237.83 541.814 1236.55 543.13ZM1294.88 554.41C1291.24 554.41 1288.16 553.721 1285.62 552.342C1283.11 550.932 1281.2 549.068 1279.88 546.749C1278.6 544.399 1277.96 541.814 1277.96 538.994C1277.96 536.644 1278.32 534.498 1279.04 532.555C1279.76 530.612 1280.92 528.905 1282.52 527.432C1284.15 525.928 1286.32 524.675 1289.05 523.672C1290.93 522.983 1293.17 522.372 1295.77 521.839C1298.37 521.306 1301.32 520.805 1304.61 520.335C1307.9 519.834 1311.52 519.285 1315.46 518.69L1310.86 521.228C1310.86 518.22 1310.14 516.011 1308.7 514.601C1307.25 513.191 1304.84 512.486 1301.46 512.486C1299.58 512.486 1297.62 512.94 1295.58 513.849C1293.55 514.758 1292.12 516.371 1291.31 518.69L1279.74 515.024C1281.03 510.825 1283.44 507.41 1286.98 504.778C1290.52 502.146 1295.35 500.83 1301.46 500.83C1305.94 500.83 1309.92 501.519 1313.4 502.898C1316.87 504.277 1319.51 506.658 1321.29 510.042C1322.29 511.922 1322.89 513.802 1323.08 515.682C1323.27 517.562 1323.36 519.661 1323.36 521.98V553H1312.17V542.566L1313.77 544.728C1311.3 548.143 1308.62 550.619 1305.73 552.154C1302.88 553.658 1299.26 554.41 1294.88 554.41ZM1297.6 544.352C1299.95 544.352 1301.93 543.945 1303.53 543.13C1305.15 542.284 1306.44 541.328 1307.38 540.263C1308.35 539.198 1309.01 538.305 1309.35 537.584C1310.01 536.205 1310.39 534.607 1310.48 532.79C1310.61 530.941 1310.67 529.406 1310.67 528.184L1314.43 529.124C1310.64 529.751 1307.57 530.283 1305.22 530.722C1302.87 531.129 1300.97 531.505 1299.53 531.85C1298.09 532.195 1296.82 532.571 1295.72 532.978C1294.47 533.479 1293.45 534.028 1292.67 534.623C1291.92 535.187 1291.35 535.814 1290.98 536.503C1290.63 537.192 1290.46 537.96 1290.46 538.806C1290.46 539.965 1290.74 540.968 1291.31 541.814C1291.9 542.629 1292.73 543.255 1293.8 543.694C1294.86 544.133 1296.13 544.352 1297.6 544.352Z" fill="#DADADA"/>
</svg>
